<svg xmlns="http://www.w3.org/2000/svg" width="501" height="189" fill="none" viewBox="0 0 501 189"><path stroke="#fff" stroke-linecap="round" stroke-linejoin="round" stroke-width="1.5" d="M1.383 93.333v91.133l165.401-20.949v-90.86z"/><path stroke="#fff" stroke-linecap="round" stroke-linejoin="round" stroke-width="1.5" d="M1.383 96.023v33.424l159.897-20.378a2.95 2.95 0 0 0 2.58-2.93V78.922a2.953 2.953 0 0 0-3.322-2.93zM1.383 152.477v28.804l159.897-20.326c1.475-.162 2.58-1.244 2.58-2.525v-23.455c0-1.532-1.559-2.717-3.322-2.525zM79.921 139.974c0-8.916-7.402-15.614-17.041-14.925-10.25.733-19.048 9.441-19.048 19.407zM119.952 135.013c0-8.916-7.402-15.614-17.041-14.925-10.25.733-19.048 9.441-19.048 19.407zM1.382 93.337s-2.573-5.955 2.664-9.243c5.237-3.29 23.63-17.54 23.63-17.54M29.672 72.195s-4.294-4.224.928-10.512c3.633-4.375 14.97-16.152 19.488-17.173 3.608-.816 4.974 1.27 4.974 1.27"/><path stroke="#fff" stroke-linecap="round" stroke-linejoin="round" stroke-width="1.5" d="M30.235 73.74s-2.801-4.872 2.07-10.23c4.873-5.36 21.62-18.47 26.005-19.04s4.385 2.445 4.385 2.445"/><path stroke="#fff" stroke-linecap="round" stroke-linejoin="round" stroke-width="1.5" d="M29.538 71.523s-.201-2.462 2.844-3.742 6.029-1.462 9.987-3.288c3.958-1.827 10.23-7.917 17.6-10.231 7.369-2.315 9.744-1.828 10.962 2.313"/><path stroke="#fff" stroke-linecap="round" stroke-linejoin="round" stroke-width="1.5" d="M66.423 52.617s.73-2.01-.913-3.47c-1.644-1.463-1.888-3.29-8.04-.975-6.15 2.314-13.701 8.648-15.406 10.08-1.705 1.43-7.84 4.67-9.378 5.693-1.54 1.024-2.956 3.536-3.096 4.666M31.528 73.734s-.365-2.786 3.715-3.7c4.08-.913 9.439-1.157 14.433-3.167s13.946-9.744 18.513-10.17 5.74.929 8.1 2.365"/><path stroke="#fff" stroke-linecap="round" stroke-linejoin="round" stroke-width="1.5" d="M62.01 45.33s-1.198-8.605 2.76-15.73 8.708-14.433 14.068-19.366 6.577-5.481 10.048-5.481 4.567-.304 9.257 5.298 13.154 14.311 15.712 17.721 5.237 5.472 3.654 16.62c-1.583 11.15-10.109 17.97-17.234 19.858s-16.26 3.167-19.73.365c-3.472-2.801-4.256-5.551-4.256-5.551"/><path stroke="#fff" stroke-linecap="round" stroke-linejoin="round" stroke-width="1.5" d="M85.209 10.125c-.07.091-.982.731-.982 1.781s1.118 1.21 1.462.457c.343-.754-.48-2.238-.48-2.238M92.804 11.086c.076.085 1.042.643 1.132 1.69s-1.01 1.303-1.417.58c-.406-.72.284-2.27.284-2.27zM96.57 18.898c.076.085 1.042.643 1.132 1.69s-1.01 1.303-1.417.581.284-2.27.284-2.27zM98.886 13.922c.076.085 1.042.643 1.132 1.69s-1.01 1.303-1.417.58c-.406-.72.284-2.27.284-2.27zM91.358 22.523c.053.101.856.875.692 1.913s-1.294 1.021-1.515.223.823-2.136.823-2.136M89.983 30.32c.053.101.856.875.692 1.913s-1.294 1.021-1.515.223.823-2.136.823-2.136M102.185 26.86c.069.09.982.73.982 1.78s-1.119 1.21-1.462.457.48-2.238.48-2.238M107.937 25.555c.072.047.886.26 1.16 1.004.274.743-.476 1.149-.915.705s-.245-1.71-.245-1.71M113.672 34.797c.058.064.788.48.86 1.27.072.789-.757.986-1.066.444s.206-1.714.206-1.714M113.09 40.945c.058.064.788.481.86 1.27.072.79-.757.986-1.066.444s.206-1.714.206-1.714M101.976 20.281c.082.08 1.085.566 1.251 1.604s-.914 1.372-1.371.682.12-2.286.12-2.286M93.358 37.203c.053.101.856.875.692 1.913s-1.294 1.021-1.515.223.823-2.136.823-2.136M97.776 54.555c.053.1.856.875.692 1.913s-1.294 1.02-1.515.223c-.221-.798.823-2.136.823-2.136M104.054 47.93c.041.106.748.969.463 1.98-.285 1.013-1.405.863-1.531.045s1.068-2.025 1.068-2.025M105.659 55.273c.041.106.748.97.463 1.981-.285 1.013-1.405.863-1.531.044-.126-.818 1.068-2.025 1.068-2.025M110.698 47.93c.041.106.748.969.463 1.98-.284 1.012-1.405.863-1.531.045s1.067-2.025 1.067-2.025zM107.694 40.25c.053.101.856.875.692 1.913s-1.294 1.021-1.515.223.823-2.136.823-2.136M108.17 31.71c.075.087 1.03.663 1.102 1.711s-1.033 1.284-1.427.556.325-2.266.325-2.266M87.592 42.328c.053.101.856.875.692 1.913s-1.294 1.021-1.515.223.823-2.136.823-2.136M85.854 51.844c.053.1.856.875.692 1.913s-1.294 1.02-1.515.223c-.221-.798.823-2.136.823-2.136M96.31 28.992c.073.088 1.016.683 1.066 1.733s-1.06 1.262-1.438.526.373-2.258.373-2.258zM100.959 35.5c.073.088 1.016.683 1.066 1.733s-1.06 1.262-1.438.526.373-2.258.373-2.258zM97.857 42.969c.073.088 1.016.683 1.066 1.733.05 1.049-1.06 1.262-1.438.526s.373-2.258.373-2.258zM79.853 15.508c-.069.09-.982.73-.982 1.78s1.12 1.21 1.462.458c.343-.754-.48-2.238-.48-2.238M87.732 16.375c-.069.091-.982.731-.982 1.781s1.119 1.21 1.462.457-.48-2.238-.48-2.238M82.4 21.578c-.069.091-.982.731-.982 1.781s1.119 1.21 1.462.457-.48-2.238-.48-2.238M78.775 29.875c-.069.091-.982.731-.982 1.781s1.119 1.21 1.462.457c.343-.754-.48-2.238-.48-2.238M72.505 34.492c-.069.091-.982.731-.982 1.781s1.12 1.21 1.462.457c.343-.753-.48-2.238-.48-2.238M67.162 37.21c-.07.092-.982.732-.982 1.782s1.119 1.21 1.462.457c.343-.754-.48-2.238-.48-2.238M72.505 42.96c-.069.092-.982.732-.982 1.782s1.12 1.21 1.462.457c.343-.753-.48-2.238-.48-2.238M83.947 35.5c-.07.091-.982.731-.982 1.781s1.119 1.21 1.462.457-.48-2.238-.48-2.238M78.002 38.563c-.07.09-.983.73-.983 1.78s1.12 1.21 1.462.457c.344-.753-.48-2.237-.48-2.237M80.627 45.219c-.07.09-.983.73-.983 1.78s1.12 1.21 1.463.458c.343-.753-.48-2.238-.48-2.238M79.556 54.547c-.047.104-.802.925-.576 1.95.226 1.027 1.353.943 1.526.133s-.95-2.083-.95-2.083M75.154 49.617c-.07.091-.982.731-.982 1.781s1.119 1.21 1.462.457c.343-.754-.48-2.238-.48-2.238M66.99 44.313c-.048.06-.693.486-.693 1.185s.79.806 1.032.305-.34-1.49-.34-1.49M92.283 48.625c-.07.091-.982.731-.982 1.781s1.119 1.21 1.462.457-.48-2.238-.48-2.238M84.439 27.172c-.069.09-.982.73-.982 1.78s1.119 1.21 1.462.458c.343-.753-.48-2.238-.48-2.238M76.047 25.242c-.08.082-1.069.596-1.207 1.637s.95 1.347 1.39.645c.438-.702-.183-2.282-.183-2.282M70.59 27.898c-.08.082-1.069.596-1.207 1.637s.95 1.348 1.39.645c.438-.701-.183-2.282-.183-2.282M75.112 19.766c-.07.07-.947.516-1.067 1.423s.845 1.175 1.232.564-.166-1.987-.166-1.987zM53.906 44.824l8.051-5.324M97.707 9.538s2.584-1.463 5.535-.732 3.449 1.644 3.449 1.644"/><path stroke="#fff" stroke-linecap="round" stroke-linejoin="round" stroke-width="1.5" d="M101.621 13.761s2.818-3.742 7.653-3.377 5.87 3.538 5.87 3.538M105.859 18.708s4.124-4.874 9.285-4.509 6.097 3.86 5.801 6.486"/><path stroke="#fff" stroke-linecap="round" stroke-linejoin="round" stroke-width="1.5" d="M110.371 23.672s3.54-4.926 9.843-2.985 1.964 8.876 1.964 8.876"/><path stroke="#fff" stroke-linecap="round" stroke-linejoin="round" stroke-width="1.5" d="M114.637 28.786s1.467-1.935 4.915-1c3.448.937 2.855 3.746 2.17 6.03s-3.899 1.992-3.899 1.992M117.984 41.272s5.254-5.114 8.725-5.765 4.75.765 4.75.765"/><path stroke="#fff" stroke-linecap="round" stroke-linejoin="round" stroke-width="1.5" d="M120.996 41.267s9.641-5.685 14.985-6.188c5.344-.502 7.719 2.124 7.719 2.124"/><path stroke="#fff" stroke-linecap="round" stroke-linejoin="round" stroke-width="1.5" d="M129.996 40.94c.137-.152 10.322-4.628 17.539-3.577 7.216 1.05 5.024 5.253 5.024 5.253"/><path stroke="#fff" stroke-linecap="round" stroke-linejoin="round" stroke-width="1.5" d="M126.527 47.64c.137 0 16.306-7.118 25.806-4.677 9.5 2.44 4.796 6.779 4.796 6.779"/><path stroke="#fff" stroke-linecap="round" stroke-linejoin="round" stroke-width="1.5" d="M125.203 55.276s7.618-5.408 19.229-6.218c11.784-.822 13.179.25 15.027 3.106 2.512 3.882-1.599 7.034-3.197 7.399"/><path stroke="#fff" stroke-linecap="round" stroke-linejoin="round" stroke-width="1.5" d="M133.117 57.267s6.12-4.635 14.89-2.17c8.769 2.467 8.678 4.705 8.45 6.898s-5.39 3.654-5.39 3.654M158.293 48.617c4.274 5.313 8.409 11.618 12.065 19.078V158.8s.898 1.401-3.574 4.72M122.25 22.078s11.666 3.343 24.849 14.853M170.36 67.695 6.96 88.005M398.904 53.489c0-13.123-21.92-23.762-48.961-23.762S300.98 40.365 300.98 53.489s21.922 23.762 48.963 23.762"/><path stroke="#fff" stroke-linecap="round" stroke-linejoin="round" stroke-width="1.5" d="M465.722 64.856c.747.083 1.465-.369 1.677-1.091a27.8 27.8 0 0 0 1.148-7.867C468.547 25.44 417.67.75 354.91.75S241.273 25.44 241.273 55.898c0 30.457 50.877 55.148 113.637 55.148 19.987 0 38.768-2.504 55.085-6.901.701-.189.882-1.101.313-1.553l-35.093-27.87a2.06 2.06 0 0 0-1.816-.375c-6.966 1.849-14.96 2.9-23.46 2.9-27.041 0-48.962-10.638-48.962-23.762s21.921-23.762 48.962-23.762 48.962 10.638 48.962 23.762q-.001 1.202-.241 2.374c-.172.843.455 1.643 1.31 1.738z"/><path stroke="#fff" stroke-linecap="round" stroke-linejoin="round" stroke-width="1.5" d="M376.731 75.925c-7.791 2.185-16.835 3.435-26.48 3.435-29.274 0-53.005-11.517-53.005-25.723s23.731-25.723 53.005-25.723 53.005 11.517 53.005 25.723c0 1.446-.246 2.864-.718 4.244v38.574"/><path stroke="#fff" stroke-linecap="round" stroke-linejoin="round" stroke-width="1.5" d="M379.061 77.771c-8.385 2.351-18.119 3.697-28.499 3.697-31.506 0-57.047-12.395-57.047-27.685s25.541-27.685 57.047-27.685 57.047 12.395 57.047 27.685c0 1.556-.265 3.082-.773 4.568l.186 41.626c-15.515 4.351-33.524 6.84-52.732 6.84-58.295 0-105.552-22.934-105.552-51.225 0-28.29 47.257-51.225 105.552-51.225s105.552 22.934 105.552 51.225c0 2.88-.489 5.703-1.43 8.452v50.753"/><path stroke="#fff" stroke-linecap="round" stroke-linejoin="round" stroke-width="1.5" d="M381.389 79.624c-8.98 2.518-19.402 3.96-30.519 3.96-33.738 0-61.089-13.274-61.089-29.648s27.35-29.647 61.089-29.647 61.089 13.273 61.089 29.647c0 1.666-.283 3.3-.828 4.892l-.508 44.649-.611 50.066a1.996 1.996 0 0 1-1.487 1.912c-15.971 4.155-34.227 6.512-53.617 6.512"/><path stroke="#fff" stroke-linecap="round" stroke-linejoin="round" stroke-width="1.5" d="M383.72 81.48c-9.574 2.684-20.686 4.22-32.538 4.22-35.971 0-65.131-14.152-65.131-31.608s29.16-31.608 65.131-31.608 65.131 14.152 65.131 31.608c0 1.777-.302 3.52-.882 5.215V110.3"/><path stroke="#fff" stroke-linecap="round" stroke-linejoin="round" stroke-width="1.5" d="M386.05 83.329c-10.168 2.85-21.97 4.483-34.557 4.483-38.203 0-69.173-15.03-69.173-33.57s30.97-33.57 69.173-33.57 69.173 15.03 69.173 33.57c0 1.887-.321 3.737-.937 5.539v50.994"/><path stroke="#fff" stroke-linecap="round" stroke-linejoin="round" stroke-width="1.5" d="M388.382 85.178c-10.762 3.018-23.254 4.745-36.577 4.745-40.436 0-73.215-15.908-73.215-35.532s32.78-35.532 73.215-35.532 73.215 15.908 73.215 35.532c0 1.997-.339 3.956-.992 5.863v50.966"/><path stroke="#fff" stroke-linecap="round" stroke-linejoin="round" stroke-width="1.5" d="M390.712 87.026c-11.356 3.184-24.538 5.007-38.596 5.007-42.668 0-77.257-16.786-77.257-37.493s34.589-37.493 77.257-37.493 77.257 16.786 77.257 37.493c0 2.107-.358 4.174-1.047 6.186v50.947"/><path stroke="#fff" stroke-linecap="round" stroke-linejoin="round" stroke-width="1.5" d="M393.04 88.875c-11.95 3.351-25.821 5.27-40.615 5.27-44.901 0-81.3-17.666-81.3-39.456s36.399-39.455 81.3-39.455 81.3 17.665 81.3 39.455c0 2.218-.377 4.392-1.101 6.51v50.902"/><path stroke="#fff" stroke-linecap="round" stroke-linejoin="round" stroke-width="1.5" d="M395.371 90.725c-12.544 3.518-27.105 5.53-42.635 5.53-47.133 0-85.341-18.542-85.341-41.416s38.208-41.417 85.341-41.417 85.342 18.543 85.342 41.417c0 2.328-.396 4.61-1.156 6.834v50.869"/><path stroke="#fff" stroke-linecap="round" stroke-linejoin="round" stroke-width="1.5" d="M397.702 92.58c-13.139 3.684-28.389 5.793-44.654 5.793-49.365 0-89.384-19.42-89.384-43.378s40.019-43.378 89.384-43.378 89.384 19.421 89.384 43.378a22 22 0 0 1-1.211 7.158v50.81"/><path stroke="#fff" stroke-linecap="round" stroke-linejoin="round" stroke-width="1.5" d="M400.033 94.43c-13.733 3.85-29.673 6.055-46.673 6.055-51.598 0-93.426-20.3-93.426-45.34s41.828-45.34 93.426-45.34 93.426 20.299 93.426 45.34c0 2.548-.433 5.047-1.266 7.48v50.896"/><path stroke="#fff" stroke-linecap="round" stroke-linejoin="round" stroke-width="1.5" d="M402.36 96.28c-14.327 4.017-30.957 6.316-48.693 6.316-53.83 0-97.468-21.178-97.468-47.302s43.638-47.302 97.468-47.302 97.468 21.178 97.468 47.302c0 2.66-.452 5.266-1.321 7.805v50.784"/><path stroke="#fff" stroke-linecap="round" stroke-linejoin="round" stroke-width="1.5" d="M404.691 98.128c-14.921 4.184-32.24 6.578-50.712 6.578-56.063 0-101.51-22.056-101.51-49.263S297.917 6.18 353.979 6.18s101.51 22.056 101.51 49.263c0 2.769-.471 5.484-1.375 8.129v50.773"/><path stroke="#fff" stroke-linecap="round" stroke-linejoin="round" stroke-width="1.5" d="M409.35 101.834c-16.109 4.517-34.808 7.102-54.751 7.102-60.527 0-109.595-23.812-109.595-53.187S294.071 2.563 354.599 2.563s109.595 23.812 109.595 53.186c0 2.99-.508 5.921-1.485 8.776v50.668"/><path stroke="#fff" stroke-linecap="round" stroke-linejoin="round" stroke-width="1.5" d="M241.273 55.898v50.923c0 30.458 50.877 55.148 113.637 55.148M410.625 109.834l56.03 5.794.629-51.589M398.904 56.96l-.439 35.973"/><path stroke="#fff" stroke-linecap="round" stroke-linejoin="round" stroke-width="1.5" d="M467.287 76.695c20.079 11.736 32.105 26.68 32.105 42.953 0 37.74-64.686 68.334-144.479 68.334s-144.479-30.594-144.479-68.334c0-15.907 11.491-30.544 30.761-42.156"/><path stroke="#fff" stroke-linecap="round" stroke-linejoin="round" stroke-width="1.5" d="M466.656 115.625s1.892-.824 1.892-61.055"/></svg>