<svg width="501" height="189" viewBox="0 0 501 189" fill="none" xmlns="http://www.w3.org/2000/svg">
<path d="M1.38281 93.3333V184.466L166.784 163.517V72.6562L1.38281 93.3333Z" stroke="white" stroke-width="1.5" stroke-linecap="round" stroke-linejoin="round"/>
<path d="M1.38281 96.0233V129.447L161.28 109.069C162.755 108.881 163.86 107.626 163.86 106.139V78.9224C163.86 77.1444 162.301 75.7703 160.538 75.9923L1.38281 96.0233Z" stroke="white" stroke-width="1.5" stroke-linecap="round" stroke-linejoin="round"/>
<path d="M1.38281 152.477V181.281L161.28 160.955C162.755 160.793 163.86 159.711 163.86 158.43V134.975C163.86 133.443 162.301 132.258 160.538 132.45L1.38281 152.477Z" stroke="white" stroke-width="1.5" stroke-linecap="round" stroke-linejoin="round"/>
<path d="M79.921 139.974C79.921 131.058 72.519 124.36 62.88 125.049C52.63 125.782 43.832 134.49 43.832 144.456L79.921 139.974Z" stroke="white" stroke-width="1.5" stroke-linecap="round" stroke-linejoin="round"/>
<path d="M119.952 135.013C119.952 126.097 112.55 119.399 102.911 120.088C92.6613 120.821 83.8633 129.529 83.8633 139.495L119.952 135.013Z" stroke="white" stroke-width="1.5" stroke-linecap="round" stroke-linejoin="round"/>
<path d="M1.38202 93.3367C1.38202 93.3367 -1.19098 87.3816 4.04602 84.0936C9.28302 80.8046 27.6751 66.5547 27.6751 66.5547" stroke="white" stroke-width="1.5" stroke-linecap="round" stroke-linejoin="round"/>
<path d="M29.6723 72.1946C29.6723 72.1946 25.3783 67.9706 30.6003 61.6826C34.2333 57.3076 45.5703 45.5306 50.0883 44.5096C53.6963 43.6936 55.0623 45.7806 55.0623 45.7806" stroke="white" stroke-width="1.5" stroke-linecap="round" stroke-linejoin="round"/>
<path d="M30.2349 73.7402C30.2349 73.7402 27.4338 68.8682 32.3058 63.5092C37.1778 58.1502 53.9249 45.0392 58.3099 44.4702C62.6949 43.9002 62.6949 46.9152 62.6949 46.9152" stroke="white" stroke-width="1.5" stroke-linecap="round" stroke-linejoin="round"/>
<path d="M29.5379 71.5225C29.5379 71.5225 29.3369 69.0605 32.3819 67.7815C35.4269 66.5025 38.4109 66.3195 42.3689 64.4925C46.3269 62.6655 52.5999 56.5755 59.9689 54.2615C67.3379 51.9475 69.7129 52.4345 70.9309 56.5755" stroke="white" stroke-width="1.5" stroke-linecap="round" stroke-linejoin="round"/>
<path d="M66.4229 52.6174C66.4229 52.6174 67.1538 50.6074 65.5098 49.1464C63.8658 47.6844 63.6218 45.8574 57.4708 48.1724C51.3198 50.4864 43.7688 56.8204 42.0638 58.2514C40.3588 59.6824 34.2249 62.9214 32.6859 63.9454C31.1469 64.9694 29.7298 67.4814 29.5898 68.6114" stroke="white" stroke-width="1.5" stroke-linecap="round" stroke-linejoin="round"/>
<path d="M31.5279 73.7338C31.5279 73.7338 31.1629 70.9478 35.2429 70.0338C39.3229 69.1208 44.682 68.8768 49.676 66.8668C54.67 64.8568 63.6219 57.1228 68.1889 56.6968C72.7559 56.2708 73.9289 57.6258 76.2889 59.0618" stroke="white" stroke-width="1.5" stroke-linecap="round" stroke-linejoin="round"/>
<path d="M62.0102 45.3299C62.0102 45.3299 60.8122 36.725 64.7702 29.6C68.7282 22.475 73.4782 15.1669 78.8382 10.2339C84.1972 5.30093 85.4152 4.75291 88.8862 4.75291C92.3572 4.75291 93.4532 4.44895 98.1432 10.0509C102.832 15.6539 111.297 24.362 113.855 27.772C116.413 31.182 119.092 33.2439 117.509 44.3929C115.926 55.5419 107.4 62.3619 100.275 64.2499C93.1502 66.1379 84.0152 67.4169 80.5442 64.6149C77.0732 61.8139 76.2892 59.0639 76.2892 59.0639" stroke="white" stroke-width="1.5" stroke-linecap="round" stroke-linejoin="round"/>
<path d="M85.2086 10.125C85.1396 10.216 84.2266 10.856 84.2266 11.906C84.2266 12.956 85.3455 13.116 85.6885 12.363C86.0315 11.609 85.2086 10.125 85.2086 10.125Z" stroke="white" stroke-width="1.5" stroke-linecap="round" stroke-linejoin="round"/>
<path d="M92.8036 11.0859C92.8796 11.1709 93.8456 11.7289 93.9356 12.7759C94.0256 13.8229 92.9256 14.0789 92.5186 13.3569C92.1126 12.6359 92.8026 11.0859 92.8026 11.0859H92.8036Z" stroke="white" stroke-width="1.5" stroke-linecap="round" stroke-linejoin="round"/>
<path d="M96.5696 18.8984C96.6456 18.9834 97.6116 19.5414 97.7016 20.5884C97.7916 21.6354 96.6916 21.8914 96.2846 21.1694C95.8776 20.4474 96.5686 18.8984 96.5686 18.8984H96.5696Z" stroke="white" stroke-width="1.5" stroke-linecap="round" stroke-linejoin="round"/>
<path d="M98.8856 13.9219C98.9616 14.0069 99.9276 14.5649 100.018 15.6119C100.108 16.6589 99.0076 16.9149 98.6006 16.1929C98.1946 15.4719 98.8846 13.9219 98.8846 13.9219H98.8856Z" stroke="white" stroke-width="1.5" stroke-linecap="round" stroke-linejoin="round"/>
<path d="M91.3576 22.5234C91.4106 22.6244 92.2136 23.3985 92.0496 24.4365C91.8856 25.4745 90.7556 25.4574 90.5346 24.6594C90.3136 23.8614 91.3576 22.5234 91.3576 22.5234Z" stroke="white" stroke-width="1.5" stroke-linecap="round" stroke-linejoin="round"/>
<path d="M89.9826 30.3203C90.0356 30.4213 90.8386 31.1953 90.6746 32.2333C90.5106 33.2713 89.3806 33.2543 89.1596 32.4563C88.9386 31.6583 89.9826 30.3203 89.9826 30.3203Z" stroke="white" stroke-width="1.5" stroke-linecap="round" stroke-linejoin="round"/>
<path d="M102.185 26.8594C102.254 26.9504 103.167 27.5904 103.167 28.6404C103.167 29.6914 102.048 29.8504 101.705 29.0974C101.362 28.3444 102.185 26.8594 102.185 26.8594Z" stroke="white" stroke-width="1.5" stroke-linecap="round" stroke-linejoin="round"/>
<path d="M107.937 25.5547C108.009 25.6017 108.823 25.8157 109.097 26.5587C109.371 27.3017 108.621 27.7077 108.182 27.2637C107.743 26.8197 107.937 25.5547 107.937 25.5547Z" stroke="white" stroke-width="1.5" stroke-linecap="round" stroke-linejoin="round"/>
<path d="M113.672 34.7969C113.73 34.8609 114.46 35.2779 114.532 36.0669C114.604 36.8559 113.775 37.0529 113.466 36.5109C113.157 35.9689 113.672 34.7969 113.672 34.7969Z" stroke="white" stroke-width="1.5" stroke-linecap="round" stroke-linejoin="round"/>
<path d="M113.09 40.9453C113.148 41.0093 113.878 41.4263 113.95 42.2153C114.022 43.0043 113.193 43.2013 112.884 42.6593C112.575 42.1173 113.09 40.9453 113.09 40.9453Z" stroke="white" stroke-width="1.5" stroke-linecap="round" stroke-linejoin="round"/>
<path d="M101.976 20.2812C102.058 20.3603 103.061 20.8473 103.227 21.8853C103.393 22.9233 102.313 23.2573 101.856 22.5673C101.399 21.8773 101.976 20.2812 101.976 20.2812Z" stroke="white" stroke-width="1.5" stroke-linecap="round" stroke-linejoin="round"/>
<path d="M93.3576 37.2031C93.4106 37.3041 94.2136 38.0781 94.0496 39.1161C93.8856 40.1541 92.7556 40.1371 92.5346 39.3391C92.3136 38.5411 93.3576 37.2031 93.3576 37.2031Z" stroke="white" stroke-width="1.5" stroke-linecap="round" stroke-linejoin="round"/>
<path d="M97.7756 54.5547C97.8286 54.6557 98.6316 55.4297 98.4676 56.4677C98.3036 57.5057 97.1736 57.4887 96.9526 56.6907C96.7316 55.8927 97.7756 54.5547 97.7756 54.5547Z" stroke="white" stroke-width="1.5" stroke-linecap="round" stroke-linejoin="round"/>
<path d="M104.054 47.9297C104.095 48.0357 104.802 48.8987 104.517 49.9107C104.232 50.9227 103.112 50.7727 102.986 49.9547C102.86 49.1367 104.054 47.9297 104.054 47.9297Z" stroke="white" stroke-width="1.5" stroke-linecap="round" stroke-linejoin="round"/>
<path d="M105.659 55.2734C105.7 55.3794 106.407 56.2425 106.122 57.2545C105.837 58.2665 104.717 58.1165 104.591 57.2985C104.465 56.4805 105.659 55.2734 105.659 55.2734Z" stroke="white" stroke-width="1.5" stroke-linecap="round" stroke-linejoin="round"/>
<path d="M110.698 47.9297C110.739 48.0357 111.446 48.8987 111.161 49.9107C110.877 50.9217 109.756 50.7727 109.63 49.9547C109.504 49.1367 110.697 47.9297 110.697 47.9297H110.698Z" stroke="white" stroke-width="1.5" stroke-linecap="round" stroke-linejoin="round"/>
<path d="M107.694 40.25C107.747 40.351 108.55 41.125 108.386 42.163C108.222 43.201 107.092 43.184 106.871 42.386C106.65 41.588 107.694 40.25 107.694 40.25Z" stroke="white" stroke-width="1.5" stroke-linecap="round" stroke-linejoin="round"/>
<path d="M108.17 31.7109C108.245 31.7969 109.2 32.373 109.272 33.421C109.344 34.469 108.239 34.7049 107.845 33.9769C107.451 33.2489 108.17 31.7109 108.17 31.7109Z" stroke="white" stroke-width="1.5" stroke-linecap="round" stroke-linejoin="round"/>
<path d="M87.592 42.3281C87.645 42.4291 88.448 43.2031 88.284 44.2411C88.12 45.2791 86.99 45.2622 86.769 44.4642C86.548 43.6662 87.592 42.3281 87.592 42.3281Z" stroke="white" stroke-width="1.5" stroke-linecap="round" stroke-linejoin="round"/>
<path d="M85.8537 51.8438C85.9067 51.9448 86.7097 52.7187 86.5457 53.7567C86.3817 54.7947 85.2517 54.7777 85.0307 53.9797C84.8097 53.1817 85.8537 51.8438 85.8537 51.8438Z" stroke="white" stroke-width="1.5" stroke-linecap="round" stroke-linejoin="round"/>
<path d="M96.3104 28.9922C96.3834 29.0802 97.3264 29.6752 97.3764 30.7252C97.4264 31.7752 96.3164 31.9872 95.9384 31.2512C95.5604 30.5152 96.3114 28.9932 96.3114 28.9932L96.3104 28.9922Z" stroke="white" stroke-width="1.5" stroke-linecap="round" stroke-linejoin="round"/>
<path d="M100.959 35.5C101.032 35.588 101.975 36.183 102.025 37.233C102.075 38.283 100.965 38.495 100.587 37.759C100.209 37.023 100.96 35.501 100.96 35.501L100.959 35.5Z" stroke="white" stroke-width="1.5" stroke-linecap="round" stroke-linejoin="round"/>
<path d="M97.8573 42.9688C97.9303 43.0567 98.8733 43.6518 98.9233 44.7018C98.9733 45.7508 97.8633 45.9638 97.4853 45.2278C97.1073 44.4918 97.8583 42.9698 97.8583 42.9698L97.8573 42.9688Z" stroke="white" stroke-width="1.5" stroke-linecap="round" stroke-linejoin="round"/>
<path d="M79.8531 15.5078C79.7841 15.5988 78.8711 16.2388 78.8711 17.2888C78.8711 18.3388 79.9901 18.4988 80.3331 17.7458C80.6761 16.9918 79.8531 15.5078 79.8531 15.5078Z" stroke="white" stroke-width="1.5" stroke-linecap="round" stroke-linejoin="round"/>
<path d="M87.732 16.375C87.663 16.466 86.75 17.106 86.75 18.156C86.75 19.206 87.869 19.366 88.212 18.613C88.555 17.86 87.732 16.375 87.732 16.375Z" stroke="white" stroke-width="1.5" stroke-linecap="round" stroke-linejoin="round"/>
<path d="M82.4 21.5781C82.331 21.6691 81.418 22.3091 81.418 23.3591C81.418 24.4091 82.5369 24.5692 82.8799 23.8162C83.2229 23.0632 82.4 21.5781 82.4 21.5781Z" stroke="white" stroke-width="1.5" stroke-linecap="round" stroke-linejoin="round"/>
<path d="M78.775 29.875C78.706 29.966 77.793 30.606 77.793 31.656C77.793 32.706 78.9119 32.866 79.2549 32.113C79.5979 31.359 78.775 29.875 78.775 29.875Z" stroke="white" stroke-width="1.5" stroke-linecap="round" stroke-linejoin="round"/>
<path d="M72.5054 34.4922C72.4364 34.5832 71.5234 35.2232 71.5234 36.2732C71.5234 37.3232 72.6424 37.4832 72.9854 36.7302C73.3284 35.9772 72.5054 34.4922 72.5054 34.4922Z" stroke="white" stroke-width="1.5" stroke-linecap="round" stroke-linejoin="round"/>
<path d="M67.1617 37.2109C67.0927 37.3019 66.1797 37.9419 66.1797 38.9919C66.1797 40.0419 67.2987 40.2019 67.6417 39.4489C67.9847 38.6949 67.1617 37.2109 67.1617 37.2109Z" stroke="white" stroke-width="1.5" stroke-linecap="round" stroke-linejoin="round"/>
<path d="M72.5054 42.9609C72.4364 43.0519 71.5234 43.6919 71.5234 44.7419C71.5234 45.7919 72.6424 45.9519 72.9854 45.1989C73.3284 44.4459 72.5054 42.9609 72.5054 42.9609Z" stroke="white" stroke-width="1.5" stroke-linecap="round" stroke-linejoin="round"/>
<path d="M83.9468 35.5C83.8778 35.591 82.9648 36.231 82.9648 37.281C82.9648 38.331 84.0838 38.491 84.4268 37.738C84.7698 36.985 83.9468 35.5 83.9468 35.5Z" stroke="white" stroke-width="1.5" stroke-linecap="round" stroke-linejoin="round"/>
<path d="M78.0015 38.5625C77.9325 38.6535 77.0195 39.2935 77.0195 40.3435C77.0195 41.3935 78.1385 41.5535 78.4815 40.8005C78.8245 40.0465 78.0015 38.5625 78.0015 38.5625Z" stroke="white" stroke-width="1.5" stroke-linecap="round" stroke-linejoin="round"/>
<path d="M80.6266 45.2188C80.5576 45.3097 79.6445 45.9498 79.6445 46.9998C79.6445 48.0498 80.7636 48.2098 81.1066 47.4568C81.4496 46.7038 80.6266 45.2188 80.6266 45.2188Z" stroke="white" stroke-width="1.5" stroke-linecap="round" stroke-linejoin="round"/>
<path d="M79.5556 54.5469C79.5086 54.6509 78.7536 55.4719 78.9796 56.4979C79.2056 57.5239 80.3326 57.4399 80.5056 56.6299C80.6786 55.8199 79.5556 54.5469 79.5556 54.5469Z" stroke="white" stroke-width="1.5" stroke-linecap="round" stroke-linejoin="round"/>
<path d="M75.1539 49.6172C75.0849 49.7082 74.1719 50.3482 74.1719 51.3982C74.1719 52.4482 75.2909 52.6082 75.6339 51.8552C75.9769 51.1012 75.1539 49.6172 75.1539 49.6172Z" stroke="white" stroke-width="1.5" stroke-linecap="round" stroke-linejoin="round"/>
<path d="M66.9899 44.3125C66.9419 44.3735 66.2969 44.7995 66.2969 45.4985C66.2969 46.1975 67.0869 46.3045 67.3289 45.8025C67.5709 45.3005 66.9899 44.3125 66.9899 44.3125Z" stroke="white" stroke-width="1.5" stroke-linecap="round" stroke-linejoin="round"/>
<path d="M92.2828 48.625C92.2138 48.716 91.3008 49.356 91.3008 50.406C91.3008 51.456 92.4198 51.616 92.7628 50.863C93.1058 50.11 92.2828 48.625 92.2828 48.625Z" stroke="white" stroke-width="1.5" stroke-linecap="round" stroke-linejoin="round"/>
<path d="M84.439 27.1719C84.37 27.2629 83.457 27.9029 83.457 28.9529C83.457 30.0029 84.576 30.1629 84.919 29.4099C85.262 28.6569 84.439 27.1719 84.439 27.1719Z" stroke="white" stroke-width="1.5" stroke-linecap="round" stroke-linejoin="round"/>
<path d="M76.0472 25.2422C75.9672 25.3242 74.9781 25.8382 74.8401 26.8792C74.7021 27.9202 75.7901 28.2262 76.2291 27.5242C76.6681 26.8222 76.0472 25.2422 76.0472 25.2422Z" stroke="white" stroke-width="1.5" stroke-linecap="round" stroke-linejoin="round"/>
<path d="M70.5901 27.8984C70.5101 27.9804 69.5211 28.4945 69.3831 29.5355C69.2451 30.5765 70.3331 30.8825 70.7721 30.1805C71.2111 29.4785 70.5901 27.8984 70.5901 27.8984Z" stroke="white" stroke-width="1.5" stroke-linecap="round" stroke-linejoin="round"/>
<path d="M75.1124 19.7656C75.0414 19.8366 74.1654 20.2816 74.0454 21.1886C73.9254 22.0956 74.8904 22.3636 75.2774 21.7526C75.6644 21.1416 75.1114 19.7656 75.1114 19.7656H75.1124Z" stroke="white" stroke-width="1.5" stroke-linecap="round" stroke-linejoin="round"/>
<path d="M53.9062 44.824L61.9573 39.5" stroke="white" stroke-width="1.5" stroke-linecap="round" stroke-linejoin="round"/>
<path d="M97.707 9.53813C97.707 9.53813 100.291 8.07514 103.242 8.80614C106.193 9.53714 106.691 10.4501 106.691 10.4501" stroke="white" stroke-width="1.5" stroke-linecap="round" stroke-linejoin="round"/>
<path d="M101.621 13.7614C101.621 13.7614 104.439 10.0194 109.274 10.3844C114.109 10.7494 115.144 13.9224 115.144 13.9224" stroke="white" stroke-width="1.5" stroke-linecap="round" stroke-linejoin="round"/>
<path d="M105.859 18.7082C105.859 18.7082 109.983 13.8342 115.144 14.1992C120.305 14.5642 121.241 18.0582 120.945 20.6852" stroke="white" stroke-width="1.5" stroke-linecap="round" stroke-linejoin="round"/>
<path d="M110.371 23.6723C110.371 23.6723 113.911 18.7463 120.214 20.6873C126.517 22.6283 122.178 29.5633 122.178 29.5633" stroke="white" stroke-width="1.5" stroke-linecap="round" stroke-linejoin="round"/>
<path d="M114.637 28.786C114.637 28.786 116.104 26.8509 119.552 27.7869C123 28.7229 122.407 31.5319 121.722 33.8159C121.037 36.0999 117.823 35.8079 117.823 35.8079" stroke="white" stroke-width="1.5" stroke-linecap="round" stroke-linejoin="round"/>
<path d="M117.984 41.2721C117.984 41.2721 123.238 36.1581 126.709 35.5071C130.18 34.8561 131.459 36.2721 131.459 36.2721" stroke="white" stroke-width="1.5" stroke-linecap="round" stroke-linejoin="round"/>
<path d="M120.996 41.2674C120.996 41.2674 130.637 35.5824 135.981 35.0794C141.325 34.5774 143.7 37.2034 143.7 37.2034" stroke="white" stroke-width="1.5" stroke-linecap="round" stroke-linejoin="round"/>
<path d="M129.996 40.9408C130.133 40.7878 140.318 36.3118 147.535 37.3628C154.751 38.4138 152.559 42.6158 152.559 42.6158" stroke="white" stroke-width="1.5" stroke-linecap="round" stroke-linejoin="round"/>
<path d="M126.527 47.6408C126.664 47.6408 142.833 40.5219 152.333 42.9629C161.833 45.4029 157.129 49.7418 157.129 49.7418" stroke="white" stroke-width="1.5" stroke-linecap="round" stroke-linejoin="round"/>
<path d="M125.203 55.2758C125.203 55.2758 132.821 49.8678 144.432 49.0578C156.216 48.2358 157.611 49.3078 159.459 52.1638C161.971 56.0458 157.86 59.1978 156.262 59.5628" stroke="white" stroke-width="1.5" stroke-linecap="round" stroke-linejoin="round"/>
<path d="M133.117 57.2668C133.117 57.2668 139.237 52.6318 148.007 55.0978C156.776 57.5638 156.685 59.8018 156.457 61.9948C156.229 64.1878 151.067 65.6488 151.067 65.6488" stroke="white" stroke-width="1.5" stroke-linecap="round" stroke-linejoin="round"/>
<path d="M158.293 48.6172C162.567 53.9302 166.702 60.2352 170.358 67.6952V158.799C170.358 158.799 171.256 160.2 166.784 163.519" stroke="white" stroke-width="1.5" stroke-linecap="round" stroke-linejoin="round"/>
<path d="M122.25 22.0781C122.25 22.0781 133.916 25.4212 147.099 36.9312" stroke="white" stroke-width="1.5" stroke-linecap="round" stroke-linejoin="round"/>
<path d="M170.36 67.6953L6.96094 88.0043" stroke="white" stroke-width="1.5" stroke-linecap="round" stroke-linejoin="round"/>
<path d="M398.904 53.4886C398.904 40.3656 376.984 29.7266 349.943 29.7266C322.902 29.7266 300.98 40.3646 300.98 53.4886C300.98 66.6126 322.902 77.2505 349.943 77.2505" stroke="white" stroke-width="1.5" stroke-linecap="round" stroke-linejoin="round"/>
<path d="M465.722 64.856C466.469 64.939 467.187 64.487 467.399 63.765C468.155 61.195 468.547 58.5689 468.547 55.8979C468.547 25.4399 417.67 0.75 354.91 0.75C292.15 0.75 241.273 25.4409 241.273 55.8979C241.273 86.3549 292.15 111.046 354.91 111.046C374.897 111.046 393.678 108.542 409.995 104.145C410.696 103.956 410.877 103.044 410.308 102.592L375.215 74.722C374.702 74.315 374.032 74.179 373.399 74.347C366.433 76.196 358.439 77.2469 349.939 77.2469C322.898 77.2469 300.977 66.609 300.977 53.485C300.977 40.361 322.898 29.723 349.939 29.723C376.98 29.723 398.901 40.361 398.901 53.485C398.901 54.286 398.819 55.0779 398.66 55.8589C398.488 56.7019 399.115 57.502 399.97 57.597L465.721 64.855L465.722 64.856Z" stroke="white" stroke-width="1.5" stroke-linecap="round" stroke-linejoin="round"/>
<path d="M376.731 75.925C368.94 78.11 359.896 79.36 350.251 79.36C320.977 79.36 297.246 67.8431 297.246 53.6371C297.246 39.4311 320.977 27.9141 350.251 27.9141C379.525 27.9141 403.256 39.4311 403.256 53.6371C403.256 55.0831 403.01 56.501 402.538 57.881V96.4551" stroke="white" stroke-width="1.5" stroke-linecap="round" stroke-linejoin="round"/>
<path d="M379.061 77.7712C370.676 80.1222 360.942 81.4682 350.562 81.4682C319.056 81.4682 293.515 69.0732 293.515 53.7832C293.515 38.4932 319.056 26.0982 350.562 26.0982C382.068 26.0982 407.609 38.4932 407.609 53.7832C407.609 55.3392 407.344 56.8652 406.836 58.3512L407.022 99.9772C391.507 104.328 373.498 106.817 354.29 106.817C295.995 106.817 248.738 83.8832 248.738 55.5922C248.738 27.3012 295.995 4.36719 354.29 4.36719C412.585 4.36719 459.842 27.3012 459.842 55.5922C459.842 58.4712 459.353 61.2952 458.412 64.0442V114.797" stroke="white" stroke-width="1.5" stroke-linecap="round" stroke-linejoin="round"/>
<path d="M381.389 79.624C372.409 82.142 361.987 83.5831 350.87 83.5831C317.132 83.5831 289.781 70.31 289.781 53.936C289.781 37.562 317.131 24.2891 350.87 24.2891C384.609 24.2891 411.959 37.562 411.959 53.936C411.959 55.602 411.676 57.2361 411.131 58.8281L410.623 103.477L410.012 153.543C410.001 154.443 409.395 155.229 408.525 155.455C392.554 159.61 374.298 161.967 354.908 161.967" stroke="white" stroke-width="1.5" stroke-linecap="round" stroke-linejoin="round"/>
<path d="M383.72 81.4794C374.146 84.1644 363.034 85.7004 351.182 85.7004C315.211 85.7004 286.051 71.5483 286.051 54.0923C286.051 36.6363 315.211 22.4844 351.182 22.4844C387.153 22.4844 416.313 36.6363 416.313 54.0923C416.313 55.8693 416.011 57.6114 415.431 59.3074V110.3" stroke="white" stroke-width="1.5" stroke-linecap="round" stroke-linejoin="round"/>
<path d="M386.05 83.3289C375.882 86.1799 364.08 87.8119 351.493 87.8119C313.29 87.8119 282.32 72.7819 282.32 54.2419C282.32 35.7019 313.29 20.6719 351.493 20.6719C389.696 20.6719 420.666 35.7019 420.666 54.2419C420.666 56.1289 420.345 57.9789 419.729 59.7809V110.775" stroke="white" stroke-width="1.5" stroke-linecap="round" stroke-linejoin="round"/>
<path d="M388.382 85.1784C377.62 88.1964 365.128 89.9234 351.805 89.9234C311.369 89.9234 278.59 74.0154 278.59 54.3914C278.59 34.7674 311.37 18.8594 351.805 18.8594C392.24 18.8594 425.02 34.7674 425.02 54.3914C425.02 56.3884 424.681 58.3474 424.028 60.2544V111.22" stroke="white" stroke-width="1.5" stroke-linecap="round" stroke-linejoin="round"/>
<path d="M390.712 87.0259C379.356 90.2099 366.174 92.0329 352.116 92.0329C309.448 92.0329 274.859 75.2469 274.859 54.5399C274.859 33.8329 309.448 17.0469 352.116 17.0469C394.784 17.0469 429.373 33.8329 429.373 54.5399C429.373 56.6469 429.015 58.7139 428.326 60.7259V111.673" stroke="white" stroke-width="1.5" stroke-linecap="round" stroke-linejoin="round"/>
<path d="M393.04 88.8754C381.09 92.2264 367.219 94.1443 352.425 94.1443C307.524 94.1443 271.125 76.4794 271.125 54.6894C271.125 32.8994 307.524 15.2344 352.425 15.2344C397.326 15.2344 433.725 32.8994 433.725 54.6894C433.725 56.9074 433.348 59.0813 432.624 61.1993V112.101" stroke="white" stroke-width="1.5" stroke-linecap="round" stroke-linejoin="round"/>
<path d="M395.371 90.7249C382.827 94.2429 368.266 96.2559 352.736 96.2559C305.603 96.2559 267.395 77.7129 267.395 54.8389C267.395 31.9649 305.603 13.4219 352.736 13.4219C399.869 13.4219 438.078 31.9649 438.078 54.8389C438.078 57.1669 437.682 59.4499 436.922 61.6729V112.542" stroke="white" stroke-width="1.5" stroke-linecap="round" stroke-linejoin="round"/>
<path d="M397.702 92.5802C384.563 96.2642 369.313 98.3732 353.048 98.3732C303.683 98.3732 263.664 78.9522 263.664 54.9952C263.664 31.0382 303.683 11.6172 353.048 11.6172C402.413 11.6172 442.432 31.0382 442.432 54.9952C442.432 57.4332 442.018 59.8242 441.221 62.1532V112.963" stroke="white" stroke-width="1.5" stroke-linecap="round" stroke-linejoin="round"/>
<path d="M400.033 94.4297C386.3 98.2807 370.36 100.485 353.36 100.485C301.762 100.485 259.934 80.1857 259.934 55.1447C259.934 30.1037 301.762 9.80469 353.36 9.80469C404.958 9.80469 446.786 30.1037 446.786 55.1447C446.786 57.6927 446.353 60.1917 445.52 62.6257V113.521" stroke="white" stroke-width="1.5" stroke-linecap="round" stroke-linejoin="round"/>
<path d="M402.36 96.2792C388.033 100.297 371.403 102.596 353.667 102.596C299.837 102.596 256.199 81.4182 256.199 55.2942C256.199 29.1702 299.837 7.99219 353.667 7.99219C407.497 7.99219 451.135 29.1702 451.135 55.2942C451.135 57.9532 450.683 60.5602 449.814 63.0992V113.883" stroke="white" stroke-width="1.5" stroke-linecap="round" stroke-linejoin="round"/>
<path d="M404.691 98.1277C389.77 102.312 372.451 104.706 353.979 104.706C297.916 104.706 252.469 82.6497 252.469 55.4427C252.469 28.2357 297.917 6.17969 353.979 6.17969C410.041 6.17969 455.489 28.2357 455.489 55.4427C455.489 58.2117 455.018 60.9267 454.114 63.5717V114.345" stroke="white" stroke-width="1.5" stroke-linecap="round" stroke-linejoin="round"/>
<path d="M409.35 101.834C393.241 106.351 374.542 108.936 354.599 108.936C294.072 108.936 245.004 85.1245 245.004 55.7495C245.004 26.3745 294.071 2.5625 354.599 2.5625C415.127 2.5625 464.194 26.3745 464.194 55.7495C464.194 58.7385 463.686 61.6705 462.709 64.5255V115.193" stroke="white" stroke-width="1.5" stroke-linecap="round" stroke-linejoin="round"/>
<path d="M241.273 55.8984V106.821C241.273 137.279 292.15 161.969 354.91 161.969" stroke="white" stroke-width="1.5" stroke-linecap="round" stroke-linejoin="round"/>
<path d="M410.625 109.834L466.655 115.628L467.284 64.0391" stroke="white" stroke-width="1.5" stroke-linecap="round" stroke-linejoin="round"/>
<path d="M398.904 56.9609L398.465 92.9329" stroke="white" stroke-width="1.5" stroke-linecap="round" stroke-linejoin="round"/>
<path d="M467.287 76.6953C487.366 88.4313 499.392 103.375 499.392 119.648C499.392 157.388 434.706 187.982 354.913 187.982C275.12 187.982 210.434 157.388 210.434 119.648C210.434 103.741 221.925 89.1043 241.195 77.4923" stroke="white" stroke-width="1.5" stroke-linecap="round" stroke-linejoin="round"/>
<path d="M466.656 115.625C466.656 115.625 468.548 114.801 468.548 54.5703" stroke="white" stroke-width="1.5" stroke-linecap="round" stroke-linejoin="round"/>
</svg>
