<svg width="399" height="190" viewBox="0 0 399 190" fill="none" xmlns="http://www.w3.org/2000/svg">
<path d="M1.00781 188.211H1.95941" stroke="white" stroke-width="1.98257" stroke-linecap="round" stroke-linejoin="round"/>
<path d="M5.28516 188.211H395.044" stroke="white" stroke-width="1.98257" stroke-linecap="round" stroke-linejoin="round" stroke-dasharray="1.9 3.32"/>
<path d="M396.699 188.211H397.651" stroke="white" stroke-width="1.98257" stroke-linecap="round" stroke-linejoin="round"/>
<path d="M263.462 99.1188C263.168 97.5274 262.832 95.9374 262.736 94.3183C262.641 92.7164 262.798 91.1132 262.891 89.5152C262.978 88.0138 263.008 86.5043 262.854 85.0068C262.702 83.5411 262.347 82.115 261.899 80.714C261.39 79.1239 260.772 77.5722 260.219 75.9967C259.828 74.8825 259.417 73.7088 259.408 72.514C259.397 71.269 259.779 70.09 259.578 68.8397C259.33 67.2827 258.727 65.7905 258.197 64.3141C257.93 63.5687 257.686 62.814 257.42 62.0672C257.222 61.5081 256.979 60.8063 256.396 60.5393C255.32 60.0476 253.755 60.9636 252.834 61.4394C249.837 62.9885 247.027 64.9591 244.19 66.7752C241.426 68.5436 238.665 70.312 235.789 71.8981C232.865 73.5106 229.841 74.9473 226.742 76.1884C223.66 77.4229 220.511 78.5013 217.297 79.3433C214.036 80.1984 210.723 80.8091 207.372 81.1831C206.591 81.2704 205.807 81.3417 205.023 81.4091" stroke="white" stroke-width="1.98257" stroke-linecap="round" stroke-linejoin="round"/>
<path d="M289.176 35.2972C289.848 33.776 290.425 32.2084 290.819 30.5907C291.2 29.0205 292.118 27.5533 293.463 26.6347C294.407 25.9897 295.943 25.4862 296.909 26.3823C298.061 27.4503 297.282 29.7395 296.617 30.8656C295.87 32.1278 294.649 33.1164 293.422 33.8896C292.821 34.2689 292.167 34.6205 291.467 34.7778C290.882 34.9087 290.241 34.7897 289.674 34.9879C289.029 35.214 288.676 35.9158 288.359 36.4736C287.983 37.1331 287.625 37.8072 287.163 38.4099C286.343 39.4792 285.222 40.2762 284.049 40.9159C281.274 42.4306 278.147 43.3412 275.049 43.8976C272.386 44.3761 268.375 45.033 267.046 41.9587C266.494 40.678 266.367 39.2135 266.277 37.8363C266.199 36.6507 266.077 35.099 266.749 34.0376C267.515 32.823 269.226 33.242 270.335 33.6861C271.839 34.2901 273.13 35.2946 274.591 35.9819C275.8 36.5502 276.873 36.3784 278.125 36.044C279.559 35.6607 281.026 35.1704 282.259 34.3218C283.544 33.4403 284.361 32.1318 285.138 30.8153C285.903 29.5174 286.691 28.2089 286.38 26.648C286.133 25.4042 285.45 24.1949 285.528 22.8983C285.6 21.7127 286.471 20.7611 287.132 19.8491C287.587 19.2226 287.95 18.5631 288.075 17.7899C288.199 17.0193 288.116 16.2316 288.008 15.465C287.89 14.6217 287.743 13.6569 287.201 12.967C286.794 12.4502 286.211 12.2968 285.581 12.3193C284.034 12.3735 282.555 13.0766 281.067 13.4348C279.967 13.7005 278.809 13.8419 277.691 13.5987C276.445 13.3265 275.434 12.5427 274.333 11.9439C273.684 11.5924 273.047 11.3888 272.311 11.3439C271.73 11.3082 271.071 11.3399 270.664 10.8495C269.873 9.89527 270.045 8.10833 270.187 6.97695C270.328 5.83763 270.612 4.40491 271.502 3.58942C272.231 2.92063 273.293 3.04489 274.206 3.05546C274.765 3.06207 275.311 3.029 275.855 2.89815C277.268 2.55847 278.552 1.8091 279.984 1.53022C281.568 1.22226 283.192 1.45754 284.789 1.46415C286.27 1.46943 287.698 1.02398 289.173 1.00811C290.393 0.994898 291.545 1.41657 292.623 1.95979C293.992 2.64972 295.382 3.50352 296.537 4.51463C297.742 5.56804 298.237 6.97035 298.58 8.48767C298.963 10.1795 299.255 11.8686 299.729 13.5393C300.156 15.0407 300.253 16.459 300.007 18.0027C299.782 19.4156 299.365 20.8021 298.827 22.1264C298.245 23.5565 297.5 24.906 296.626 26.1775" stroke="white" stroke-width="1.98257" stroke-linecap="round" stroke-linejoin="round"/>
<path d="M267.091 33.6319C266.945 32.0366 266.938 30.4347 266.942 28.8341C266.946 27.3802 267.019 26.0691 267.594 24.7197C267.846 24.1289 268.054 23.5513 268.104 22.905C268.167 22.0974 268.081 21.2806 268.051 20.473C267.994 18.9253 268.327 17.478 268.83 16.0242C269.411 14.3377 270.118 12.6723 271.063 11.1562" stroke="white" stroke-width="1.98257" stroke-linecap="round" stroke-linejoin="round"/>
<path d="M275.719 43.7723C276.316 44.7583 276.906 45.7483 277.91 46.3722C278.617 46.811 279.438 47.0529 280.253 47.1943C282.335 47.5577 284.55 47.3 286.526 46.5678C288.423 45.866 290.07 44.6658 291.47 43.2199C292.838 41.807 294.02 40.1548 294.831 38.3573C295.554 36.754 295.778 35.3001 295.189 33.615C295.094 33.3427 294.995 33.0705 294.901 32.7969" stroke="white" stroke-width="1.98257" stroke-linecap="round" stroke-linejoin="round"/>
<path d="M277.68 123.995C279.262 123.991 280.843 123.987 282.423 123.982C285.878 123.973 289.332 123.963 292.787 123.954C296.238 123.945 299.688 123.936 303.137 123.926C304.666 123.922 306.197 123.932 307.727 123.913C310.391 123.881 313.053 123.762 315.713 123.647C315.89 123.639 316.067 123.632 316.246 123.625" stroke="white" stroke-width="1.98257" stroke-linecap="round" stroke-linejoin="round"/>
<path d="M311.958 109.269C312.786 112.211 313.615 115.153 314.444 118.095C315.066 120.306 315.717 122.533 316.682 124.623C317.771 126.977 319.095 129.187 320.044 131.61C321.05 134.179 321.898 136.803 322.73 139.431C323.606 142.199 324.398 144.996 325.229 147.777C325.951 150.19 326.662 152.606 327.464 154.995C327.866 156.192 328.298 157.387 328.815 158.541C329.184 159.364 329.674 160.648 330.569 161.028C331.383 161.374 332.525 160.867 333.314 160.642C334.661 160.258 336.002 159.852 337.365 159.528C338.643 159.225 339.936 159.038 341.235 158.851C342.144 158.72 343.24 158.633 344.028 158.111C344.911 157.526 344.582 156.384 344.334 155.536C343.98 154.327 343.576 153.14 343.28 151.915C342.713 149.574 342.279 147.198 341.898 144.82C341.365 141.481 340.832 138.143 340.298 134.804C339.911 132.383 339.459 129.973 339.008 127.562C338.503 124.865 337.928 122.179 337.354 119.496C336.811 116.958 336.227 114.427 335.557 111.92C334.868 109.337 333.962 106.863 332.95 104.392C332.065 102.225 331.202 100.107 329.423 98.5099C327.649 96.9186 325.438 95.7846 323.223 94.9427C321.15 94.1549 319.037 93.7492 316.816 93.8205C314.349 93.8999 311.868 94.3162 309.498 95.0008C308.314 95.3432 307.148 95.7634 306.035 96.2961" stroke="white" stroke-width="1.98257" stroke-linecap="round" stroke-linejoin="round"/>
<path d="M317.024 93.8209C317.244 91.4855 316.741 89.2095 316.65 86.878C316.605 85.7466 316.517 84.6641 316.25 83.5591C315.977 82.4317 315.647 81.3162 315.471 80.1676C315.272 78.8671 315.245 77.5546 315.256 76.2422" stroke="white" stroke-width="1.98257" stroke-linecap="round" stroke-linejoin="round"/>
<path d="M253.588 110.709C253.11 109.334 252.716 107.968 252.123 106.634C251.634 105.537 250.999 104.351 250.919 103.131C250.842 101.974 251.753 101.506 252.75 101.266C254.206 100.918 255.716 100.805 257.187 100.536C260.139 99.995 263.057 99.2654 265.945 98.4526C268.977 97.5987 271.971 96.6141 274.992 95.7193C276.397 95.3029 277.811 94.9183 279.249 94.6328C280.772 94.3301 282.313 94.12 283.83 93.7856C284.939 93.5411 286.457 93.2278 287.144 92.226C287.452 91.7779 287.558 91.236 287.767 90.743C287.993 90.2104 288.373 89.8258 288.825 89.4729C289.893 88.6375 290.88 87.9093 291.601 86.7369C292.324 85.5593 292.821 84.2626 293.328 82.9832C293.926 81.4778 294.498 79.9605 295.162 78.4828C295.766 77.1413 296.511 75.8724 297.144 74.5455C298.453 71.8082 299.1 68.7933 299.877 65.8763C300.233 64.5427 300.705 63.2871 301.239 62.017C301.75 60.7997 302.079 59.5149 302.34 58.2223C302.473 57.5601 302.582 56.8953 302.67 56.2266" stroke="white" stroke-width="1.98257" stroke-linecap="round" stroke-linejoin="round"/>
<path d="M250.941 103.344C249.082 103.668 247.23 104.035 245.378 104.393C243.503 104.755 241.613 105.074 239.753 105.509C236.614 106.241 232.534 107.621 231.559 111.096C231.096 112.74 231.272 114.531 231.512 116.197C231.642 117.091 231.781 117.988 231.958 118.875C232.092 119.551 232.305 120.213 232.897 120.621C234.051 121.414 235.783 121.414 237.122 121.392C238.717 121.367 240.357 121.159 241.832 120.519C243.32 119.873 244.441 118.739 245.614 117.651C246.733 116.614 247.946 115.841 249.367 115.283C249.764 115.128 250.166 114.989 250.567 114.851" stroke="white" stroke-width="1.98257" stroke-linecap="round" stroke-linejoin="round"/>
<path d="M166.418 93.7812C166.417 96.3084 166.443 98.8368 166.889 101.331C167.313 103.707 168.13 105.956 169.147 108.138C170.226 110.451 171.484 112.674 172.608 114.964C173.481 116.749 174.445 118.711 174.286 120.755C174.143 122.585 172.859 124.155 172.934 126.012C172.978 127.094 173.463 128.454 174.646 128.711C175.785 128.96 177.07 128.542 178.217 128.47C179.347 128.398 180.506 128.426 181.619 128.191C182.454 128.015 183.208 127.641 183.421 126.749C183.658 125.751 183.407 124.645 183.283 123.651C183.142 122.517 183.127 121.405 183.217 120.264C183.317 119.001 183.467 117.737 183.349 116.47C183.243 115.326 182.97 114.206 182.662 113.102C181.945 110.541 181.216 107.994 180.552 105.418C180.41 104.864 180.262 104.313 180.116 103.759" stroke="white" stroke-width="1.98257" stroke-linecap="round" stroke-linejoin="round"/>
<path d="M183.391 117.208C185.311 117.714 188.212 117.443 189.449 115.698C190.405 114.349 191.209 112.847 192.082 111.445C192.841 110.226 193.581 108.997 194.242 107.722C195.072 106.118 195.782 104.461 196.458 102.789" stroke="white" stroke-width="1.98257" stroke-linecap="round" stroke-linejoin="round"/>
<path d="M190.738 113.598C190.495 116.448 191.229 119.509 192.402 122.098C192.883 123.162 193.568 124.237 194.718 124.646C195.804 125.034 197.038 124.895 198.158 124.767C199.651 124.595 201.153 124.414 202.636 124.164C203.72 123.981 205.066 123.759 205.881 122.948C206.386 122.444 206.579 121.674 206.338 120.996C206.136 120.425 205.655 120.069 205.118 119.831C203.989 119.332 202.732 119.196 201.608 118.677C200.499 118.167 199.473 117.282 199.057 116.108C198.73 115.186 198.938 114.248 199.203 113.342C199.592 112.021 199.921 110.788 199.925 109.4C199.929 107.972 199.773 106.547 199.777 105.117C199.782 102.411 200.587 99.8814 201.508 97.3649C202.582 94.432 203.667 91.5216 204.334 88.4619C204.911 85.8237 205.376 82.9636 204.881 80.2739C204.648 79.0011 204.145 77.8684 203.547 76.729C202.972 75.6373 202.788 74.4292 202.822 73.2027C202.834 72.7414 202.88 72.2788 202.977 71.8281" stroke="white" stroke-width="1.98257" stroke-linecap="round" stroke-linejoin="round"/>
<path d="M203.755 68.7792C202.861 67.9928 201.12 66.5918 202.122 65.2939C202.799 64.4176 204.074 63.959 205.142 63.8056C206.49 63.6113 207.756 64.1176 208.206 65.4789C208.486 66.3288 208.496 67.3742 208.05 68.1712C207.607 68.9616 206.698 69.3396 205.833 69.444C204.987 69.5458 204.391 69.3291 203.755 68.7792Z" stroke="white" stroke-width="1.98257" stroke-linecap="round" stroke-linejoin="round"/>
<path d="M184.852 67.0469C187.852 68.5999 191.035 69.7141 194.279 70.634C195.869 71.0847 197.481 71.4971 199.116 71.7443C200.517 71.9557 201.992 72.072 203.386 71.7509C204.926 71.3953 206.251 70.4582 207.054 69.0837" stroke="white" stroke-width="1.98257" stroke-linecap="round" stroke-linejoin="round"/>
<path d="M207.525 64.343C206.962 62.9129 205.857 61.8581 204.707 60.8853C203.456 59.8253 202.056 58.76 201.998 56.9757C201.944 55.3196 202.619 53.7574 202.865 52.1422C203.144 50.3156 203.44 48.5062 203.826 46.6981C204.565 43.2325 205.885 39.7565 205.424 36.1641C205.245 34.775 204.85 32.7527 203.485 32.0218C201.69 31.0609 200.03 32.7752 199.165 34.1577C198.165 35.7583 197.405 37.5029 196.48 39.1458C196.021 39.9613 195.544 40.7689 195.017 41.5421C194.572 42.1924 194.081 42.9075 193.409 43.3436C192.316 44.056 190.61 44.0507 189.361 43.8987C187.817 43.7097 186.798 42.8361 185.815 41.6743C183.467 38.8961 180.8 36.0716 177.584 34.2886C176.893 33.9053 176.045 33.4744 175.233 33.5973C174.341 33.7334 173.934 34.5992 173.704 35.379C173.231 36.9783 173.223 38.7348 173.296 40.3882C173.375 42.1977 173.607 44.0309 174.124 45.7703C174.624 47.4528 175.614 48.9794 176.017 50.6831C176.314 51.9387 176.018 53.2208 175.675 54.4341C175.133 56.3453 174.554 58.2432 174.14 60.1874C173.758 61.9836 173.699 63.8513 173.179 65.6171C172.692 67.2785 171.79 68.8037 170.76 70.1849C169.632 71.6996 168.294 73.0887 166.75 74.1857C165.263 75.2417 163.588 75.8775 161.864 76.4366C160.27 76.9547 158.585 77.4212 157.231 78.4535C155.893 79.4739 154.924 80.9119 153.917 82.2362C152.842 83.6478 151.675 84.9418 150.287 86.0533C148.909 87.157 147.416 88.1179 145.91 89.0365C142.64 91.0309 138.981 92.8416 136.337 95.6807C133.731 98.4774 132.949 102.116 132.88 105.837C132.846 107.736 132.979 109.645 133.269 111.523C133.509 113.084 133.808 114.777 134.561 116.183C135.43 117.802 137.178 118.193 138.849 118.479C140.718 118.797 142.617 118.936 144.509 119.047C148.494 119.28 152.488 119.368 156.478 119.502C160.299 119.63 164.12 119.741 167.939 119.918C170.059 120.017 172.179 120.115 174.299 120.214" stroke="white" stroke-width="1.98257" stroke-linecap="round" stroke-linejoin="round"/>
<path d="M208.191 65.4341C209.21 65.068 210.237 64.723 211.296 64.4865C212.302 64.2618 213.316 64.1917 214.339 64.1045C215.371 64.0172 216.328 63.8164 217.266 63.367C218.259 62.8912 219.201 62.3281 220.215 61.8959C222.362 60.9826 224.508 60.1512 226.57 59.0463C228.552 57.9849 230.444 56.769 232.253 55.4341C234.123 54.0542 235.928 52.595 237.851 51.2878C238.67 50.7314 239.423 50.1379 240.068 49.3806C240.773 48.5559 241.409 47.6743 242.13 46.8641C243.607 45.208 245.406 43.9286 247.265 42.7364C249.171 41.5138 251.156 40.4208 253.077 39.222C254.938 38.0602 256.713 36.7213 258.751 35.8741C260.76 35.0387 262.929 34.5511 265.099 34.4057C265.591 34.3726 266.082 34.3607 266.575 34.3594" stroke="white" stroke-width="1.98257" stroke-linecap="round" stroke-linejoin="round"/>
<path d="M295.927 31.8047C297.818 32.9903 299.704 34.156 301.695 35.1711C303.842 36.2668 306.02 37.3017 308.179 38.3749C310.187 39.3728 312.221 40.3562 314.137 41.5233C315.795 42.533 317.445 43.7265 318.523 45.3721C319.44 46.7757 319.754 48.4225 319.791 50.0786C319.843 52.4247 319.433 54.776 319.148 57.0956C318.882 59.2619 318.76 61.4441 318.493 63.6104C318.225 65.7912 317.792 67.9508 317.226 70.0735C316.631 72.3072 315.903 74.5039 315.094 76.6702C314.3 78.7981 313.426 80.8957 312.513 82.9747C311.605 85.0445 310.658 87.0984 309.676 89.1339C308.637 91.2909 307.552 93.4254 306.438 95.5441C305.393 97.5333 304.297 99.5027 303.117 101.417C302.125 103.025 301.077 104.803 299.555 105.971C298.085 107.099 296.143 107.502 294.37 107.884C292.222 108.346 290.048 108.693 287.883 109.065C285.522 109.472 283.159 109.911 280.772 110.136C278.826 110.32 276.86 110.369 274.984 109.75C273.931 109.402 272.929 108.916 271.883 108.547C270.891 108.197 269.865 107.935 268.83 107.741C266.764 107.354 264.64 107.217 262.544 107.388C260.31 107.569 258.078 108.104 256.065 109.106C254.145 110.061 252.456 111.459 251.339 113.305C250.265 115.076 249.695 117.155 249.661 119.223C249.63 121.24 250.178 123.141 251.176 124.886C252.247 126.76 253.666 128.406 254.946 130.135C256.303 131.973 257.477 133.928 258.666 135.875C259.869 137.844 261.053 139.824 262.386 141.712C263.58 143.402 264.903 144.996 266.25 146.567C267.856 148.442 269.5 150.289 271.014 152.24C272.339 153.949 273.52 155.743 274.478 157.684C274.971 158.685 275.428 159.703 275.925 160.701C276.356 161.564 276.844 162.538 277.625 163.14C278.517 163.828 279.646 163.645 280.63 163.292C281.705 162.908 282.713 162.346 283.74 161.856C285.632 160.95 287.589 160.375 289.623 159.89C290.752 159.621 291.897 159.381 293.003 159.027C293.67 158.813 294.893 158.476 294.989 157.628C295.09 156.739 294.159 155.66 293.737 154.964C293.129 153.968 292.546 152.955 291.969 151.939C290.854 149.972 289.785 147.979 288.803 145.942C287.715 143.689 286.689 141.402 285.634 139.132C284.717 137.157 283.742 135.209 282.769 133.26C281.742 131.204 280.683 129.164 279.581 127.148C278.666 125.472 277.72 123.701 276.293 122.399C274.849 121.082 273.007 120.082 271.134 119.54" stroke="white" stroke-width="1.98257" stroke-linecap="round" stroke-linejoin="round"/>
<path d="M284.696 187.945C282.477 187.308 280.101 184.785 281.178 182.351C281.691 181.192 282.658 180.295 283.415 179.299C284.066 178.444 284.501 177.515 284.633 176.442C284.939 173.969 283.844 171.534 284.218 169.071C284.53 167.012 286.106 165.444 288.2 165.276C290.709 165.075 293.295 166.072 295.608 166.915C296.894 167.384 298.24 167.807 299.402 168.547C300.447 169.214 301.169 170.165 301.808 171.209C302.521 172.374 303.135 173.64 304.071 174.648C304.896 175.538 306.284 176.316 306.1 177.711C305.959 178.777 305.258 179.766 304.568 180.554C303.765 181.471 302.8 182.223 301.737 182.818C299.297 184.186 296.52 184.888 293.931 185.912C291.44 186.897 288.737 188.244 285.989 188.139C285.551 188.123 285.118 188.062 284.698 187.945H284.696Z" stroke="white" stroke-width="1.98257" stroke-linecap="round" stroke-linejoin="round"/>
<path d="M284.901 167.203C284.063 165.634 283.196 164.091 282.25 162.586" stroke="white" stroke-width="1.98257" stroke-linecap="round" stroke-linejoin="round"/>
<path d="M292.91 159.062C293.954 160.052 295.095 161.013 295.916 162.208C296.501 163.061 296.832 164.035 296.966 165.056C297.071 165.845 297.063 166.64 297.027 167.433" stroke="white" stroke-width="1.98257" stroke-linecap="round" stroke-linejoin="round"/>
<path d="M334.737 187.903C333.752 187.784 332.54 187.685 331.745 187.025C331.04 186.441 330.942 185.469 330.937 184.613C330.929 183.376 331.109 182.142 331.175 180.909C331.241 179.697 331.25 178.482 331.201 177.269C331.153 176.029 330.999 174.8 330.912 173.563C330.855 172.747 330.821 171.854 331.145 171.084C331.913 169.258 334.679 169.135 336.343 168.989C338.598 168.791 340.981 168.663 343.208 169.149C344.197 169.365 345.246 169.739 345.792 170.651C346.307 171.513 346.343 172.598 346.447 173.568C346.696 175.877 347.577 177.929 348.47 180.053C349.211 181.819 350.056 183.818 349.793 185.778C349.616 187.096 348.783 187.692 347.547 187.916C346.414 188.122 345.241 188.152 344.093 188.186C341.595 188.263 339.085 188.235 336.591 188.067C335.973 188.025 335.353 187.973 334.736 187.906L334.737 187.903Z" stroke="white" stroke-width="1.98257" stroke-linecap="round" stroke-linejoin="round"/>
<path d="M344.577 169.591C344.678 166.695 344.229 163.822 343.037 161.174C342.676 160.372 342.323 159.572 342.051 158.734" stroke="white" stroke-width="1.98257" stroke-linecap="round" stroke-linejoin="round"/>
<path d="M331.703 170.287C331.557 169.124 331.436 167.957 331.426 166.784C331.417 165.568 331.527 164.353 331.528 163.137C331.529 162.46 331.503 161.785 331.469 161.109" stroke="white" stroke-width="1.98257" stroke-linecap="round" stroke-linejoin="round"/>
<path d="M199.332 155.158V124.617" stroke="white" stroke-width="1.98257" stroke-linecap="round" stroke-linejoin="round"/>
<path d="M163.344 75.9375C162.786 78.7792 162.974 82.02 164.249 84.6529C165.534 87.3042 167.788 89.3436 169.212 91.9156C169.861 93.088 170.263 94.3092 170.374 95.6442C170.48 96.9064 170.358 98.2361 170.755 99.4573C171.106 100.538 171.864 101.428 172.532 102.324C173.208 103.227 173.845 104.2 174.149 105.298C174.456 106.407 174.268 107.483 173.324 108.228C172.531 108.855 171.515 109.2 170.534 109.394C170.295 109.442 170.054 109.479 169.812 109.505" stroke="white" stroke-width="1.98257" stroke-linecap="round" stroke-linejoin="round"/>
<path d="M175.113 56.3849C175.734 57.1951 176.342 57.9234 176.584 58.9398C176.847 60.0487 176.859 61.2184 176.953 62.3485C177.117 64.3469 177.429 66.5146 179.33 67.6169C180.789 68.4628 182.696 68.5209 184.316 68.2235C185.193 68.0623 186.044 67.7689 186.739 67.1966C187.574 66.5093 188.21 65.6647 189.146 65.0924C191.15 63.8658 193.456 63.1257 195.121 61.3942C196.573 59.8848 197.552 57.6392 196.895 55.5483C196.236 53.4507 194.29 52.051 193.601 49.9825C193.35 49.2265 193.184 47.7277 194.252 47.5242C195.018 47.3775 195.883 47.9273 196.451 48.3886C198.159 49.7764 198.43 51.8673 198.785 53.9081C198.942 54.8108 199.151 55.7215 199.639 56.5092C200.142 57.3221 200.875 57.9605 201.652 58.5024C202.097 58.813 202.564 59.0905 203.029 59.3694" stroke="white" stroke-width="1.98257" stroke-linecap="round" stroke-linejoin="round"/>
<path d="M199.332 167.952V155.156" stroke="white" stroke-width="1.98257" stroke-linecap="round" stroke-linejoin="round"/>
<path d="M204.543 119.614C208.123 119.283 211.712 119.066 215.304 118.886C218.556 118.723 221.81 118.601 225.064 118.509C227.328 118.446 229.593 118.384 231.857 118.32" stroke="white" stroke-width="1.98257" stroke-linecap="round" stroke-linejoin="round"/>
<path d="M183.328 118.875C185.453 118.991 187.577 119.106 189.7 119.253C190.276 119.293 190.854 119.332 191.43 119.373" stroke="white" stroke-width="1.98257" stroke-linecap="round" stroke-linejoin="round"/>
<path d="M22.332 136.185C22.336 132.931 24.4851 130.22 26.8866 128.241C29.7931 125.846 33.2811 124.178 36.7876 122.862C40.5584 121.445 44.4786 120.438 48.4424 119.736C52.3296 119.047 56.2683 118.675 60.2043 118.426C64.1642 118.176 68.1372 118.053 72.1037 117.986C75.1634 117.933 78.2258 117.88 81.2869 117.883C84.8397 117.884 88.3937 117.887 91.9465 117.89C97.7462 117.893 103.546 117.896 109.347 117.9C115.041 117.904 120.735 117.907 126.429 117.911C129.664 117.912 132.9 117.915 136.135 117.916C136.285 117.916 136.434 117.916 136.583 117.916" stroke="white" stroke-width="1.98257" stroke-linecap="round" stroke-linejoin="round"/>
<path d="M327.523 155.148H293.855" stroke="white" stroke-width="1.98257" stroke-linecap="round" stroke-linejoin="round"/>
<path d="M344.569 167.95H381.75C384.544 167.95 387.337 167.952 390.132 167.95C392.71 167.948 395.746 167.759 396.84 165.002C397.404 163.579 397.502 161.972 397.57 160.458C397.613 159.479 397.632 158.501 397.632 157.52C397.632 154.121 397.634 150.721 397.636 147.322C397.637 141.982 397.64 136.644 397.641 131.304C397.642 126.842 397.644 122.38 397.645 117.916C397.645 115.529 397.642 113.142 397.634 110.755C397.629 108.999 397.636 107.241 397.57 105.484C397.518 104.14 397.592 102.34 396.795 101.176C396.026 100.049 394.446 99.8657 393.197 99.9027C391.549 99.9516 389.853 100.361 388.364 101.069C385.57 102.394 383.278 104.878 381.527 107.376C379.588 110.141 378.407 113.342 377.658 116.617C376.886 119.993 376.532 123.469 376.4 126.926C376.286 129.896 376.319 132.869 376.319 135.839V154.619C376.319 154.721 376.371 154.997 376.319 155.088C376.256 155.199 376.12 155.153 375.952 155.153H344.219" stroke="white" stroke-width="1.98257" stroke-linecap="round" stroke-linejoin="round"/>
<path d="M298.305 167.953H331.469" stroke="white" stroke-width="1.98257" stroke-linecap="round" stroke-linejoin="round"/>
<path d="M273.078 155.155H24.6031C23.9171 155.155 23.2325 155.158 22.5479 155.155C22.4633 155.155 22.3668 155.175 22.3284 155.126C22.2478 155.022 22.3284 154.522 22.3284 154.396V132.029C22.3284 130.041 22.3166 128.053 22.2069 126.068C22.0641 123.454 21.8117 120.845 21.3306 118.269C20.8614 115.759 20.1847 113.277 19.1365 110.941C18.1135 108.659 16.6993 106.618 15.0089 104.781C13.4466 103.081 11.6424 101.545 9.45895 100.72C8.30509 100.284 7.0654 100.009 5.83489 99.9247C4.82907 99.8546 3.73329 99.9009 2.81603 100.364C1.88422 100.833 1.49968 101.688 1.32257 102.674C1.10449 103.888 1.08329 105.141 1.05289 106.373C1.01852 107.774 1.02118 109.175 1.02118 110.578C1.02118 113.425 1.01855 116.272 1.01723 119.119C1.01591 123.037 1.01323 126.956 1.01191 130.875C1.01058 134.832 1.00798 138.79 1.00666 142.747C1.00666 145.71 1.00403 148.672 1.00271 151.635C1.00271 152.903 1 154.169 1.00529 155.437C1.01586 158.067 0.900938 160.778 1.3675 163.377C1.56312 164.469 1.90276 165.599 2.68389 166.421C3.46634 167.246 4.57922 167.603 5.67492 167.777C6.68471 167.937 7.70905 167.949 8.73073 167.949H284.512" stroke="white" stroke-width="1.98257" stroke-linecap="round" stroke-linejoin="round"/>
<path d="M245.152 118.072L249.744 118.016" stroke="white" stroke-width="1.98257" stroke-linecap="round" stroke-linejoin="round"/>
<path d="M337.117 118.352C340.301 118.55 343.481 118.777 346.645 119.193C349.791 119.607 352.924 120.183 355.99 121.004C359.04 121.822 362.045 122.818 364.922 124.129C367.649 125.371 370.328 126.883 372.547 128.919C374.401 130.618 375.997 132.802 376.281 135.366C376.311 135.64 376.326 135.916 376.327 136.191" stroke="white" stroke-width="1.98257" stroke-linecap="round" stroke-linejoin="round"/>
<path d="M259.109 66.9328L244.438 66.6328" stroke="white" stroke-width="1.98257" stroke-linecap="round" stroke-linejoin="round"/>
<path d="M345.623 119.06V73.2057C345.623 72.3796 345.686 71.5205 345.578 70.6971C345.334 68.8467 344.099 67.2157 342.376 66.4835C341.093 65.9376 339.767 66.0751 338.413 66.116C334.819 66.2244 331.226 66.3341 327.633 66.4425C324.589 66.535 321.544 66.6275 318.498 66.72C318.332 66.7253 318.164 66.7306 317.996 66.7359" stroke="white" stroke-width="1.98257" stroke-linecap="round" stroke-linejoin="round"/>
<path d="M227.618 58.4671C223.843 58.3587 220.067 58.2516 216.292 58.1433C214.11 58.0811 212.076 59.116 211.095 61.1501C210.549 62.2841 210.566 63.4341 210.566 64.6659" stroke="white" stroke-width="1.98257" stroke-linecap="round" stroke-linejoin="round"/>
<path d="M357.712 121.475V64.0886C357.712 63.2506 357.684 62.447 357.396 61.6473C356.642 59.5551 354.597 58.1224 352.379 58.125C349.806 58.1276 347.227 58.2466 344.654 58.3074C339.718 58.4237 334.783 58.54 329.847 58.6563C326.397 58.7382 322.947 58.8189 319.496 58.9009C319.317 58.9049 319.137 58.9088 318.957 58.914" stroke="white" stroke-width="1.98257" stroke-linecap="round" stroke-linejoin="round"/>
<path d="M220.484 78.4219V118.657" stroke="white" stroke-width="1.98257" stroke-linecap="round" stroke-linejoin="round"/>
<path d="M210.566 80.75V118.991" stroke="white" stroke-width="1.98257" stroke-linecap="round" stroke-linejoin="round"/>
<path d="M53.0293 119.054V75.8909C53.0293 74.3987 53.0161 72.9065 53.0293 71.4143C53.0359 70.7138 53.1575 70.0265 53.4219 69.3762C54.1554 67.5721 55.871 66.2847 57.8047 66.0825C58.5924 66.0005 59.4053 66.0878 60.193 66.1142C62.1412 66.1789 64.0894 66.2438 66.0376 66.3085C68.4154 66.3878 70.7931 66.4816 73.1709 66.5384C76.873 66.6257 80.5738 66.7129 84.2759 66.8001C86.3841 66.849 88.4922 66.8808 90.6003 66.9112C93.9654 66.9588 97.3304 67.0169 100.696 67.0526C103.515 67.083 106.334 67.0804 109.153 67.0936C111.441 67.1042 113.73 67.1279 116.018 67.116C119.765 67.0989 123.514 67.0817 127.261 67.0632C129.362 67.0526 131.464 67.0248 133.564 66.9958C136.946 66.9482 140.328 66.9112 143.709 66.8543C146.493 66.8081 149.276 66.7275 152.059 66.6627C154.391 66.6086 156.724 66.5689 159.056 66.4949C162.779 66.3759 166.502 66.2556 170.225 66.1367C171.155 66.1063 172.105 66.0164 173.035 66.0574" stroke="white" stroke-width="1.98257" stroke-linecap="round" stroke-linejoin="round"/>
<path d="M40.9444 121.472V67.4104C40.9444 65.9936 40.8704 64.5556 40.9536 63.14C41.0805 60.9804 42.5608 59.0559 44.6227 58.3845C45.2281 58.1876 45.8545 58.1122 46.4889 58.1267C47.5384 58.1505 48.5866 58.177 49.636 58.2021C53.9382 58.3052 58.2403 58.4083 62.5438 58.5101C66.7891 58.6119 71.0357 58.7136 75.2811 58.8141C76.6821 58.8471 78.0818 58.8854 79.4828 58.8973C83.144 58.9317 86.8064 58.9648 90.4675 58.9991C95.1107 59.0414 99.7526 59.085 104.396 59.1273C106.427 59.1458 108.46 59.1828 110.493 59.1828C113.206 59.1828 115.918 59.1537 118.632 59.1379C123.352 59.1128 128.07 59.0863 132.79 59.0599C135.915 59.0427 139.039 59.0255 142.164 59.0083C143.883 58.9991 145.603 58.9436 147.322 58.9093C151.84 58.8181 156.357 58.7268 160.874 58.6356C164.812 58.5563 168.752 58.477 172.691 58.3977C173.318 58.3845 173.946 58.3726 174.572 58.3594" stroke="white" stroke-width="1.98257" stroke-linecap="round" stroke-linejoin="round"/>
<path d="M353.695 167.954C356.139 168.41 358.583 168.868 361.027 169.324C362.394 169.579 363.919 169.85 364.434 171.355C364.605 171.856 364.606 172.374 364.606 172.896V185.123C364.606 185.657 364.544 186.244 364.717 186.76C364.948 187.446 365.529 187.98 366.232 188.151C367.604 188.486 368.846 187.409 368.87 186.039C368.914 183.577 368.87 181.109 368.87 178.646C368.87 176.532 368.773 174.394 368.875 172.282C368.952 170.693 370.074 169.781 371.562 169.489C374.029 169.003 376.505 168.565 378.977 168.104C379.245 168.054 379.512 168.003 379.781 167.953" stroke="white" stroke-width="1.98257" stroke-linecap="round" stroke-linejoin="round"/>
<path d="M369.156 155.153C370.648 155.143 372.197 154.96 373.524 154.232C374.762 153.554 375.611 152.419 376.007 151.075C376.242 150.272 376.323 149.436 376.325 148.602" stroke="white" stroke-width="1.98257" stroke-linecap="round" stroke-linejoin="round"/>
<path d="M357.711 73.0522H384.072C385.754 73.0522 387.435 73.0403 389.116 73.0522C391.313 73.068 393.445 73.9073 395.032 75.4352C396.652 76.9935 397.601 79.1703 397.648 81.4172C397.678 82.9584 397.649 84.5035 397.649 86.0459V114.556" stroke="white" stroke-width="1.98257" stroke-linecap="round" stroke-linejoin="round"/>
<path d="M40.9415 73.0522H14.58C12.8988 73.0522 11.2176 73.0403 9.53636 73.0522C7.33967 73.068 5.20774 73.9073 3.62036 75.4352C1.99994 76.9935 1.051 79.1703 1.00606 81.4172C0.975664 82.9584 1.00469 84.5035 1.00469 86.0459V114.556" stroke="white" stroke-width="1.98257" stroke-linecap="round" stroke-linejoin="round"/>
<path d="M29.4971 155.153C28.0049 155.143 26.4559 154.96 25.1289 154.232C23.8917 153.554 23.0406 152.419 22.6467 151.075C22.4114 150.272 22.3308 149.436 22.3281 148.602" stroke="white" stroke-width="1.98257" stroke-linecap="round" stroke-linejoin="round"/>
<path d="M44.9564 167.954C42.5126 168.41 40.0686 168.868 37.6248 169.324C36.2581 169.579 34.733 169.85 34.2175 171.355C34.047 171.856 34.0457 172.374 34.0457 172.896V185.123C34.0457 185.657 34.1077 186.244 33.9346 186.76C33.7033 187.446 33.1231 187.98 32.4199 188.151C31.048 188.486 29.8056 187.409 29.7818 186.039C29.7382 183.577 29.7818 181.109 29.7818 178.646C29.7818 176.532 29.8783 174.394 29.7765 172.282C29.6998 170.693 28.5778 169.781 27.0895 169.489C24.6232 169.003 22.1463 168.565 19.6747 168.104C19.4063 168.054 19.1394 168.003 18.8711 167.953" stroke="white" stroke-width="1.98257" stroke-linecap="round" stroke-linejoin="round"/>
<path d="M353.695 167.954C356.139 168.41 358.583 168.868 361.027 169.324C362.394 169.579 363.919 169.85 364.434 171.355C364.605 171.856 364.606 172.374 364.606 172.896V185.123C364.606 185.657 364.544 186.244 364.717 186.76C364.948 187.446 365.529 187.98 366.232 188.151C367.604 188.486 368.846 187.409 368.87 186.039C368.914 183.577 368.87 181.109 368.87 178.646C368.87 176.532 368.773 174.394 368.875 172.282C368.952 170.693 370.074 169.781 371.562 169.489C374.029 169.003 376.505 168.565 378.977 168.104C379.245 168.054 379.512 168.003 379.781 167.953" stroke="white" stroke-width="1.98257" stroke-linecap="round" stroke-linejoin="round"/>
<path d="M353.699 167.946C355.583 168.298 357.468 168.651 359.351 169.002C360.173 169.156 360.997 169.306 361.819 169.463C362.281 169.552 362.739 169.67 363.159 169.89C364.183 170.428 364.598 171.413 364.609 172.522C364.625 174.227 364.609 175.933 364.609 177.64V184.683C364.609 185.146 364.596 185.609 364.609 186.071C364.642 187.188 365.481 188.138 366.622 188.201C367.799 188.267 368.807 187.336 368.871 186.167C368.895 185.727 368.873 185.279 368.873 184.838V177.819C368.873 176.067 368.863 174.314 368.873 172.562C368.879 171.488 369.239 170.51 370.213 169.95C371.293 169.329 372.772 169.256 373.964 169.033C375.184 168.805 376.404 168.577 377.624 168.349C378.33 168.217 379.055 168.019 379.77 167.947C380.246 167.901 380.748 167.945 381.225 167.945H384.68C386.552 167.945 388.423 167.95 390.295 167.945C391.671 167.941 393.123 167.899 394.425 167.407C395.834 166.874 396.667 165.748 397.067 164.327C397.695 162.103 397.634 159.68 397.636 157.386C397.636 154.137 397.638 150.888 397.64 147.639C397.641 142.584 397.644 137.528 397.645 132.474C397.646 128.009 397.648 123.543 397.649 119.078C397.649 117.483 397.65 115.888 397.65 114.294V89.2025C397.65 86.616 397.694 84.0241 397.649 81.4375C397.595 78.3685 395.845 75.4978 393.134 74.0518C391.075 72.9535 388.906 73.0486 386.656 73.0486H357.712C357.72 71.0489 357.712 69.0491 357.712 67.0494C357.712 65.6259 357.862 64.1152 357.658 62.6983C357.318 60.3192 355.34 58.4094 352.951 58.1516C352.238 58.075 351.5 58.1411 350.785 58.1582C348.949 58.2019 347.113 58.2455 345.278 58.2878C339.991 58.412 334.703 58.5376 329.416 58.6618C327.149 58.7147 324.881 58.7689 322.613 58.8218C321.858 58.8389 321.105 58.8574 320.35 58.8746C319.965 58.8839 319.498 58.9685 319.118 58.9037C319.069 58.8958 319.01 58.9064 318.96 58.9077C319.232 56.1519 319.766 53.3962 319.798 50.6219C319.821 48.5508 319.451 46.5206 318.164 44.8513C316.547 42.7537 314.101 41.4148 311.803 40.2002C309.137 38.7899 306.409 37.4907 303.703 36.1597C301.315 34.9847 299.006 33.7185 296.75 32.3043C296.476 32.1325 296.202 31.9619 295.93 31.7901C296.635 30.9786 297.12 30.0204 297.339 28.9669C297.454 28.4198 297.511 27.8329 297.395 27.2817C297.323 26.946 297.183 26.6302 296.935 26.3883C296.88 26.3354 296.658 26.2085 296.65 26.1557C296.637 26.0671 296.83 25.8596 296.883 25.779C298.092 23.955 299.018 21.9447 299.601 19.834C300.156 17.821 300.366 15.8093 299.804 13.7766C299.478 12.5976 299.176 11.4344 298.94 10.233C298.72 9.11881 298.526 7.98747 298.151 6.91292C297.393 4.74664 295.402 3.51608 293.504 2.41641C292.01 1.55069 290.415 0.867384 288.657 1.01145C287.572 1.10001 286.513 1.38023 285.424 1.43045C284.214 1.48597 283.006 1.34853 281.796 1.35382C280.812 1.3591 279.867 1.48332 278.932 1.78863C277.922 2.11906 276.96 2.59755 275.927 2.85792C275.038 3.08262 274.152 3.00596 273.243 3.02314C272.541 3.03503 271.867 3.16055 271.37 3.69981C271.093 4.00116 270.894 4.36859 270.736 4.74264C270.084 6.28507 269.834 8.36019 270.276 9.99382C270.397 10.4458 270.613 10.9349 271.063 11.1398C271.063 11.2587 270.815 11.5521 270.752 11.6618C270.646 11.8468 270.543 12.0346 270.442 12.2236C270.248 12.591 270.064 12.965 269.891 13.3443C269.555 14.0752 269.255 14.8207 268.982 15.578C268.436 17.0887 268.009 18.614 268.045 20.2331C268.078 21.7386 268.26 23.1263 267.661 24.5472C267.398 25.1723 267.151 25.7724 267.051 26.4478C266.932 27.2448 266.942 28.055 266.94 28.8599C266.938 29.6714 266.94 30.4843 266.958 31.2958C266.969 31.695 266.983 32.0942 267.005 32.4933C267.023 32.8409 267.175 33.4304 267.001 33.7014C266.9 33.8573 266.765 33.9749 266.674 34.1441C266.534 34.4031 266.428 34.3476 266.144 34.3529C265.774 34.3595 265.404 34.3741 265.035 34.4005C264.315 34.4508 263.597 34.5406 262.886 34.6675C261.279 34.9556 259.689 35.4209 258.203 36.1042C256.686 36.8034 255.306 37.7748 253.91 38.6829C251.148 40.4804 248.208 41.9937 245.514 43.8983C244.227 44.8063 243.035 45.8162 241.999 47.0044C240.977 48.1767 240.128 49.5288 238.909 50.5135C237.727 51.4678 236.412 52.2608 235.203 53.1834C233.778 54.2698 232.365 55.3761 230.891 56.3978C230.249 56.8432 229.593 57.2701 228.927 57.6798C228.459 57.9666 227.922 58.4636 227.36 58.4464C225.31 58.3882 223.26 58.3288 221.21 58.2706C219.449 58.2204 217.686 58.1318 215.926 58.1199C215.069 58.1133 214.214 58.3222 213.453 58.7147C212.267 59.328 211.338 60.388 210.886 61.6423C210.735 62.0612 210.638 62.4974 210.594 62.9415C210.571 63.1742 210.57 63.4055 210.57 63.6394C210.57 63.9091 210.599 64.1985 210.57 64.4668C210.542 64.71 210.538 64.6611 210.27 64.7378C209.568 64.9373 208.88 65.1779 208.192 65.4237C208.018 64.9241 207.658 64.587 207.438 64.1271C207.237 63.7081 207.017 63.3089 206.744 62.9336C205.961 61.859 204.899 61.0594 203.903 60.1963C203.06 59.4654 202.246 58.6354 202.049 57.4934C201.873 56.4757 202.114 55.3893 202.349 54.4033C202.994 51.7057 203.338 48.9526 203.925 46.2378C204.481 43.6697 205.393 41.0989 205.519 38.4595C205.577 37.2475 205.472 36.0117 205.178 34.8341C204.916 33.7886 204.459 32.4906 203.42 31.9818C202.087 31.3289 200.663 32.1959 199.825 33.2176C199.029 34.1877 198.484 35.3468 197.909 36.4544C197.237 37.7523 196.56 39.0477 195.805 40.3006C195.191 41.3197 194.517 42.5277 193.541 43.2467C192.715 43.8547 191.544 43.9287 190.555 43.9472C189.696 43.9644 188.788 43.8917 187.993 43.5428C186.708 42.9824 185.857 41.6977 184.974 40.6681C184.08 39.6253 183.108 38.6472 182.099 37.7167C181.133 36.8258 180.123 35.9747 179.051 35.2134C178.145 34.5684 177.108 33.8573 175.998 33.6273C173.126 33.0299 173.241 38.0088 173.278 39.7442C173.335 42.4101 173.739 45.0773 174.772 47.5462C175.239 48.6671 175.884 49.7799 176.085 50.9919C176.235 51.892 176.089 52.808 175.875 53.6842C175.529 55.1011 175.065 56.4903 174.692 57.9019C174.583 58.3169 174.667 58.3565 174.306 58.3632C173.953 58.3698 173.602 58.3777 173.249 58.3843C169.962 58.4504 166.675 58.5165 163.388 58.5839C159.079 58.6711 154.77 58.757 150.461 58.8442C147.884 58.8957 145.305 58.9487 142.728 59.0002C141.265 59.0293 139.8 59.02 138.336 59.028C134.331 59.0504 130.326 59.0716 126.323 59.094C122.368 59.1152 118.413 59.1377 114.458 59.1588C113.025 59.1667 111.591 59.1919 110.158 59.1787C107.512 59.1549 104.865 59.1297 102.218 59.1059C97.9313 59.0662 93.645 59.0266 89.3587 58.987C86.098 58.9566 82.8374 58.9275 79.5767 58.8971C78.4453 58.8865 77.3153 58.8614 76.1839 58.8336C72.6126 58.749 69.0414 58.6632 65.4688 58.5773C61.2433 58.4768 57.0164 58.375 52.7922 58.2746C50.6286 58.223 48.4597 58.1265 46.2947 58.1199C44.3994 58.1133 42.6019 59.1469 41.6556 60.7951C40.6815 62.4895 40.9457 64.5157 40.9457 66.3885V72.2714C40.9457 72.4248 41.0198 72.9217 40.9101 73.0076C40.8096 73.0856 40.351 73.0143 40.2307 73.0156C37.2146 73.0368 34.1971 73.0341 31.1796 73.0368C26.8682 73.0421 22.5568 73.0433 18.2441 73.046C15.4672 73.046 12.6889 73.0473 9.912 73.0473C7.82898 73.0473 5.85042 73.6011 4.20357 74.9202C2.19722 76.5287 1.02878 78.9884 1.00764 81.5538C0.990454 83.5086 1.00764 85.4648 1.00764 87.4183V111.29C1.00764 112.51 1.00764 113.728 1.00764 114.948C1.00764 117.233 1.00898 119.519 1.0103 121.803C1.01162 125.83 1.01293 129.856 1.01425 133.883C1.01557 138.184 1.01688 142.485 1.0182 146.786C1.0182 149.888 1.01954 152.991 1.02087 156.093C1.02087 157.774 1.01292 159.454 1.1213 161.133C1.2733 163.48 1.6117 166.318 4.07272 167.341C6.24429 168.244 8.91412 167.941 11.2126 167.941H17.3665C17.8568 167.941 18.3656 167.9 18.8547 167.941C19.23 167.973 19.6107 168.078 19.9808 168.147C21.9528 168.516 23.9248 168.883 25.8968 169.252C26.7704 169.416 27.7207 169.507 28.4979 169.974C29.3887 170.509 29.768 171.427 29.7865 172.432C29.8064 173.54 29.7865 174.65 29.7865 175.757C29.7865 179.179 29.7125 182.612 29.7865 186.032C29.8288 187.953 32.2343 188.979 33.5389 187.453C34.2817 186.585 34.0504 185.181 34.0504 184.123V172.953C34.0504 172.209 34.0623 171.466 34.4707 170.812C34.9848 169.988 35.8995 169.637 36.8101 169.462C38.4966 169.14 40.1871 168.832 41.8749 168.516C42.89 168.325 43.9408 168.029 44.9704 167.94C45.3484 167.906 45.7422 167.94 46.1216 167.94H284.517C283.809 169.705 284.277 171.684 284.528 173.492C284.767 175.219 284.838 177.037 283.899 178.581C282.956 180.13 280.983 181.482 280.905 183.438C280.824 185.451 282.673 187.25 284.459 187.85C286.151 188.418 288.005 188.018 289.656 187.502C291.849 186.819 293.942 185.843 296.106 185.074C298.23 184.319 300.45 183.647 302.363 182.423C303.883 181.45 305.441 179.959 305.987 178.187C306.291 177.197 305.95 176.43 305.219 175.726C304.46 174.995 303.741 174.323 303.16 173.435C302.047 171.734 301.249 169.742 299.492 168.585C299.115 168.336 298.716 168.129 298.308 167.938H330.514C330.724 167.938 331.205 167.843 331.398 167.938C331.614 168.044 331.578 169.173 331.611 169.479C331.631 169.659 331.652 169.839 331.675 170.017C331.709 170.29 331.657 170.287 331.492 170.485C331.31 170.703 331.178 170.954 331.085 171.221C330.929 171.672 330.887 172.157 330.881 172.632C330.866 174.157 331.139 175.679 331.201 177.203C331.262 178.694 331.24 180.19 331.121 181.677C331.015 183.011 330.744 184.494 331.06 185.82C331.398 187.246 332.775 187.603 334.055 187.79C337.174 188.252 340.41 188.248 343.557 188.175C345.013 188.141 346.574 188.164 347.992 187.794C348.689 187.612 349.281 187.263 349.577 186.581C349.802 186.064 349.849 185.479 349.832 184.921C349.746 181.996 348.04 179.356 347.119 176.652C346.676 175.352 346.517 174.055 346.357 172.698C346.221 171.539 345.956 170.369 344.881 169.728C344.74 169.643 344.638 169.626 344.588 169.47C344.544 169.334 344.592 169.108 344.593 168.965C344.596 168.623 344.588 168.281 344.574 167.938C344.664 168.031 345.357 167.938 345.477 167.938H352.555C352.941 167.94 353.323 167.94 353.705 167.94L353.699 167.946Z" stroke="white" stroke-width="1.98257" stroke-linecap="round" stroke-linejoin="round"/>
</svg>
