<svg xmlns="http://www.w3.org/2000/svg" width="399" height="190" fill="none" viewBox="0 0 399 190"><path stroke="#fff" stroke-linecap="round" stroke-linejoin="round" stroke-width="1.983" d="M1.008 188.211h.951"/><path stroke="#fff" stroke-dasharray="1.9 3.32" stroke-linecap="round" stroke-linejoin="round" stroke-width="1.983" d="M5.285 188.211h389.759"/><path stroke="#fff" stroke-linecap="round" stroke-linejoin="round" stroke-width="1.983" d="M396.699 188.211h.952M263.462 99.119c-.294-1.592-.63-3.182-.726-4.8-.095-1.603.062-3.206.155-4.804.087-1.501.117-3.01-.037-4.508-.152-1.466-.507-2.892-.955-4.293-.509-1.59-1.127-3.142-1.68-4.717-.391-1.115-.802-2.288-.811-3.483-.011-1.245.371-2.424.17-3.674-.248-1.557-.851-3.05-1.381-4.526-.267-.745-.511-1.5-.777-2.247-.198-.559-.441-1.26-1.024-1.528-1.076-.491-2.641.425-3.562.9-2.997 1.55-5.807 3.52-8.644 5.336-2.764 1.769-5.525 3.537-8.401 5.123a82 82 0 0 1-9.047 4.29c-3.082 1.235-6.231 2.313-9.445 3.155a69.5 69.5 0 0 1-9.925 1.84c-.781.087-1.565.159-2.349.226M289.176 35.297c.672-1.521 1.249-3.089 1.643-4.706.381-1.57 1.299-3.038 2.644-3.956.944-.645 2.48-1.149 3.446-.253 1.152 1.068.373 3.357-.292 4.484-.747 1.262-1.968 2.25-3.195 3.024-.601.379-1.255.73-1.955.888-.585.13-1.226.012-1.793.21-.645.226-.998.928-1.315 1.486-.376.66-.734 1.333-1.196 1.936-.82 1.07-1.941 1.866-3.114 2.506-2.775 1.515-5.902 2.425-9 2.982-2.663.478-6.674 1.135-8.003-1.94-.552-1.28-.679-2.744-.769-4.122-.078-1.185-.2-2.737.472-3.798.766-1.215 2.477-.796 3.586-.352 1.504.604 2.795 1.609 4.256 2.296 1.209.568 2.282.396 3.534.062 1.434-.383 2.901-.874 4.134-1.722 1.285-.882 2.102-2.19 2.879-3.507.765-1.298 1.553-2.606 1.242-4.167-.247-1.244-.93-2.453-.852-3.75.072-1.185.943-2.137 1.604-3.049.455-.626.818-1.286.943-2.06.124-.77.041-1.557-.067-2.324-.118-.843-.265-1.808-.807-2.498-.407-.517-.99-.67-1.62-.648-1.547.054-3.026.758-4.514 1.116-1.1.265-2.258.407-3.376.164-1.246-.273-2.257-1.056-3.358-1.655-.649-.352-1.286-.555-2.022-.6-.581-.036-1.24-.004-1.647-.494-.791-.955-.619-2.742-.477-3.873.141-1.14.425-2.572 1.315-3.388.729-.668 1.791-.544 2.704-.534.559.007 1.105-.026 1.649-.157 1.413-.34 2.697-1.089 4.129-1.368 1.584-.308 3.208-.072 4.805-.066 1.481.005 2.909-.44 4.384-.456 1.22-.013 2.372.409 3.45.952 1.369.69 2.759 1.544 3.914 2.555 1.205 1.053 1.7 2.455 2.043 3.973.383 1.692.675 3.38 1.149 5.051.427 1.502.524 2.92.278 4.464-.225 1.413-.642 2.8-1.18 4.123a21.4 21.4 0 0 1-2.201 4.051"/><path stroke="#fff" stroke-linecap="round" stroke-linejoin="round" stroke-width="1.983" d="M267.091 33.632c-.146-1.595-.153-3.197-.149-4.798.004-1.454.077-2.765.652-4.114.252-.591.46-1.169.51-1.815.063-.808-.023-1.624-.053-2.432-.057-1.548.276-2.995.779-4.449.581-1.686 1.288-3.352 2.233-4.868M275.719 43.772c.597.986 1.187 1.976 2.191 2.6.707.439 1.528.68 2.343.822 2.082.364 4.297.106 6.273-.626 1.897-.702 3.544-1.902 4.944-3.348 1.368-1.413 2.55-3.065 3.361-4.863.723-1.603.947-3.057.358-4.742-.095-.272-.194-.544-.288-.818M277.68 123.995l4.743-.013 10.364-.028 10.35-.028c1.529-.004 3.06.006 4.59-.013 2.664-.032 5.326-.151 7.986-.266l.533-.022"/><path stroke="#fff" stroke-linecap="round" stroke-linejoin="round" stroke-width="1.983" d="m311.958 109.269 2.486 8.826c.622 2.211 1.273 4.438 2.238 6.528 1.089 2.354 2.413 4.564 3.362 6.987 1.006 2.569 1.854 5.193 2.686 7.821.876 2.768 1.668 5.565 2.499 8.346.722 2.413 1.433 4.829 2.235 7.218.402 1.197.834 2.392 1.351 3.546.369.823.859 2.107 1.754 2.487.814.346 1.956-.161 2.745-.386 1.347-.384 2.688-.79 4.051-1.114 1.278-.303 2.571-.49 3.87-.677.909-.131 2.005-.218 2.793-.74.883-.585.554-1.727.306-2.575-.354-1.209-.758-2.396-1.054-3.621-.567-2.341-1.001-4.717-1.382-7.095l-1.6-10.016c-.387-2.421-.839-4.831-1.29-7.242-.505-2.697-1.08-5.383-1.654-8.066a155 155 0 0 0-1.797-7.576c-.689-2.583-1.595-5.057-2.607-7.528-.885-2.167-1.748-4.285-3.527-5.882-1.774-1.591-3.985-2.725-6.2-3.567-2.073-.788-4.186-1.194-6.407-1.123-2.467.08-4.948.496-7.318 1.18-1.184.343-2.35.763-3.463 1.296"/><path stroke="#fff" stroke-linecap="round" stroke-linejoin="round" stroke-width="1.983" d="M317.024 93.82c.22-2.334-.283-4.61-.374-6.942-.045-1.131-.133-2.214-.4-3.319-.273-1.127-.603-2.243-.779-3.391-.199-1.3-.226-2.613-.215-3.926M253.588 110.709c-.478-1.375-.872-2.741-1.465-4.075-.489-1.097-1.124-2.283-1.204-3.503-.077-1.157.834-1.625 1.831-1.865 1.456-.348 2.966-.461 4.437-.73 2.952-.541 5.87-1.27 8.758-2.083 3.032-.854 6.026-1.839 9.047-2.734 1.405-.416 2.819-.8 4.257-1.086 1.523-.303 3.064-.513 4.581-.847 1.109-.245 2.627-.558 3.314-1.56.308-.448.414-.99.623-1.483.226-.533.606-.917 1.058-1.27 1.068-.835 2.055-1.564 2.776-2.736.723-1.178 1.22-2.474 1.727-3.754.598-1.505 1.17-3.023 1.834-4.5.604-1.342 1.349-2.61 1.982-3.937 1.309-2.738 1.956-5.753 2.733-8.67.356-1.333.828-2.589 1.362-3.859.511-1.217.84-2.502 1.101-3.795q.199-.993.33-1.995"/><path stroke="#fff" stroke-linecap="round" stroke-linejoin="round" stroke-width="1.983" d="M250.941 103.344c-1.859.324-3.711.691-5.563 1.049-1.875.362-3.765.681-5.625 1.116-3.139.732-7.219 2.112-8.194 5.587-.463 1.644-.287 3.435-.047 5.101.13.894.269 1.791.446 2.678.134.676.347 1.338.939 1.746 1.154.793 2.886.793 4.225.771 1.595-.025 3.235-.233 4.71-.873 1.488-.646 2.609-1.78 3.782-2.868a11.7 11.7 0 0 1 3.753-2.368c.397-.155.799-.294 1.2-.432M166.418 93.781c-.001 2.527.025 5.056.471 7.55.424 2.376 1.241 4.625 2.258 6.807 1.079 2.313 2.337 4.536 3.461 6.826.873 1.785 1.837 3.747 1.678 5.791-.143 1.83-1.427 3.4-1.352 5.257.044 1.082.529 2.442 1.712 2.699 1.139.249 2.424-.169 3.571-.241 1.13-.072 2.289-.044 3.402-.279.835-.176 1.589-.55 1.802-1.442.237-.998-.014-2.104-.138-3.098a16.6 16.6 0 0 1-.066-3.387c.1-1.263.25-2.527.132-3.794-.106-1.144-.379-2.264-.687-3.368-.717-2.561-1.446-5.108-2.11-7.684q-.215-.83-.436-1.659"/><path stroke="#fff" stroke-linecap="round" stroke-linejoin="round" stroke-width="1.983" d="M183.391 117.208c1.92.506 4.821.235 6.058-1.51.956-1.349 1.76-2.851 2.633-4.253.759-1.219 1.499-2.448 2.16-3.723.83-1.604 1.54-3.261 2.216-4.933"/><path stroke="#fff" stroke-linecap="round" stroke-linejoin="round" stroke-width="1.983" d="M190.738 113.598c-.243 2.85.491 5.911 1.664 8.5.481 1.064 1.166 2.139 2.316 2.548 1.086.388 2.32.249 3.44.121 1.493-.172 2.995-.353 4.478-.603 1.084-.183 2.43-.405 3.245-1.216a1.89 1.89 0 0 0 .457-1.952c-.202-.571-.683-.927-1.22-1.165-1.129-.499-2.386-.635-3.51-1.154-1.109-.51-2.135-1.395-2.551-2.569-.327-.922-.119-1.86.146-2.766.389-1.321.718-2.554.722-3.942.004-1.428-.152-2.853-.148-4.283.005-2.706.81-5.236 1.731-7.752 1.074-2.933 2.159-5.843 2.826-8.903.577-2.638 1.042-5.498.547-8.188-.233-1.273-.736-2.406-1.334-3.545-.575-1.092-.759-2.3-.725-3.526.012-.462.058-.924.155-1.375M203.755 68.78c-.894-.787-2.635-2.188-1.633-3.486.677-.876 1.952-1.335 3.02-1.488 1.348-.195 2.614.312 3.064 1.673.28.85.29 1.895-.156 2.692-.443.79-1.352 1.169-2.217 1.273-.846.102-1.442-.115-2.078-.665"/><path stroke="#fff" stroke-linecap="round" stroke-linejoin="round" stroke-width="1.983" d="M184.852 67.047c3 1.553 6.183 2.667 9.427 3.587 1.59.45 3.202.863 4.837 1.11 1.401.212 2.876.328 4.27.007 1.54-.356 2.865-1.293 3.668-2.667"/><path stroke="#fff" stroke-linecap="round" stroke-linejoin="round" stroke-width="1.983" d="M207.525 64.343c-.563-1.43-1.668-2.485-2.818-3.458-1.251-1.06-2.651-2.125-2.709-3.91-.054-1.655.621-3.218.867-4.833.279-1.826.575-3.636.961-5.444.739-3.465 2.059-6.941 1.598-10.534-.179-1.389-.574-3.411-1.939-4.142-1.795-.961-3.455.753-4.32 2.136-1 1.6-1.76 3.345-2.685 4.988a33 33 0 0 1-1.463 2.396c-.445.65-.936 1.365-1.608 1.802-1.093.712-2.799.707-4.048.555-1.544-.19-2.563-1.063-3.546-2.225-2.348-2.778-5.015-5.602-8.231-7.385-.691-.384-1.539-.815-2.351-.692-.892.136-1.299 1.002-1.529 1.782-.473 1.6-.481 3.356-.408 5.01.079 1.809.311 3.642.828 5.381.5 1.683 1.49 3.21 1.893 4.913.297 1.256.001 2.538-.342 3.751-.542 1.911-1.121 3.81-1.535 5.753-.382 1.797-.441 3.664-.961 5.43-.487 1.661-1.389 3.187-2.419 4.568-1.128 1.515-2.466 2.904-4.01 4-1.487 1.057-3.162 1.692-4.886 2.252-1.594.518-3.279.984-4.633 2.017-1.338 1.02-2.307 2.458-3.314 3.782-1.075 1.412-2.242 2.706-3.63 3.817-1.378 1.104-2.871 2.065-4.377 2.984-3.27 1.994-6.929 3.805-9.573 6.644-2.606 2.796-3.388 6.435-3.457 10.156a33.4 33.4 0 0 0 .389 5.686c.24 1.561.539 3.254 1.292 4.66.869 1.619 2.617 2.01 4.288 2.296 1.869.318 3.768.457 5.66.568 3.985.233 7.979.321 11.969.455 3.821.128 7.642.239 11.461.416l6.36.296M208.191 65.434c1.019-.366 2.046-.711 3.105-.947 1.006-.225 2.02-.295 3.043-.382 1.032-.088 1.989-.289 2.927-.738.993-.476 1.935-1.039 2.949-1.471 2.147-.913 4.293-1.745 6.355-2.85a47 47 0 0 0 5.683-3.612c1.87-1.38 3.675-2.839 5.598-4.146.819-.557 1.572-1.15 2.217-1.907.705-.825 1.341-1.707 2.062-2.517 1.477-1.656 3.276-2.935 5.135-4.128 1.906-1.222 3.891-2.315 5.812-3.514 1.861-1.162 3.636-2.5 5.674-3.348a20.1 20.1 0 0 1 6.348-1.468c.492-.033.983-.045 1.476-.047M295.927 31.805c1.891 1.185 3.777 2.351 5.768 3.366 2.147 1.096 4.325 2.13 6.484 3.204 2.008.998 4.042 1.981 5.958 3.148 1.658 1.01 3.308 2.203 4.386 3.85.917 1.403 1.231 3.05 1.268 4.706.052 2.346-.358 4.697-.643 7.017-.266 2.166-.388 4.348-.655 6.514a48 48 0 0 1-1.267 6.463 72 72 0 0 1-2.132 6.597 120 120 0 0 1-2.581 6.305 188 188 0 0 1-2.837 6.159 204 204 0 0 1-3.238 6.41 98 98 0 0 1-3.321 5.873c-.992 1.608-2.04 3.386-3.562 4.554-1.47 1.128-3.412 1.531-5.185 1.913-2.148.462-4.322.809-6.487 1.181-2.361.407-4.724.846-7.111 1.071-1.946.184-3.912.233-5.788-.386-1.053-.348-2.055-.834-3.101-1.203a20.6 20.6 0 0 0-3.053-.806c-2.066-.387-4.19-.524-6.286-.353-2.234.181-4.466.716-6.479 1.718-1.92.955-3.609 2.353-4.726 4.199-1.074 1.771-1.644 3.85-1.678 5.918-.031 2.017.517 3.918 1.515 5.663 1.071 1.874 2.49 3.52 3.77 5.249 1.357 1.838 2.531 3.793 3.72 5.74 1.203 1.969 2.387 3.949 3.72 5.837 1.194 1.69 2.517 3.284 3.864 4.855 1.606 1.875 3.25 3.722 4.764 5.673 1.325 1.709 2.506 3.503 3.464 5.444.493 1.001.95 2.019 1.447 3.017.431.863.919 1.837 1.7 2.439.892.688 2.021.505 3.005.152 1.075-.384 2.083-.946 3.11-1.436 1.892-.906 3.849-1.481 5.883-1.966 1.129-.269 2.274-.509 3.38-.863.667-.214 1.89-.551 1.986-1.399.101-.889-.83-1.968-1.252-2.664a111 111 0 0 1-1.768-3.025 102 102 0 0 1-3.166-5.997c-1.088-2.253-2.114-4.54-3.169-6.81-.917-1.975-1.892-3.923-2.865-5.872a186 186 0 0 0-3.188-6.112c-.915-1.676-1.861-3.447-3.288-4.749-1.444-1.317-3.286-2.317-5.159-2.859M284.696 187.945c-2.219-.637-4.595-3.16-3.518-5.594.513-1.159 1.48-2.056 2.237-3.052.651-.855 1.086-1.784 1.218-2.857.306-2.473-.789-4.908-.415-7.371.312-2.059 1.888-3.627 3.982-3.795 2.509-.201 5.095.796 7.408 1.639 1.286.469 2.632.892 3.794 1.632 1.045.667 1.767 1.618 2.406 2.662.713 1.165 1.327 2.431 2.263 3.439.825.89 2.213 1.668 2.029 3.063-.141 1.066-.842 2.055-1.532 2.843a10.7 10.7 0 0 1-2.831 2.264c-2.44 1.368-5.217 2.07-7.806 3.094-2.491.985-5.194 2.332-7.942 2.227a5.6 5.6 0 0 1-1.291-.194z"/><path stroke="#fff" stroke-linecap="round" stroke-linejoin="round" stroke-width="1.983" d="M284.901 167.203a75 75 0 0 0-2.651-4.617M292.91 159.062c1.044.99 2.185 1.951 3.006 3.146.585.853.916 1.827 1.05 2.848.105.789.097 1.584.061 2.377M334.737 187.903c-.985-.119-2.197-.218-2.992-.878-.705-.584-.803-1.556-.808-2.412-.008-1.237.172-2.471.238-3.704q.1-1.82.026-3.64c-.048-1.24-.202-2.469-.289-3.706-.057-.816-.091-1.709.233-2.479.768-1.826 3.534-1.949 5.198-2.095 2.255-.198 4.638-.326 6.865.16.989.216 2.038.59 2.584 1.502.515.862.551 1.947.655 2.917.249 2.309 1.13 4.361 2.023 6.485.741 1.766 1.586 3.765 1.323 5.725-.177 1.318-1.01 1.914-2.246 2.138-1.133.206-2.306.236-3.454.27a77 77 0 0 1-7.502-.119 46 46 0 0 1-1.855-.161z"/><path stroke="#fff" stroke-linecap="round" stroke-linejoin="round" stroke-width="1.983" d="M344.577 169.591c.101-2.896-.348-5.769-1.54-8.417-.361-.802-.714-1.602-.986-2.44M331.703 170.287c-.146-1.163-.267-2.33-.277-3.503-.009-1.216.101-2.431.102-3.647a39 39 0 0 0-.059-2.028M199.332 155.158v-30.541M163.344 75.938c-.558 2.841-.37 6.082.905 8.715 1.285 2.651 3.539 4.69 4.963 7.263.649 1.172 1.051 2.393 1.162 3.728.106 1.262-.016 2.592.381 3.813.351 1.081 1.109 1.971 1.777 2.867.676.903 1.313 1.876 1.617 2.974.307 1.109.119 2.185-.825 2.93-.793.627-1.809.972-2.79 1.166q-.359.072-.722.111M175.113 56.385c.621.81 1.229 1.538 1.471 2.555.263 1.109.275 2.278.369 3.409.164 1.998.476 4.166 2.377 5.268 1.459.846 3.366.904 4.986.606.877-.16 1.728-.454 2.423-1.026.835-.688 1.471-1.532 2.407-2.105 2.004-1.226 4.31-1.966 5.975-3.698 1.452-1.51 2.431-3.755 1.774-5.846-.659-2.097-2.605-3.497-3.294-5.565-.251-.756-.417-2.255.651-2.459.766-.147 1.631.403 2.199.865 1.708 1.387 1.979 3.478 2.334 5.52.157.902.366 1.813.854 2.6.503.813 1.236 1.452 2.013 1.993.445.311.912.588 1.377.867M199.332 167.952v-12.796M204.543 119.614c3.58-.331 7.169-.548 10.761-.728 3.252-.163 6.506-.285 9.76-.377q3.397-.094 6.793-.189M183.328 118.875c2.125.116 4.249.231 6.372.378q.865.06 1.73.12M22.332 136.185c.004-3.254 2.153-5.965 4.555-7.944 2.906-2.395 6.394-4.063 9.9-5.379 3.771-1.417 7.692-2.424 11.655-3.126 3.888-.689 7.826-1.061 11.762-1.31 3.96-.25 7.933-.373 11.9-.44 3.06-.053 6.122-.106 9.183-.103q5.33.002 10.66.007l17.4.01 17.082.011 9.706.005h.448M327.523 155.148h-33.668"/><path stroke="#fff" stroke-linecap="round" stroke-linejoin="round" stroke-width="1.983" d="M344.569 167.95h37.181q4.19.002 8.382 0c2.578-.002 5.614-.191 6.708-2.948.564-1.423.662-3.03.73-4.544a67 67 0 0 0 .062-2.938q0-5.099.004-10.198l.005-16.018.004-13.388q0-3.58-.011-7.161c-.005-1.756.002-3.514-.064-5.271-.052-1.344.022-3.144-.775-4.308-.769-1.127-2.349-1.31-3.598-1.273a12.3 12.3 0 0 0-4.833 1.166c-2.794 1.325-5.086 3.809-6.837 6.307-1.939 2.765-3.12 5.966-3.869 9.241-.772 3.376-1.126 6.852-1.258 10.309-.114 2.97-.081 5.943-.081 8.913v18.78c0 .102.052.378 0 .469-.063.111-.199.065-.367.065h-31.733M298.305 167.953h33.164M273.078 155.155H24.603c-.686 0-1.37.003-2.055 0-.085 0-.181.02-.22-.029-.08-.104 0-.604 0-.73v-22.367c0-1.988-.011-3.976-.121-5.961-.143-2.614-.395-5.223-.876-7.799-.47-2.51-1.146-4.992-2.194-7.328-1.024-2.282-2.438-4.323-4.128-6.16-1.562-1.7-3.367-3.236-5.55-4.061a12.8 12.8 0 0 0-3.624-.795c-1.006-.07-2.102-.024-3.019.439-.932.469-1.316 1.324-1.493 2.31-.219 1.214-.24 2.467-.27 3.699-.034 1.401-.032 2.802-.032 4.205q0 4.27-.004 8.541l-.005 11.756-.005 11.872q-.001 4.444-.004 8.888c0 1.268-.003 2.534.002 3.802.01 2.63-.104 5.341.363 7.94.195 1.092.535 2.222 1.316 3.044.782.825 1.895 1.182 2.99 1.356 1.01.16 2.035.172 3.057.172h275.781M245.152 118.072l4.592-.056"/><path stroke="#fff" stroke-linecap="round" stroke-linejoin="round" stroke-width="1.983" d="M337.117 118.352c3.184.198 6.364.425 9.528.841 3.146.414 6.279.99 9.345 1.811 3.05.818 6.055 1.814 8.932 3.125 2.727 1.242 5.406 2.754 7.625 4.79 1.854 1.699 3.45 3.883 3.734 6.447q.045.412.046.825M259.109 66.933l-14.671-.3"/><path stroke="#fff" stroke-linecap="round" stroke-linejoin="round" stroke-width="1.983" d="M345.623 119.06V73.206c0-.826.063-1.686-.045-2.509a5.38 5.38 0 0 0-3.202-4.213c-1.283-.546-2.609-.409-3.963-.368l-10.78.326-9.135.278-.502.016M227.618 58.467q-5.663-.161-11.326-.324c-2.182-.062-4.216.973-5.197 3.007-.546 1.134-.529 2.284-.529 3.516"/><path stroke="#fff" stroke-linecap="round" stroke-linejoin="round" stroke-width="1.983" d="M357.712 121.475V64.089c0-.838-.028-1.642-.316-2.442-.754-2.092-2.799-3.525-5.017-3.522-2.573.003-5.152.122-7.725.182l-14.807.35-10.351.244-.539.013M220.484 78.422v40.235M210.566 80.75v38.241M53.03 119.054V75.891c0-1.492-.014-2.985 0-4.477.006-.7.127-1.388.392-2.038a5.38 5.38 0 0 1 4.383-3.294c.787-.081 1.6.006 2.388.032l5.845.194c2.377.08 4.755.174 7.133.23l11.105.262c2.108.049 4.216.08 6.324.111 3.365.048 6.73.106 10.096.142 2.819.03 5.638.027 8.457.04 2.288.011 4.577.035 6.865.023q5.621-.025 11.243-.053c2.101-.01 4.203-.038 6.303-.067 3.382-.048 6.764-.085 10.145-.142 2.784-.046 5.567-.126 8.35-.191 2.332-.054 4.665-.094 6.997-.168q5.585-.18 11.169-.358c.93-.03 1.88-.12 2.81-.08"/><path stroke="#fff" stroke-linecap="round" stroke-linejoin="round" stroke-width="1.983" d="M40.944 121.472V67.41c0-1.416-.074-2.854.01-4.27.127-2.16 1.607-4.084 3.669-4.755a5.6 5.6 0 0 1 1.866-.258q1.574.036 3.147.075l12.908.308q6.368.154 12.737.304c1.401.033 2.8.071 4.202.083q5.492.052 10.984.102l13.929.128c2.031.019 4.064.056 6.097.056 2.713 0 5.425-.03 8.139-.045q7.079-.038 14.158-.078l9.374-.052c1.719-.009 3.439-.064 5.158-.099q6.777-.136 13.552-.273l11.817-.238q.941-.02 1.881-.039M353.695 167.954l7.332 1.37c1.367.255 2.892.526 3.407 2.031.171.501.172 1.019.172 1.541v12.227c0 .534-.062 1.121.111 1.637a2.15 2.15 0 0 0 1.515 1.391c1.372.335 2.614-.742 2.638-2.112.044-2.462 0-4.93 0-7.393 0-2.114-.097-4.252.005-6.364.077-1.589 1.199-2.501 2.687-2.793 2.467-.486 4.943-.924 7.415-1.385l.804-.151M369.156 155.153c1.492-.01 3.041-.193 4.368-.921 1.238-.678 2.087-1.813 2.483-3.157.235-.803.316-1.639.318-2.473M357.711 73.052h26.361c1.682 0 3.363-.012 5.044 0 2.197.016 4.329.855 5.916 2.383a8.6 8.6 0 0 1 2.616 5.982c.03 1.541.001 3.087.001 4.629v28.51"/><path stroke="#fff" stroke-linecap="round" stroke-linejoin="round" stroke-width="1.983" d="M40.942 73.052H14.58c-1.681 0-3.362-.012-5.044 0-2.196.016-4.328.855-5.916 2.383a8.59 8.59 0 0 0-2.614 5.982c-.03 1.541-.001 3.087-.001 4.629v28.51M29.497 155.153c-1.492-.01-3.041-.193-4.368-.921-1.237-.678-2.088-1.813-2.482-3.157-.236-.803-.316-1.639-.319-2.473M44.956 167.954l-7.331 1.37c-1.367.255-2.892.526-3.407 2.031-.171.501-.172 1.019-.172 1.541v12.227c0 .534.062 1.121-.111 1.637a2.15 2.15 0 0 1-1.515 1.391c-1.372.335-2.614-.742-2.638-2.112-.044-2.462 0-4.93 0-7.393 0-2.114.096-4.252-.006-6.364-.076-1.589-1.198-2.501-2.686-2.793-2.467-.486-4.944-.924-7.415-1.385l-.804-.151M353.695 167.954l7.332 1.37c1.367.255 2.892.526 3.407 2.031.171.501.172 1.019.172 1.541v12.227c0 .534-.062 1.121.111 1.637a2.15 2.15 0 0 0 1.515 1.391c1.372.335 2.614-.742 2.638-2.112.044-2.462 0-4.93 0-7.393 0-2.114-.097-4.252.005-6.364.077-1.589 1.199-2.501 2.687-2.793 2.467-.486 4.943-.924 7.415-1.385l.804-.151"/><path stroke="#fff" stroke-linecap="round" stroke-linejoin="round" stroke-width="1.983" d="m353.699 167.946 5.652 1.056c.822.154 1.646.304 2.468.461.462.089.92.207 1.34.427 1.024.538 1.439 1.523 1.45 2.632.016 1.705 0 3.411 0 5.118v7.043c0 .463-.013.926 0 1.388.033 1.117.872 2.067 2.013 2.13 1.177.066 2.185-.865 2.249-2.034.024-.44.002-.888.002-1.329v-7.019c0-1.752-.01-3.505 0-5.257.006-1.074.366-2.052 1.34-2.612 1.08-.621 2.559-.694 3.751-.917l3.66-.684c.706-.132 1.431-.33 2.146-.402.476-.046.978-.002 1.455-.002h3.455c1.872 0 3.743.005 5.615 0 1.376-.004 2.828-.046 4.13-.538 1.409-.533 2.242-1.659 2.642-3.08.628-2.224.567-4.647.569-6.941q0-4.874.004-9.747l.005-15.165.004-13.396.001-4.784V89.203c0-2.587.044-5.179-.001-7.766-.054-3.068-1.804-5.94-4.515-7.385-2.059-1.099-4.228-1.003-6.478-1.003h-28.944c.008-2 0-4 0-6 0-1.423.15-2.934-.054-4.35-.34-2.38-2.318-4.29-4.707-4.547-.713-.077-1.451-.01-2.166.006l-5.507.13-15.862.374-6.803.16-2.263.053c-.385.009-.852.093-1.232.029-.049-.008-.108.002-.158.004.272-2.756.806-5.512.838-8.286.023-2.071-.347-4.101-1.634-5.77-1.617-2.098-4.063-3.437-6.361-4.652-2.666-1.41-5.394-2.71-8.1-4.04a77 77 0 0 1-6.953-3.856q-.412-.257-.82-.514a6.2 6.2 0 0 0 1.409-2.823c.115-.547.172-1.134.056-1.685-.072-.336-.212-.652-.46-.894-.055-.053-.277-.18-.285-.232-.013-.089.18-.296.233-.377a20.8 20.8 0 0 0 2.718-5.945c.555-2.013.765-4.025.203-6.057-.326-1.18-.628-2.343-.864-3.544-.22-1.114-.414-2.246-.789-3.32-.758-2.166-2.749-3.397-4.647-4.497-1.494-.865-3.089-1.549-4.847-1.405-1.085.089-2.144.37-3.233.42-1.21.055-2.418-.082-3.628-.077-.984.005-1.929.13-2.864.435-1.01.33-1.972.809-3.005 1.069-.889.225-1.775.148-2.684.165-.702.012-1.376.138-1.873.677-.277.301-.476.669-.634 1.043-.652 1.542-.902 3.617-.46 5.25.121.453.337.942.787 1.147 0 .119-.248.412-.311.522a21.579 21.579 0 0 0-.861 1.683c-.336.73-.636 1.476-.909 2.233-.546 1.51-.973 3.036-.937 4.655.033 1.506.215 2.893-.384 4.314-.263.625-.51 1.225-.61 1.9-.119.798-.109 1.608-.111 2.413-.002.811 0 1.624.018 2.436q.015.599.047 1.197c.018.348.17.937-.004 1.208-.101.156-.236.274-.327.443-.14.26-.246.204-.53.209q-.555.008-1.109.047-1.081.076-2.149.267c-1.607.289-3.197.754-4.683 1.437-1.517.7-2.897 1.67-4.293 2.579-2.762 1.797-5.702 3.31-8.396 5.215-1.287.908-2.479 1.918-3.515 3.106-1.022 1.173-1.871 2.525-3.09 3.51-1.182.954-2.497 1.747-3.706 2.67-1.425 1.086-2.838 2.192-4.312 3.214q-.964.667-1.964 1.282c-.468.287-1.005.784-1.567.766l-6.15-.175c-1.761-.05-3.524-.14-5.284-.151a5.3 5.3 0 0 0-2.473.595 5.37 5.37 0 0 0-2.567 2.927 5.4 5.4 0 0 0-.316 1.997c0 .27.029.56 0 .828-.028.243-.032.194-.3.27-.702.2-1.39.44-2.078.687-.174-.5-.534-.837-.754-1.297a7.6 7.6 0 0 0-.694-1.193c-.783-1.075-1.845-1.875-2.841-2.738-.843-.73-1.657-1.56-1.854-2.703-.176-1.017.065-2.104.3-3.09.645-2.697.989-5.45 1.576-8.165.556-2.568 1.468-5.14 1.594-7.779a12.6 12.6 0 0 0-.341-3.625c-.262-1.045-.719-2.343-1.758-2.852-1.333-.653-2.757.214-3.595 1.236-.796.97-1.341 2.129-1.916 3.236-.672 1.298-1.349 2.594-2.104 3.847-.614 1.019-1.288 2.227-2.264 2.946-.826.608-1.997.682-2.986.7-.859.017-1.767-.055-2.562-.404-1.285-.56-2.136-1.845-3.019-2.875a35 35 0 0 0-2.875-2.951 31 31 0 0 0-3.048-2.504c-.906-.645-1.943-1.356-3.053-1.586-2.872-.597-2.757 4.382-2.72 6.117.057 2.666.461 5.333 1.494 7.802.467 1.121 1.112 2.234 1.313 3.446.15.9.004 1.816-.21 2.692-.346 1.417-.81 2.806-1.183 4.218-.109.415-.025.454-.386.461q-.529.011-1.057.021l-9.861.2-12.927.26-7.733.156c-1.463.03-2.928.02-4.392.028l-12.013.066-11.865.065c-1.433.008-2.867.033-4.3.02q-3.97-.037-7.94-.073l-12.86-.119-9.781-.09c-1.132-.01-2.262-.036-3.393-.063q-5.357-.127-10.715-.257l-12.677-.302c-2.163-.052-4.332-.148-6.497-.155a5.37 5.37 0 0 0-4.64 2.675c-.974 1.694-.71 3.72-.71 5.593v5.883c0 .154.075.65-.035.737-.1.078-.559.006-.68.008-3.015.02-6.033.018-9.05.02q-6.467.007-12.936.01l-8.332.001c-2.083 0-4.062.554-5.708 1.873-2.007 1.609-3.175 4.068-3.196 6.634-.018 1.955 0 3.91 0 5.864v27.53l.002 6.855.004 12.08.004 12.903.003 9.307c0 1.681-.008 3.361.1 5.04.152 2.347.49 5.185 2.952 6.208 2.171.903 4.841.6 7.14.6h6.153c.49 0 1-.041 1.489 0 .375.032.756.137 1.126.206l5.916 1.105c.873.164 1.824.255 2.6.722.892.535 1.271 1.453 1.29 2.458.02 1.108 0 2.218 0 3.325 0 3.422-.075 6.855 0 10.275.042 1.921 2.447 2.947 3.752 1.421.743-.868.511-2.272.511-3.33v-11.17c0-.744.012-1.487.42-2.141.515-.824 1.43-1.175 2.34-1.35 1.687-.322 3.377-.63 5.065-.946 1.015-.191 2.066-.487 3.095-.576.378-.034.772 0 1.152 0h238.395c-.708 1.765-.24 3.744.011 5.552.239 1.727.31 3.545-.629 5.089-.943 1.549-2.916 2.901-2.994 4.857-.081 2.013 1.768 3.812 3.554 4.412 1.692.568 3.546.168 5.197-.348 2.193-.683 4.286-1.659 6.45-2.428 2.124-.755 4.344-1.427 6.257-2.651 1.52-.973 3.078-2.464 3.624-4.236.304-.99-.037-1.757-.768-2.461-.759-.731-1.478-1.403-2.059-2.291-1.113-1.701-1.911-3.693-3.668-4.85a9 9 0 0 0-1.184-.647h32.206c.21 0 .691-.095.884 0 .216.106.18 1.235.213 1.541q.03.27.064.538c.034.273-.018.27-.183.468a2.3 2.3 0 0 0-.407.736c-.156.451-.198.936-.204 1.411-.015 1.525.258 3.047.32 4.571a37 37 0 0 1-.08 4.474c-.106 1.334-.377 2.817-.061 4.143.338 1.426 1.715 1.783 2.995 1.97 3.119.462 6.355.458 9.502.385 1.456-.034 3.017-.011 4.435-.381.697-.182 1.289-.531 1.585-1.213.225-.517.272-1.102.255-1.66-.086-2.925-1.792-5.565-2.713-8.269-.443-1.3-.602-2.597-.762-3.954-.136-1.159-.401-2.329-1.476-2.97-.141-.085-.243-.102-.293-.258-.044-.136.004-.362.005-.505q.003-.513-.019-1.027c.09.093.783 0 .903 0h7.078q.578.002 1.15.002z"/></svg>