<svg xmlns="http://www.w3.org/2000/svg" width="561" height="191" fill="none" viewBox="0 0 561 191"><path stroke="#fff" stroke-linecap="round" stroke-linejoin="round" stroke-width="3.128" d="M550.322 1.563H10.55a8.99 8.99 0 0 0-8.987 8.987v169.255a8.99 8.99 0 0 0 8.987 8.988h539.772a8.99 8.99 0 0 0 8.987-8.988V10.55a8.99 8.99 0 0 0-8.987-8.987"/><path stroke="#fff" stroke-linecap="round" stroke-linejoin="round" stroke-width="3.128" d="M1.563 149.809s0-13.715 278.872-13.715 278.872 20.319 278.872 20.319"/><path stroke="#fff" stroke-linecap="round" stroke-linejoin="round" stroke-width="3.128" d="m33.672 188.788-11.68-32.386s70.241-10.16 258.443-10.16 228.969 10.16 228.969 10.16l-5.72 32.386M502.965 181.859H31.727M525.15 178.5h-7.111v5.334h7.111zM542.359 178.5h-14.414v5.334h14.414zM64.855 127.766H20.859v5.334h43.996zM542.358 165.922h-11.874v4.635h11.874z"/></svg>