<svg xmlns="http://www.w3.org/2000/svg" width="302" height="189" fill="none" viewBox="0 0 302 189"><path stroke="#fff" stroke-linecap="round" stroke-linejoin="round" stroke-width="1.482" d="M128.115 102.008a4.356 4.356 0 0 1-4.356-4.355V54.376c0-8.24-6.704-14.946-14.944-14.946h-3.596a4.356 4.356 0 0 1 0-8.711h3.596c13.044 0 23.656 10.612 23.656 23.657v43.277a4.356 4.356 0 0 1-4.356 4.355M18.206 30.023H2.571c-1.462 0-2.332 1.635-1.514 2.848L23.4 66.018M94.761 102.008H31.63v12.14H94.76z"/><path stroke="#fff" stroke-linecap="round" stroke-linejoin="round" stroke-width="1.482" d="M31.953 102.011h62.484a3.885 3.885 0 0 0 3.846-3.33l9.905-68.658H18.203l9.905 68.658a3.884 3.884 0 0 0 3.845 3.33M51.564 102.011l-3.642-71.988M74.828 102.011l3.643-71.988M94.44 114.148H31.955a3.89 3.89 0 0 0-3.846 3.331l-9.265 64.217a3.885 3.885 0 0 0 3.846 4.439h81.012a3.885 3.885 0 0 0 3.846-4.439l-9.264-64.217a3.886 3.886 0 0 0-3.846-3.331M74.828 114.148l3.643 71.988M51.564 114.148l-3.642 71.988"/><path stroke="#fff" stroke-linecap="round" stroke-linejoin="round" stroke-width="1.482" d="m18.203 30.024 44.992-15.641 44.993 15.64zM47.922 30.024l15.273-15.641M78.47 30.024 63.195 14.382"/><path stroke="#fff" stroke-linecap="round" stroke-linejoin="round" stroke-width="1.482" d="M70.458.742h-14.52c-.64 0-1.138.56-1.063 1.197L56.6 16.525h13.193L71.521 1.94A1.07 1.07 0 0 0 70.458.742M300.85 153.971l-11.582-49.353a11.04 11.04 0 0 0-10.747-8.516h-17.31M256.883 85.79h-78.158l-22.76 96.982a4.233 4.233 0 0 0 4.122 5.2h115.436c2.729 0 4.745-2.544 4.122-5.2l-22.76-96.983zM176.301 96.102h83.694"/><path stroke="#fff" stroke-linecap="round" stroke-linejoin="round" stroke-width="1.482" d="M178.369 74.648h79.287c.834 0 1.456.77 1.28 1.586l-2.057 9.556h-77.733l-2.058-9.556a1.31 1.31 0 0 1 1.28-1.586zM179.144 85.79h-9.52c-1.54 0-2.551 1.608-1.884 2.995l6.906 14.352M260.292 5.505l-22.528 49.077h-39.528L176.012 6.168c-.484-1.057.306-2.252 1.467-2.2 6.425.287 23.973.738 40.173-1.814 20.513-3.23 36.417-.081 41.604 1.196a1.55 1.55 0 0 1 1.037 2.156z"/><path stroke="#fff" stroke-linecap="round" stroke-linejoin="round" stroke-width="1.482" d="M259.796 25.997a13 13 0 0 0-1.849-.416l4.526-9.862H173.82l27.051 58.93h34.551l11.724-25.538c1.357.585 2.968 1.176 4.895 1.777 6.874 2.14 14.181-1.695 16.323-8.568 2.141-6.874-1.695-14.181-8.568-16.323m2.772 14.517a6.964 6.964 0 0 1-8.72 4.578c-1.804-.562-3.143-1.082-4.134-1.576l5.511-12.004a6.965 6.965 0 0 1 7.343 9.003M268.221 12.164H168.074c-.975 0-1.773.798-1.773 1.773s.798 1.773 1.773 1.773h100.147c.975 0 1.773-.798 1.773-1.773s-.798-1.773-1.773-1.773"/></svg>