<svg xmlns="http://www.w3.org/2000/svg" width="1007" height="230" fill="none" viewBox="0 0 1007 230"><path stroke="#fff" stroke-linecap="round" stroke-linejoin="round" stroke-width="1.5" d="M806.077 162.178V21.428c0-1.234.133-20.631-.117-20.631H.954C.62.797.797 19.333.797 20.565v141.6c0 .027 5.715.013 6.025.013zM806.079 16.445H.801M917.181 198.106c.027-10.436 9.689-18.636 20-16.864 10.297 1.771 16.715 12.705 13.245 22.56s-15.361 14.329-24.474 9.245c-5.372-2.995-8.755-8.797-8.771-14.941"/><path stroke="#fff" stroke-linecap="round" stroke-linejoin="round" stroke-width="1.5" d="M903.219 198.099c.024-12.282 7.464-23.591 18.712-28.506 11.141-4.868 24.63-2.585 33.509 5.742 8.946 8.39 12.246 21.514 8.153 33.111-4.09 11.585-14.907 19.75-27.134 20.652-12.116.896-24.099-5.773-29.686-16.571-2.308-4.459-3.544-9.4-3.553-14.427zM705.617 198.102c.024-12.293 7.466-23.578 18.71-28.506 11.131-4.879 24.64-2.577 33.51 5.742 8.947 8.391 12.245 21.514 8.152 33.111-4.09 11.585-14.903 19.75-27.133 20.652-12.118.896-24.099-5.772-29.686-16.571-2.31-4.461-3.545-9.4-3.553-14.427z"/><path stroke="#fff" stroke-linecap="round" stroke-linejoin="round" stroke-width="1.5" d="M719.579 198.099c.045-10.431 9.675-18.641 20-16.864 10.297 1.774 16.715 12.705 13.245 22.56-3.47 9.857-15.359 14.324-24.474 9.245-5.382-2.997-8.746-8.795-8.771-14.941M632.75 198.102c.024-12.293 7.467-23.578 18.712-28.506 11.117-4.871 24.66-2.591 33.51 5.742 8.931 8.41 12.253 21.497 8.153 33.111-4.09 11.587-14.908 19.75-27.136 20.652-12.116.896-24.099-5.773-29.686-16.571a31.5 31.5 0 0 1-3.553-14.427z"/><path stroke="#fff" stroke-linecap="round" stroke-linejoin="round" stroke-width="1.5" d="M646.712 198.106c.027-10.435 9.689-18.636 20-16.864 10.291 1.771 16.725 12.707 13.245 22.56-3.478 9.849-15.354 14.332-24.474 9.245-5.372-2.995-8.755-8.797-8.771-14.941M35.059 198.105c.009-10.438 9.7-18.633 20-16.864 10.29 1.771 16.723 12.708 13.245 22.56-3.478 9.849-15.356 14.332-24.475 9.245-5.368-2.992-8.767-8.8-8.77-14.941"/><path stroke="#fff" stroke-linecap="round" stroke-linejoin="round" stroke-width="1.5" d="M21.098 198.103c.017-12.292 7.47-23.58 18.712-28.506 11.14-4.882 24.629-2.573 33.51 5.742 8.95 8.379 12.245 21.524 8.153 33.111-4.093 11.584-14.907 19.751-27.136 20.652-12.116.893-24.098-5.772-29.686-16.571-2.308-4.458-3.548-9.401-3.553-14.427zM107.926 198.106c.034-10.435 9.681-18.636 19.999-16.864 10.292 1.771 16.723 12.708 13.244 22.56-3.476 9.849-15.353 14.332-24.472 9.245-5.377-2.999-8.751-8.795-8.77-14.941z"/><path stroke="#fff" stroke-linecap="round" stroke-linejoin="round" stroke-width="1.5" d="M93.96 198.1c.026-12.289 7.467-23.584 18.713-28.506 11.136-4.873 24.635-2.58 33.51 5.742 8.944 8.39 12.246 21.514 8.152 33.111-4.091 11.585-14.905 19.75-27.134 20.652-12.116.894-24.1-5.772-29.686-16.571-2.308-4.461-3.543-9.4-3.553-14.427zM181.184 162.18l-30.551 18.313M97.43 183.844H79.772M27.595 179.091 10.883 162.18M806.079 162.182v34.287c0 .127.044 1.611-.036 1.611h-29.34c-.133 0-1.816.038-1.816-.033V162.18M774.885 193.305h-7.494M705.988 193.305h-11.465M638.325 180.35l-23.516-18.17M592.003 188.962v-26.708c0-.163-4.04-.075-4.411-.075-.398 0-4.099-.142-4.099.117v26.016c0 .606-.135.651.493.651q4.007-.003 8.017-.002zM583.49 174.466l-12.353-12.286M604.045 162.18l-12.041 12.109M587.746 188.961v7.868M596.955 196.828h-18.42"/><path stroke="#fff" stroke-linecap="round" stroke-linejoin="round" stroke-width="1.5" d="M806.075 198.074h57.619c.019 0 .009-2.559.009-2.71v-18.439c0-.294-.619-.146-.858-.146h-56.146c-.099 0-.623-.064-.623.053v2.657q-.002 9.292-.001 18.585M893.269 64.396c3.287 1.852 4.22 5.499 5.116 8.928 1.685 6.462 3.227 13.01 4.475 19.57a126 126 0 0 1 1.469 9.972c.25 2.297.127 4.629.127 6.937v27.573c0 1.704.517 4.167-1.469 4.982-1.412.579-2.994.698-4.416 1.336-1.702.761-3.263 1.827-4.665 3.05-.924.806-1.732 2.167-2.884 2.654-.874.37-2.037.179-2.944.179h-38.33c-.855 0-1.917.166-2.726-.208-1.545-.714-1.32-2.394-1.32-3.807V70.577c0-1.59-.662-4.757.623-6.108a2.3 2.3 0 0 1 1.671-.706h35.828c2.095 0 4.209-.077 6.301.022 1.046.049 2.195.124 3.144.61"/><path stroke="#fff" stroke-linecap="round" stroke-linejoin="round" stroke-width="1.5" d="M895.621 99.693c2.681-.02 4.572-1.234 4.121-4.107"/><path stroke="#fff" stroke-linecap="round" stroke-linejoin="round" stroke-width="1.5" d="M895.62 99.692c1.389-.009 3.082-.252 3.827-1.585.396-.706.409-1.549.321-2.332-.346-3.088-1.192-6.252-1.901-9.27-.803-3.415-1.589-6.833-2.416-10.24-.545-2.244-1.043-4.607-2.048-6.7-1.033-2.155-2.543-2.245-4.795-2.245h-33.203a2.46 2.46 0 0 0-1.372.418c-1.336.897-1.08 2.496-1.08 3.896v25.07c0 1.13.249 2.177 1.351 2.728.474.236.954.26 1.473.26zM825.637 53.625h74.877M825.637 53.625c-3.088-.003-4.827 1.904-4.832 4.95M820.805 176.781V58.578M895.75 53.625c-8.783-10.848-17.62-21.704-26.848-32.176-4.095-4.646-8.642-8.897-13.738-12.428-3.877-2.685-7.463-4.596-12.262-4.769-3.835-.14-7.687-.056-11.523-.077-1.35-.008-2.986-.29-4.209.463-2.231 1.376-1.53 4.73-1.53 6.888v42.1M921.427 101.855 906.5 63.665M900.516 53.625c2.537.091 5.159 1.141 6.822 3.107 1.287 1.52 1.877 4.016.761 5.817-1.318 2.125-5.264.083-5.676 2.72-.227 1.448.348 3.158.658 4.528l2.532 11.196a319 319 0 0 0 2.322 9.484c.556 2.15.986 4.616 2.205 6.523 2.2 3.445 7.607 4.477 11.286 4.851M977.008 190.911h21.824c1.938 0 5.098.349 6.488-1.45 1.08-1.395.89-3.658.89-5.294v-16.878M903.216 198.102h-6.337M896.879 198.106c-2.137.017-3.21-1.445-3.207-3.489M863.703 194.617h29.969M811.051 176.781v21.297M977.008 173.453h16.877M993.883 173.449c3.229-.117 4.749-2.35 6.477-4.774 1.03-1.452 2.85-3.529 4.92-2.869.74.235.94.717.93 1.475"/><path stroke="#fff" stroke-linecap="round" stroke-linejoin="round" stroke-width="1.5" d="M1000.91 167.942v-46.054c0-2.784.3-5.795-1.602-8.097-1.755-2.12-4.583-2.826-7.19-3.15q-24.101-2.996-48.201-5.992-11.245-1.398-22.491-2.797M965.348 197.089c2.508 0 5.18.288 7.669-.138 1.054-.179 2.117-.554 2.875-1.337.723-.75 1.024-1.738 1.099-2.759.232-3.133.014-6.357.014-9.495v-9.696"/><path stroke="#fff" stroke-linecap="round" stroke-linejoin="round" stroke-width="1.5" d="M977.006 173.666c-.013-4.361-.866-8.747-3.54-12.281-3.08-4.071-7.521-6.434-12.437-7.502-5.532-1.201-11.347-1.38-16.991-1.38h-37.411c-1.829 0-3.7-.099-5.523.083-2.54.255-5.123 1.204-6.439 3.55-1.286 2.292-.991 5.084-.991 7.602v30.88M.8 130.094h1000.12M.8.791v140.75c0 1.232-.131 20.631.118 20.631h805.007c.332 0 .155-18.538.155-19.768V.806c0-.028-5.715-.013-6.025-.013H1.424z"/><path stroke="#fff" stroke-linecap="round" stroke-linejoin="round" stroke-width="1.5" d="M806.077 130.087V1.189c0-.634-.437-.395-1.024-.395H1.771C1.2.794.797.565.797 1.18v160.996c0 .269 9.212-.37 10.084.002.712.302 1.527 1.544 2.059 2.083q2.381 2.412 4.765 4.823l9.193 9.303.68.686c.038.038-.974 1.367-1.077 1.52a31.11 31.11 0 0 0-4.76 11.215 31.2 31.2 0 0 0 1.134 16.657c4.383 12.393 16.5 20.855 29.64 20.713 13.165-.146 25.117-8.913 29.197-21.434 2.559-7.845 1.862-16.574-1.937-23.902H97.43c-5.358 10.338-4.364 23.174 2.505 32.582 7.605 10.417 21.258 15.101 33.651 11.559 12.693-3.626 21.907-15.304 22.491-28.488a31.25 31.25 0 0 0-5.444-19l19.123-11.463 10.157-6.088c.489-.294.961-.761 1.549-.761h389.172c.609 0 .579.077 1.082.576l9.503 9.45c.351.349 2.27 1.772 2.27 2.294v14.163c0 .46.204.301.659.301h6.802c.152 0 1.051.1 1.051-.077v-14.39c0-.664 1.37-1.586 1.799-2.017q2.55-2.565 5.1-5.128l4.444-4.469c.849-.852 1.112-.701 2.382-.701h7.162c.844 0 1.644-.215 2.316.305l8.789 6.793 11.322 8.748q1.422 1.1 2.842 2.195c.31.24-1.091 2.076-1.334 2.501-5.532 9.713-5.379 21.993.459 31.548 6.752 11.052 20.041 16.876 32.735 14.283 12.992-2.652 23.074-13.604 24.657-26.768.338-2.818.28-5.678-.155-8.48h11.465c-1.915 12.498 4.082 25.266 15.046 31.642 11.058 6.431 25.301 5.354 35.24-2.718 8.52-6.919 12.788-18.091 11.114-28.924h5.823c.124 0 1.671-.031 1.671.027v3.125c0 1.445-.344 1.621.99 1.621h87.562c.661 0 .266-2.602.266-3.176 0-.578 1.409-.287 1.885-.287h20.59c.62 0 7.491-.197 7.497.161.011.761.153 1.596.612 2.225.39.536.947.849 1.585 1.001 2.272.543 4.957.102 7.27.102-.302 0 1.06 7.796 1.275 8.551a31.2 31.2 0 0 0 4.085 8.786 31.2 31.2 0 0 0 15.43 11.96c12.129 4.278 25.98.479 34.227-9.401 4.856-5.815 7.424-13.342 7.189-20.91 2.508 0 5.18.288 7.669-.138 1.054-.179 2.117-.554 2.875-1.337.725-.75 1.023-1.738 1.099-2.759.075-.997-.492-1.948.676-1.948h19.31c1.865 0 3.77.097 5.62-.15 1.82-.241 3.03-1.129 3.39-2.969.38-1.943.22-4.034.22-5.999v-13.546c0-.914.21-1.948-.75-2.38-1.73-.778-3.58.88-4.54 2.078v-46.054c0-2.784.3-5.795-1.608-8.097-1.755-2.12-4.583-2.826-7.19-3.15-16.068-1.996-32.134-3.996-48.201-5.992l-21.062-2.62c-1.422-.175-1.376-.041-1.903-1.387l-3.947-10.096-10.508-26.884c1.581-.335 2.145-1.91 2.159-3.382.025-2.557-1.841-4.516-4.012-5.61a9.8 9.8 0 0 0-3.678-1.016c-1.6-.122-3.233-.027-4.84-.027-.562 0-.664-.348-1.023-.79l-2.389-2.953c-4.629-5.717-9.403-11.319-14.116-16.969-7.976-9.56-15.779-19.407-26.581-25.949-3.847-2.33-7.809-2.72-12.253-2.745-3.634-.02-7.405-.346-11.03-.059-.672.053-1.297.244-1.838.658-1.383 1.055-1.265 2.62-1.265 4.184v39.28c0 .565.276 5.333-.224 5.344-2.128.044-3.899 1.048-4.423 3.201-.225.925-.185 1.885-.185 2.831v69.859c0 .504.127.57-.401.57h-5.878q-4.21-.003-8.438-.002z"/><path stroke="#fff" stroke-linecap="round" stroke-linejoin="round" stroke-width="1.5" d="M906.504 63.656c-1.077.23-3-.219-3.796.78-1.12 1.405.24 4.755.551 6.13 1.599 7.07 3.157 14.148 5.011 21.156.95 3.59 1.862 6.38 5.347 8.066 2.416 1.17 5.155 1.79 7.813 2.057zM895.624 99.692c1.389-.009 3.082-.252 3.827-1.585.396-.706.409-1.549.321-2.332-.346-3.088-1.192-6.252-1.901-9.27-.803-3.415-1.589-6.833-2.416-10.24-.545-2.244-1.043-4.607-2.048-6.7-1.033-2.155-2.543-2.245-4.795-2.245h-33.203a2.46 2.46 0 0 0-1.372.418c-1.336.897-1.08 2.496-1.08 3.896v25.07c0 1.13.249 2.177 1.351 2.728.474.236.954.26 1.473.26zM93.965 198.1c.025-12.289 7.466-23.584 18.712-28.506 11.136-4.873 24.635-2.58 33.51 5.742 8.944 8.39 12.246 21.514 8.152 33.111-4.091 11.585-14.905 19.75-27.134 20.652-12.116.894-24.1-5.772-29.686-16.571-2.308-4.461-3.543-9.4-3.553-14.427zM21.098 198.095c.017-12.292 7.47-23.58 18.712-28.506 11.14-4.882 24.629-2.573 33.51 5.742 8.95 8.379 12.245 21.524 8.153 33.111-4.093 11.584-14.907 19.751-27.136 20.652-12.116.893-24.098-5.772-29.686-16.571-2.308-4.458-3.548-9.401-3.553-14.427zM632.75 198.094c.024-12.293 7.467-23.578 18.712-28.506 11.117-4.871 24.66-2.591 33.51 5.742 8.931 8.41 12.253 21.497 8.153 33.111-4.09 11.587-14.908 19.75-27.136 20.652-12.116.896-24.099-5.773-29.686-16.571a31.5 31.5 0 0 1-3.553-14.427zM705.617 198.095c.024-12.293 7.466-23.578 18.71-28.506 11.131-4.879 24.64-2.577 33.51 5.742 8.947 8.391 12.245 21.514 8.152 33.111-4.09 11.585-14.903 19.75-27.133 20.652-12.118.896-24.099-5.772-29.686-16.571-2.31-4.461-3.545-9.4-3.553-14.427zM903.219 198.099c.024-12.282 7.464-23.591 18.712-28.506 11.141-4.868 24.63-2.585 33.509 5.742 8.946 8.39 12.246 21.514 8.153 33.111-4.09 11.585-14.907 19.75-27.134 20.652-12.116.896-24.099-5.773-29.686-16.571-2.308-4.459-3.544-9.4-3.553-14.427z"/></svg>