<svg width="1007" height="230" viewBox="0 0 1007 230" fill="none" xmlns="http://www.w3.org/2000/svg">
<path d="M806.077 162.178V21.4279C806.077 20.1939 806.21 0.796875 805.96 0.796875H0.953852C0.619852 0.796875 0.796869 19.3329 0.796869 20.5649V162.165C0.796869 162.192 6.51183 162.178 6.82183 162.178H806.077Z" stroke="white" stroke-width="1.5" stroke-linecap="round" stroke-linejoin="round"/>
<path d="M806.079 16.4453H0.800781" stroke="white" stroke-width="1.5" stroke-linecap="round" stroke-linejoin="round"/>
<path d="M917.181 198.106C917.208 187.67 926.87 179.47 937.181 181.242C947.478 183.013 953.896 193.947 950.426 203.802C946.956 213.656 935.065 218.131 925.952 213.047C920.58 210.052 917.197 204.25 917.181 198.106Z" stroke="white" stroke-width="1.5" stroke-linecap="round" stroke-linejoin="round"/>
<path d="M903.219 198.099C903.243 185.817 910.683 174.508 921.931 169.593C933.072 164.725 946.561 167.008 955.44 175.335C964.386 183.725 967.686 196.849 963.593 208.446C959.503 220.031 948.686 228.196 936.459 229.098C924.343 229.994 912.36 223.325 906.773 212.527C904.465 208.068 903.229 203.127 903.22 198.1L903.219 198.099Z" stroke="white" stroke-width="1.5" stroke-linecap="round" stroke-linejoin="round"/>
<path d="M705.617 198.102C705.641 185.809 713.083 174.524 724.327 169.596C735.458 164.717 748.967 167.019 757.837 175.338C766.784 183.729 770.082 196.852 765.989 208.449C761.899 220.034 751.086 228.199 738.856 229.101C726.738 229.997 714.757 223.329 709.17 212.53C706.86 208.069 705.625 203.13 705.617 198.103V198.102Z" stroke="white" stroke-width="1.5" stroke-linecap="round" stroke-linejoin="round"/>
<path d="M719.579 198.099C719.624 187.668 729.254 179.458 739.579 181.235C749.876 183.009 756.294 193.94 752.824 203.795C749.354 213.652 737.465 218.119 728.35 213.04C722.968 210.043 719.604 204.245 719.579 198.099Z" stroke="white" stroke-width="1.5" stroke-linecap="round" stroke-linejoin="round"/>
<path d="M632.75 198.102C632.774 185.809 640.217 174.524 651.462 169.596C662.579 164.725 676.122 167.005 684.972 175.338C693.903 183.748 697.225 196.835 693.125 208.449C689.035 220.036 678.217 228.199 665.989 229.101C653.873 229.997 641.89 223.328 636.303 212.53C633.995 208.071 632.76 203.13 632.75 198.103V198.102Z" stroke="white" stroke-width="1.5" stroke-linecap="round" stroke-linejoin="round"/>
<path d="M646.712 198.106C646.739 187.671 656.401 179.47 666.712 181.242C677.003 183.013 683.437 193.949 679.957 203.802C676.479 213.651 664.603 218.134 655.483 213.047C650.111 210.052 646.728 204.25 646.712 198.106Z" stroke="white" stroke-width="1.5" stroke-linecap="round" stroke-linejoin="round"/>
<path d="M35.0586 198.105C35.0676 187.667 44.7586 179.472 55.0586 181.241C65.3496 183.012 71.7816 193.949 68.3036 203.801C64.8256 213.65 52.9476 218.133 43.8286 213.046C38.4606 210.054 35.0616 204.246 35.0586 198.105Z" stroke="white" stroke-width="1.5" stroke-linecap="round" stroke-linejoin="round"/>
<path d="M21.0977 198.103C21.1147 185.811 28.5686 174.523 39.8096 169.597C50.9506 164.715 64.4386 167.024 73.3196 175.339C82.2696 183.718 85.5647 196.863 81.4727 208.45C77.3797 220.034 66.5656 228.201 54.3366 229.102C42.2206 229.995 30.2386 223.33 24.6506 212.531C22.3426 208.073 21.1027 203.13 21.0977 198.104V198.103Z" stroke="white" stroke-width="1.5" stroke-linecap="round" stroke-linejoin="round"/>
<path d="M107.926 198.106C107.96 187.671 117.607 179.47 127.925 181.242C138.217 183.013 144.648 193.95 141.169 203.802C137.693 213.651 125.816 218.134 116.697 213.047C111.32 210.048 107.946 204.252 107.927 198.106H107.926Z" stroke="white" stroke-width="1.5" stroke-linecap="round" stroke-linejoin="round"/>
<path d="M93.9609 198.1C93.9859 185.811 101.427 174.516 112.673 169.594C123.809 164.721 137.308 167.014 146.183 175.336C155.127 183.726 158.429 196.85 154.335 208.447C150.244 220.032 139.43 228.197 127.201 229.099C115.085 229.993 103.101 223.327 97.515 212.528C95.207 208.067 93.972 203.128 93.962 198.101L93.9609 198.1Z" stroke="white" stroke-width="1.5" stroke-linecap="round" stroke-linejoin="round"/>
<path d="M181.184 162.18L150.633 180.493" stroke="white" stroke-width="1.5" stroke-linecap="round" stroke-linejoin="round"/>
<path d="M97.4294 183.844H79.7734" stroke="white" stroke-width="1.5" stroke-linecap="round" stroke-linejoin="round"/>
<path d="M27.5948 179.091L10.8828 162.18" stroke="white" stroke-width="1.5" stroke-linecap="round" stroke-linejoin="round"/>
<path d="M806.079 162.182V196.469C806.079 196.596 806.123 198.08 806.043 198.08H776.703C776.57 198.08 774.887 198.118 774.887 198.047V162.18" stroke="white" stroke-width="1.5" stroke-linecap="round" stroke-linejoin="round"/>
<path d="M774.885 193.305H767.391" stroke="white" stroke-width="1.5" stroke-linecap="round" stroke-linejoin="round"/>
<path d="M705.988 193.305H694.523" stroke="white" stroke-width="1.5" stroke-linecap="round" stroke-linejoin="round"/>
<path d="M638.325 180.35L614.809 162.18" stroke="white" stroke-width="1.5" stroke-linecap="round" stroke-linejoin="round"/>
<path d="M592.003 188.962V162.254C592.003 162.091 587.963 162.179 587.592 162.179C587.194 162.179 583.493 162.037 583.493 162.296V188.312C583.493 188.918 583.358 188.963 583.986 188.963C586.657 188.961 589.33 188.961 592.003 188.961V188.962Z" stroke="white" stroke-width="1.5" stroke-linecap="round" stroke-linejoin="round"/>
<path d="M583.49 174.466L571.137 162.18" stroke="white" stroke-width="1.5" stroke-linecap="round" stroke-linejoin="round"/>
<path d="M604.045 162.18L592.004 174.289" stroke="white" stroke-width="1.5" stroke-linecap="round" stroke-linejoin="round"/>
<path d="M587.746 188.961V196.829" stroke="white" stroke-width="1.5" stroke-linecap="round" stroke-linejoin="round"/>
<path d="M596.955 196.828H578.535" stroke="white" stroke-width="1.5" stroke-linecap="round" stroke-linejoin="round"/>
<path d="M806.075 198.074H863.694C863.713 198.074 863.703 195.515 863.703 195.364V176.925C863.703 176.631 863.084 176.779 862.845 176.779H806.699C806.6 176.779 806.076 176.715 806.076 176.832V179.489C806.074 185.683 806.075 191.879 806.075 198.074Z" stroke="white" stroke-width="1.5" stroke-linecap="round" stroke-linejoin="round"/>
<path d="M893.269 64.3959C896.556 66.2479 897.489 69.8949 898.385 73.3239C900.07 79.7859 901.612 86.3339 902.86 92.8949C903.489 96.2019 903.965 99.5179 904.329 102.866C904.579 105.163 904.456 107.495 904.456 109.803V137.376C904.456 139.08 904.973 141.543 902.987 142.358C901.575 142.937 899.993 143.056 898.571 143.694C896.869 144.455 895.308 145.521 893.906 146.744C892.982 147.55 892.174 148.911 891.022 149.398C890.148 149.768 888.985 149.577 888.078 149.577H849.748C848.893 149.577 847.831 149.743 847.022 149.369C845.477 148.655 845.702 146.975 845.702 145.562V70.5769C845.702 68.9879 845.04 65.8199 846.325 64.4689C846.76 64.0099 847.366 63.7629 847.996 63.7629H883.824C885.919 63.7629 888.033 63.6859 890.125 63.7849C891.171 63.8339 892.32 63.9089 893.269 64.3959Z" stroke="white" stroke-width="1.5" stroke-linecap="round" stroke-linejoin="round"/>
<path d="M895.621 99.6929C898.302 99.6739 900.193 98.4589 899.742 95.5859" stroke="white" stroke-width="1.5" stroke-linecap="round" stroke-linejoin="round"/>
<path d="M895.62 99.6923C897.009 99.6833 898.702 99.4403 899.447 98.1073C899.843 97.4013 899.856 96.5583 899.768 95.7753C899.422 92.6873 898.576 89.5233 897.867 86.5053C897.064 83.0903 896.278 79.6723 895.451 76.2653C894.906 74.0213 894.408 71.6583 893.403 69.5653C892.37 67.4103 890.86 67.3203 888.608 67.3203H855.405C854.916 67.3203 854.437 67.4663 854.033 67.7383C852.697 68.6353 852.953 70.2343 852.953 71.6343V96.7033C852.953 97.8333 853.202 98.8813 854.304 99.4323C854.778 99.6683 855.258 99.6923 855.777 99.6923H895.619H895.62Z" stroke="white" stroke-width="1.5" stroke-linecap="round" stroke-linejoin="round"/>
<path d="M825.637 53.625H900.514" stroke="white" stroke-width="1.5" stroke-linecap="round" stroke-linejoin="round"/>
<path d="M825.637 53.625C822.549 53.622 820.81 55.529 820.805 58.575" stroke="white" stroke-width="1.5" stroke-linecap="round" stroke-linejoin="round"/>
<path d="M820.805 176.781V58.5781" stroke="white" stroke-width="1.5" stroke-linecap="round" stroke-linejoin="round"/>
<path d="M895.75 53.6254C886.967 42.7774 878.13 31.9214 868.902 21.4494C864.807 16.8034 860.26 12.5524 855.164 9.02143C851.287 6.33643 847.701 4.42545 842.902 4.25245C839.067 4.11145 835.215 4.19642 831.379 4.17542C830.029 4.16742 828.393 3.88543 827.17 4.63843C824.939 6.01443 825.64 9.36844 825.64 11.5264V53.6254" stroke="white" stroke-width="1.5" stroke-linecap="round" stroke-linejoin="round"/>
<path d="M921.427 101.855L906.5 63.6641" stroke="white" stroke-width="1.5" stroke-linecap="round" stroke-linejoin="round"/>
<path d="M900.516 53.625C903.053 53.716 905.675 54.766 907.338 56.732C908.625 58.252 909.215 60.748 908.099 62.549C906.781 64.674 902.835 62.632 902.423 65.269C902.196 66.717 902.771 68.427 903.081 69.797C903.925 73.53 904.769 77.261 905.613 80.993C906.332 84.165 907.119 87.328 907.935 90.477C908.491 92.627 908.921 95.093 910.14 97C912.34 100.445 917.747 101.477 921.426 101.851" stroke="white" stroke-width="1.5" stroke-linecap="round" stroke-linejoin="round"/>
<path d="M977.008 190.911H998.832C1000.77 190.911 1003.93 191.26 1005.32 189.461C1006.4 188.066 1006.21 185.803 1006.21 184.167V167.289" stroke="white" stroke-width="1.5" stroke-linecap="round" stroke-linejoin="round"/>
<path d="M903.216 198.102H896.879" stroke="white" stroke-width="1.5" stroke-linecap="round" stroke-linejoin="round"/>
<path d="M896.879 198.106C894.742 198.123 893.669 196.661 893.672 194.617" stroke="white" stroke-width="1.5" stroke-linecap="round" stroke-linejoin="round"/>
<path d="M863.703 194.617H893.672" stroke="white" stroke-width="1.5" stroke-linecap="round" stroke-linejoin="round"/>
<path d="M811.051 176.781V198.078" stroke="white" stroke-width="1.5" stroke-linecap="round" stroke-linejoin="round"/>
<path d="M977.008 173.453H993.885" stroke="white" stroke-width="1.5" stroke-linecap="round" stroke-linejoin="round"/>
<path d="M993.883 173.449C997.112 173.332 998.632 171.099 1000.36 168.675C1001.39 167.223 1003.21 165.146 1005.28 165.806C1006.02 166.041 1006.22 166.523 1006.21 167.281" stroke="white" stroke-width="1.5" stroke-linecap="round" stroke-linejoin="round"/>
<path d="M1000.91 167.942V121.888C1000.91 119.104 1001.21 116.093 999.308 113.791C997.553 111.671 994.725 110.965 992.118 110.641C976.05 108.645 959.984 106.645 943.917 104.649C936.42 103.716 928.923 102.786 921.426 101.852" stroke="white" stroke-width="1.5" stroke-linecap="round" stroke-linejoin="round"/>
<path d="M965.348 197.089C967.856 197.089 970.528 197.377 973.017 196.951C974.071 196.772 975.134 196.397 975.892 195.614C976.615 194.864 976.916 193.876 976.991 192.855C977.223 189.722 977.005 186.498 977.005 183.36V173.664" stroke="white" stroke-width="1.5" stroke-linecap="round" stroke-linejoin="round"/>
<path d="M977.006 173.666C976.993 169.305 976.14 164.919 973.466 161.385C970.386 157.314 965.945 154.951 961.029 153.883C955.497 152.682 949.682 152.503 944.038 152.503H906.627C904.798 152.503 902.927 152.404 901.104 152.586C898.564 152.841 895.981 153.79 894.665 156.136C893.379 158.428 893.674 161.22 893.674 163.738V194.618" stroke="white" stroke-width="1.5" stroke-linecap="round" stroke-linejoin="round"/>
<path d="M0.800781 130.094H1000.92" stroke="white" stroke-width="1.5" stroke-linecap="round" stroke-linejoin="round"/>
<path d="M0.800581 0.791061V141.541C0.800581 142.773 0.668585 162.172 0.917585 162.172H805.925C806.257 162.172 806.08 143.634 806.08 142.404V0.806076C806.08 0.778076 800.365 0.793075 800.055 0.793075H1.42357C1.21057 0.791075 1.00558 0.791061 0.800581 0.791061Z" stroke="white" stroke-width="1.5" stroke-linecap="round" stroke-linejoin="round"/>
<path d="M806.077 130.087V1.18914C806.077 0.555136 805.64 0.794178 805.053 0.794178H1.77087C1.20087 0.794178 0.796875 0.565127 0.796875 1.17913V162.175C0.796875 162.444 10.0089 161.805 10.8809 162.177C11.5929 162.479 12.4079 163.721 12.9399 164.26C14.5279 165.868 16.1149 167.476 17.7049 169.083C20.7689 172.183 23.8339 175.285 26.8979 178.386C27.1249 178.615 27.3509 178.843 27.5779 179.072C27.6159 179.11 26.6039 180.439 26.5009 180.592C25.7129 181.743 25.0059 182.952 24.3809 184.2C23.1749 186.607 22.2878 189.171 21.7408 191.807C20.5978 197.333 20.9909 203.144 22.8749 208.464C27.2579 220.857 39.3759 229.319 52.5159 229.177C65.6799 229.031 77.6319 220.264 81.7119 207.743C84.2709 199.898 83.5738 191.169 79.7748 183.841H97.4299C92.0719 194.179 93.0659 207.015 99.9349 216.423C107.54 226.84 121.193 231.524 133.586 227.982C146.279 224.356 155.493 212.678 156.077 199.494C156.375 192.774 154.447 186.037 150.633 180.494C157.007 176.673 163.383 172.851 169.756 169.031C173.141 167.002 176.528 164.972 179.913 162.943C180.402 162.649 180.874 162.182 181.462 162.182H570.634C571.243 162.182 571.213 162.259 571.716 162.758C574.884 165.908 578.051 169.057 581.219 172.208C581.57 172.557 583.489 173.98 583.489 174.502V188.665C583.489 189.125 583.693 188.966 584.148 188.966H590.95C591.102 188.966 592.001 189.066 592.001 188.889V174.499C592.001 173.835 593.371 172.913 593.8 172.482C595.5 170.772 597.199 169.062 598.9 167.354C600.381 165.865 601.864 164.374 603.344 162.885C604.193 162.033 604.456 162.184 605.726 162.184H612.888C613.732 162.184 614.532 161.969 615.204 162.489C618.134 164.753 621.063 167.017 623.993 169.282C627.768 172.198 631.542 175.115 635.315 178.03C636.262 178.763 637.211 179.496 638.157 180.225C638.467 180.465 637.066 182.301 636.823 182.726C631.291 192.439 631.444 204.719 637.282 214.274C644.034 225.326 657.323 231.15 670.017 228.557C683.009 225.905 693.091 214.953 694.674 201.789C695.012 198.971 694.954 196.111 694.519 193.309H705.984C704.069 205.807 710.066 218.575 721.03 224.951C732.088 231.382 746.331 230.305 756.27 222.233C764.79 215.314 769.058 204.142 767.384 193.309H773.207C773.331 193.309 774.878 193.278 774.878 193.336V196.461C774.878 197.906 774.534 198.082 775.868 198.082H863.43C864.091 198.082 863.696 195.48 863.696 194.906C863.696 194.328 865.105 194.619 865.581 194.619H886.171C886.791 194.619 893.662 194.422 893.668 194.78C893.679 195.541 893.821 196.376 894.28 197.005C894.67 197.541 895.227 197.854 895.865 198.006C898.137 198.549 900.822 198.108 903.135 198.108C902.833 198.108 904.195 205.904 904.41 206.659C905.304 209.778 906.687 212.752 908.495 215.445C912.195 220.954 917.664 225.197 923.925 227.405C936.054 231.683 949.905 227.884 958.152 218.004C963.008 212.189 965.576 204.662 965.341 197.094C967.849 197.094 970.521 197.382 973.01 196.956C974.064 196.777 975.127 196.402 975.885 195.619C976.61 194.869 976.908 193.881 976.984 192.86C977.059 191.863 976.492 190.912 977.66 190.912H996.97C998.835 190.912 1000.74 191.009 1002.59 190.762C1004.41 190.521 1005.62 189.633 1005.98 187.793C1006.36 185.85 1006.2 183.759 1006.2 181.794V168.248C1006.2 167.334 1006.41 166.3 1005.45 165.868C1003.72 165.09 1001.87 166.748 1000.91 167.946V121.892C1000.91 119.108 1001.21 116.097 999.302 113.795C997.547 111.675 994.719 110.969 992.112 110.645C976.044 108.649 959.978 106.649 943.911 104.653C936.891 103.779 929.87 102.907 922.849 102.033C921.427 101.858 921.473 101.992 920.946 100.646C919.631 97.2812 918.314 93.9152 916.999 90.5502C913.496 81.5892 909.994 72.6281 906.491 63.6661C908.072 63.3311 908.636 61.7562 908.65 60.2842C908.675 57.7272 906.809 55.7681 904.638 54.6741C903.497 54.0991 902.235 53.7531 900.96 53.6581C899.36 53.5361 897.727 53.6312 896.12 53.6312C895.558 53.6312 895.456 53.2831 895.097 52.8401C894.3 51.8551 893.503 50.8722 892.708 49.8882C888.079 44.1712 883.305 38.5692 878.592 32.9192C870.616 23.3582 862.813 13.5121 852.011 6.97014C848.164 4.64014 844.202 4.25015 839.758 4.22515C836.124 4.20515 832.353 3.87913 828.728 4.16613C828.056 4.21913 827.431 4.41015 826.89 4.82415C825.507 5.87915 825.625 7.44417 825.625 9.00817V48.2881C825.625 48.8531 825.901 53.6211 825.401 53.6321C823.273 53.6761 821.502 54.6802 820.978 56.8332C820.753 57.7582 820.793 58.7182 820.793 59.6642V129.523C820.793 130.027 820.92 130.093 820.392 130.093H814.514C811.708 130.091 808.893 130.091 806.076 130.091L806.077 130.087Z" stroke="white" stroke-width="1.5" stroke-linecap="round" stroke-linejoin="round"/>
<path d="M906.504 63.6562C905.427 63.8853 903.504 63.4373 902.708 64.4363C901.588 65.8413 902.948 69.1912 903.259 70.5652C904.858 77.6352 906.416 84.7143 908.27 91.7223C909.22 95.3113 910.132 98.1013 913.617 99.7883C916.033 100.958 918.772 101.578 921.43 101.845C916.454 89.1173 911.478 76.3862 906.503 63.6562H906.504Z" stroke="white" stroke-width="1.5" stroke-linecap="round" stroke-linejoin="round"/>
<path d="M895.624 99.6923C897.013 99.6833 898.706 99.4403 899.451 98.1073C899.847 97.4013 899.86 96.5583 899.772 95.7753C899.426 92.6873 898.58 89.5233 897.871 86.5053C897.068 83.0903 896.282 79.6723 895.455 76.2653C894.91 74.0213 894.412 71.6583 893.407 69.5653C892.374 67.4103 890.864 67.3203 888.612 67.3203H855.409C854.92 67.3203 854.441 67.4663 854.037 67.7383C852.701 68.6353 852.957 70.2343 852.957 71.6343V96.7033C852.957 97.8333 853.206 98.8813 854.308 99.4323C854.782 99.6683 855.262 99.6923 855.781 99.6923H895.623H895.624Z" stroke="white" stroke-width="1.5" stroke-linecap="round" stroke-linejoin="round"/>
<path d="M93.9648 198.1C93.9898 185.811 101.431 174.516 112.677 169.594C123.813 164.721 137.312 167.014 146.187 175.336C155.131 183.726 158.433 196.85 154.339 208.447C150.248 220.032 139.434 228.197 127.205 229.099C115.089 229.993 103.105 223.327 97.5189 212.528C95.2109 208.067 93.9759 203.128 93.9659 198.101L93.9648 198.1Z" stroke="white" stroke-width="1.5" stroke-linecap="round" stroke-linejoin="round"/>
<path d="M21.0977 198.095C21.1147 185.803 28.5686 174.515 39.8096 169.589C50.9506 164.707 64.4386 167.016 73.3196 175.331C82.2696 183.71 85.5647 196.855 81.4727 208.442C77.3797 220.026 66.5656 228.193 54.3366 229.094C42.2206 229.987 30.2386 223.322 24.6506 212.523C22.3426 208.065 21.1027 203.122 21.0977 198.096V198.095Z" stroke="white" stroke-width="1.5" stroke-linecap="round" stroke-linejoin="round"/>
<path d="M632.75 198.094C632.774 185.801 640.217 174.516 651.462 169.588C662.579 164.717 676.122 166.997 684.972 175.33C693.903 183.74 697.225 196.827 693.125 208.441C689.035 220.028 678.217 228.191 665.989 229.093C653.873 229.989 641.89 223.32 636.303 212.522C633.995 208.063 632.76 203.122 632.75 198.095V198.094Z" stroke="white" stroke-width="1.5" stroke-linecap="round" stroke-linejoin="round"/>
<path d="M705.617 198.095C705.641 185.802 713.083 174.517 724.327 169.589C735.458 164.71 748.967 167.012 757.837 175.331C766.784 183.722 770.082 196.845 765.989 208.442C761.899 220.027 751.086 228.192 738.856 229.094C726.738 229.99 714.757 223.322 709.17 212.523C706.86 208.062 705.625 203.123 705.617 198.096V198.095Z" stroke="white" stroke-width="1.5" stroke-linecap="round" stroke-linejoin="round"/>
<path d="M903.219 198.099C903.243 185.817 910.683 174.508 921.931 169.593C933.072 164.725 946.561 167.008 955.44 175.335C964.386 183.725 967.686 196.849 963.593 208.446C959.503 220.031 948.686 228.196 936.459 229.098C924.343 229.994 912.36 223.325 906.773 212.527C904.465 208.068 903.229 203.127 903.22 198.1L903.219 198.099Z" stroke="white" stroke-width="1.5" stroke-linecap="round" stroke-linejoin="round"/>
</svg>
