<svg width="3425" height="1600" viewBox="0 0 3425 1600" fill="none" xmlns="http://www.w3.org/2000/svg">
<path d="M2072.36 574.211C2085.04 573.667 2101.72 574.159 2114.67 574.147L2200.07 574.068L2287.14 574.049C2293.76 574.048 2330.69 572.68 2334.13 575.765C2334.56 580.638 2328.22 642.404 2327.49 643.477C2323.9 643.358 2309.06 638.701 2303.9 637.847C2286.56 634.97 2270.99 635.591 2253.54 635.579L2192.7 635.562L2142.03 635.574C2129.82 635.577 2105.26 634.3 2095.82 640.247C2083.72 647.861 2077.15 683.514 2073.87 696.683L2059.13 753.976C2052.45 779.58 2045.94 805.332 2039.02 830.757C2035.03 845.431 2024.69 873.862 2049.4 875.268C2070.05 875.977 2091.29 876.573 2111.91 875.113C2124.04 874.254 2128.42 866.708 2131.68 856.148C2137.03 838.844 2140.69 821.295 2145.64 803.887C2147.47 797.484 2149.89 789.848 2150.46 783.294C2122.65 780.251 2099.99 783.587 2073.21 789.269C2073.85 784.653 2078.34 768.436 2079.98 762.766C2083.25 751.523 2086.51 734.282 2090.39 723.941C2093.69 721.257 2125.18 722.219 2131.61 722.221L2199.97 722.266L2276.99 722.243C2286.67 722.242 2308.76 721.708 2317.32 722.928L2317.66 723.687C2313.73 731.183 2305.31 742.355 2302.81 749.805C2286.77 797.682 2275.83 847.818 2263.44 896.772C2260.38 908.831 2261.16 919.994 2264.05 931.807C2264.39 933.208 2263.53 934.509 2262.9 935.65C2261.31 936.663 2259.41 937.323 2257.55 937.304C2242.88 937.153 2227.83 937.201 2213.19 937.212L2174.97 937.228C2168.3 937.23 2156.49 937.565 2150.34 936.402C2147.32 933.171 2149.73 914.182 2149.6 907.824C2145.74 908.224 2142.43 937.988 2101.49 937.143C2057.49 936.234 2007.18 938.78 1962.21 936.162C1943.79 935.09 1927.85 933.19 1913.31 919.43C1877.27 884.01 1894.48 844.227 1905.43 802.287L1924.34 729.824L1939.14 672.255C1948.36 636.723 1953.81 607.746 1989.07 588.642C2017.31 573.343 2041.46 574.812 2072.36 574.211Z" fill="#2F318B"/>
<path d="M1605.49 574.116C1624.16 573.19 1650.83 573.987 1670.33 573.986L1798.16 574.02C1799.05 579.774 1800.99 586.776 1802.19 592.672L1812.67 642.32L1836.37 756.809C1843.53 792.324 1851.03 827.771 1858.87 863.142C1862.31 878.313 1865.56 894.549 1870.18 909.342C1873.64 920.419 1880.71 928.203 1887.68 937.108C1852.28 938.025 1812.55 937.187 1776.68 937.186L1738.06 937.175C1732.92 937.167 1722.18 937.406 1717.47 936.834C1717.08 936.538 1716.63 936.195 1716.12 935.804C1717.15 929.958 1724.14 914.764 1723.91 909.471C1723.21 893.063 1716.63 852.454 1711.46 838.53C1697.7 839.777 1670.73 838.638 1655.69 838.642L1543.82 838.694C1542.32 840.577 1540.4 843.4 1539.07 845.488C1523.48 870.021 1502.99 893.235 1491.88 920.138C1490.81 922.744 1491.3 933.862 1491.31 937.145C1481.91 937.193 1397.35 937.837 1394.3 936.232C1394.55 933.675 1401.51 928.712 1403.77 926.47C1428.2 902.343 1445.6 874.235 1464.68 845.981C1484.8 816.736 1504.66 787.318 1524.27 757.729C1561.31 703.778 1597.91 649.536 1634.09 595.008C1627.03 586.416 1616.04 580.193 1605.94 575.895L1605.49 574.116ZM1581.75 781.561C1591.73 781.688 1601.71 781.729 1611.69 781.684C1639.47 781.693 1673.69 782.659 1700.93 781.534C1697.09 768.841 1695.64 756.38 1693.01 743.333L1677.94 670.999C1677.01 666.671 1674.02 649.746 1672.66 647.041L1671.44 646.498C1668.87 651.814 1663.48 659.27 1660.04 664.379L1642.39 690.692C1622.01 720.874 1601.8 751.164 1581.75 781.561Z" fill="#2F318B"/>
<path d="M2577.43 573.996C2604.45 573.995 2911.04 572.862 2914.11 574.89C2917.03 586.741 2908.17 622.238 2909.1 636.209C2909.69 645.062 2894.52 636.73 2889.71 636.21C2880.4 635.204 2870.65 635.576 2861.31 635.575L2802.44 635.596L2739.39 879.538C2733.33 901.554 2730.03 914.914 2736.95 937.102C2705.69 938.027 2669.4 937.196 2637.63 937.198L2600.07 937.197C2591.86 937.196 2582.04 937.46 2574.01 936.542C2573.19 934.955 2576.76 930.449 2577.68 929.005C2596.21 899.595 2602.56 861.521 2611.28 828.294C2627.63 763.979 2644.34 699.756 2661.42 635.63L2604.06 635.547C2582.72 635.534 2569.57 634.139 2549.02 641.891C2558.14 619.117 2567.61 596.482 2577.43 573.996Z" fill="#2F318B"/>
<path d="M2384.03 574.035C2437.48 572.976 2494.64 574.013 2548.39 574.016C2542.37 584.692 2535.16 594.192 2531.12 606.026C2522.7 630.644 2516.12 657.221 2509.72 682.451L2483.7 783.521L2465.36 854.344C2457.18 884.819 2448.45 904.587 2456.02 936.694C2451.79 937.623 2413.7 937.191 2406.59 937.155C2368.57 936.959 2330.22 937.522 2292.22 937.073C2293.2 935.085 2294.75 932.523 2296.03 930.668C2313.05 905.907 2318.02 876.831 2325.6 848.208L2354.68 735.545L2374.69 658.621C2378.09 645.63 2384.76 622.817 2386.58 609.709C2387.92 600.291 2387.68 590.718 2385.87 581.38C2385.32 578.654 2384.56 577.254 2384.03 574.035Z" fill="#2F318B"/>
<path d="M514.34 969.098L2107.18 969.096L2635.43 969.095L2813.11 969.096C2822.97 969.098 2898.22 968.313 2900.2 970.06C2901.39 972.329 2900.88 975.001 2900.68 977.604L940.474 977.508L655.728 977.512L560.987 977.516C557.277 977.516 517.689 978.222 515.039 976.79C513.665 974.903 514.217 971.576 514.34 969.098Z" fill="#2F318B"/>
<path d="M1333.25 1009.01C1340.42 1008.23 1350.9 1010.83 1356.83 1015.21C1369.64 1024.61 1366.07 1038.72 1366.76 1051.89C1367.84 1073.06 1364.09 1086.53 1340.43 1089.59C1312.15 1091.73 1305.87 1073.23 1306.66 1049.53C1307.44 1025.81 1307.28 1015.36 1333.25 1009.01ZM1321.3 1030.42C1320.39 1039.44 1318.24 1064.18 1323.77 1070.86C1327.21 1075.02 1332.29 1075.77 1337.38 1076.24C1342.2 1075.5 1348.03 1074.77 1351.24 1070.59C1354.67 1066.14 1353.78 1038.44 1352.72 1032.25C1352.24 1029.49 1351.51 1027.95 1349.18 1026.35C1345.47 1023.79 1340.29 1023.27 1335.87 1023.28C1329.52 1024.08 1325.57 1025.3 1321.3 1030.42Z" fill="#2F318B"/>
<path d="M2212.45 1009.01C2232.21 1007.73 2245.14 1020.77 2244.44 1040.16C2243.54 1064.79 2249.8 1084.68 2217.86 1089.82C2183 1091.23 2184.04 1066.52 2184.87 1040.95C2185.6 1018.75 2191.74 1013.43 2212.45 1009.01ZM2216.72 1076.12C2221.09 1075.26 2226.63 1074.19 2229.18 1070.11C2233.07 1063.91 2232.37 1038.96 2230.54 1031.83C2229.83 1029.09 2228.1 1027.19 2225.67 1025.77C2222.01 1023.62 2217.25 1023.36 2213.09 1023.27C2208.6 1023.86 2203.43 1024.35 2200.47 1028.26C2196.72 1033.22 2197.79 1060.04 2198.87 1066.58C2199.34 1069.46 2200.89 1071.3 2203.27 1072.9C2206.98 1075.38 2212.31 1076.32 2216.72 1076.12Z" fill="#2F318B"/>
<path d="M1203.2 1009.08C1209.39 1008.57 1217.75 1010.48 1223.11 1013.66C1228.74 1016.95 1232.82 1022.36 1234.42 1028.69C1236.12 1035.4 1236.99 1070.74 1231.57 1077.49C1224.32 1086.52 1220.1 1087.41 1209.5 1089.8C1195.4 1090.21 1176.6 1084.2 1176.33 1066.93C1175.93 1040.8 1169.41 1014.02 1203.2 1009.08ZM1210.58 1075.47C1214.6 1074.27 1218.55 1072.95 1220.64 1068.94C1223.45 1063.58 1222.59 1036.02 1220.49 1029.99C1219.65 1027.59 1217.73 1026.24 1215.48 1025.22C1210.71 1023.07 1205.13 1023.48 1200.05 1023.87C1196.28 1025.02 1192.55 1026.19 1190.56 1029.92C1188.54 1033.71 1188.76 1062.71 1190.29 1067.3C1191.34 1070.44 1193.48 1072.87 1196.49 1074.25C1200.75 1076.2 1206.05 1076.08 1210.58 1075.47Z" fill="#2F318B"/>
<path d="M1628.56 1009.08C1633.53 1007.98 1645.4 1012.11 1649.83 1015.13C1661.71 1023.21 1659.42 1036.53 1659.8 1048.39C1660.54 1071.7 1659.86 1085.25 1633.37 1090C1614.47 1089.45 1600.09 1082.35 1600.47 1061.27C1600.98 1033.7 1594.78 1014.7 1628.56 1009.08ZM1631.44 1075.91C1636.21 1075.27 1641.27 1074.45 1644.51 1070.45C1647.7 1066.49 1646.82 1039.8 1646.01 1033.7C1645.66 1031.05 1645.31 1028.57 1643.07 1026.84C1639.33 1023.96 1634.23 1023.28 1629.61 1023.29C1624.67 1023.95 1618.64 1024.78 1615.49 1029.17C1612.83 1032.87 1613.45 1061.44 1614.6 1066.82C1615.21 1069.7 1616.24 1071.37 1618.78 1073C1622.6 1075.44 1627.06 1075.67 1631.44 1075.91Z" fill="#2F318B"/>
<path d="M2855.44 1087.56C2856.17 1075.83 2853.9 1017.51 2856.56 1012.74C2856.95 1012.04 2858.43 1011.47 2859.2 1011.28C2861.96 1010.58 2866.19 1010.51 2868.68 1012.05C2870.85 1016.31 2869.59 1065.54 2869.58 1074.22L2888.41 1074.1C2892.76 1074.09 2897.01 1074.35 2901.34 1074.74C2901.65 1078.99 2901.39 1083.38 2901.36 1087.65C2887.34 1087.79 2873.32 1087.75 2859.3 1087.51C2853.61 1087.39 2847.57 1087.79 2841.99 1086.64C2838.55 1083.12 2836.33 1072.85 2834.64 1068.03C2826.71 1067.46 2818.49 1068 2810.52 1068.13C2808.71 1074.73 2806.32 1081.24 2804.13 1087.73C2799.54 1088.04 2794.73 1087.61 2790.12 1087.47L2807.85 1035.13C2810.41 1027.64 2812.64 1017.71 2816.77 1011.03C2821.08 1010.95 2825.38 1011.12 2829.69 1011.29C2836.8 1036.49 2847.07 1062.59 2855.44 1087.56ZM2815.37 1054.67L2825.67 1054.71L2829.42 1054.63C2830.61 1051.62 2824.61 1034.02 2823.49 1029.78L2822.25 1028.5C2819.9 1037.13 2817.07 1045.89 2815.37 1054.67Z" fill="#2F318B"/>
<path d="M2357.6 1011.12C2364.61 1029.7 2370.28 1048.78 2377.33 1067.35C2379.14 1072.12 2380.71 1080.06 2383.39 1084.12C2386.48 1082.94 2381.15 1016.78 2385.89 1011.57C2389.24 1010.49 2393.44 1011.02 2397.03 1011.2C2399.28 1025.19 2396.62 1056.51 2397.87 1074.23L2415.78 1074C2421.14 1074.03 2424.55 1074.09 2429.83 1074.78C2430.16 1078 2430.51 1083.35 2429.43 1086.32C2429.13 1086.59 2428.77 1086.92 2428.34 1087.3C2412.21 1088.07 2385.25 1087.59 2370.08 1087.66C2368.05 1083.02 2365.18 1073.71 2363.46 1068.6C2355.9 1067.49 2346.48 1067.96 2338.75 1068.15C2337.48 1074.73 2334.63 1080.93 2332.72 1087.59L2318.73 1087.7C2322.61 1073.2 2329.87 1055.35 2334.55 1040.77C2336.31 1035.32 2342.83 1015.03 2345.11 1011.04L2357.6 1011.12ZM2351.29 1054.83C2353.17 1054.8 2356.74 1055.21 2358.28 1054.2C2357.19 1049.27 2353.61 1030.43 2350.7 1027.66C2350.05 1032.68 2343.25 1051.73 2344.97 1054.2C2347.15 1054.87 2349.03 1054.9 2351.29 1054.83Z" fill="#2F318B"/>
<path d="M1550.44 1088.6C1552.53 1066.01 1549.56 1040.19 1550.79 1017.27C1551.24 1008.76 1556.34 1010.8 1564.02 1011.12C1565.16 1029.53 1563.93 1055 1564.21 1074.25L1581.89 1074.22C1587.09 1074.21 1592.38 1072.78 1596.01 1076.6C1597.21 1079.71 1596.56 1084.38 1596.34 1087.87C1576.62 1087.34 1556.01 1088.05 1536.37 1087.51C1533.96 1081.09 1531.68 1074.63 1529.51 1068.12C1521.47 1067.96 1513.43 1067.89 1505.38 1067.92C1503.8 1074.28 1500.97 1081.4 1498.69 1087.62C1496.05 1087.74 1493.41 1087.82 1490.76 1087.86C1488.97 1087.87 1486.72 1087.84 1485.4 1086.53C1488.19 1077.75 1508.72 1014.68 1511.78 1011.06C1515.56 1010.96 1519.96 1011.1 1523.8 1011.13C1532.84 1034.17 1542.44 1064.83 1550.44 1088.6ZM1509.86 1054.56L1519.97 1054.81C1521.82 1054.64 1522.99 1054.83 1524.46 1053.65C1522.36 1045.57 1519.56 1037.5 1517.96 1029.32L1516.76 1028.24C1515.78 1037.02 1512.35 1046.07 1509.86 1054.56Z" fill="#2F318B"/>
<path d="M2559.82 1011.05C2583.15 1010.65 2620.24 1006 2612.8 1042.66C2610.82 1052.37 2604.4 1054.46 2597.27 1058.81C2597.77 1063.17 2613.38 1082.46 2617.09 1088.01C2612.06 1087.84 2607.03 1087.73 2602 1087.68C2595.57 1084.86 2583.42 1054.99 2574.72 1059.52C2571.72 1064.29 2573.46 1079.58 2572.73 1087.41C2568.86 1087.73 2563.54 1087.63 2559.55 1087.67C2558.98 1079.26 2558.02 1016.67 2559.82 1011.05ZM2573.18 1025.13L2573.16 1046.87C2578.02 1046.88 2583.91 1047.54 2588.63 1046.57C2592.96 1045.7 2596.53 1045.08 2599.09 1041.07C2600.6 1038.71 2601.15 1036.13 2600.43 1033.41C2599.62 1030.3 2597.26 1027.73 2594.47 1026.21C2591.65 1024.68 2587.29 1024.82 2584.16 1024.79L2573.18 1025.13Z" fill="#2F318B"/>
<path d="M1247.35 1011.05C1259.48 1010.93 1274.84 1009.55 1286.26 1013.21C1301.66 1018.14 1304.98 1038.93 1295.44 1050.6C1291.41 1055.52 1288.27 1056.53 1282.54 1058.9C1288.3 1065.76 1298.77 1080.15 1303.69 1087.61L1289.12 1087.86C1284.64 1085.77 1275.89 1070.27 1272.17 1065.71C1269.28 1062.17 1266.71 1056.31 1260.95 1060.25C1256.48 1067.13 1263.91 1081.73 1258.12 1087.3C1254.97 1088.12 1249.48 1087.67 1246.03 1087.55C1245.88 1085.13 1245.71 1073.96 1245.92 1071.82C1246.84 1062.27 1243.91 1016.4 1247.35 1011.05ZM1282.71 1044.78C1285.23 1042.54 1286.61 1040.29 1286.86 1036.86C1287.08 1033.93 1286.46 1030.66 1284.43 1028.43C1281.79 1025.52 1277.63 1024.96 1273.92 1024.87C1269.91 1024.77 1265.9 1024.88 1261.89 1024.67C1260.11 1026.16 1260.08 1026.75 1259.86 1029.04C1259.3 1034.88 1259.89 1041 1260.23 1046.86C1268.08 1046.9 1275.01 1046.65 1282.71 1044.78Z" fill="#2F318B"/>
<path d="M2676.01 1011.06C2679.9 1010.9 2685.16 1010.29 2688.47 1012.16C2690.22 1014.8 2689.46 1079.47 2689.44 1087.78C2685.02 1087.72 2680.61 1087.71 2676.19 1087.74C2675.82 1077.72 2675.98 1065.1 2676.21 1055.12C2676.64 1049.27 2677.05 1043.42 2677.41 1037.56C2674.18 1046.46 2666.76 1066.33 2662.56 1074.1C2651.14 1095.21 2635.05 1039.62 2633.84 1033.48C2633.31 1040.51 2635.34 1048.4 2635.62 1055.39C2636.05 1065.79 2636.16 1077.31 2635.65 1087.66L2622.49 1087.65C2622.47 1078.12 2621.47 1015.34 2623.42 1011.04L2636.59 1011.07C2642.95 1026.05 2649.93 1044.03 2655.67 1059.26C2659.25 1049.68 2671.08 1018.37 2676.01 1011.06Z" fill="#2F318B"/>
<path d="M1903.46 1011.25C1914.14 1010.49 1931.88 1009.95 1941.78 1012.88C1954.45 1016.63 1960.14 1032.57 1955.29 1044.36C1951.73 1053.04 1946.98 1055.27 1938.82 1058.94C1942.39 1063.82 1957.26 1082.44 1958.68 1086.56C1955.43 1089.16 1950.46 1087.99 1946.11 1087.62C1940.95 1088.55 1926.73 1055.48 1917.01 1059.11C1914.74 1061.82 1915.56 1081.42 1914.97 1087.66C1910.87 1087.83 1906.81 1087.66 1902.71 1087.54C1902.16 1077.85 1901.64 1017.16 1903.46 1011.25ZM1940.02 1044.26C1942.34 1041.35 1944.44 1037.21 1944.01 1033.35C1943.78 1031.25 1942.65 1029.62 1941 1028.34C1934.59 1023.34 1923.12 1024.71 1915.45 1025.36C1915.42 1030.96 1913.55 1040.99 1916.86 1045.37C1921.26 1048.46 1928.57 1047.12 1933.61 1046.23C1935.82 1045.85 1937.93 1045.08 1940.02 1044.26Z" fill="#2F318B"/>
<path d="M906.569 1011.08C916.999 1010.97 927.215 1010.72 937.637 1011.16C964.848 1012.31 968.194 1053.08 941.69 1058.36C948.876 1068.25 956.237 1078.01 963.768 1087.64L948.584 1087.8C938.544 1081.42 933.148 1058.14 920.133 1059.33C917.527 1062.07 918.708 1082.52 918.749 1087.67L906.21 1087.66C905.578 1078.02 904.594 1016.89 906.569 1011.08ZM918.84 1046.99C924.106 1047.09 929.258 1047.02 934.517 1046.65C938.848 1045.78 942.485 1045.17 945.186 1041.27C946.687 1039.1 947.324 1036.43 946.812 1033.83C946.208 1030.76 944.125 1028.32 941.528 1026.69C938.288 1024.66 933.64 1024.75 929.935 1024.8L918.732 1025.12C918.746 1032.34 918.351 1039.81 918.84 1046.99Z" fill="#2F318B"/>
<path d="M1767.1 1069.28C1764.95 1053.73 1764.94 1029.78 1766.04 1013.65C1766.27 1010.22 1775.04 1010.75 1777.63 1011.76C1778.78 1013.09 1779.3 1013.43 1779.33 1015.29C1779.64 1039.04 1779.96 1063.54 1779.35 1087.25C1777.05 1087.84 1767.16 1087.89 1764.45 1087.95C1760.08 1081.74 1736.41 1036.77 1735.67 1036.24C1734.62 1037.69 1737.87 1081.53 1734.73 1086.51C1733.54 1088.4 1724.63 1087.71 1721.83 1087.6C1723.12 1073.95 1722.36 1058.52 1722.5 1044.72C1722.58 1036.56 1721.01 1018.09 1722.92 1011.12C1726.75 1010.94 1731.54 1011.07 1735.45 1011.07C1741.44 1019.22 1762.83 1059.94 1767.1 1069.28Z" fill="#2F318B"/>
<path d="M1422.29 1068.66C1420.62 1053.19 1420.59 1028.98 1421.43 1012.87C1421.56 1010.19 1430.46 1010.7 1432.88 1011.9C1435.48 1014.56 1434.55 1034.34 1434.54 1039.07L1434.48 1085.82C1431.05 1088.92 1424.39 1087.8 1419.22 1087.68C1410.3 1071.46 1399.41 1052.57 1391.35 1036.17L1390.93 1068.35C1390.88 1073.28 1391.27 1081.83 1390.39 1086.34C1387.87 1088.56 1381 1087.7 1377.43 1087.54C1377.27 1085.21 1377.1 1074.2 1377.31 1071.96C1378.26 1062.04 1375.26 1016.59 1378.81 1011.07C1382.69 1010.96 1387 1011.07 1390.92 1011.08C1394.32 1015.74 1400.17 1026.93 1403.12 1032.32C1409.55 1044.06 1416.77 1056.54 1422.29 1068.66Z" fill="#2F318B"/>
<path d="M2771.28 1069.18C2770.96 1061.49 2768.27 1017.15 2770.45 1013.24C2770.73 1012.76 2771.3 1012.24 2771.67 1011.8C2772.63 1011.28 2773.47 1011.06 2774.57 1011.02C2777.7 1010.91 2780.64 1010.73 2783.01 1012.93C2784.95 1021.23 2783.63 1034.28 2783.62 1043.02C2783.61 1057.77 2784.31 1072.92 2783.29 1087.61L2768.54 1087.67C2761.8 1075.74 2755.13 1063.77 2748.54 1051.76C2745.47 1046.05 2743.04 1039.08 2739.19 1033.98C2738.72 1035.95 2740.41 1051.14 2740.51 1054.91C2740.68 1065.77 2740.59 1076.64 2740.24 1087.49C2735.85 1087.82 2731.48 1087.67 2727.09 1087.59C2726.47 1076.31 2726.89 1061.68 2726.79 1050.12C2726.69 1038.88 2726.31 1021.71 2727.64 1011.11C2731.77 1010.92 2735.94 1011.04 2740.07 1011.06C2743.87 1016.26 2746.72 1022.65 2749.91 1028.29C2757.43 1041.61 2765.77 1054.86 2771.28 1069.18Z" fill="#2F318B"/>
<path d="M709.391 1011.05C713.459 1010.94 717.706 1011.04 721.79 1011.07C732.205 1026.48 743.451 1051.31 753.426 1068.19C752.794 1059.24 748.949 1017.63 752.411 1012.13C755.431 1010.32 762.23 1010.33 764.949 1012.9C765.856 1016.17 765.527 1032.81 765.524 1037.1L765.465 1086.12C762.616 1088.72 754.754 1087.74 750.33 1087.65C741.87 1075.3 727.041 1046.38 720.656 1033.28C721.306 1046.45 722.386 1075.64 720.705 1088.01C717.183 1087.67 712.597 1087.76 708.975 1087.74L708.871 1037.46C708.862 1031.41 708.495 1016.14 709.391 1011.05Z" fill="#2F318B"/>
<path d="M2299.91 1067.95C2299.44 1059.87 2295.79 1016.47 2299.93 1011.81C2304.01 1010.53 2308.29 1010.18 2311.36 1013.43C2312.36 1017.7 2312.06 1034.84 2312.01 1040.21C2311.86 1055.78 2312.24 1072.02 2311.74 1087.53C2307.46 1087.85 2301.2 1087.7 2296.78 1087.74C2286.38 1067.46 2275.73 1052.32 2266.91 1030.43C2267.2 1036.71 2268.54 1043.77 2268.76 1050.05C2269.22 1062.4 2269.08 1075.29 2268.38 1087.6C2264.25 1087.76 2259.81 1087.66 2255.66 1087.64C2255.26 1079.75 2254.8 1015.3 2256.2 1011.09C2259.79 1010.95 2267.47 1009.88 2269.71 1013.23C2273.28 1018.55 2276.39 1024.47 2279.49 1030.1L2299.91 1067.95Z" fill="#2F318B"/>
<path d="M2009.37 1011.06L2021.5 1011.04C2022.5 1033.61 2021.64 1063.71 2021.64 1086.84C2019.81 1088.55 2009.99 1087.69 2006.88 1087.6C1997.08 1072.09 1987.17 1049.28 1977.9 1034.93C1979.77 1051.13 1979.38 1071.27 1979 1087.59C1974.33 1087.78 1969.93 1087.63 1965.27 1087.5L1965.23 1040.46C1965.19 1034.04 1964.11 1016.02 1966.37 1011.05C1970.3 1011 1974.43 1011.09 1978.39 1011.11C1982.43 1017.09 1986.7 1025.57 1990.37 1032.02C1997.33 1044.26 2003.81 1056.18 2009.98 1068.85C2010.16 1063.68 2009.1 1053.5 2008.89 1047.65C2008.51 1035.45 2008.67 1023.24 2009.37 1011.06Z" fill="#2F318B"/>
<path d="M510.924 1008.83C520.821 1008.67 541.563 1007.01 550.203 1013.19C554.725 1017.57 555.589 1027.66 555.486 1033.21C555.061 1056.16 556.254 1063.94 531.111 1064.12C529.474 1064.16 529.268 1064.3 527.847 1065.14C525.488 1068.31 526.536 1082.74 526.605 1087.66H510.924V1008.83ZM537.72 1051.12C540.738 1044.85 540.996 1030.36 538.716 1023.71C538.302 1022.5 537.553 1021.28 536.367 1020.73C533.562 1019.44 529.71 1019.96 526.698 1020.25C526.53 1028.48 524.457 1044.07 527.995 1051.39C529.403 1052.55 530.266 1053.26 532.215 1053.07C534.044 1052.89 536.171 1052.1 537.72 1051.12Z" fill="#2F318B"/>
<path d="M800.258 1009.74C815.375 1009.76 823.669 1014.43 830.583 1027.85L819.181 1033.46C817.407 1031.21 815.606 1028.97 813.779 1026.76C797.253 1020.1 787.008 1025.98 788.484 1044.87C788.949 1050.62 787.868 1064.05 790.28 1069.18C795.236 1079.72 823.503 1075.47 818.266 1060.67C812.154 1054.34 791.077 1065.88 799.396 1045.13C806.39 1045.04 824.022 1044.46 830.493 1045.74C834.582 1049.5 832.252 1072.05 827.817 1077.76C817.07 1091.59 792.676 1093.82 781.213 1079.69C773.569 1070.27 775.606 1057.91 775.256 1046.73C774.379 1027.24 777.809 1013.36 800.258 1009.74Z" fill="#2F318B"/>
<path d="M1138.07 1009.85C1146.04 1010.23 1165.79 1015.21 1166.05 1026.95C1166.1 1029.12 1158.09 1032.27 1155.76 1033.35C1152.71 1029.23 1151.18 1026.77 1146.21 1025.43C1118.27 1018.49 1126.71 1040.33 1125.08 1057.03C1123.11 1077.31 1142.44 1080.86 1154.21 1067.56C1156.56 1064.9 1156.42 1061.92 1154.33 1058.82C1151.91 1058.09 1138.96 1058.61 1135.23 1058.64C1135.02 1053.89 1134.05 1048.71 1136.75 1045.12C1142.88 1045.12 1161.79 1044.06 1166.37 1045.83C1173.07 1048.42 1167.51 1074.71 1162.78 1079.85C1150.41 1095.58 1114.22 1090.52 1112.5 1068.56C1111.89 1060.7 1111.33 1036.33 1112.95 1028.87C1113.65 1025.56 1115.09 1022.45 1117.15 1019.77C1122.2 1013.3 1130.23 1010.71 1138.07 1009.85Z" fill="#2F318B"/>
<path d="M868.662 1009.86C876.675 1010.28 896.161 1018.23 893.779 1027.85C892.381 1029.63 886.247 1031.9 883.82 1032.93C877.548 1025.63 874.184 1023.44 864.228 1024.37C853.388 1025.38 852.206 1035 852.386 1043.74C852.559 1052.19 852.669 1060.27 853.624 1068.66C856.776 1071.56 858.682 1072.62 862.352 1074.83C868.458 1074.99 880.889 1075.41 882.49 1066.94C882.869 1064.94 883.212 1060.53 882.042 1058.85C878.253 1058.02 867.931 1058.63 862.947 1058.5C862.701 1054.78 862.099 1050.55 863.191 1047.07C864.897 1045.02 864.03 1045.56 866.763 1045.12L896.181 1045.13C896.728 1056.19 898.441 1070.83 890.704 1079.84C880.797 1091.38 859.608 1092.03 848.146 1082.34C837.887 1073.67 839.895 1063.5 839.922 1051.69C838.646 1027.77 840.734 1011.65 868.662 1009.86Z" fill="#2F318B"/>
<path d="M2502.4 1010.41C2510.35 1010.38 2543.81 1009.77 2549.31 1011.14C2551.77 1013.94 2550.84 1020.99 2550.67 1025.02C2539.87 1025.62 2527.15 1024.76 2515.37 1025.32C2515.61 1030.61 2515.42 1037.17 2515.41 1042.55C2525.48 1043.5 2535.6 1041.48 2547.26 1042.83C2547.55 1047.31 2547.38 1052.31 2547.32 1056.85C2539.29 1057.47 2523.89 1056.98 2515.32 1056.98L2515.37 1074.21L2550.68 1074.26C2551 1077.77 2550.82 1084.04 2550.83 1087.75C2534.71 1087.4 2518.31 1088.05 2502 1087.74C2501.39 1077.48 2500.38 1017.2 2502.4 1010.41Z" fill="#2F318B"/>
<path d="M1846.73 1010.46C1858.74 1010.4 1882.49 1009.69 1893.57 1010.86C1893.69 1013.83 1893.6 1019.48 1893.55 1021.79C1893.37 1029.73 1863.81 1021.64 1858.82 1025.99C1856.89 1027.67 1858.59 1036.83 1857.77 1041.73L1857.73 1042C1864.95 1042.89 1887.04 1041.34 1889.88 1043.83C1890.78 1047.27 1890.35 1052.88 1890.23 1056.62C1881.42 1057.74 1867.45 1056.97 1858.5 1056.63C1857.87 1057.93 1857.98 1070.01 1857.42 1073.93C1864.25 1074.39 1890.04 1072.5 1893.42 1076.33C1893.7 1079.52 1894.29 1084.05 1892.47 1086.7C1889.46 1089.01 1851.79 1087.66 1845.4 1087.45C1842.6 1066.58 1845.76 1035.08 1845.06 1013.37C1845.01 1011.77 1845.64 1011.53 1846.73 1010.46Z" fill="#2F318B"/>
<path d="M969.859 1010.43C982.207 1010.39 1005.05 1009.71 1016.56 1010.83C1016.72 1015.8 1016.62 1020.05 1016.45 1025.02C1004.76 1025.15 993.07 1025.11 981.383 1024.88C981.197 1030.75 981.153 1036.62 981.251 1042.49C990.283 1042.63 998.977 1041.65 1007.99 1042.05C1015.66 1042.39 1016.47 1052.43 1012.84 1056.45C1008.49 1057.58 987.251 1057.03 981.303 1056.98C981.177 1062.76 981.215 1068.55 981.417 1074.33C992.989 1074.61 1004.77 1074.02 1016.57 1074.32C1016.75 1078.81 1016.62 1083.14 1016.52 1087.63L968.101 1087.61C966.361 1065.28 968.849 1039.65 967.874 1016.98C967.74 1013.89 968.025 1012.79 969.859 1010.43Z" fill="#2F318B"/>
<path d="M2055.84 1011.09C2061.62 1010.85 2067.34 1009.37 2069.46 1015.84C2077.28 1039.75 2086.57 1063.63 2094 1087.63L2080.14 1087.66C2078.76 1082.62 2075.16 1073.38 2073.32 1068.14L2066.56 1068.1H2049.08L2042.89 1087.61C2038.3 1087.69 2033.63 1087.87 2029.03 1087.99C2030.14 1080.48 2052.19 1015.27 2055.84 1011.09ZM2053.46 1054.14C2055.88 1054.41 2058.39 1054.83 2060.82 1054.89C2062.99 1054.87 2066.14 1055.23 2068.03 1054.12C2067.81 1051.07 2062.19 1027.47 2060.72 1026.31C2060.63 1026.24 2060.53 1026.19 2060.44 1026.14C2059.45 1036 2056.51 1044.77 2053.46 1054.14Z" fill="#2F318B"/>
<path d="M666.416 1011.07C670.06 1010.94 674.143 1010.5 677.553 1011.6C678.585 1012.18 679.21 1012.92 679.618 1014.03C688.539 1038.31 696.133 1063.26 704.871 1087.6L691.365 1087.85C688.104 1081.66 687.701 1075.01 684.111 1069.39C683.104 1067.81 681.038 1068.18 679.068 1068.1L659.922 1068.11L653.532 1087.5C648.951 1087.82 644.041 1087.63 639.424 1087.54C642.076 1078.69 663.445 1014.7 666.416 1011.07ZM664.816 1054.11L673.391 1054.4C674.942 1054.35 677.438 1054.62 678.614 1053.68C677.89 1049.69 673.291 1029.97 671.626 1027.61C670.124 1036.55 667.399 1045.43 664.816 1054.11Z" fill="#2F318B"/>
<path d="M1069.47 1011.06C1073.89 1010.81 1079.96 1011.05 1084.49 1011.09C1081.1 1017.3 1058.71 1041.71 1052.83 1047.94C1057.43 1054.96 1065.24 1063.48 1070.82 1070.31C1074.86 1074.69 1081.41 1082.67 1084.72 1087.45C1079.39 1087.57 1074.06 1087.75 1068.73 1088C1063.82 1082.79 1047.99 1062.06 1043.5 1059.12C1042.2 1059.85 1039.86 1062.12 1039.76 1063.55C1039.19 1071.89 1040.05 1079.39 1039.09 1087.85L1026.64 1087.73L1026.56 1036.24C1026.56 1031.03 1026.2 1015.04 1027.19 1011.03C1031.06 1010.91 1035.89 1010.21 1038.78 1012.6C1040.13 1017.64 1039.54 1037.32 1039.48 1043.79C1043.33 1038.37 1064.33 1015.86 1069.47 1011.06Z" fill="#2F318B"/>
<path d="M2113.41 1011.21C2122.33 1010.5 2135.9 1009.75 2144.16 1014.44C2149.26 1017.33 2153.01 1028.83 2149.86 1033.45C2146.98 1034.46 2142.12 1034 2138.9 1033.89C2138.81 1032.21 2138.69 1030.54 2138.54 1028.86C2137.4 1017.33 2126.97 1020.57 2118.51 1020.29C2110.67 1020.02 2110.14 1030.78 2111.26 1035.87C2113.68 1046.82 2137.05 1041.42 2144.42 1048.29C2147.84 1051.48 2149.94 1053.41 2150.67 1058.45C2151.88 1074.75 2152.03 1085.26 2133.79 1088.28C2116.28 1088.56 2096.89 1091.36 2097.64 1067.66C2097.71 1065.67 2097.62 1063.43 2097.62 1061.4L2109.58 1061.41C2109.42 1067.04 2108.08 1073.36 2112.88 1076.93C2116.73 1079.8 2136.09 1080.2 2137.55 1075.13C2147.74 1039.76 2105.92 1065.04 2099.52 1040.85C2097.94 1034.79 2098.51 1023.82 2101.56 1018.29C2104.02 1013.83 2108.77 1012.28 2113.41 1011.21Z" fill="#2F318B"/>
<path d="M565.163 1009.89C581.347 1009.51 597.538 1009.59 613.719 1010.1C613.988 1015.96 614.046 1018.86 613.438 1024.65C606.577 1025.43 599.52 1025.17 592.606 1025.07V1073.8C592.668 1077.73 593.223 1083.08 591.683 1086.43C589.097 1088.34 581.854 1088.38 579.463 1086.25C577.55 1080.35 579.572 1058.01 579.296 1050C579.058 1043.08 578.472 1031.74 578.667 1024.94C573.115 1025.18 563.553 1026.18 558.786 1023.98C556.088 1019.4 556.079 1015.95 558.534 1011.36C561.074 1009.57 561.726 1010.08 565.163 1009.89Z" fill="#2F318B"/>
<path d="M1784.34 1010.49L1784.77 1010.48C1792.76 1010.34 1835.82 1009 1839.45 1012.49C1840.31 1016.32 1839.83 1021.03 1839.61 1025.03L1817.9 1025.17C1818.37 1039.73 1818.04 1056.09 1818.06 1070.78C1818.17 1076.74 1818.21 1081.84 1817.94 1087.83C1814.51 1087.85 1809.06 1088.11 1805.93 1087.21C1802.12 1082.45 1807.17 1033.98 1803.66 1025.68C1801.86 1021.41 1791.85 1027.58 1785.46 1025.06C1781.75 1022.12 1781.97 1013.78 1784.34 1010.49Z" fill="#2F318B"/>
<path d="M1444.32 1010.55C1452.98 1009.96 1483.33 1009.62 1493.34 1011.24C1495.35 1011.57 1495.6 1020.75 1493.64 1023.74C1489.45 1026.52 1480.02 1024.8 1473.43 1025.2C1472.07 1035.25 1472.81 1061.32 1472.89 1072.2L1472.99 1087.62L1460.08 1087.64C1460.23 1069.51 1461.14 1042.37 1459.72 1025.09C1454.99 1025.01 1443.18 1025.91 1439.56 1024.58C1436.69 1020.89 1436.16 1015.83 1438.88 1011.87C1439.85 1010.47 1442.66 1010.68 1444.32 1010.55Z" fill="#2F318B"/>
<path d="M2441.26 1010.42C2449.23 1010.39 2490.28 1009.73 2495.1 1011.25C2497.21 1013.87 2497.38 1020.75 2495.69 1023.64C2491.61 1026.11 2480.93 1024.95 2475.06 1025.2C2474.08 1039.37 2474.52 1054.27 2474.77 1068.5C2474.64 1083.77 2479.69 1088.37 2461.75 1087.61C2461.93 1077.39 2463.09 1032.25 2460.97 1026.24C2458.5 1024.03 2444.59 1025.07 2440.29 1025.05C2440.09 1021.54 2439.2 1013.11 2441.26 1010.42Z" fill="#2F318B"/>
<path d="M2161.23 1010.46C2164.97 1010.31 2169.78 1009.78 2173 1011.49C2174.02 1013.52 2173.96 1019.07 2173.94 1021.43C2173.79 1043.11 2174.36 1064.86 2173.63 1086.52C2173.63 1086.52 2172.57 1088.16 2172.48 1088.29C2168.81 1088.37 2163.39 1088.89 2160.39 1087.04C2159.7 1084.56 2159.78 1083.34 2159.69 1080.77C2159.25 1065.29 2159.09 1049.81 2159.21 1034.33C2159.2 1028.91 2158.16 1013.73 2161.23 1010.46Z" fill="#2F318B"/>
<path d="M2701.88 1010.52C2707.18 1010.23 2709.45 1010.34 2714.74 1010.9C2714.73 1019.93 2716.07 1085.55 2713.91 1088.27C2711.82 1088.33 2701.14 1089.09 2701.19 1086.67C2701.38 1074.87 2698.32 1017.88 2701.88 1010.52Z" fill="#2F318B"/>
<path d="M1696.81 1010.49C1702 1010.2 1704.78 1010.27 1709.85 1011.1C1710.48 1029.27 1710.65 1047.45 1710.36 1065.62C1710.32 1070.77 1710.48 1084.04 1709.59 1088.28C1705.1 1088.3 1700.61 1088.27 1696.11 1088.2C1695.88 1080.85 1695.96 1012.35 1696.81 1010.49Z" fill="#2F318B"/>
<path d="M604.998 1073.18L617.828 1073.19L617.832 1087.66H604.998V1073.18Z" fill="#2F318B"/>
<path d="M1307.12 510H1312.43C1320.01 511.409 1329.42 512.307 1337.11 513.053C1336.75 543.995 1336.03 579.155 1337.5 609.778C1340 610.62 1342.51 611.494 1344.96 612.457C1361.45 618.923 1360.92 638.907 1355.26 652.873C1337.49 696.541 1309.77 735.553 1291.85 779.217C1279.78 808.644 1269.13 846.492 1281.69 877.411C1294.93 909.997 1333.96 922.641 1363.87 935.035L1364.05 936.2C1361.28 937.866 1222.99 937.195 1209.98 937.195L721.136 937.176L578.179 937.175L534.74 937.249C528.018 937.257 516.168 937.567 510 936.797C510.275 936.24 510.617 935.546 511.026 934.717C524.23 926.902 541.666 915.441 554.51 908.138C549.236 901.998 535.838 887.567 532.173 881.988C532.12 873.179 532.158 864.369 532.286 855.561C559.326 855.164 586.822 855.825 613.887 855.522C619.137 855.464 639.671 856.026 643.004 855.102L643.416 853.869L642.89 852.862C634.399 852.269 620.627 852.694 611.832 852.699L551.736 852.781C544.893 852.793 525.201 853.267 519.711 851.989C516.958 849.447 517.067 837.511 519.151 834.345C524.785 830.949 559.766 833.841 569.624 833.41C570.224 824.969 570.008 816.166 570.411 807.552C565.031 807.12 551.551 809.087 548.159 805.196C547.338 801.142 546.962 791.536 549.25 787.92C555.493 785.675 612.76 787.772 624.798 786.99C624.756 776.358 623.228 762.365 625.076 751.981C639.187 751.943 653.332 752.224 667.44 752.031C668.026 738.733 666.737 725.204 667.526 711.869C667.98 704.195 671.979 709.298 675.123 706.133C676.45 689.324 675.88 653.7 675.07 636.212C670.402 636.192 650.952 637.098 648.274 635.375C646.604 629.147 645.576 567.996 648.548 566.69C678.047 553.731 708.546 541.941 738.51 529.947C741.522 528.741 744.394 528.786 747.546 529.297C778.691 536.063 810.669 542.243 841.886 548.506L901.843 560.23C912.528 562.413 927.244 566.339 937.109 568.082C932.745 577.351 933.455 583.63 933.157 593.8C951.548 601.226 965.839 611.807 985.246 613.259C986.337 634.559 985.343 666.812 985.281 688.731C949.698 689.778 908.85 688.777 872.833 688.779C872.326 664.28 872.819 637.824 872.82 613.173C890.116 611.693 911.584 599.785 928.351 594.102C930.373 593.416 930.389 576.077 930.531 572.953C891.133 574.452 850.742 573.849 811.301 574.686C788.749 575.165 766.255 576.315 743.632 576.782L743.369 586.457C733.84 587.674 724.095 587.149 714.506 586.852C714.542 594.593 715.95 632.021 712.411 635.422C706.984 637.27 690.81 636.488 685.085 635.253C685.953 651.385 685.131 668.786 685.392 685.026C685.481 690.551 684.839 701.242 685.475 706.177C687.155 707.357 690.624 707.504 692.802 707.768C693.773 718.566 692.927 740.274 692.78 751.697C705.033 752.899 716.665 751.528 728.853 751.452C737.757 751.396 737.038 761.721 736.797 767.823C736.541 774.321 736.604 780.75 735.735 787.213C760.456 787.931 787.901 787.226 812.885 787.242C813.141 792.486 814.322 801.415 811.834 805.658C808.45 808.767 795.804 807.381 790.199 807.31C790.892 814.842 790.625 825.258 790.619 833.053C802.892 832.997 822.024 833.706 833.691 832.579C837.108 832.25 860.322 822.007 864.918 819.972C890.158 808.79 917.382 798.393 942.301 786.903C945.479 764.312 949.775 732.235 966.387 714.928C972.522 708.535 990.249 701.064 999.024 696.948C1028.01 683.351 1059.09 671.851 1089.22 661.048C1133.36 644.751 1178.47 631.223 1224.29 620.546C1262.76 611.453 1286.89 607.04 1326.51 607.229L1326.46 554.458C1291.17 546.841 1283.42 565.213 1252 563.604C1237.09 562.841 1221.11 547.318 1212.23 536.302C1210.95 534.719 1210.69 533.765 1210.98 531.915C1212.51 531.189 1219.87 532.545 1222.12 532.678C1247.01 534.151 1268.01 519.96 1290.83 512.824C1295.32 511.422 1302.34 510.693 1307.12 510ZM663.129 565.406C688.303 566.172 717.718 564.448 741.839 565.756C743.06 567.058 743.204 567.6 743.845 569.196C748.394 570.741 820.878 568.621 830.581 568.489C844.126 568.256 857.672 568.12 871.219 568.082C881.435 568.117 898.852 568.872 908.159 567.021C894.766 563.239 878.861 560.863 865.188 558.121L786.45 542.318L758.763 536.857C755.347 536.148 744.773 533.732 741.85 533.658C723.96 541.03 706.014 548.263 688.012 555.355C681.249 558.055 669.46 562.352 663.129 565.406ZM1249.46 809.08C1251.56 797.582 1253.13 785.127 1255.61 773.964C1265.24 730.575 1285.61 692.87 1313.01 658.295C1316.05 654.471 1326.5 644.915 1328.1 641.304L1327.39 640.517C1281.59 658.762 1255.13 745.245 1249.83 790.398C1249.29 795.008 1246.93 805.037 1249.46 809.08ZM889.164 613.054C904.345 613.244 919.527 613.29 934.709 613.191C944.994 613.191 958.848 613.608 968.852 613.007C957.228 608.097 937.146 596.434 924.984 598.906C915.492 603.109 896.872 608.982 889.164 613.054ZM1191.82 676.326C1191.75 680.932 1190.82 703.865 1192.81 705.98L1210.64 700.46C1210.66 696.336 1211.33 671.35 1209.79 669.737C1204.2 671.523 1196.9 673.655 1191.82 676.326ZM727.975 828.508C727.968 823.683 727.844 818.369 727.985 813.588C723.334 813.629 717.476 813.841 712.924 813.554L712.997 827.904C717.991 828.072 722.984 828.273 727.975 828.508ZM1010.46 769.409C1016.24 767.081 1022.04 765.516 1027.25 763.42C1027.3 759.075 1028.03 735.737 1026.46 733.567L1024.82 733.445L1008.19 739.886C1008.16 744.246 1007.44 767.21 1009 769.456L1010.46 769.409ZM687.345 813.644L673.249 813.213C670.796 817.095 671.853 823.454 672.152 828.343C675.768 828.259 682.426 827.912 685.804 828.156L687.11 827.638C687.838 824.916 687.287 816.969 687.345 813.644ZM647.514 827.904C647.703 822.909 647.654 818.669 647.508 813.669C643.274 813.625 636.904 813.378 632.846 813.683L632.855 828.287L647.514 827.904ZM753.843 813.169C751.549 816.511 752.505 823.671 752.671 828.136C757.01 828.122 762.44 827.956 766.648 828.452C768.599 826.3 767.756 816.781 767.654 813.677L753.843 813.169ZM592.33 828.022C597.557 827.971 601.265 827.798 606.45 828.853C606.607 823.768 606.648 818.68 606.573 813.593C602.002 813.557 597.027 813.403 592.515 813.871C592.114 818.882 592.42 823.084 592.33 828.022ZM1099.97 707.129C1099.91 711.644 1099.12 735.198 1100.65 737.533C1101.02 737.528 1101.87 737.562 1102.15 737.444C1108.26 736.052 1113.74 733.657 1119.53 731.318C1119.6 726.405 1120.21 706.482 1119 702.372C1117.99 701.649 1117.9 701.476 1116.71 701.482C1110.52 704.356 1106.71 705.81 1099.97 707.129ZM1161.79 685.903C1156.12 688.372 1151.46 690.156 1145.67 692.237C1146.95 699.158 1144.74 720.164 1146.83 722.212L1147.54 722.279C1149.9 721.241 1163.59 716.377 1163.95 715.165C1165.4 710.353 1166.17 690.048 1163.86 686.371L1161.79 685.903ZM1072.74 717.361C1066.94 719.371 1059.73 721.641 1054.11 723.824C1054.2 728.545 1053.61 751.779 1055.16 753.731C1061.04 751.839 1067.93 749.807 1073.41 747.152C1073.39 743.396 1073.59 718.755 1072.74 717.361Z" fill="#2F318B"/>
</svg>
