<svg width="2567" height="1600" viewBox="0 0 2567 1600" fill="none" xmlns="http://www.w3.org/2000/svg">
<path d="M1280.24 510.001C1285.96 509.947 1292.12 511.896 1297.4 514.011C1342.65 532.113 1387.94 550.616 1433.09 568.936L1698.06 676.408L1925.67 768.714C1967.61 785.725 2015.94 804.12 2056.81 822.773C2028.83 820.583 1991.65 821.708 1962.77 821.698L1800.7 821.686L1286.87 821.695L775.754 821.714L612.417 821.682C579.16 821.653 542.955 820.743 510 822.491C525.428 814.289 550.598 804.847 567.318 798.057L663.582 758.955L980.07 630.596L1185.26 547.44L1242.8 523.974C1253.12 519.771 1270 512.402 1280.24 510.001Z" fill="#672C21"/>
<path d="M1417.52 899.29C1465.22 896.684 1493.47 920.564 1490.12 971.597C1488.81 991.416 1478.68 1006.6 1463.37 1019.01C1474.59 1037.63 1491.29 1066.45 1500.84 1085.74C1485.78 1082.89 1463.51 1084.94 1446.53 1082.25C1438.29 1074.75 1434.02 1062.98 1429.48 1052.8C1423.64 1040.09 1415.98 1023.75 1400.18 1025.25C1399.02 1025.36 1399.24 1025.65 1398.4 1026.6C1397.4 1034.82 1397.82 1077.77 1398.68 1086.14C1387.49 1084.69 1361.54 1085.09 1350.16 1085.83C1351.49 1026.47 1350.28 960.743 1350.13 900.946C1366.49 903.359 1400.57 900.402 1417.52 899.29ZM1433.74 977.798C1440.86 973.145 1450.07 964.95 1443.16 956.133C1433.74 944.082 1418.64 943.58 1404.95 943.787C1401.9 944.206 1400.04 943.875 1398.24 945.7C1397.62 957.438 1398.68 971.404 1397.85 982.16C1411.91 983.012 1420.59 983.729 1433.74 977.798Z" fill="#672C21"/>
<path d="M1911.01 900.867C1951.19 901.527 2000.54 901.905 2040.47 900.66C2039.87 912.493 2039.98 933.568 2040.51 945.381C2016.76 942.457 1983.66 945.967 1958.74 944.39C1959.05 952.775 1959.05 961.169 1958.74 969.553C1983.22 968.405 2011.48 969.673 2036.85 968.975C2036.39 983.912 2035.59 1002.95 2037.18 1017.51C2018.2 1016.29 1994.21 1016.93 1974.81 1017.02L1958.83 1017.02C1958.92 1023.65 1958.81 1030.49 1958.78 1037.14C1985.26 1036.15 2013.58 1037.07 2040.43 1036.55C2039.81 1049.06 2039.9 1073.79 2040.66 1086.15C2029.65 1084.58 1991.7 1085 1979.51 1085.2C1962.19 1085.49 1927.53 1084.12 1911.13 1086.16L1911.01 900.867Z" fill="#672C21"/>
<path d="M1201.17 900.831C1215.28 901.635 1234.99 901.052 1249.63 901.05C1276.73 901.178 1303.83 901.065 1330.92 900.711C1330.53 915.51 1330.54 930.316 1330.95 945.113C1307.49 942.885 1273.86 945.365 1249.04 944.388C1249.47 951.815 1249.45 962.181 1248.78 969.466C1274.35 968.716 1300.86 969.651 1326.89 968.982C1326.57 980.759 1325.35 1007.22 1327.47 1017.59C1307.84 1016.14 1281.37 1016.88 1261.53 1017.07L1249.22 1017.11C1249.35 1023.71 1249.21 1030.49 1249.16 1037.1C1276 1036.44 1303.97 1036.8 1330.89 1036.79C1330.43 1053.15 1330.48 1069.53 1331.04 1085.89C1314.65 1084.44 1285.12 1085.17 1268.09 1085.2C1249 1085.24 1219.55 1084.32 1201.24 1085.98L1201.17 900.831Z" fill="#672C21"/>
<path d="M599.693 896.383C618.771 894.033 639.537 896.991 656.496 906.259C681.026 919.736 699.234 942.364 707.156 969.21C665.528 975.402 659.136 966.166 627.812 943.978C620.243 938.616 605.626 939.692 596.824 942.933C568.898 953.217 553.112 981.085 563.989 1009.95C568.554 1022.38 577.999 1032.41 590.133 1037.72C606.945 1044.98 628.781 1043.01 642.482 1030.12C646.232 1026.59 654.72 1017.25 659.033 1015.92C674.025 1015.17 690.661 1015.74 705.891 1015.55C701.727 1028.76 698.042 1037.54 689.94 1048.97C676.861 1067.42 648.747 1085.51 626.153 1088.84C599.659 1092.97 572.636 1085.97 551.469 1069.51C531.551 1054.43 518.508 1031.99 515.26 1007.22C507.741 950.467 542.484 903.371 599.693 896.383Z" fill="#672C21"/>
<path d="M934.964 901.141C954.176 903.177 975.918 903.348 996.04 905.387C1002.41 919.815 1008.17 941.973 1013.48 957.361C1027.87 998.995 1039.94 1044.48 1054.82 1085.75C1041.61 1084.84 1018.92 1084.05 1006.18 1084.88L995.051 1052.63C994.529 1052.16 994.007 1051.68 993.485 1051.21C980.924 1050.99 944.79 1053.46 934.467 1053.39C931.709 1063.9 929.1 1074.32 925.596 1084.63C911.044 1084.22 892.661 1084.89 878 1085.72C884.021 1063.76 930.22 906.284 934.964 901.141ZM951.91 1007.66L968.813 1007.57L980.805 1007.55C978.775 999.143 970.05 960.341 965.098 957.097C959.953 973.605 957.048 991.062 951.91 1007.66Z" fill="#672C21"/>
<path d="M1563.2 901.932C1581.43 901.127 1604.62 901.657 1623.2 901.794C1626.32 914.062 1632.63 932.474 1636.51 945.136L1664.64 1037.01C1667.17 1045.29 1677.5 1077.07 1678 1084.59C1669.77 1085.21 1644.59 1083.67 1635.35 1083.37C1630.73 1075.41 1626.62 1065.61 1622.13 1057.45C1620.18 1053.91 1620.49 1052.82 1617.42 1051.86C1599.68 1050.51 1579.32 1052.26 1562.65 1050.24C1558.37 1060.49 1554.86 1073.16 1550.33 1084.33C1534.89 1085.41 1519.7 1084.31 1502.61 1085.87C1517.38 1037.06 1535.18 988.604 1550.57 939.934C1554.22 928.417 1558.45 912.594 1563.2 901.932ZM1576.87 1007.68L1599.96 1007.55L1610.42 1007.65C1606.63 995.734 1598.05 966.053 1589.37 958.261C1585.23 974.142 1581.57 992.331 1576.87 1007.68Z" fill="#672C21"/>
<path d="M720.38 900.985C735.39 901.153 750.403 901.048 765.41 900.672C764.574 923.501 765.854 946.802 765.04 969.562C782.604 968.72 805.72 969.244 823.657 969.39C822.614 948.021 823.184 922.511 823.25 900.789C837.702 901.299 852.649 900.927 867.138 900.712C866.026 946.046 867.713 992.102 866.944 1037.52C866.687 1052.77 866.23 1071.06 867.238 1086.09C854.118 1084.87 836.401 1085.05 823.253 1085.81C823.671 1063.2 823.217 1039.75 823.457 1016.92C804.518 1017.37 784.233 1016.99 765.115 1017.08C765.332 1038.32 764.327 1065.54 765.586 1086.15C755.697 1084.75 730.342 1084.86 720.659 1086.22C720.017 1069.23 720.633 1048.22 720.646 1030.95C720.783 987.626 720.695 944.305 720.38 900.985Z" fill="#672C21"/>
<path d="M1819.03 896.398C1848.54 894.351 1870.51 901.381 1896.37 914.049C1888.33 925.479 1879.27 941.109 1871.29 953.297C1858.82 947.8 1840.43 939.982 1827.03 939.813C1814.28 939.652 1808.5 944.769 1800.06 952.868C1821.67 973.936 1861.46 974.28 1883.78 996.321C1902.34 1014.65 1901.26 1050.03 1882.48 1068.15C1865.8 1084.24 1854.08 1089.35 1831.51 1089.53C1820.71 1089.66 1809.18 1090.08 1798.97 1086.34C1782.42 1080.27 1765.47 1072.58 1749.34 1065.52C1756.97 1054.7 1767.55 1039.41 1776.23 1029.74C1791.07 1035 1805.27 1042.81 1821.04 1045.11C1841.48 1048.1 1842.78 1041.38 1844.63 1024.24C1815.26 1007.1 1759.84 1009.44 1754.4 965.265C1748.87 920.403 1779.31 900.616 1819.03 896.398Z" fill="#672C21"/>
<path d="M1035.33 900.913C1050.42 901.838 1074.72 901.053 1090.37 901.049C1120.78 901.215 1151.18 901.102 1181.58 900.711C1181.42 915.863 1181.47 931.016 1181.74 946.167C1169.82 944.682 1141.91 941.711 1132.19 949.214C1128.94 956.689 1130.43 1023.11 1130.47 1035.68C1130.4 1048.96 1129.67 1074.11 1130.92 1086.33C1120.23 1084.62 1097.61 1085.19 1086.69 1085.83L1086.83 944.327C1070.82 945.028 1050.92 943.512 1035.38 945.193C1035.48 930.432 1035.46 915.672 1035.33 900.913Z" fill="#672C21"/>
<path d="M1689.7 900.997C1704.55 901.105 1719.4 901.004 1734.25 900.695C1732.72 959.696 1733.43 1026.59 1734.11 1085.84C1723.24 1085.06 1700.4 1084.66 1690.04 1086.18C1689.45 1024.56 1690.6 962.53 1689.7 900.997Z" fill="#672C21"/>
<path d="M956.129 840.422C997.391 835.768 996.463 862.386 1016.38 884.526L1017.13 885.354C1000.75 884.823 984.675 890.399 971.739 877.808C969.623 875.298 967.661 872.516 965.71 869.862C952.646 890.796 938.174 886.828 916.512 883.693C918.837 879.366 922.637 873.857 925.488 869.626C934.225 856.663 939.041 842.797 956.129 840.422Z" fill="#672C21"/>
<path d="M1990.86 840.361C2000.67 839.205 2010.12 840.348 2019.87 841.334C2008.42 862.18 2002.45 880.054 1977.5 886.427C1966.34 887.266 1959.31 886.586 1948.48 885.22C1959.1 862.993 1964.05 846.022 1990.86 840.361Z" fill="#672C21"/>
</svg>
