<svg width="1455" height="1600" viewBox="0 0 1455 1600" fill="none" xmlns="http://www.w3.org/2000/svg">
<path d="M727.669 510C729.634 515.696 736.503 527.469 739.568 533.265C745.705 544.869 751.279 551.553 753.091 565.258C757.665 566.761 762.087 568.776 766.361 570.438C781.521 576.337 784.559 579.848 793.777 592.174C810.375 596.661 821.017 598.474 831.272 614.449C835.114 618.36 837.09 638.843 840.121 640.567C846.636 644.263 860.469 649.582 867.803 652.88C892.844 664.14 913.192 678.658 935.977 693.531C911.499 719.186 898.297 735.431 899.275 773.77C900.405 818.072 922.094 856.481 935.063 897.844C944.878 925.165 949.681 953.298 937.763 980.816C931.215 995.942 924.54 1006.72 912.675 1018.67C880.507 1051.07 835.754 1071.36 791.64 1081.38C783.923 1083.13 768.644 1087.17 761.032 1087.01C757.439 1087.8 745.111 1088.6 743.361 1090H712.992C710.639 1087.73 700.819 1088.65 697.267 1087.13C697.441 1087.08 697.61 1087.04 697.775 1087.01C697.609 1087.04 697.439 1087.08 697.265 1087.13C685.455 1086.11 673.743 1083.71 662.237 1080.86C654.493 1078.93 645.786 1077.48 638.218 1074.93C599.296 1061.82 560.511 1043.37 533.855 1011.08C519.152 993.268 509.918 973.196 510.204 949.87C510.067 944.986 509.795 940.158 510.263 935.285C512.115 916.012 518.174 898.953 524.929 881.054C535.13 854.027 547.009 825.159 552.93 796.897C559.465 765.696 554.134 733.42 532.866 708.947C529.171 704.553 522.049 696.882 517.683 693.489C522.335 691.542 538.799 679.728 544.187 676.296C560.302 666.124 577.095 657.065 594.446 649.183C600.575 646.467 608.197 644.471 613.78 641.053C616.12 639.621 618.36 627.958 619.289 624.958C623.16 612.471 632.512 602.79 644.597 597.95C647.729 596.669 657.38 593.29 659.329 591.556C664.261 587.166 665.324 582.378 671.587 578.209C680.814 572.068 690.575 570.087 700.306 565.464C702.581 558.858 705.113 550.677 708.419 544.728C713.082 536.336 718.232 528.08 722.713 519.556C724.244 516.643 726.569 512.988 727.669 510ZM727.639 521.524C724.349 526.287 721.796 531.044 718.989 535.982C714.517 543.852 709.638 550.906 707.564 559.852C707.126 561.745 705.234 567.62 703.937 568.749C697.689 574.186 687.502 574.372 680.337 578.573C676.338 580.686 671.638 584.212 668.892 587.82C663.401 595.033 661.382 599.045 651.754 600.839C645.139 602.071 637.636 606.773 632.7 611.499C624.616 619.24 620.682 633.309 620.69 644.22C611.146 647.019 602.771 651.267 593.741 655.069C568.932 665.514 547.997 679.938 525.602 694.57C536.081 703.543 549.585 721.155 553.934 733.947C568.439 776.624 553.273 820.588 537.976 860.577C528.353 885.734 516.892 911.064 514.532 938.197C512.265 964.262 521.126 989.063 538.397 1008.65C573.74 1051.39 644.581 1077.45 698.604 1082.32C698.831 1082.41 699.057 1082.5 699.279 1082.58C699.057 1082.5 698.833 1082.41 698.606 1082.32C711.868 1083.54 725.193 1083.95 738.505 1083.55C743.762 1083.42 750.151 1082.66 754.991 1082.63H754.993C755.967 1082.29 764.164 1081.63 766.23 1081.25C773.961 1079.84 783.423 1078.86 790.963 1076.98C831.813 1066.82 876.775 1047.33 907.028 1017.51C942.831 982.216 945.989 945.964 931.174 900.088C928.502 891.52 924.781 883.355 921.661 874.96C897.506 809.938 870.985 751.122 928.568 694.322C921.552 690.512 912.611 683.975 905.737 679.401C883.023 664.289 859.069 654.352 834.095 643.92C834.001 627.582 825.82 607.509 809.342 602.212C804.822 600.76 796.72 599.101 792.929 596.831C786.395 592.917 781.955 583.846 775.151 579.736C766.91 574.263 757.577 574.239 750.135 568.88C747.91 564.481 747.05 557.915 744.878 553.795C739.419 543.44 734.02 531.205 727.639 521.524ZM608.103 900.78C610.406 900.788 613.979 905.861 615.7 907.534C633.957 925.283 650.336 935.895 674.302 944.843C684.134 948.514 694.059 951.492 704.501 952.859C714.275 954.141 724.287 953.957 734.125 953.804C763.447 953.346 795.081 942.536 818.744 925.104C825.242 920.318 831.933 914.842 837.677 909.195C840.361 906.557 842.78 903.642 845.402 900.936C850.02 901.274 854.762 902.925 859.246 904.063C864.937 905.497 870.65 906.854 876.378 908.132L910.983 915.848C917.772 917.321 924.655 918.562 931.365 920.362C936.311 933.641 935.188 956.325 931.586 969.807C929.649 977.058 926.334 983.531 922.536 989.954C908.345 1013.95 887.461 1029.81 863.642 1043.58C860.045 1045.74 856.425 1047.87 852.642 1049.69C803.659 1073.35 754.596 1082.94 700.425 1077.53C692.5 1076.73 684.552 1076.05 676.717 1074.58C671.304 1073.56 666.029 1071.99 660.703 1070.62C649.511 1067.72 638.439 1064.72 627.518 1060.9C589.505 1047.61 545.893 1021.9 527.868 984.339C518.613 965.051 515.649 941.241 522.872 920.822L523.036 920.765C535.014 916.745 548.238 914.81 560.595 912.136C576.521 908.69 592.286 904.676 608.103 900.78ZM765.215 1041.14C761.838 1041.25 750.557 1041.97 748.78 1044.61C748.927 1046.06 749.285 1047.07 750.685 1047.51L750.689 1047.51C751.533 1047.6 752.717 1047.52 753.031 1048.17C754.516 1051.25 754.765 1055.99 755.503 1059.28C755.157 1060.91 755.488 1060.45 754.421 1061.32C753.677 1061.22 753.443 1061.26 752.773 1060.95C751.702 1057.41 750.567 1054.77 749.041 1051.42V1051.43C747.499 1048.55 746.361 1046.59 745.351 1043.49L738.825 1043.75C737.891 1046.46 732.559 1060.71 736.031 1061.81C739.721 1060.44 741.114 1057.59 744.643 1059.42C748.475 1061.4 748.611 1061.21 752.773 1060.95L753.209 1061.13C753.591 1061.26 753.862 1061.26 754.419 1061.33C755.487 1060.45 755.157 1060.92 755.503 1059.29L755.922 1059.83C757.308 1060.35 759.665 1059.99 761.227 1059.86C761.234 1057.6 760.957 1048.94 761.337 1047.25C764.524 1045.68 764.351 1044.37 765.215 1041.14ZM717.19 1043.79C718.477 1046.69 720.193 1049.1 721.277 1052.11C723.159 1056.13 722.901 1057.12 722.664 1061.48L729.065 1061.38C728.558 1053.46 732.54 1051.52 736.325 1044.26C727.088 1044.22 731.255 1042.45 726.902 1048.64L726.306 1048.48C725.092 1047.1 724.709 1046.12 723.909 1044.46C721.672 1044.21 719.432 1043.99 717.19 1043.79ZM701.349 1043.29C701.122 1049.02 700.905 1055.25 701.398 1060.97C703.224 1060.99 705.266 1061.07 707.073 1061.01C707.141 1059.16 707.001 1057.16 708.022 1055.66L708.785 1055.34C710.574 1056.46 710.438 1059.29 710.573 1061.23C712.83 1061.33 715.089 1061.4 717.348 1061.43C716.878 1057.68 716 1052.9 717.074 1049.29C716.98 1047.44 716.503 1045.97 716.014 1044.2C710.929 1043.5 706.481 1043.35 701.349 1043.29ZM667.148 1036.33C666.412 1040.01 662.768 1050.21 664.77 1053.26C665.105 1053.78 665.628 1054.14 666.242 1054.26C667.058 1054.42 667.729 1054.16 668.355 1053.66C669.701 1052.59 670.377 1049.91 671.243 1048.4C672.469 1051.74 673.285 1055.11 676.809 1056.71C679.45 1057.91 685.845 1058.35 688.515 1057.38C688.94 1057.23 689.345 1057.03 689.744 1056.82C693.143 1057.64 696.212 1059.64 699.649 1060.62C698.74 1055.83 697.717 1051.05 696.583 1046.31C696.258 1044.79 696.011 1043.18 695.532 1041.7C693.501 1041.45 691.461 1041.15 689.416 1041.1C686.168 1046.17 684.243 1052.06 680.799 1056.94C679.868 1052.61 678.561 1049.12 676.22 1045.35C679.42 1044.11 681.739 1042.54 684.218 1040.17C682.159 1039.84 680.074 1039.56 678.056 1039.03C676.606 1039.58 673.464 1041.88 672.328 1041.79C672.405 1040.47 672.979 1039.47 673.577 1038.32C671.429 1037.68 669.27 1037.06 667.148 1036.33ZM772.076 1039.74C771.153 1039.91 770.053 1039.86 769.44 1040.65C766.91 1043.89 765.833 1055.08 764.957 1059.42C768.461 1058.12 771.734 1056.02 775.254 1054.93C775.348 1054.94 775.443 1054.96 775.536 1054.97C779.473 1055.61 779.159 1056.76 783.892 1056C782.169 1053.1 776.822 1040.29 774 1039.75C773.393 1039.63 772.69 1039.7 772.076 1039.74ZM799.4 1032.92C790.723 1034.82 791.509 1035.96 792.103 1044.4L787.755 1036.77C784.594 1037.09 783.28 1037.31 780.212 1038.12C781.67 1045.35 782.433 1048.55 785.242 1055.53L789.598 1053.58C789.205 1051.06 788.651 1048.03 788.386 1045.55C789.473 1047.82 790.642 1051.05 792.712 1052.29C793.971 1052.57 794.917 1052.21 796.034 1051.57C796.787 1051.58 797.833 1051.4 798.602 1051.29C800.448 1050.93 802.297 1050.58 804.148 1050.25C802.631 1043.32 801.742 1039.57 799.4 1032.92ZM797.324 1042.77C797.802 1045.52 798.189 1048.5 798.602 1051.28C797.833 1051.4 796.787 1051.58 796.034 1051.57C796.283 1048.6 796.822 1045.71 797.324 1042.77ZM647.275 1031.01C643.458 1035.74 639.426 1040.34 636.577 1045.73C639.578 1046.35 642.276 1046.4 645.245 1045.49L646.288 1046.53C648.635 1048.39 650.962 1050.02 653.575 1051.49C653.691 1046.93 655.379 1036 652.409 1032.62C651.2 1031.25 648.964 1031.2 647.275 1031.01ZM809.234 1028.8C807.446 1029.89 806.58 1030.3 806.076 1032.45C804.754 1038.11 806.085 1044.19 805.294 1049.96C808.222 1048.04 811.214 1044.83 814.318 1043.49C817.457 1043.96 820.035 1043.89 823.164 1043.21C820.6 1040.18 812.871 1029.21 809.234 1028.8ZM624.421 1021.35C621.294 1022.72 618.381 1034.03 616.478 1037.22C618.687 1038.24 621.125 1038.66 622.675 1039.4L624.316 1040.08C626.338 1040.58 626.619 1040.58 628.692 1040.33H628.694C629.655 1039.28 631.037 1037.49 632.282 1037.09C632.442 1038.22 630.737 1040.81 630.088 1042C632.005 1043.68 632.738 1043.83 635.095 1044.7C638.064 1039.47 639.77 1033.9 642.62 1028.67C640.189 1027.57 637.735 1026.51 635.264 1025.49C633.501 1027.17 629.913 1032.42 628.291 1034.63C629.366 1030.49 629.673 1028.22 630.163 1023.93C628.491 1023.07 626.184 1022.13 624.421 1021.35ZM625.024 1030.46C625.212 1033.98 625.661 1036.81 624.316 1040.08L622.677 1039.4C623.398 1036.41 624.179 1033.42 625.024 1030.46ZM841.672 1014.77C839.109 1016.21 835.504 1017.34 834.807 1020.22H834.805C835.575 1022.83 836.045 1024.84 836.597 1027.5C835.612 1026.43 832.478 1023.2 832.039 1022.12V1022.12C829.55 1021.03 825.933 1022.42 823.346 1023.19C824.723 1026.24 829.654 1037.65 831.32 1039.96C832.847 1039.23 835.109 1038.26 836.345 1037.21C836.615 1037.1 836.855 1037.01 837.079 1036.92C836.854 1037.01 836.613 1037.1 836.343 1037.21L832.469 1030.9C834.916 1033.06 836.266 1034.33 839.069 1035.99C840.86 1035.3 841.18 1035.08 842.741 1033.95L845.038 1032.99C846.488 1032.36 847.679 1031.99 848.704 1030.79C848.9 1028.33 843.077 1018.79 841.672 1014.77ZM608.6 1013.05C606.812 1016.17 601.267 1025.33 600.685 1028.43C601.593 1030.24 604.988 1030.89 606.86 1031.41C607.322 1029.77 607.639 1027.84 608.938 1026.82L609.961 1026.63C611.812 1028.74 610.436 1030.96 609.512 1033.29C611.175 1034.12 613.456 1035.17 615.007 1036.09C616.127 1034.51 617.059 1030.12 618.13 1028.03C619.33 1025.69 620.998 1023.55 620.867 1020.95C618.182 1017.66 612.446 1015.16 608.6 1013.05ZM840.296 1025.07C841.821 1027.19 843.681 1030.63 845.036 1032.98L842.741 1033.95C841.248 1031.16 840.836 1028.14 840.296 1025.07ZM689.576 957.956C688.603 964.742 688.784 971.904 688.522 978.758L687.185 1010.36C687.005 1015.45 687.183 1020.87 686.514 1025.92C694.178 1026.17 701.906 1026.23 709.556 1026.71C709.57 1019.64 709.424 1012.41 710.183 1005.37C711.929 1003.66 713.65 1001.92 715.521 1000.34C720.663 1009.36 725.531 1018.5 730.728 1027.49C739.558 1027.93 749.617 1027.59 758.299 1028.83C755.849 1025.39 753.804 1021.69 751.785 1017.99C748.228 1011.36 743.905 1005.18 739.991 998.76C737.336 994.406 735.118 989.812 732.53 985.429C737.391 979.224 743.571 974.048 749.333 968.694C752.188 966.04 754.873 963.195 757.736 960.559C749.289 960.495 740.821 959.989 732.389 959.468C725.184 963.579 716.987 974.848 710.766 980.877C711.254 973.579 711.632 966.168 711.677 958.852C704.333 958.421 696.933 957.956 689.576 957.956ZM855.576 1006.68C854.445 1007.19 853.779 1007.5 853.15 1008.64C852.5 1012.41 859.995 1019.43 857.165 1022.09C856.215 1022.24 855.531 1022.35 854.594 1022.05C851.989 1018.93 850.189 1014.49 848.101 1010.96C846.502 1011.99 844.872 1012.99 843.302 1014.06L844.863 1018.28C846.675 1021.86 848.18 1025.09 852.289 1026.49C854.374 1027.19 856.8 1027.09 858.78 1026.1C860.932 1025.03 862.565 1022.74 863.318 1020.5C864.267 1017.67 862.702 1013.83 861.389 1011.36C860.528 1009.73 859.322 1007.49 857.614 1006.64L855.576 1006.68ZM596.583 1007.4C593.265 1009.92 584.878 1015.51 583.751 1019.4C584 1020.02 583.963 1020.24 584.61 1020.52C587.204 1021.65 591.281 1020.6 593.469 1022.26C594.394 1023.98 595.467 1026.2 597.451 1026.86C597.847 1026.99 598.386 1026.7 598.783 1026.57C601.944 1023.15 602.113 1013.71 602.366 1009.09C600.445 1008.25 598.702 1007.58 596.583 1007.4ZM834.835 922.939C827.118 926.288 818.321 931.295 810.913 935.486C813.995 947.556 816.776 959.7 819.255 971.908C818.182 971.878 815.878 971.746 814.929 971.899L799.844 956.427C796.663 953.205 793.095 950.035 790.284 946.535C784.631 950.227 773.334 954.915 766.192 959.218L788.09 1000.29C791.574 1006.93 794.802 1013.82 798.416 1020.38C804.611 1016.6 810.29 1012.96 817 1010.14C811.164 1002.78 809.405 995.173 805.185 988.264V988.269C802.245 983.15 797.581 977.73 795.24 972.927C799.311 977.314 803.417 981.376 807.332 985.946H807.336C813.917 992.308 819.806 998.257 825.741 1005.19C831.102 1002.74 835.256 1000.02 840.254 996.924C837.047 986.293 835.653 975.779 832.992 965.058C831.947 960.845 830.873 956.747 829.975 952.495C832.676 957.815 834.305 964.323 836.818 969.241C840.876 977.185 845.51 984.596 849.434 992.723C855.477 989.532 861.502 986.3 867.508 983.036C865.258 979.562 862.704 973.568 860.605 969.658C857.397 963.689 854.087 957.787 850.915 951.796C846.192 942.879 840.918 930.921 834.835 922.939ZM863.263 1002.31C861.971 1002.95 860.498 1003.48 859.742 1004.78C860.331 1008.12 866.533 1016.62 868.671 1019.78L874.741 1015.19C876.247 1014.18 878.987 1012.78 879.398 1010.9C879.601 1009.98 879.474 1009.84 879.001 1009.09C877.794 1008.74 876.527 1008.78 875.407 1009.41C874.32 1010.01 873.333 1011.11 872.442 1011.97C868.996 1009.15 866.808 1004.84 863.263 1002.31ZM578.299 993.788C575.933 997.001 573.642 1001.08 571.429 1003.87L571.431 1003.88L568.037 1007.51C570.272 1008.89 570.972 1009.49 572.873 1011.22C574.34 1009.11 576.971 1006.06 579.581 1008.51L579.609 1009.67C578.973 1011.33 577.94 1011.97 576.552 1013.1C578.671 1014.96 580.106 1016.36 582.05 1018.39C585.689 1012.66 588.22 1008.95 592.441 1003.8C590.769 1002.5 589.074 1001.23 587.358 999.994C585.736 1002.02 584.879 1003.66 581.984 1003.34C580.833 1002.38 581.148 1002.91 580.915 1001.24C581.299 999.635 582.468 998.525 583.558 997.277C581.995 996.038 580.155 994.348 578.299 993.788ZM876.168 992.623C874.663 993.721 873.065 994.939 871.516 995.951C875.159 1000.28 877.96 1006.78 881.797 1009.25C883.286 1008.63 885.807 1007.67 887.12 1006.89C886.259 1005.83 885.414 1004.77 884.584 1003.68V1003.68L884.582 1003.68C881.94 999.819 879.409 996.028 876.168 992.623ZM624.551 926.542C621.155 932.622 617.659 938.678 614.457 944.861C611.984 949.638 609.79 954.56 607.213 959.282C602.208 968.452 595.964 977.827 592.345 987.651C597.627 990.334 602.957 992.955 608.184 995.741C618.084 1001.02 627.95 1007.41 639.592 1007.41C648.741 1006.44 655.695 1002.45 661.501 995.292C667.316 988.122 672.905 976.119 671.802 966.693C670.781 957.976 664.998 950.814 658.281 945.584C647.939 937.534 635.335 933.755 624.551 926.542ZM885.75 985.446C884.343 985.95 883.007 986.253 882.424 987.791C881.098 991.29 885.257 998.74 886.822 1002.21L884.584 1003.68L884.587 1003.68L886.822 1002.21C887.371 1003.4 887.996 1005.02 888.866 1005.93H888.869C889.973 1004.55 891.368 1001.78 892.491 1000.17C894.635 997.111 898.755 996.564 902.726 994.586C897.659 991.031 892.211 988.424 887.074 984.988C886.632 985.138 886.19 985.292 885.75 985.446ZM565.576 982.762C561.201 986.676 557.4 991.183 554.286 996.157C558.72 1000.65 563.553 1006.77 570.309 1002.59V1002.58C573.402 998.824 574.107 996.999 575.108 992.465L575.106 992.467C572.238 988.265 569.147 986.231 565.576 982.762ZM567.156 990.23C568.024 990.349 568.381 990.592 568.988 991.216C569.298 991.964 569.484 992.606 569.222 993.401C568.383 995.96 566.2 997.152 563.911 998.164L562.335 997.601L562.013 996.841C562.833 994.376 565.433 992.153 567.156 990.23ZM888.411 991.509C888.604 991.569 888.672 991.582 888.873 991.672C890.28 992.291 891.229 994.274 891.807 995.62C891.258 995.569 890.708 995.436 890.166 995.333C888.932 994.44 888.76 992.902 888.411 991.509ZM636.818 952.723C638.589 952.694 640.386 953.51 641.967 954.262C645.485 955.937 647.93 958.468 649.227 962.172C650.8 966.659 649.268 971.514 647.275 975.616C644.407 981.521 640.287 986.182 633.956 988.374C628.763 988.314 624.329 985.972 619.675 983.921C622.544 978.691 625.324 973.419 628.017 968.095C630.59 963.006 632.984 957.005 636.818 952.723ZM814.932 971.904C815.88 971.75 818.184 971.883 819.257 971.913L820.804 979.339C818.656 976.267 817.472 974.625 814.932 971.904ZM560.744 917.171C562.855 923.026 564.354 928.918 565.615 935.007C559.846 937.003 554.788 941.081 549.923 944.661C555.798 944.106 561.969 944.698 567.842 945.176C569.191 951.146 570.927 957.12 571.983 963.141C573.129 960.597 577.603 947.574 579.745 946.822C580.712 946.481 581.556 946.613 582.545 946.728C587.507 947.125 592.611 947.455 597.484 948.481C593.317 943.9 588.205 940.024 583.549 935.938C585.721 929.819 588.528 924.219 591.626 918.539C586.246 922.237 580.582 925.295 574.801 928.312C571.65 925.727 564.317 918.143 560.744 917.171ZM892.37 917.189C888.352 921.377 883.775 924.471 879.588 928.363C873.976 925.447 867.791 922.703 862.845 918.751C865.578 924.389 868.497 930.015 870.812 935.837C866.136 939.814 861.081 943.664 857.261 948.505C862.124 947.309 867.279 946.962 872.261 946.513C873.117 946.483 874.052 946.253 874.754 946.837C877.237 948.918 880.433 959.337 881.681 962.768C883.443 957.012 884.518 951.068 886.565 945.411C892.437 944.629 898.529 944.241 904.453 944.232C899.538 940.737 894.457 937.458 888.853 935.162C889.679 929.134 890.98 923.482 893.045 917.761C892.803 917.449 892.74 917.365 892.37 917.189ZM727.159 555.535C732.497 566.393 733.111 569.933 735.183 582.068L752.105 588.164C766.194 593.213 774.284 596.157 778.589 612.108C788.332 613.898 806.197 615.434 811.316 623.782C819.776 637.581 818.965 663.595 821.53 679.675C825.339 683.849 829.579 687.145 833.63 691.072C849.035 706.007 859.611 722.036 867.955 741.845C881.37 773.696 881.773 813.067 870.131 845.476C868.651 849.593 867.054 853.507 864.994 857.342C871.055 863.155 875.86 868.997 881.552 874.888C892.967 886.702 903.881 898.902 915.307 910.663C908.545 908.383 901.926 907.636 895.138 905.974C887.729 904.16 880.647 902.16 873.177 900.436C863.666 898.242 853.167 896.674 843.855 894.095C838.762 897.513 835.008 902.809 830.641 907.039C827.2 910.372 822.763 913.905 818.931 916.816C784.796 942.922 741.113 953.161 698.932 944.94C672.71 940.017 648.286 928.154 628.204 910.589C622.225 905.353 617.108 899.291 611.157 894.176C602.602 896.801 588.397 898.606 579.009 900.986C573.772 902.315 558.295 906.701 554.096 907.116C554.089 907.117 554.082 907.118 554.076 907.12C554.082 907.122 554.088 907.124 554.093 907.127C549.627 908.464 545.385 908.625 540.1 910.475C540.105 910.469 540.108 910.463 540.113 910.457C540.108 910.459 540.104 910.462 540.1 910.464C543.043 907.084 546.036 903.511 549.27 900.428C562.566 885.832 576.071 871.428 589.779 857.219C585.718 850.889 584.686 845.595 582.451 838.701C565.566 786.62 581.429 731.098 619.535 692.547C623.257 688.781 632.604 682.307 633.625 677.155C635.56 667.387 635.98 656.82 637.153 646.902C638.345 618.779 650.592 617.542 674.519 612.231C677.555 604.092 680.534 596.199 689.356 592.696C698.594 589.027 710.807 586.153 719.759 581.794C721.165 571.338 721.639 564.635 727.159 555.535ZM820.504 888.5C812.944 894.832 805.422 901.245 797.147 906.64C772.715 922.571 743.722 928.898 714.8 926.325C707.755 925.698 700.625 924.9 693.743 923.233C678.477 919.533 662.166 911.606 649.731 902.168C644.563 898.245 639.432 892.803 634.626 889.322C634.13 888.963 633.533 888.76 632.921 888.849C628.449 889.782 624.025 890.939 619.596 892.057C625.163 897.339 630.644 903.017 636.594 907.854C663.212 929.887 696.996 941.378 731.528 940.143C765.521 939.391 798.09 926.342 823.202 903.419C827.115 899.556 831.035 895.385 835.46 892.105C830.477 890.966 825.535 889.379 820.504 888.5ZM727.338 531.773C731.062 534.699 740.726 556.33 742.417 561.886C743.535 565.564 744.551 569.211 745.279 573.108C748.199 574.663 754.649 576.582 758.041 577.622C773.523 582.368 779.413 588.171 787.968 601.367C797.075 604.581 803.567 603.368 813.457 609.659C827.589 618.648 826.559 632.646 829.951 647.235C841.218 652.374 852.929 656.489 864.146 661.827C882.242 670.439 899.69 680.658 916.367 691.752C917.712 692.647 919.448 694.481 920.601 695.667C911.363 706.977 907.46 709.535 899.911 724.104C875.29 771.622 896.963 821.983 914.283 867.705C920.322 883.644 926.56 902.539 931.947 918.975C921.4 909.344 910.245 895.992 900.279 885.424C890.724 875.292 881.839 866.664 872.984 855.828C874.99 852.705 876.273 848.244 877.384 844.762C890.14 805.106 887.271 761.212 866.877 724.615C859.859 712.022 852.547 701.509 842.507 691.033C837.924 686.251 832.03 681.929 828.003 676.831C826.654 675.123 826.346 665.926 826.057 663.343C824.95 650.788 824.155 633.513 818.405 622.28C811.805 609.391 796.414 609.423 784.453 605.999C780.827 601.889 778.865 596.102 773.807 591.701C766.301 585.169 755.856 582.685 746.834 578.805C745.819 578.369 740.693 576.419 740.664 576.327C738.376 568.239 734.306 548.819 727.354 542.872L726.701 543.323C718.452 554.746 716.863 562.93 713.498 576.355C701.193 581.791 684.731 585.504 675.965 595.001C673.267 597.924 671.464 602.692 668.315 606.122L668.18 606.266C661.28 608.756 654.005 609.44 647.386 613.191C633.103 621.287 631.322 633.498 629.961 648.094L628.261 666.286C628.033 668.59 627.723 675.314 626.554 676.868C623.075 681.489 616.85 686.394 612.847 690.619C575.473 730.058 559.1 784.812 575.235 837.458C577.199 843.864 579.031 850.338 582.267 856.264C568.217 871.287 553.76 886.068 539.887 901.26C534.365 907.308 527.618 913.881 522.666 920.187C529.075 892.412 542.252 864.379 551.648 837.357C555.446 826.436 557.171 816.663 560.334 806.011C570.755 770.919 565.18 733.49 541.798 704.919C539.208 701.77 536.437 697.89 533.011 695.501C553.949 679.736 581.456 665.022 605.673 654.968C611.727 652.455 618.887 648.938 625.272 647.783C625.444 642.064 627.111 631.46 628.966 626.231C632.469 616.362 641.515 609.093 651.258 605.865C656.208 604.226 660.899 603.505 665.714 601.272C676.558 579.452 690.065 581.577 709.069 573.307C710 569.418 710.411 565.773 711.756 561.781C715.342 551.137 721.547 541.275 727.338 531.773ZM742.147 674.927C743.495 679.56 745.715 686.405 746.721 690.943C779.061 700.333 804.456 714.199 821.087 745.136C868.127 832.642 786.01 929.889 691.09 899.33C599.245 869.762 597.39 726.02 689.698 696.384C695.826 694.416 701.665 692.623 707.875 690.871C709.151 685.792 710.28 680.678 711.256 675.534C707.351 676.694 703.186 677.343 699.184 678.238C661.576 686.648 630.982 713.853 615.132 748.577C614.19 750.641 613.29 752.624 612.534 754.765C601.249 789.254 603.345 808.666 612.641 842.711C601.192 856.226 587.231 869.659 575.222 882.875C570.737 887.811 566.1 893.391 561.625 898.107C586.909 892.949 611.146 885.987 636.715 880.759C643.286 885.829 648.221 891.483 655.108 896.486C680.645 914.951 712.298 922.904 743.53 918.699C765.524 915.991 786.349 907.284 803.725 893.532C808.56 889.657 812.141 884.652 817.147 881.238C827.374 882.274 840.633 885.845 850.63 888.393C864.773 891.998 877.924 895.424 892.298 897.954C883.618 887.523 874.706 878.295 865.474 868.34L841.944 842.557C848.729 822.106 850.564 807.835 849.315 786.613C846.471 738.274 811.181 695.676 765.539 681.014C758.042 678.605 749.167 677.396 742.147 674.927ZM726.773 654.363C720.463 668.594 718.099 685.744 712.299 699.41C706.825 700.595 700.154 701.438 694.953 703.39C655.745 718.105 628.691 752.969 627.814 795.604C626.781 845.799 664.473 888.929 714.096 896.012C718.659 896.663 723.596 896.646 728.237 896.709C733.587 896.523 740.674 896.396 745.8 895.278C767.372 890.573 785.858 880.235 800.734 864.229C818.369 844.999 827.643 819.553 826.517 793.485C824.86 751.813 797.471 715.759 757.434 702.612C752.511 700.995 746.685 700.636 741.617 699.399C739.026 692.791 729.917 656.96 726.773 654.363ZM722.204 712.012C731.23 710.561 751.168 714.882 760.16 718.299C779.616 725.695 796.665 742.817 805.531 761.549C808.257 767.31 810.141 775.102 811.528 781.426C805.219 781.532 798.908 781.496 792.6 781.317C792.478 779.355 792.198 777.11 792 775.131C753.742 784.749 701.03 785.151 662.87 774.866C657.911 790.687 657.64 804.635 662.87 820.39C700.322 811.696 754.28 810.582 791.605 820.226C792.38 816.161 793.751 811.133 794.747 807.041C782.951 806.128 763.962 806.722 751.471 806.721L676.71 806.806L676.64 800.221L676.66 789.109L812.918 789.138C813.593 813.201 809.768 832.44 794.48 851.222C781.563 867.091 761.902 880.25 741.306 882.299C715.025 884.914 694.332 881.401 673.235 864.53C655.705 850.353 644.523 829.793 642.149 807.374C639.463 784.801 645.91 762.088 660.054 744.293C676.741 723.663 696.294 714.703 722.204 712.012ZM749.164 860.322C741.835 857.75 730.68 856.715 723 857.717C717.207 858.173 709.819 858.676 704.579 861.346L703.986 862.126C705.092 863.705 708.39 863.908 710.196 864.227C717.87 865.584 725.293 866.502 733.106 866.046C736.474 865.555 749.587 864.091 751.471 862.056C750.966 861.012 750.235 860.698 749.164 860.322ZM702.962 846.662C702.457 846.517 702.133 846.379 701.61 846.524C695.95 847.869 690.079 849.638 684.882 852.291L692.429 856.689L697.079 859.748C699.91 858.774 702.758 857.84 705.616 856.946C704.476 853.693 704.407 849.623 702.962 846.662ZM755.205 831.272C754.77 835.009 754.02 839.178 753.432 842.928L754.373 843.331C759.28 845.285 767.129 846.337 772.729 848.901C771.727 850.359 771.497 850.864 769.839 851.371C767.689 850.588 761.581 848.077 757.131 847.01C756.728 846.913 756.336 846.829 755.963 846.758C754.472 846.475 753.267 846.42 752.62 846.747V846.749L752.291 845.998L752.617 846.752C752.589 846.973 752.568 847.199 752.541 847.424C752.44 848.268 752.339 849.13 752.234 849.984C752.147 850.687 752.054 851.387 751.938 852.063C751.839 852.639 751.77 853.177 751.725 853.674C750.666 865.538 764.721 855.412 769.517 852.094L769.839 851.375C771.497 850.869 771.727 850.363 772.729 848.906C774.935 847.477 780.564 841.094 782.588 838.874C774.416 834.67 764.241 833.388 755.205 831.272ZM750.989 845.965C741.081 844.718 729.564 843.094 719.607 844.475C715.111 844.891 710.617 845.345 706.129 845.836C706.671 849.21 707.286 852.591 707.728 855.979C717.015 854.512 728.178 853.001 737.443 854.772C741.345 855.211 745.148 855.751 748.997 856.542C749.693 853.03 750.473 849.508 750.989 845.965ZM735.928 655.889C736.875 660.234 737.975 663.399 739.818 667.463C747.554 669.15 755.531 670.746 763.153 672.858C793.853 681.363 819.332 701.08 836.457 727.777C854.865 756.809 860.986 791.966 853.472 825.511C852.304 830.629 850.949 835.703 849.414 840.723C851.835 843.149 859.065 851.189 861.333 852.802C861.891 851.988 861.87 852.036 861.996 851.055C864.734 841.99 868.185 832.22 869.8 822.917C882.027 752.469 839.239 683.15 771.18 661.847C759.735 658.264 748.05 656.01 735.928 655.889ZM717.017 656.292C715.896 655.787 716.294 655.927 714.949 656.044C672.869 659.335 632.974 683.143 609.29 718.223C583.417 756.545 575.406 807.387 594.591 850.6C595.928 850.004 602.303 842.329 603.705 840.651C601.596 833.644 599.757 827.46 598.487 820.219C593.44 790.794 598.469 760.527 612.761 734.316C627.563 706.544 656.853 682.904 687.005 673.675C695.537 671.064 706.709 669.848 714.484 666.996C715.457 664.218 717.759 658.875 717.017 656.292ZM700.675 831.658C690.923 833.536 681.502 835.536 672.231 839.187C674.2 841.261 676.145 843.363 678.227 845.325L681.941 848.768C688.827 846.467 695.617 844.533 702.737 843.083C702.477 840.803 702.177 832.927 700.675 831.658ZM753.01 843.62C757.43 845.742 765.589 846.333 768.281 848.498H768.285C765.598 846.329 757.431 845.739 753.007 843.616L753.01 843.62ZM752.782 830.755C743.144 829.835 733.226 828.999 723.541 829.541C716.362 829.827 710.276 830.197 703.159 830.77C703.812 834.701 704.5 838.662 705.105 842.597C712.488 842.046 726.163 840.716 733.027 841.495C739.07 841.912 745.239 842.123 751.241 842.919C751.904 838.885 752.418 834.826 752.782 830.755ZM756.246 817.3C756.207 820.886 756.253 824.795 755.819 828.325C765.763 829.663 775.757 831.449 784.786 836.141C785.326 835.155 786.085 833.653 786.655 832.743C788.043 829.985 789.919 826.493 791.097 823.712C780.923 821.054 771.02 819.036 760.559 817.91C759.165 817.76 757.617 817.559 756.246 817.3ZM697.105 817.993C685.464 819.372 675.518 821.476 663.994 823.975C665.743 827.771 667.566 831.952 669.556 835.591C671.376 835.496 675.861 833.576 677.845 832.927C685.408 830.452 692.818 829.051 700.69 827.972C700.064 825.283 699.76 818.844 698.689 817.879L697.105 817.993ZM724.577 816.739C717.969 816.829 708.606 816.695 702.248 817.384C702.27 821.617 702.278 823.557 702.903 827.711C711.154 827.078 724.409 826.164 732.633 826.642C739.731 826.858 745.964 827.299 752.996 827.742C753.323 824.77 753.992 819.878 753.978 817.046C744.179 816.871 734.378 816.769 724.577 816.739ZM753.042 768.995C739.401 770.231 726.791 770.76 713.093 769.918C710.378 769.751 705.01 769.657 702.531 769.021C702.334 772.136 702.023 775.692 701.93 778.773C716.442 779.961 739.621 780.572 754.026 778.834C753.764 775.549 753.436 772.267 753.042 768.995ZM785.294 760.712C775.658 763.777 765.824 766.189 755.863 767.932C756.112 771.339 756.329 774.749 756.513 778.159L762.627 777.491C773.287 776.391 781.413 774.583 791.66 773.067C790.75 771.092 786.659 761.559 785.294 760.712ZM668.999 760.475C666.707 764.8 665.614 768.133 663.817 772.635C673.885 774.433 686.843 777.306 697.074 777.774L698.457 777.962C699.798 776.329 699.896 770.966 700.547 768.375C694.769 767.228 674.258 763.014 668.999 760.475ZM750.411 753.5C732.24 755.913 723.525 756.571 705.077 753.63C704.655 756.159 703.072 763.41 704.073 765.27L705.217 765.555C723.677 766.622 734.129 766.966 752.755 765.224C752.559 763.049 752.123 754.482 751.015 753.393L750.411 753.5ZM681.733 746.714C679.027 749.415 674.245 753.973 672.028 756.752C681.562 759.95 684.9 761.875 695.376 763.596C697.268 763.915 699.444 764.227 701.279 764.702C701.738 760.929 702.305 756.88 702.579 753.113C696.778 752.232 691.289 750.842 685.846 748.588C684.842 748.172 682.594 746.919 681.733 746.714ZM772.968 746.626C767.188 749.339 759.829 752.316 753.365 752.674C753.997 756.617 754.594 760.58 755.438 764.483L762.224 763.445C770.323 761.869 775.189 760.879 782.711 757.175C781.258 755.437 774.294 746.825 772.968 746.626ZM748.504 739.29C735.404 742.472 721.229 744.133 708.153 739.59C707.601 742.317 706.116 747.822 706.03 750.124C706.664 750.694 706.317 750.59 707.034 750.625C724.071 753.381 734.607 753.052 751.338 750.128C750.569 746.685 749.721 743.116 749.096 739.658L748.504 739.29ZM696.68 736.52C691.96 739.111 688.516 741.235 683.994 744.231C687.937 745.266 692.267 746.897 695.985 747.733C698.175 748.38 700.866 749.083 702.914 749.999C703.834 746.084 704.612 743.078 705.844 739.261C702.775 738.398 699.719 737.483 696.68 736.52ZM757.69 736.687C755.677 737.202 753.563 737.776 751.55 738.253C751.845 742.631 752.227 745.515 752.928 749.837C755.864 748.96 758.823 748.157 761.799 747.433C764.886 746.435 767.294 745.621 770.279 744.369C767.638 742.262 760.985 737.027 757.69 736.687ZM741.979 730.485C731.415 728.33 717.438 728.448 707.284 732.045L700.51 734.429C702.598 734.752 705.439 735.107 707.437 735.582C719.038 741.901 742.017 738.625 753.963 733.945C750.058 733.044 745.922 731.29 741.979 730.485ZM777.774 653.18C778.68 655.792 779.851 656.742 782.369 657.918C790.518 661.724 798.806 664.959 806.399 669.876C808.798 671.429 811.824 673.85 814.478 674.48C810.294 665.444 789.232 657.533 780.009 653.87C779.322 653.598 778.511 653.295 777.774 653.18ZM648.506 666.275C645.986 667.824 641.409 670.232 640.718 673.272C642.965 674.233 650.471 668.694 652.726 667.187C651.457 666.192 650.138 666.331 648.506 666.275ZM673.969 655.082C669.254 654.321 652.693 663.631 648.508 666.264C650.14 666.32 651.457 666.182 652.726 667.176C657.197 664.695 672.687 658.431 674.258 655.663L673.969 655.082ZM778.834 646.922C786.985 649.13 796.636 654.506 804.304 658.334C806.461 659.411 810.893 662.434 812.501 663.162C811.634 652.733 811.216 642.179 807.753 632.233C803.147 619.006 788.976 621.574 778.746 618.119L778.834 646.922ZM673.132 618.365C669.261 619.135 665.273 620.035 661.465 620.777C649.593 623.089 644.565 634.583 643.538 645.434C643.242 648.568 641.477 660.287 642.206 662.934C642.889 662.843 642.931 662.916 643.49 662.563C651.284 657.816 665.82 650.307 674.51 647.334C674.573 643.472 675.531 619.54 674.307 618.119L673.132 618.365ZM731.809 640.131C731.831 647.102 734.564 646.848 740.491 647.68C750.991 649.154 763.535 650.455 773.251 654.795C773.143 652.029 773.001 649.24 773.027 646.473C759.835 643.525 745.306 640.048 731.809 640.131ZM721.676 639.813C720.863 639.686 720.641 639.6 719.822 639.802C708.959 640.674 698.09 642.967 687.406 645.044C685.222 645.468 682.955 646.038 680.758 646.334C680.744 648.225 680.446 653.501 681.483 654.78L682.592 654.655C695.052 649.376 707.122 648.993 720.133 646.792C721.432 646.573 722.385 641.191 721.676 639.813ZM735.571 590.088C735.585 602.393 736.977 624.239 728.226 633.127C740.739 633.167 755.558 635.906 768.005 638.465L773.194 639.772C773.216 631.186 773.659 621.395 771.708 613.103C768.22 598.284 748.606 592.255 735.571 590.088ZM719.382 595.665C719.384 592.717 720.357 589.793 716.976 590.59C714.25 591.076 711.769 591.774 709.157 592.439C678.27 600.305 680.283 612.588 680.935 639.605C683.024 639.198 685.514 638.774 687.555 638.299C700.57 635.815 711.911 633.47 725.206 632.985C718.442 622.992 719.373 607.349 719.382 595.665ZM727.319 576.318C725.4 585.292 723.167 607.654 726.957 615.332C729.623 612.614 729.194 578.55 727.319 576.318Z" fill="#0F0E0F"/>
</svg>
