<svg width="2002" height="1600" viewBox="0 0 2002 1600" fill="none" xmlns="http://www.w3.org/2000/svg">
<path d="M890.762 716.906C893.069 716.803 895.377 716.745 897.686 716.732C912.386 716.641 921.679 721.664 931.785 731.662C934.633 727.234 936.795 723.795 939.233 719.145C947.239 718.712 958.105 718.987 966.322 718.957C967.058 784.724 966.338 851.963 966.347 917.85L966.376 990.667C966.381 1006.58 968.26 1028.14 963.405 1042.87C944.005 1101.74 864.507 1106.46 836.865 1051.4C835.054 1047.79 834.586 1043.39 832.803 1039.56L832.575 1039.08C831.734 1033.17 830.846 1027.81 830.857 1021.81C843.365 1021.42 857.142 1021.69 869.82 1021.58C870.996 1029.81 871.977 1035.69 878.201 1041.9C889.816 1053.48 907.712 1053.3 919.035 1041.63C922.094 1038.48 924.271 1034.59 925.349 1030.33C927.033 1023.57 926.2 992.455 926.135 983.764C925.66 984.519 925.156 985.255 924.622 985.97C919.881 992.27 911.508 995.567 903.955 996.227C867.936 999.37 834.739 972.727 831.29 936.407C830.252 925.479 830.583 915.575 830.606 904.92L830.622 858.879L830.593 808.482C830.588 796.532 830.002 783.358 831.977 771.638C836.859 742.676 861.828 720.253 890.762 716.906ZM903.101 956.902C911.683 953.972 919.629 950.28 923.876 941.688C925.518 938.365 925.921 933.635 926.116 929.967C927.174 910.161 926.249 889.782 926.257 869.913C926.262 856.512 927.73 782.45 925.066 774.847C921.305 764.112 913.557 761.584 904.706 756.231C900.749 756.193 896.353 756.054 892.435 756.235C878.334 762.359 870.505 769.417 870.371 785.526C869.974 832.876 870.076 880.261 870.313 927.613C870.324 929.909 871.211 937.449 872.039 939.425C875.108 946.669 881.003 952.344 888.359 955.136C893.916 957.218 897.349 957.196 903.101 956.902Z" fill="#116B3A"/>
<path d="M1138.34 634.699L1141.05 634.989C1142.43 637.724 1141.72 674.077 1141.73 680.446L1141.79 853.171L1141.79 905.048C1141.79 931.569 1143.41 955.598 1124.81 977.271C1098.63 1007.79 1044.87 1006.8 1019.88 974.999C1003.62 953.095 1005.5 937.751 1005.59 911.865L1005.62 862.192L1005.57 805.14C1005.57 795.649 1005.09 782.088 1006.41 772.948C1008.54 760.868 1013.68 746.668 1022.48 737.631C1045.33 714.157 1077.95 712.716 1101.88 733.663C1102.12 729.567 1102.18 725.354 1102.12 721.248C1101.74 696.772 1102.8 671.882 1101.88 647.446C1114.1 643.244 1126.38 639.864 1138.34 634.699ZM1077.35 958.548C1105.57 951.745 1102.16 928.635 1102.14 905.398L1102.07 860.16L1102.11 811.66C1102.12 794.057 1105.08 772.554 1086.29 762.467C1081.58 759.94 1075.24 758.583 1069.89 759.396C1061.12 760.715 1055.25 764.493 1049.88 771.546C1043.11 780.443 1045 795.386 1045 806.093L1044.98 853.704L1044.99 907.314C1045 916.346 1044.13 929.415 1045.74 937.906C1048.4 951.966 1064.34 959.891 1077.35 958.548Z" fill="#116B3A"/>
<path d="M1349.91 650.876C1349.8 648.575 1349.44 646.483 1350.39 644.468C1354.13 641.871 1384.43 632.231 1389.65 631.832L1389.59 740.817C1389.59 760.032 1390.09 781.77 1389.3 800.716C1406.29 775.432 1422.85 746.175 1440.28 721.717C1454.75 721.633 1469.22 721.635 1483.69 721.723C1480.75 727.029 1477.11 731.796 1473.85 737.061C1461.08 757.305 1448.14 777.449 1435.05 797.492C1430.2 805.045 1423.07 815.505 1418.71 823.167C1422.85 834.574 1428.76 846.799 1433.53 858.121L1465.28 932.229C1471.74 946.961 1477.4 962.297 1484.26 976.956C1486.7 982.17 1488.57 987.846 1491.23 993.073C1484.93 993.091 1448.27 993.945 1445.19 991.93C1441.44 985.064 1433.26 962.191 1429.88 953.63L1406.75 895.468C1401.25 881.329 1396.34 867.456 1390.37 853.455L1389.5 851.892L1388.59 851.653C1386.15 854.931 1387.02 872.712 1387.02 877.849L1387.04 921.177L1387.01 959.545C1387.01 966.881 1386.69 975.714 1387.67 982.854C1388.16 986.355 1388.96 987.75 1389.28 992.097C1387.31 993.45 1354.43 993.632 1350.81 992.978C1350.33 992.894 1349.85 992.788 1349.39 992.658C1350.32 987.593 1349.99 967.55 1349.99 961.518L1349.95 896.123L1349.91 650.876Z" fill="#116B3A"/>
<path d="M1235 716.856C1240.1 716.596 1245.31 716.677 1250.38 716.585C1283.36 715.984 1307.01 741.631 1310.13 773.427C1311.05 782.797 1310.46 793.801 1310.39 803.343C1303.12 801.626 1272.8 795.743 1272.31 793.472C1268.44 775.427 1274.06 753.984 1236.59 756.384C1232.34 760.273 1229.68 759.892 1225.13 766.195C1220.21 773.015 1218.18 780.403 1219.3 788.854C1220.29 791.81 1220.45 794.733 1221.15 797.664C1227.72 825.517 1263.91 842.856 1282.22 859.813C1304.23 880.195 1313.54 902.83 1314.3 930.88C1314.69 948.781 1308.02 966.116 1295.73 979.137C1286.9 988.455 1265.92 999.107 1253.92 999.426L1245.58 999.537C1227.86 999.697 1208.7 994.557 1195.86 981.75C1174.21 960.142 1176.5 939.414 1176.49 911.805L1177.13 912.057C1187.54 916.042 1209.09 918.34 1215.36 922.446C1216.79 926.082 1215.58 933.643 1216.63 938.206C1224.76 973.38 1279.78 962.516 1274.16 925.932C1268.92 891.476 1230.98 876.849 1208.1 854.238C1166.54 813.177 1166.36 729.615 1235 716.856Z" fill="#116B3A"/>
<path d="M733.259 573.004C736.778 572.764 737.979 574.411 740.712 576.749C741.127 588.095 738.07 599.297 731.948 608.859C727.004 616.551 720.78 622.265 711.711 623.793C708.69 624.302 704.658 625.156 701.935 623.37C699.639 617.648 711.914 613.181 716.095 606.291C720.66 598.767 721.555 598.106 723.731 589.356C696.145 597.458 695.601 620.411 696.228 644.192C696.443 652.373 696.222 661.127 696.22 669.356L696.219 808.852C696.182 820.46 696.215 832.069 696.318 843.677C696.357 849.897 696.988 857.298 696.023 863.565C689.842 902.912 639.703 908.003 627.578 870.023C624.073 859.049 625.809 831.28 625.801 818.908L625.715 685.923L625.798 646.094C625.836 631.417 627.42 614.966 618.117 602.511C614.812 598.086 607.782 591.742 602.161 590.859C600.147 591.4 600.81 590.91 599.693 592.707C599.386 595.231 600.876 598.141 601.863 600.583C604.075 603.805 605.033 605.421 607.597 608.509C610.913 612.501 619.367 617.548 620.173 621.961L619.145 623.27C607.121 628.673 594.705 616.523 588.881 606.539C585.035 599.945 576.179 578.918 585.372 573.566C588.958 571.48 603.044 574.704 607.339 576.133C622.706 581.555 631.861 592.05 637.333 606.792C642.99 622.027 641.972 632.248 641.889 647.951L641.824 689.419L641.83 830.468C641.826 841.778 639.719 865.955 644.602 875.223C647.015 879.804 650.98 883.205 655.989 884.626C663.018 886.62 667.992 883.885 673.948 880.595C676.974 875.152 679.706 872.129 680.413 865.729C681.328 857.455 680.982 848.502 680.944 840.128L680.916 802.373L680.907 665.77C680.88 649.394 680.111 630.884 681.98 614.608C682.585 609.332 688.083 598.152 691.111 593.731C700.851 579.516 716.54 573.505 733.259 573.004Z" fill="#91C640"/>
<path d="M513.865 679.703C550.861 678.565 571.799 705.958 570.026 740.661C569.743 746.192 569.967 752.33 569.966 757.92L569.928 821.99C569.92 843.946 567.924 869.018 574.153 889.902C593.755 955.617 672.401 979.473 722.878 931.231C735.729 918.961 744.812 903.279 749.058 886.027C753.499 868.62 752.211 846.524 752.347 828.206C752.548 796.782 751.87 765.584 752.061 734.149C752.246 703.639 772.967 680.489 803.883 679.409C811.77 679.134 813.128 686.875 812 692.982C808.491 711.979 796.207 734.877 773.461 731.032L773.001 730.195C773.033 729.424 773.072 728.495 773.118 727.408C778.139 721.314 783.438 718.708 788.117 711.986C792.367 705.665 793.18 703.929 794.841 696.516C763.938 705.635 767.957 732.682 767.931 757.744L767.943 818.802C767.963 844.898 770.719 872.468 760.783 897.105C714.969 1010.71 556.855 979.062 554.688 858.133C554.497 847.505 554.727 836.325 554.724 825.644L554.488 760.138C554.523 737.649 558.281 708.765 532.118 698.488C530.497 697.851 528.857 697.265 527.219 696.672C531.74 716.147 538.022 714.704 548.946 727.666C549.233 729.731 549.422 728.952 548.299 730.601C546.721 731.628 544.853 731.613 542.996 731.579C523.203 731.22 510.496 706.84 510.011 689.297C509.889 684.913 510.77 682.625 513.865 679.703Z" fill="#116B3A"/>
<path d="M716.333 670.255C723.192 638.008 737.889 623.726 771.573 622.358C774.089 624.113 775.431 624.765 775.797 627.999C777.443 642.553 768.079 662.7 755.673 670.358C750.294 673.679 744.443 675.662 738.749 672.878C738.279 672.092 737.534 671.094 738.142 670.241C745.591 659.789 755.949 655.613 758.793 640.842L758.332 640.157C753.776 639.609 747.968 643.961 744.484 646.454C734.289 653.75 734.992 665.624 731.673 672.887C730.497 680.832 730.889 695.398 730.897 703.808L730.946 755.458L730.896 828.056C730.87 838.934 730.278 855.427 730.885 865.863C730.983 888.946 712.735 913.172 692.84 923.72C646.411 948.338 593.06 913.511 590.495 862.744C589.555 844.163 589.972 825.716 589.975 807.153L589.976 705.775C590.013 678.245 595.739 649.112 562.654 639.394C565.502 648.142 568.139 655.149 575.523 661.246C578.703 663.871 585.084 667.781 584.165 672.492C583.233 673.467 582.731 674.008 581.244 674.05C560.796 674.631 549.02 654.025 546.416 636.21C545.98 633.942 545.525 626.207 547.727 624.642C558.038 617.316 582.344 628.785 589.856 636.689C596.442 643.619 600.129 650.025 602.618 658.725C603.439 661.6 604.411 662.383 604.419 665.195L604.547 796.518L604.551 838.033C604.552 846.015 603.455 864.305 607.068 870.704L607.034 871.38C606.689 879.581 611.501 890.415 616.347 897.065C636.421 924.612 673.41 929.128 698.123 905.476C705.932 897.971 711.483 888.43 714.145 877.931C716.577 868.345 715.838 852.529 715.821 842.169C715.677 824.57 715.695 806.97 715.873 789.37C716.408 786.255 716.691 764.058 716.813 759.494C717.013 762.726 717.057 766.297 717.17 769.562C718.111 765.876 718.117 760.675 718.106 756.841C718.036 731.652 718.331 706.443 718.033 681.259C717.988 677.472 716.9 674.002 716.333 670.255Z" fill="#3AB54B"/>
<path d="M657.872 510.179C661.184 509.879 662.945 509.684 665.817 511.945C672.226 516.989 679.643 535.343 680.723 542.824C682.473 554.948 670.889 596.383 664.691 604.282C659.653 606.245 656.234 603.921 654.512 599.058C642.946 566.419 631.767 538.085 657.872 510.179ZM660.254 576.949C667.152 569.673 669.918 536.914 661.737 529.004C661.279 528.559 660.766 528.175 660.21 527.862C656.704 535.442 653.597 545.106 655.34 553.462L655.481 553.286C656.635 560.561 658.043 570.047 660.254 576.949Z" fill="#91C640"/>
<path d="M1349.39 992.657C1346.68 974.531 1347.67 951.027 1347.68 931.7C1347.7 860.431 1347.7 788.622 1347.7 717.36C1347.7 709.964 1347.17 653.82 1348.22 651.444L1349.91 650.875L1349.95 896.122L1349.99 961.517C1349.99 967.55 1350.32 987.592 1349.39 992.657Z" fill="#196541" fill-opacity="0.113725"/>
<path d="M604.418 665.195C604.654 667.357 606.37 671.877 606.373 671.938C607.755 695.118 607.237 736.335 607.083 757.835C606.803 796.573 607.721 833.193 607.067 870.705C603.454 864.305 604.551 846.015 604.55 838.033L604.546 796.518L604.418 665.195Z" fill="#3AB54B" fill-opacity="0.462745"/>
<path d="M731.67 672.887C733.1 674.607 733.18 674.912 733.234 677.564C733.436 687.581 733.353 697.793 733.353 707.806L733.347 766.84L733.325 826.657C733.32 836.795 733.693 851.202 732.948 860.951C731.011 863.245 731.265 862.905 730.882 865.863C730.275 855.427 730.867 838.934 730.893 828.056L730.943 755.458L730.894 703.808C730.886 695.398 730.494 680.832 731.67 672.887Z" fill="#48A952" fill-opacity="0.505882"/>
<path d="M1389.29 992.096C1388.97 987.749 1388.16 986.354 1387.68 982.853C1386.69 975.713 1387.01 966.88 1387.01 959.544L1387.04 921.176L1387.03 877.847C1387.03 872.71 1386.16 854.93 1388.59 851.652L1389.5 851.891L1390.37 853.454C1389.8 854.24 1389.33 855.122 1389.35 856.1C1389.56 867.047 1389.59 878.143 1389.6 889.085L1389.65 965.245C1389.65 969.125 1389.88 989.258 1389.29 992.096Z" fill="#116B3A" fill-opacity="0.964706"/>
<path d="M716.333 670.254C716.901 674.001 717.988 677.471 718.033 681.258C718.331 706.442 718.036 731.651 718.107 756.841C718.117 760.674 718.111 765.875 717.17 769.561C717.058 766.296 717.013 762.725 716.813 759.494C716.691 764.057 716.409 786.254 715.873 789.37C715.373 779.521 715.43 672.544 716.333 670.254Z" fill="#3AB54B" fill-opacity="0.894118"/>
</svg>
