<svg width="2201" height="1600" viewBox="0 0 2201 1600" fill="none" xmlns="http://www.w3.org/2000/svg">
<path d="M1091.39 831.763C1098.01 831.53 1103.81 831.692 1110.41 831.896C1111.58 840.377 1111.25 852.756 1111.25 861.565L1111.28 907.233L1111.29 981.157C1111.34 996.007 1111.58 1011.21 1111.27 1026.07C1111.22 1028.04 1111.25 1027.91 1110.15 1029.52C1107.99 1030.64 1103.56 1031.36 1101.12 1031.29C1092.33 1031.04 1092.33 1025.93 1088.16 1021.64C1083.23 1019.92 1057.01 1045.93 1019.15 1025.1C991.915 1009.87 987.331 968.899 994.003 940.971C1002.53 905.284 1033.94 882.472 1070.65 891.839C1076.34 893.289 1084.81 899.671 1089.56 896.766C1093.96 888.997 1089.64 843.879 1091.33 832.176L1091.39 831.763ZM1027.22 920.613C1024.78 924.722 1019.95 930.966 1018.17 934.736C1009.75 952.684 1009.9 979.323 1020.72 996.247C1028.4 1008.24 1036.82 1011.22 1049.34 1015.43C1066.03 1018.07 1079.91 1015.67 1090.43 1001.6C1091.57 986.199 1090.95 967.406 1091.04 951.664C1091.09 944.512 1091.56 928.179 1091.13 921.86C1082.34 913.051 1074.56 904.841 1060.93 904.806C1059.26 904.81 1057.58 904.845 1055.9 904.912C1039.78 906.549 1036.64 915.993 1027.22 920.613Z" fill="#B4B3B5"/>
<path d="M700.262 890.375C770.508 878.354 793.393 970.649 753.658 1014.2C739.181 1030.07 741.095 1027.16 719.89 1032.32C684.606 1039.95 651.542 1012.04 648.892 977.081C646.771 949.111 647.341 919.48 672.777 901.217C681.983 894.607 689.094 891.602 700.262 890.375ZM711.517 1016.08C738.729 1016.9 750.49 982.759 750.374 959.841C750.311 947.418 746.998 928.225 739.268 918.74C731.3 908.922 722.029 903.654 708.836 905.533C697.821 905.791 692.178 907.351 684.235 915.674C669.548 931.064 670.106 952.074 670.678 971.823C671.032 984.04 674.563 998.87 683.956 1007.29C693.716 1016.03 699.606 1016.33 711.517 1016.08Z" fill="#B4B3B5"/>
<path d="M887.721 890.35C898.411 888.973 918.18 890.003 927.671 894.671C955.092 908.158 953.814 931.98 953.74 956.957L953.662 992.582C953.66 995.666 953.322 1007.16 954.241 1009.42L954.38 1009.76C956.976 1016.11 967.098 1026.18 965.143 1031.81C963.914 1032.72 963.277 1033.4 961.54 1033.08C945.302 1030.09 942.103 1025.85 933.251 1014.06C924.296 1022.35 918.065 1027.38 906.49 1030.18C886.305 1035.06 881.156 1034.69 864.081 1024.52C853.635 1016.82 844.5 1001.41 846.881 988.103C849.204 975.122 859.908 962.323 870.433 954.738C879.979 947.859 900.331 943.141 912.242 943.802C918.783 944.247 925.975 946.328 932.435 947.569C932.354 937.487 933.112 923.225 925.536 915.815C912.965 903.522 893.203 904.763 877.941 910.656C875.051 911.773 865.75 914.797 863.326 914.679C860.447 913.461 857.408 904.471 856.061 901.198C868.656 895.341 873.518 892.594 887.721 890.35ZM896.491 1016.08C898.667 1016.14 900.843 1016.2 903.021 1016.2C915.055 1016.2 925.198 1006.73 932.198 998.049C932.499 986.066 933.012 971.044 932.014 959.253C925.614 958.994 913.36 957.893 907.644 958.716C892.477 960.361 886.377 962.273 875.98 974.284C866.337 985.424 864.407 1001.09 876.421 1011.63C882.131 1016.64 889.295 1016.22 896.491 1016.08Z" fill="#B4B3B5"/>
<path d="M1117 698.756C1123.23 694.509 1140.32 688.463 1148.09 689.32C1150.51 689.587 1156.43 691.649 1159.07 692.51C1166.69 696.799 1175.51 701.431 1181.28 708.131C1186.31 713.23 1190.6 721.865 1192.42 728.714L1194.74 731.249C1193.95 729.794 1193.34 728.886 1193.11 727.218C1193.45 726.242 1198.36 721.39 1199.82 719.723L1200.58 720.03C1201.5 722.45 1202.03 724.114 1204.66 724.617C1213.16 737.027 1214.41 761.604 1202.93 772.579C1196.36 785.726 1187.16 789.107 1173.99 793.928C1164.48 797.41 1164.15 794.214 1158.13 794.751C1154.6 795.844 1145.53 796.991 1142.06 795.859C1139.08 795.825 1136.12 795.397 1133.25 794.586C1128.89 793.381 1125.67 791.575 1121.9 790.061C1103.15 782.538 1091.64 769.317 1090.67 748.625C1090.47 744.405 1088.16 741.801 1089.6 736.53C1091.66 734.055 1094.24 732.449 1096.37 729.162C1098.44 725.978 1098.56 725.205 1099.67 721.671L1101.95 716.338C1104.86 710.002 1107.54 707.047 1112.64 702.393C1114.13 701.036 1115.85 700.386 1117 698.756Z" fill="#E93536"/>
<path d="M1117 698.756C1123.23 694.509 1140.32 688.463 1148.09 689.32C1150.51 689.587 1156.43 691.649 1159.07 692.51C1166.69 696.799 1175.51 701.431 1181.28 708.131C1186.31 713.23 1190.6 721.865 1192.42 728.714C1192.13 731.275 1192.59 731.277 1191.12 732.616C1185.63 733.377 1171.94 730.393 1165.36 730.22C1145.6 729.699 1126.11 736.551 1108.22 744.343C1105.31 745.61 1099.88 746.908 1097.65 748.529C1096.73 751.142 1098.72 753.228 1099.03 756.069C1099.58 761.206 1096.78 767.346 1099.56 772.089C1105.42 782.08 1121.35 788.029 1131.45 793.018C1134.03 794.293 1139.15 793.156 1142.06 795.859C1139.08 795.825 1136.12 795.397 1133.25 794.586C1128.89 793.381 1125.67 791.575 1121.9 790.061C1103.15 782.538 1091.64 769.317 1090.67 748.625C1090.47 744.405 1088.16 741.801 1089.6 736.53C1091.66 734.055 1094.24 732.449 1096.37 729.162C1098.44 725.978 1098.56 725.205 1099.67 721.671L1101.95 716.338C1104.86 710.002 1107.54 707.047 1112.64 702.393C1114.13 701.036 1115.85 700.386 1117 698.756Z" fill="#F05059"/>
<path d="M1117 698.756C1123.23 694.509 1140.32 688.463 1148.09 689.32C1150.51 689.587 1156.43 691.649 1159.07 692.51C1166.68 696.799 1175.51 701.431 1181.28 708.131L1180.03 709.337C1177.92 709.677 1173.71 707.633 1171.51 706.755C1156.64 700.225 1128.64 709.361 1113.66 714.429C1109.33 715.891 1107.4 719.353 1103.37 718.115L1101.95 716.338C1104.86 710.002 1107.54 707.047 1112.64 702.393C1114.13 701.036 1115.85 700.386 1117 698.756Z" fill="#F3B7BB"/>
<path d="M1101.95 716.329L1103.37 718.106C1107.4 719.344 1109.33 715.882 1113.66 714.419C1128.64 709.352 1156.64 700.215 1171.51 706.745C1169.51 706.797 1163.99 706.207 1163.21 706.407C1159.73 707.294 1155.71 710.224 1151.85 711.408C1146.3 713.11 1138.06 710.63 1133.92 714.077C1129.8 717.504 1116.41 717.844 1110.85 719.343C1109.59 719.685 1106.75 721.285 1105.65 721.899L1099.67 721.662L1101.95 716.329Z" fill="#F26E76"/>
<path d="M1158.13 794.749C1165.36 789.741 1191.65 782.263 1191.84 772.348C1190.38 770.551 1189.83 770.261 1190.12 768.055L1190.92 769.488C1192.41 769.287 1191.85 769.489 1193.08 768.375C1196.27 769.643 1199.27 768.186 1202.65 770.232C1203.06 771.381 1203.02 771.338 1202.93 772.577C1196.36 785.724 1187.16 789.105 1173.99 793.926C1164.48 797.408 1164.15 794.212 1158.13 794.749Z" fill="#F26E76"/>
<path d="M1196.32 736.465C1203.69 742.539 1196.41 761.315 1193.08 768.377C1191.85 769.492 1192.41 769.29 1190.92 769.49L1190.12 768.057C1192.53 757.6 1193.89 746.929 1196.32 736.465Z" fill="#F7C7C4"/>
<path d="M1152.14 765.265C1156.54 763.166 1161.68 765.781 1165.18 768.352C1166.13 783.959 1161.78 785.362 1147.65 787.109C1144.81 786.997 1139.38 786.514 1137.24 784.817C1133.46 781.835 1133.32 772.536 1136.54 769.123C1139.62 765.846 1147.85 765.498 1152.14 765.265Z" fill="#F26E76"/>
<path d="M995.735 773.769C999.746 767.889 1007.53 765.381 1014.25 764.208C1021.87 762.875 1027.71 764.467 1034.74 767.069C1044.97 771.184 1056.25 782.756 1057.58 794.052C1058.29 794.914 1058.86 798.175 1059.14 799.466C1052.26 821.109 1033.22 826.246 1012.37 823.719C996.725 821.822 988.165 805.888 987.203 791.589C986.703 784.183 991.141 779.163 995.735 773.769Z" fill="#E93536"/>
<path d="M995.735 773.769C999.747 767.889 1007.53 765.381 1014.25 764.208C1021.87 762.875 1027.71 764.467 1034.74 767.069C1037.45 769.412 1037.99 769.809 1039.9 772.934C1038.53 774.279 1038.52 774.721 1036.25 774.672C1013.52 774.188 1012.69 773.012 994.266 784.662C994.596 780.996 994.796 777.325 995.735 773.769Z" fill="#F39798"/>
<path d="M1034.73 767.078C1044.97 771.194 1056.25 782.765 1057.58 794.062C1055.44 792.16 1054.12 784.972 1050.11 782.077C1049.87 783.348 1051.95 790.655 1052.64 792.172L1052.83 792.584L1051.84 792.887L1050.81 791.138C1050.28 785.879 1043.25 777.51 1039.9 772.944C1037.99 769.819 1037.45 769.422 1034.73 767.078Z" fill="#B42523"/>
<path d="M1051.84 792.876C1052.71 795.066 1053.86 797.265 1053.43 799.546C1051.79 802.154 1049.62 802.726 1046.82 801.39C1044.19 797.883 1046.64 790.404 1050.81 791.127L1051.84 792.876Z" fill="#F26E76"/>
<path d="M806.922 830.086C808.064 830.128 809.249 830.256 810.391 830.359C814.623 833.949 813.439 857.474 813.436 863.742L813.428 912.427L813.426 1022.02C813.422 1030.37 813.939 1080.03 812.509 1082.31C810.952 1083.57 808.092 1083.11 805.953 1083.03C804.128 1082.44 804.79 1082.85 803.458 1081.41C802.27 1071.65 802.8 1051.17 802.799 1040.86L802.811 966.108L802.8 880.146C802.802 867.492 802.19 844.576 803.445 832.618C804.804 830.667 804.512 831.207 806.922 830.086Z" fill="#E93536"/>
<path d="M1159.07 692.5C1175.8 694.992 1197.27 708.931 1204.66 724.607C1202.03 724.104 1201.5 722.44 1200.58 720.021L1199.82 719.713C1198.36 721.38 1193.45 726.232 1193.11 727.209C1193.34 728.876 1193.95 729.785 1194.74 731.239L1192.42 728.704C1190.6 721.855 1186.31 713.22 1181.28 708.121C1175.51 701.421 1166.68 696.789 1159.07 692.5Z" fill="#B42523"/>
<path d="M1089.6 736.532C1090.82 725.418 1092.48 716.606 1101.46 708.826C1104.09 706.548 1114.03 699.229 1117 698.758C1115.85 700.388 1114.13 701.038 1112.64 702.396C1107.54 707.049 1104.86 710.004 1101.95 716.34L1099.67 721.674C1098.56 725.208 1098.44 725.98 1096.37 729.164C1094.24 732.451 1091.66 734.057 1089.6 736.532Z" fill="#E93536"/>
<path d="M1452.79 510.095C1461.38 510.097 1471.87 509.098 1479.14 513.53C1482.58 514.178 1486.51 514.4 1490.05 514.738C1494.6 515.172 1501.89 517.214 1505.91 517.159L1513.7 519.556L1521.28 521.676C1533.3 524.184 1532.14 524.334 1542.49 528.498C1544.83 529.871 1546.15 530.585 1548.65 531.64L1552.26 533.163C1555.69 534.823 1560.15 537.442 1563.2 538.82C1569.04 542.268 1577.23 547.379 1583.17 550.085C1585.22 551.531 1588.3 553.565 1590.16 555.113L1590.7 555.539C1594.52 559.212 1600.26 564.041 1604.49 567.38L1606.34 569.046C1608.31 570.855 1612.14 574.16 1613.62 576.16C1614.82 577.202 1615.48 577.795 1616.56 579.016L1617.93 580.375C1620.4 583.291 1624.25 588.11 1626.84 590.675C1633.12 597.648 1639.47 603.53 1645.77 610.798C1647.25 612.707 1649.66 615.638 1650.98 617.545C1655.77 625.188 1674.94 655.642 1676.83 662.136L1677.17 662.73C1677.8 666.22 1678.12 667.447 1679.28 670.827L1679.59 671.776C1680.32 674.079 1681.99 678.724 1681.97 680.926C1683.56 685.702 1684.85 690.25 1686.2 695.083L1686.24 695.842C1687.79 704.572 1690.43 717.901 1690.67 726.592C1691.33 750.397 1685.47 777.552 1677.45 799.902C1676.16 803.482 1672.51 809.176 1670.86 812.777C1666.69 821.911 1662.58 829.305 1656.82 837.571C1640.15 861.779 1618.7 882.31 1593.78 897.895C1591.02 899.637 1582.13 905.101 1579.21 905.577C1573.24 908.893 1567 911.697 1560.62 914.076C1557.71 915.156 1551.21 919.13 1548.73 919.596C1539.74 921.292 1528.31 926.089 1519.72 927.611C1499.05 931.275 1476.06 930.693 1455.09 929.76C1446.2 929.295 1434.9 930.434 1426.52 927.815C1417.74 925.075 1413.01 921.851 1403.51 919.966C1397.05 918.789 1380.61 913.125 1374.67 910.233C1366.67 908.146 1346.29 897.732 1337.94 893.785C1336.37 893.04 1330.39 888.012 1328.75 886.634C1314.16 876.252 1308.63 871.489 1295.72 859.201L1278.05 838.971C1274.56 835.158 1259.53 812.717 1257.3 807.893C1251.95 796.318 1237.21 763.343 1237.35 751.402C1235.72 741.345 1234.64 703.191 1236.2 693.076C1236.31 669.665 1252.87 634.399 1264.27 614.063C1267.38 608.104 1271.73 605.466 1275.11 600.575C1296.1 570.119 1327.04 545.721 1361.31 531.931C1374.45 526.643 1384.88 520.303 1399.54 518.627C1403.74 518.349 1413.22 514.247 1416.68 514.236C1430.23 514.192 1438.85 510.042 1452.79 510.095Z" fill="#EC4B53"/>
<path d="M1429.25 690.788C1433.24 689.381 1450.77 688.126 1455.94 687.371C1464.67 686.095 1472.87 684.503 1481.55 682.84C1481.59 691.188 1481.46 700.274 1481.8 708.559C1481.63 712.619 1481.11 718.836 1481.14 722.683C1481.51 726.296 1480.64 755.906 1480.32 755.104L1480.49 753.209L1481.24 752.837L1482.08 753.433C1482.62 757.415 1488.73 761.904 1491.23 765.155C1491.69 765.742 1495.3 765.98 1495.99 766.858C1510.84 779.465 1516.57 796.891 1518.91 815.671C1519.15 817.196 1518.04 821.719 1518.36 822.915C1522.5 838.355 1513.23 857.402 1506.66 870.709C1496.66 890.985 1460.67 902.493 1441.07 892.722C1430.38 887.39 1374.84 864.049 1372.11 853.795C1372.38 851.224 1373.92 852.356 1372.36 850.303C1370.56 847.901 1368.99 838.673 1367.59 836.995C1368.53 835.589 1369.49 834.199 1370.47 832.824C1369.82 831.84 1368.33 830.066 1368.71 829.182C1369.99 826.158 1373.1 818.131 1375.64 816.489C1379.08 814.277 1377.25 812.316 1378.82 810.609C1381.45 807.766 1384.81 804.468 1387.66 801.826C1390.73 798.979 1388.09 798.649 1391.16 795.806L1391.53 796.078C1391.97 796.39 1392.04 796.441 1392.49 796.668C1396.43 792.642 1400.87 789.505 1405.06 785.786C1414.74 777.194 1424.1 767.39 1434.79 760.064C1437.97 757.883 1442.84 758.92 1446.06 760.415C1446.58 759.669 1447.72 757.977 1448.52 757.689C1447.43 755.094 1446.28 755.602 1446.32 753.902C1446.41 749.92 1444.33 746.737 1444.5 742.397C1440.07 725.784 1433.95 708.074 1429.25 690.788Z" fill="#F26E76"/>
<path d="M1429.25 690.788C1433.24 689.381 1450.77 688.126 1455.94 687.371C1464.67 686.095 1472.87 684.503 1481.55 682.84C1481.59 691.188 1481.46 700.274 1481.8 708.559C1481.63 712.619 1481.11 718.836 1481.14 722.683C1479.48 734.767 1478.27 757.812 1478.33 770.131C1470.43 771.224 1462.76 771.096 1454.88 771.842C1451.93 764.132 1447.31 748.819 1444.5 742.397C1440.06 725.784 1433.95 708.074 1429.25 690.788Z" fill="#FEF8F7"/>
<path d="M1470.12 779.975C1489.23 777.969 1506.37 791.741 1508.54 810.832C1510.71 829.924 1497.09 847.195 1478.03 849.529C1458.73 851.892 1441.21 838.064 1439.01 818.741C1436.82 799.417 1450.79 782.007 1470.12 779.975Z" fill="#FEF8F7"/>
<path d="M1452.79 510.095C1461.38 510.097 1471.87 509.098 1479.14 513.53C1482.58 514.178 1486.51 514.4 1490.05 514.738C1494.6 515.172 1501.89 517.214 1505.91 517.159L1513.7 519.556L1521.28 521.676C1533.3 524.184 1532.14 524.334 1542.49 528.498C1544.83 529.871 1546.15 530.585 1548.65 531.64L1552.26 533.163C1555.69 534.823 1560.15 537.442 1563.2 538.82C1569.04 542.268 1577.23 547.379 1583.17 550.085C1585.22 551.531 1588.3 553.565 1590.16 555.113L1590.7 555.539C1594.52 559.212 1600.26 564.041 1604.49 567.38L1606.34 569.046C1608.31 570.855 1612.14 574.16 1613.62 576.16C1608.99 575.263 1604.87 568.399 1601.19 566.168C1598.96 564.817 1590.26 562.506 1587.74 563.544C1586.16 567.927 1597.75 572.692 1596.93 577.401C1595.28 575.973 1594.42 574.378 1592.12 572.586C1587.78 571.963 1573.36 554.771 1567.76 555.456C1565.9 556.856 1565.84 558.711 1564.12 559.441C1557.34 562.315 1549.49 563.723 1542.66 566.141C1548.38 568.867 1578.04 581.528 1579.34 587.616C1561.28 573.623 1524 557.233 1501.22 555.891C1493 554.149 1477.97 554.869 1469.11 554.938C1450.65 555.083 1429.59 555.846 1411.49 560.159C1398.7 563.209 1380.76 570.087 1368.71 575.582C1359.29 579.877 1349.61 587.533 1340.59 592.657C1331.6 599.344 1316.38 609.649 1310 618.469C1302.44 628.917 1288.7 646.838 1284.09 658.293L1281.7 663.604C1280.69 667.142 1278.82 670.396 1277.22 673.741C1275.73 676.838 1273.6 680.211 1270.52 681.981C1267.01 683.99 1262.76 683.304 1259.1 684.805C1258.72 685.719 1258.4 686.491 1258.13 687.122C1258.29 676.827 1261.69 661.263 1263.73 650.713L1263.17 649.717C1262.92 651.02 1262.98 651.414 1262.11 652.324C1260.9 651.893 1258.12 650.874 1256.95 650.786C1255.82 650.702 1255.91 651.363 1253.98 651.002C1254.63 648.944 1255.65 646.642 1255.04 644.532C1255.83 637.954 1263.42 626.019 1267.22 620.425C1266.01 618.428 1264.49 616.349 1264.27 614.063C1267.38 608.104 1271.73 605.466 1275.11 600.575C1296.1 570.119 1327.04 545.721 1361.31 531.931C1374.45 526.643 1384.88 520.303 1399.53 518.627C1403.74 518.349 1413.22 514.247 1416.68 514.236C1430.23 514.192 1438.85 510.042 1452.79 510.095Z" fill="#FBC2C4"/>
<path d="M1452.79 510.095C1461.38 510.097 1471.87 509.098 1479.14 513.53C1476.41 516.51 1476.6 517.776 1478.84 520.622C1479.94 521.04 1480.33 520.974 1480.96 521.747C1448.2 522.93 1428.49 519.678 1396.18 531.565C1361.39 544.361 1330.97 560.947 1305.65 588.844C1293.97 601.369 1273.8 631.912 1270.7 648.483C1269.43 658.715 1269.84 658.459 1271.79 667.987C1278.7 668.902 1277.78 668.982 1281.7 663.604C1280.69 667.142 1278.82 670.396 1277.22 673.741C1275.73 676.838 1273.6 680.211 1270.52 681.981C1267.01 683.99 1262.76 683.304 1259.1 684.805C1258.72 685.719 1258.4 686.491 1258.13 687.122C1258.29 676.827 1261.69 661.263 1263.73 650.713L1263.17 649.717C1262.92 651.02 1262.98 651.414 1262.11 652.324C1260.9 651.893 1258.12 650.874 1256.95 650.786C1255.82 650.702 1255.91 651.363 1253.98 651.002C1254.63 648.944 1255.65 646.642 1255.04 644.532C1255.83 637.954 1263.42 626.019 1267.22 620.425C1266.01 618.428 1264.49 616.349 1264.27 614.063C1267.38 608.104 1271.73 605.466 1275.11 600.575C1296.1 570.119 1327.04 545.721 1361.31 531.931C1374.45 526.643 1384.88 520.303 1399.53 518.627C1403.74 518.349 1413.22 514.247 1416.68 514.236C1430.23 514.192 1438.85 510.042 1452.79 510.095Z" fill="#B92224"/>
<path d="M1264.66 649.06C1265.32 655.086 1261.47 663.587 1263.03 666.175C1265.09 665.617 1268.68 660.89 1268.75 658.877C1268.83 656.305 1267.41 655.009 1268.24 652.025C1269.47 650.683 1269.82 650.012 1270.7 648.484C1269.42 658.716 1269.84 658.46 1271.79 667.988C1278.7 668.904 1277.78 668.984 1281.7 663.606C1280.69 667.144 1278.82 670.398 1277.21 673.743C1275.72 676.84 1273.6 680.212 1270.51 681.983C1267.01 683.991 1262.75 683.306 1259.09 684.806C1258.71 685.72 1258.39 686.492 1258.13 687.124C1258.29 676.828 1261.69 661.265 1263.73 650.714L1264.66 649.06Z" fill="#F26E76"/>
<path d="M1267.22 620.423C1268.43 619.635 1269.95 618.571 1271.22 617.934C1271.89 624.42 1266.27 641.4 1264.67 649.056L1263.73 650.711L1263.17 649.715C1262.92 651.018 1262.98 651.412 1262.11 652.322C1260.9 651.892 1258.12 650.872 1256.95 650.784C1255.82 650.7 1255.91 651.362 1253.98 651.001C1254.63 648.943 1255.65 646.64 1255.04 644.53C1255.83 637.952 1263.42 626.018 1267.22 620.423Z" fill="#F26E76"/>
<path d="M1479.14 513.523C1482.58 514.172 1486.51 514.394 1490.05 514.731C1494.6 515.165 1501.89 517.208 1505.91 517.153L1513.7 519.55L1521.28 521.67C1533.3 524.178 1532.14 524.327 1542.49 528.492C1544.83 529.865 1546.15 530.579 1548.65 531.633L1552.26 533.157C1555.69 534.817 1560.15 537.436 1563.2 538.813C1569.04 542.262 1577.23 547.373 1583.17 550.078C1585.22 551.525 1588.3 553.559 1590.16 555.106L1590.7 555.533C1594.52 559.205 1600.26 564.034 1604.49 567.373L1606.34 569.04C1608.31 570.849 1612.14 574.153 1613.62 576.153C1608.99 575.256 1604.87 568.393 1601.19 566.161C1598.96 564.81 1590.26 562.499 1587.74 563.538C1586.16 567.921 1597.75 572.685 1596.93 577.394C1595.28 575.967 1594.42 574.371 1592.12 572.579C1587.75 567.476 1579.67 561.265 1574.16 557.14C1546.59 536.494 1515.31 524.478 1480.96 521.74C1480.33 520.967 1479.94 521.034 1478.84 520.615C1476.6 517.77 1476.41 516.503 1479.14 513.523Z" fill="#A01413"/>
<path d="M1645.77 610.793C1647.25 612.702 1649.66 615.633 1650.98 617.539C1655.77 625.182 1674.94 655.636 1676.83 662.131L1677.17 662.724C1677.8 666.214 1678.12 667.441 1679.28 670.821L1679.59 671.77C1680.32 674.074 1681.98 678.718 1681.97 680.92C1683.56 685.696 1684.84 690.244 1686.2 695.078L1686.23 695.836C1687.79 704.567 1690.43 717.895 1690.67 726.586C1691.33 750.392 1685.46 777.547 1677.44 799.896C1676.16 803.477 1672.51 809.171 1670.86 812.772C1666.69 821.906 1662.58 829.299 1656.81 837.566C1640.15 861.774 1618.7 882.305 1593.78 897.89C1591.02 899.632 1582.12 905.096 1579.21 905.572C1573.24 908.888 1567 911.692 1560.61 914.071C1557.71 915.15 1551.21 919.124 1548.73 919.591C1539.73 921.286 1528.31 926.083 1519.72 927.606C1499.05 931.27 1476.06 930.687 1455.09 929.755C1446.2 929.29 1434.9 930.428 1426.52 927.81C1417.74 925.069 1413.01 921.846 1403.51 919.961C1405.3 919.516 1423.63 920.495 1426.42 920.726C1483.07 925.398 1532.95 914.424 1581.72 884.079C1583.06 882.464 1592.53 876.171 1595.18 873.847C1608.77 861.95 1625.15 847.365 1635.04 832.266C1654.96 803.429 1661.74 785.223 1669.47 750.816C1674.79 727.08 1677.55 702.012 1671.69 678.02C1670.96 675.033 1669.22 668.883 1667.76 666.56C1667.24 666.422 1667.09 666.143 1666.64 665.707C1665.73 662.871 1660.48 642.445 1660.54 640.378C1661.31 640.521 1663.57 642.612 1664.35 643.276C1664.45 640.426 1647.53 615.232 1644.63 611.957L1645.77 610.793Z" fill="#F26E76"/>
<path d="M1581.72 884.082L1581.9 885.088C1566.17 896.07 1551.53 898.984 1538.51 914.044C1530.57 918.456 1506.33 922.489 1498.07 921.169C1487.17 919.426 1487.07 921.038 1478.13 921.776C1457.07 923.515 1436.52 921.583 1415.58 921.591L1415.47 921.949C1435.03 929.456 1433.62 927.905 1454.89 928.469C1475.36 929.013 1496.24 930.01 1516.72 926.951C1525.5 925.702 1540.25 919.496 1550.04 917.695C1554.33 916.906 1575.43 904.506 1579.21 905.575C1573.24 908.891 1567 911.695 1560.61 914.074C1557.71 915.154 1551.21 919.128 1548.73 919.594C1539.73 921.29 1528.31 926.087 1519.72 927.609C1499.05 931.273 1476.06 930.691 1455.09 929.758C1446.2 929.293 1434.9 930.432 1426.52 927.813C1417.74 925.073 1413.01 921.849 1403.51 919.964C1405.3 919.52 1423.63 920.499 1426.42 920.729C1483.07 925.401 1532.95 914.428 1581.72 884.082Z" fill="#F7C7C4"/>
<path d="M1645.77 610.793C1647.25 612.702 1649.66 615.633 1650.98 617.539C1655.77 625.182 1674.94 655.636 1676.83 662.131L1677.17 662.724C1677.8 666.214 1678.12 667.441 1679.28 670.821L1679.59 671.77C1680.32 674.074 1681.98 678.718 1681.97 680.92L1681.17 680.71C1678.53 673.734 1676.35 666.588 1674.54 659.356C1673.99 657.14 1669.95 650.274 1666.88 651.407C1665.34 654.877 1667.98 661.08 1668.76 665.489C1675.34 680.32 1676.5 698.575 1675.96 714.653C1675.58 726.158 1672.59 737.897 1670.97 749.302C1670.88 749.957 1671.99 753.274 1672.23 754.051C1670.9 755.469 1669.8 756.331 1669.61 758.245L1671.49 757.768C1672.19 759.006 1671.99 758.553 1671.87 760.179C1670.75 760.717 1670.84 760.458 1670.33 761.353C1673.27 769.739 1684.06 770.64 1679.01 781.589C1677.17 785.558 1672.44 786.402 1669.27 783.308C1667.36 783.308 1667.01 783.272 1665.28 784.209L1664.39 784.116C1663.92 782.5 1663.82 782.121 1663.77 780.447C1662.85 781.141 1645.59 826.998 1635.04 832.266C1654.96 803.429 1661.74 785.223 1669.47 750.816C1674.79 727.08 1677.56 702.012 1671.69 678.02C1670.96 675.033 1669.22 668.883 1667.76 666.56C1667.24 666.422 1667.09 666.143 1666.64 665.707C1665.73 662.871 1660.48 642.445 1660.54 640.378C1661.31 640.521 1663.57 642.612 1664.35 643.276C1664.45 640.426 1647.53 615.232 1644.63 611.957L1645.77 610.793Z" fill="#E93536"/>
<path d="M1284.09 658.288C1288.7 646.832 1302.44 628.912 1310 618.464C1316.38 609.643 1331.6 599.338 1340.59 592.651C1349.61 587.528 1359.29 579.872 1368.71 575.576C1380.76 570.081 1398.7 563.203 1411.49 560.154C1429.59 555.84 1450.65 555.077 1469.11 554.932C1477.97 554.863 1493 554.143 1501.22 555.886L1501.74 556.102C1504.3 557.155 1511.13 558.211 1511.58 559.122C1504.91 563.652 1478.94 559.937 1471.35 565.622C1470.52 566.243 1470.02 566.295 1469 566.313L1468.59 566.625C1452.03 568.096 1436 571.747 1419.46 573.406C1416.6 573.693 1413.67 574.146 1410.85 574.654C1412.18 595.949 1415.08 610.853 1417.37 631.382L1416.51 631.796C1415.87 629.382 1414.69 624.882 1411.31 625.736C1387.23 631.818 1362.85 636.222 1338.9 642.993C1325.21 646.987 1311.73 651.87 1297.71 654.636C1295.56 655.058 1291.74 656.89 1289.48 657.653C1285.51 658.994 1287.82 659.097 1284.09 658.288Z" fill="#F68484"/>
<path d="M1468.59 566.625L1469.73 567.423C1470.38 571.265 1470.4 575.712 1470.62 579.67C1471.49 595.431 1475.19 610.52 1477.44 626.065C1479.97 647.203 1481.93 670.985 1482.26 692.187C1482.32 696.204 1482.5 704.92 1481.8 708.549C1481.46 700.264 1481.59 691.178 1481.55 682.83C1472.87 684.494 1464.67 686.085 1455.94 687.361C1450.77 688.116 1433.24 689.372 1429.25 690.778C1424.26 680.01 1419.26 644.434 1417.37 631.382C1415.07 610.854 1412.18 595.949 1410.85 574.654C1413.67 574.146 1416.6 573.694 1419.46 573.406C1436 571.747 1452.03 568.096 1468.59 566.625Z" fill="#FDD1CB"/>
<path d="M1501.22 555.883C1524 557.225 1561.28 573.614 1579.33 587.608C1585.61 594.419 1597.35 604.677 1602.81 611.438L1602.36 611.262C1600.33 610.464 1599.99 610.148 1598.44 608.643C1591.98 607.888 1580.72 612.957 1573.52 612.425C1547.09 610.474 1520.48 611.74 1494.07 613.291C1493.63 613.317 1478.32 617.236 1478.37 617.206C1476.91 620.119 1480.13 623.221 1477.44 626.062C1475.19 610.517 1471.49 595.428 1470.61 579.667C1470.39 575.709 1470.38 571.262 1469.73 567.42L1468.59 566.622L1468.99 566.31C1470.02 566.292 1470.52 566.24 1471.35 565.619C1478.94 559.934 1504.91 563.649 1511.58 559.12C1511.12 558.209 1504.3 557.152 1501.74 556.099L1501.22 555.883Z" fill="#F57C7C"/>
<path d="M1264.27 614.055C1264.49 616.341 1266.01 618.42 1267.22 620.417C1263.42 626.011 1255.83 637.946 1255.04 644.523C1255.65 646.633 1254.63 648.936 1253.98 650.994C1255.91 651.355 1255.82 650.693 1256.95 650.777C1258.12 650.865 1260.9 651.885 1262.11 652.315C1262.98 651.405 1262.92 651.011 1263.17 649.709L1263.73 650.704C1261.69 661.255 1258.29 676.818 1258.13 687.114C1256.93 699.059 1258.46 712.457 1257.58 723.499C1258.23 755.864 1266.25 796.433 1281.05 825.144C1282.62 828.181 1290.23 841.075 1288.63 843.364L1287.68 843.8C1284.45 841.801 1282.14 839.272 1278.81 837.345L1278.05 838.962C1274.56 835.15 1259.53 812.709 1257.3 807.885C1251.95 796.309 1237.21 763.334 1237.35 751.394C1235.72 741.336 1234.64 703.183 1236.2 693.068C1236.31 669.656 1252.87 634.39 1264.27 614.055Z" fill="#F7C7C4"/>
<path d="M1264.27 614.055C1264.49 616.341 1266.01 618.42 1267.22 620.417C1263.42 626.011 1255.83 637.946 1255.04 644.523C1247.45 665.88 1242.76 690.677 1240.97 713.339C1240.49 719.495 1241.62 729.886 1241.95 736.409C1242.49 740.296 1243.15 746.007 1244.42 749.65C1247.85 776.675 1261.78 816.139 1278.81 837.345L1278.05 838.962C1274.56 835.15 1259.53 812.709 1257.3 807.885C1251.95 796.309 1237.21 763.334 1237.35 751.394C1235.72 741.336 1234.64 703.183 1236.2 693.068C1236.31 669.656 1252.87 634.39 1264.27 614.055Z" fill="#E93536"/>
<path d="M1236.2 693.07C1236.73 699.541 1238.06 704.666 1238.7 710.866C1239.51 718.48 1239.35 726.625 1240.26 734.289L1239.7 736.722L1239.02 736.514C1238.15 734.582 1238.01 734.285 1237.84 732.164C1237.23 735.269 1237.8 746.778 1237.35 751.396C1235.72 741.339 1234.64 703.185 1236.2 693.07Z" fill="#B42523"/>
<path d="M1255.04 644.527C1255.64 646.638 1254.63 648.94 1253.98 650.998C1255.91 651.359 1255.82 650.698 1256.95 650.782C1258.12 650.87 1260.9 651.889 1262.11 652.319C1262.98 651.409 1262.92 651.016 1263.17 649.713L1263.73 650.709C1261.69 661.259 1258.29 676.822 1258.13 687.118C1256.92 699.063 1258.46 712.461 1257.58 723.503C1256.22 708.72 1257.44 689.593 1257.97 674.625C1258.09 671.094 1260.02 664.704 1259.65 662.824C1256.74 662.383 1255.13 662.278 1252.49 660.893L1251.13 661.1C1249.85 663.834 1249.89 667.901 1248.94 670.978C1242 693.288 1245.27 716.591 1244.24 739.584C1244.09 742.906 1244.59 746.499 1244.42 749.654C1243.14 746.011 1242.49 740.3 1241.95 736.413C1241.61 729.89 1240.49 719.499 1240.97 713.343C1242.76 690.681 1247.45 665.884 1255.04 644.527Z" fill="#F39798"/>
<path d="M1542.66 566.143C1549.49 563.725 1557.34 562.317 1564.12 559.443C1565.84 558.713 1565.9 556.858 1567.76 555.457C1573.36 554.773 1587.78 571.964 1592.12 572.588C1594.42 574.379 1595.28 575.975 1596.93 577.402C1597.75 572.694 1586.16 567.929 1587.74 563.546C1590.26 562.508 1598.96 564.818 1601.19 566.17C1604.87 568.401 1608.99 575.264 1613.62 576.162C1614.82 577.204 1615.48 577.797 1616.56 579.018L1617.93 580.377C1620.4 583.293 1624.25 588.112 1626.84 590.677C1633.12 597.65 1639.47 603.532 1645.77 610.8L1644.63 611.964C1642.84 609.681 1632.95 598.187 1630.81 596.877L1629.26 596.998C1630.71 601.371 1638.47 611.403 1641.01 615.967C1648.81 629.999 1663.36 662.524 1663.68 677.357C1663.19 677.761 1663.16 677.938 1662.68 678.009C1661.59 671.548 1659.55 663.929 1657.81 657.626C1656.32 655.956 1655.77 655.251 1654.57 653.369C1654.2 654.188 1654.15 654.921 1654.01 655.807C1653.27 653.565 1653.05 651.388 1652.72 649.059C1653.04 650.486 1652.24 657 1652.53 659.041C1652.5 658.818 1645.82 665.29 1645.06 666.016C1644.49 663.48 1643.98 661.127 1643.23 658.628L1642.89 658.432L1642.46 659.428C1640.88 656.577 1636.11 632.165 1635.69 628.149C1634.85 632.127 1635.6 634.824 1636.43 638.734L1636.05 639.146C1632.85 637.419 1627.47 634.03 1623.98 636.003C1619.71 628.444 1609.75 616.424 1602.81 611.448C1597.35 604.687 1585.61 594.429 1579.34 587.618C1578.04 581.53 1548.38 568.869 1542.66 566.143Z" fill="#F39798"/>
<path d="M1596.93 577.402C1597.75 572.694 1586.15 567.929 1587.74 563.546C1590.26 562.507 1598.96 564.818 1601.19 566.169C1604.87 568.401 1608.99 575.264 1613.62 576.161C1614.82 577.204 1615.48 577.797 1616.56 579.018L1617.93 580.377C1620.4 583.293 1624.25 588.112 1626.84 590.676C1633.11 597.65 1639.47 603.532 1645.77 610.8L1644.62 611.964C1642.84 609.681 1632.95 598.186 1630.81 596.877L1629.26 596.998C1630.71 601.37 1638.47 611.403 1641.01 615.966C1648.81 629.999 1663.36 662.524 1663.68 677.356C1663.19 677.761 1663.15 677.938 1662.68 678.009C1661.58 671.548 1659.55 663.929 1657.81 657.625C1657.58 656.762 1657.3 655.917 1656.98 655.094C1650.65 638.539 1644.72 623.377 1634.25 608.886C1632.86 606.963 1630.58 602.553 1628.55 601.614C1625.73 602.584 1621.95 606.101 1619.93 608.272C1619.51 610.49 1623.17 614.106 1622.18 616.241C1617.07 602.882 1604.67 589.035 1596.93 577.402Z" fill="#E93536"/>
<path d="M1645.01 675.219C1647.31 687.163 1647.43 701.872 1648.5 713.99C1649.21 721.971 1648.75 746.581 1651.41 752.474C1650.46 751.479 1649.24 750.824 1648.05 750.089C1645.16 742.643 1653.2 740.611 1640.79 741.287C1639.95 741.334 1628.31 735.661 1626.64 734.79C1618.82 730.718 1609.8 723.052 1607.45 714.196C1604.81 704.547 1606.74 701.038 1611.08 693.111L1609.24 692.111L1609.69 691.716C1619.28 692.804 1637.81 698.338 1644.11 687.973C1645 686.502 1644.85 677.778 1645.01 675.219Z" fill="#F26E76"/>
<path d="M1642.45 659.428L1642.89 658.432L1643.23 658.628C1643.98 661.127 1644.49 663.48 1645.05 666.016C1645.82 665.29 1652.5 658.818 1652.53 659.041C1652.23 657 1653.04 650.486 1652.72 649.059C1653.04 651.388 1653.26 653.565 1654.01 655.807C1654.15 654.921 1654.2 654.188 1654.57 653.369C1655.77 655.251 1656.32 655.956 1657.81 657.626C1659.55 663.929 1661.58 671.548 1662.68 678.01C1664.62 691.771 1665.43 705.669 1665.1 719.563C1664.98 724.794 1664.06 734.025 1664.13 738.472C1662.51 740.863 1657.76 747.392 1655.43 748.519L1654.49 748.102C1654.29 747.149 1654.2 746.186 1653.65 745.418C1651.53 748.209 1653.15 751.995 1651.41 752.487C1648.75 746.593 1649.2 721.984 1648.5 714.002C1647.43 701.884 1647.31 687.176 1645.01 675.231C1644.87 670.801 1643.38 663.896 1642.45 659.428Z" fill="#F7C7C4"/>
<path d="M1278.81 837.348C1282.14 839.275 1284.45 841.803 1287.68 843.803C1290.04 846.409 1292.83 847.54 1295.76 848.813C1297.04 849.371 1297.36 852.979 1299.44 854.783C1309.29 863.293 1318.39 871.857 1328.7 879.962C1330.49 881.367 1334.9 884.242 1335.56 884.802L1335.06 885.911C1333.67 886.136 1332.35 886.363 1330.95 886.506C1333.25 887.824 1336.27 890.088 1338.41 891.806C1345.07 897.151 1369.97 905.418 1374.67 910.227C1366.67 908.14 1346.29 897.726 1337.94 893.779C1336.37 893.034 1330.39 888.007 1328.75 886.628C1314.16 876.246 1308.63 871.483 1295.71 859.195L1278.05 838.965L1278.81 837.348Z" fill="#E93536"/>
<path d="M1295.71 859.2C1296.02 859.188 1298.46 859.094 1298.46 859.094C1303.66 861.381 1329.48 880.513 1330.25 884.519L1328.75 886.633C1314.16 876.251 1308.63 871.489 1295.71 859.2Z" fill="#6F0002"/>
<path d="M1651.41 752.488C1653.16 751.996 1651.53 748.21 1653.65 745.419C1654.2 746.187 1654.29 747.15 1654.49 748.103L1655.44 748.52C1657.76 747.393 1662.51 740.864 1664.13 738.473C1663.89 744.678 1663.87 756.337 1659.58 760.69C1659.55 758.331 1661.52 758.314 1661.25 756.121C1656.43 756.33 1653.18 755.915 1649.34 758.563C1648.95 755.738 1648.52 752.917 1648.05 750.103C1649.24 750.837 1650.46 751.493 1651.41 752.488Z" fill="#E97561"/>
<path d="M524.695 1056.29C533.783 1059.1 538.183 1063.37 544.676 1065.99C553.88 1069.71 582.125 1069.29 591.325 1064.9C610.542 1055.73 611.726 1031.85 588.771 1026.36C577.185 1023.39 566.955 1027.55 555.564 1029.31C545.3 1030.67 525.205 1029.88 519.329 1019.73C513.533 1009.71 518.299 1001.63 527.518 996.792C530.07 995.454 538.146 991.624 539.024 988.883C538.08 984.798 528.624 979.339 525.01 975.716C518.592 969.279 513.181 958.602 510.706 949.919C509.871 946.989 509.981 941.538 510.04 938.502C510.221 929.277 510.185 926.424 515.058 918.538C523.476 904.915 533.817 894.756 549.918 891.395C558.771 889.547 567.636 889.436 576.674 890.625C582.129 891.344 591.864 896.737 596.84 895.356C600.322 894.389 606.036 883.624 611.378 887.582C613.297 889.004 616.057 892.754 617.615 894.746C615.873 898.918 611.511 903.747 610.846 907.405C610.14 911.279 613.779 918.277 614.253 922.27C620.363 941.397 617.429 964.556 602.301 978.856C596.918 983.945 582.961 989.17 574.237 990.652C562.797 992.595 541.665 991.64 532.586 1001.57C531.317 1002.96 532.324 1011.71 535.388 1011.95C563.923 1017.11 602.978 996.683 621.252 1028.58C630.36 1044.48 624.61 1058.55 613.436 1071.48C603.569 1082.89 577.093 1082.02 570.464 1090H560.76C554.741 1083.66 516.543 1078.14 516.67 1071.1C516.755 1066.41 521.915 1059.96 524.695 1056.29ZM572.909 976.089C581.35 972.585 589.897 966.004 592.87 957.103C599.03 938.658 595.897 914.827 575.886 906.369C570.831 904.233 559.708 904.786 554.57 905.376C546.591 908.477 538.346 917.851 535.16 925.74C527.418 944.918 536.779 966.004 554.204 976.235C559.401 976.54 567.876 976.927 572.909 976.089Z" fill="#B4B3B5"/>
</svg>
