<svg width="2882" height="1600" viewBox="0 0 2882 1600" fill="none" xmlns="http://www.w3.org/2000/svg">
<path d="M614.039 514.835C614.132 513.499 614.192 512.333 614.42 511.005L614.464 512.047L616.148 510C620.666 513.501 621.928 519.658 623.212 524.944C625.231 531.954 626.547 539.942 627.3 547.235C629.03 564.003 638.142 576.249 639.666 593.261L642.086 614.116C642.819 616.525 642.984 616.801 644.629 618.711L646.31 618.659C652.278 613.397 654.63 599.555 658.247 592.314C659.869 589.065 662.859 585.582 665.182 582.756C666.596 579.542 670.407 569.894 672.897 567.85C677.191 571.948 672.667 599.446 672.419 606.527C671.966 619.392 673.924 630.698 675.776 643.352C676.356 647.024 676.156 650.783 678.421 652.679C685.768 646.169 684.963 638.942 688.83 630.234C690.874 625.633 692.704 622.896 695.656 618.838C698.269 614.842 702.899 610.207 706.253 606.623C701.693 634.72 697.73 634.888 705.222 664.68C710.831 682.966 710.063 722.879 685 729.333C667.48 733.847 639.663 728.549 621.116 730.348C601.716 730.451 553.784 735.803 537.827 727.129C533.286 724.705 529.328 721.321 526.229 717.211C523.368 710.257 522.65 707.858 520.98 700.571C519.864 681.467 529.128 665.412 530.076 646.949C530.47 639.278 525.687 619.902 524.079 611.488C530.122 613.168 534.982 613.885 539.184 618.499C545.668 624.956 548.91 629.957 551.788 638.969C552.376 640.807 552.697 644.991 553.333 646.302L553.578 645.889C555.625 642.467 555.825 639.529 556.454 635.61C550.715 627.483 553.534 592.471 553.475 582.355C553.442 576.856 551.527 569.824 551.805 564.48L552.977 563.75C560.682 565.123 579.164 602.509 588.282 612.318C590.988 614.215 590.503 614.47 593.379 614.704C595.345 610.905 593.758 595.198 594.964 589.993C600.018 568.182 602.339 545.57 607.996 523.987C608.293 522.85 612.815 517.34 614.039 514.835Z" fill="#FC8827"/>
<path d="M705.223 664.688C710.832 682.974 710.065 722.886 685.002 729.341C667.481 733.855 639.664 728.557 621.118 730.355C601.717 730.459 553.785 735.811 537.828 727.137C533.287 724.713 529.329 721.329 526.23 717.219C534.363 717.685 543.853 721.506 553.346 721.624C584.725 722.011 616.135 721.92 647.528 722.045C660.333 722.096 674.329 722.638 686.888 720.47C695.423 713.07 697.266 706.575 698.786 695.776C699.792 693.429 701.821 688.746 702.225 686.364C703.424 679.304 701.726 671.07 705.223 664.688Z" fill="#723301"/>
<path d="M614.039 514.848C614.987 528.701 613.969 548.449 612.511 562.62C612.198 565.661 606.531 571.322 606.757 574.859C607.227 582.203 600.505 627.978 587.417 618.232C586.854 615.728 586.771 614.708 588.282 612.331C590.987 614.228 590.502 614.483 593.378 614.717C595.345 610.918 593.758 595.21 594.964 590.005C600.018 568.195 602.339 545.583 607.996 524C608.293 522.862 612.815 517.353 614.039 514.848Z" fill="#FAA35E"/>
<path d="M524.079 611.492C530.122 613.172 534.982 613.89 539.184 618.503C535.074 634.299 537.553 644.75 536.727 660.879C536.26 670.011 532.051 692.804 525.428 699.743C524.747 700.275 521.975 700.507 520.98 700.576C519.864 681.472 529.128 665.416 530.076 646.954C530.47 639.283 525.687 619.906 524.079 611.492Z" fill="#FAA35E"/>
<path d="M706.249 606.625C701.69 634.721 697.727 634.89 705.218 664.681C701.721 671.063 703.419 679.298 702.22 686.358C701.816 688.74 699.787 693.422 698.781 695.769C699.367 682.145 700.057 668.509 697.267 655.096C696.582 654.303 695.89 653.516 695.191 652.735C689.288 646.215 691.14 653.339 678.418 652.681C685.765 646.17 684.959 638.944 688.827 630.236C690.871 625.634 692.7 622.898 695.652 618.839C698.266 614.844 702.896 610.209 706.249 606.625Z" fill="#904D0F"/>
<path d="M695.652 618.848C696.4 622.517 696.079 625.186 695.941 628.878C695.614 637.669 696.127 646.39 697.267 655.105C696.582 654.312 695.89 653.524 695.191 652.743C689.288 646.224 691.14 653.347 678.418 652.689C685.765 646.179 684.959 638.952 688.827 630.244C690.871 625.642 692.7 622.906 695.652 618.848Z" fill="#D17727"/>
<path d="M665.181 582.749C666.595 579.536 670.405 569.888 672.896 567.844C677.19 571.942 672.665 599.439 672.418 606.52C671.965 619.386 673.923 630.691 675.775 643.346C672.416 641.948 675.288 643.585 670.049 643.448C661.906 637.066 663.898 598.909 665.359 588.278C665.704 585.772 666.134 585.46 665.181 582.749Z" fill="#D17727"/>
<path d="M623.211 524.953C625.23 531.963 626.546 539.951 627.299 547.244C629.029 564.012 638.141 576.257 639.665 593.27L638.372 593.49C636.484 588.435 636.811 588.66 636.994 583.31C635.271 586.381 635.551 588.866 635.497 592.386C634.998 588.633 634.427 587.808 632.474 584.721C632.123 578.866 628.107 566.823 626.623 560.283C623.702 547.417 623.558 538.196 623.211 524.953Z" fill="#762C00"/>
<path d="M632.477 584.723C634.43 587.81 635.001 588.635 635.499 592.388C635.554 588.869 635.274 586.383 636.997 583.312C636.813 588.662 636.486 588.438 638.375 593.492L639.668 593.272L642.088 614.127C638.657 614.011 639.263 614.492 636.594 612.91C632.941 607.495 633.001 592.207 632.477 584.723Z" fill="#904D0F"/>
<path d="M556.457 635.617C559.954 639.461 564.826 645.635 561.463 650.41C558.414 651.814 554.22 652.133 551.321 650.21L550.996 648.239C551.996 647.128 552.034 646.737 553.335 646.31L553.58 645.896C555.627 642.475 555.827 639.536 556.457 635.617Z" fill="#FAA35E"/>
<path d="M883.592 742.91C895.466 741.71 919.078 742.372 927.929 740.504C928.05 789.242 927.688 838.269 928.31 886.961C918.004 887.008 907.286 887.235 897.041 886.498C897.176 864.9 897.848 842.892 896.436 821.302C896.047 815.356 895.067 809.852 894.917 803.772C895.028 800.122 894.991 795.075 893.431 791.772C892.017 793.196 892.022 795.622 891.779 797.703C890.937 813.576 887.172 823.268 883.68 838.724C881.646 847.729 880.422 857.389 878.465 866.462C877.088 872.846 874.354 880.684 873.466 886.989C864.149 887.042 852.902 887.389 843.813 886.403C834.86 866.292 834.215 849.092 829.68 827.654C828.325 821.249 825.665 809.749 825.185 803.716C825.019 800.917 824.238 796.968 823.763 794.115C823.386 791.986 821.473 786.613 820.064 784.819C819.617 781.863 819.573 780.647 818.098 778.081C816.41 779.614 816.508 781.165 815.896 783.699C815.579 788.698 814.326 803.67 816.154 807.671L817.016 807.638L817.329 806.295C821.272 815.884 818.438 822.963 819.611 833.002C820.294 850.421 819.63 868.914 820.737 885.911C810.662 887.418 797.481 887.061 787.089 886.958C787.329 855.059 787.384 823.157 787.255 791.257C787.224 778.238 786.428 753.972 787.816 742.208C803.288 741.749 817.363 741.513 832.902 742.713C837.605 775.678 852.456 808.617 854.206 841.179C854.564 842.063 854.771 842.118 855.459 842.819C858.701 841.488 862.019 834.95 863.606 831.825C862.906 826.878 880.781 752.311 883.592 742.91ZM900.067 798.898C900.446 793.875 902.325 779.574 899.647 775.988C898.291 781.008 898.672 794.022 900.067 798.898Z" fill="#0C44B1"/>
<path d="M863.603 831.812C865.376 837.473 864.578 846.761 864.15 852.788L853.016 853.646C853.114 851.122 853.09 842.776 854.202 841.167C854.561 842.051 854.768 842.105 855.455 842.807C858.697 841.475 862.016 834.938 863.603 831.812Z" fill="#355FB7"/>
<path d="M899.644 775.988C902.322 779.574 900.443 793.875 900.064 798.898C898.669 794.022 898.288 781.008 899.644 775.988Z" fill="#355FB7" fill-opacity="0.729412"/>
<path d="M1903.26 740.954C1943.82 737.589 1965.76 749.231 1975.27 789.619C1966.13 789.939 1957.76 789.925 1948.69 788.678C1944.31 784.118 1938.92 773.883 1933.32 770.981C1924.98 767.015 1907.23 766.362 1898.6 769.353C1862.43 781.886 1864.34 843.624 1895.85 860.92C1904.23 865.519 1919.27 864.452 1928.08 862.016C1939.48 858.862 1944.99 846.487 1949.76 836.951C1939.07 835.957 1925.62 835.841 1914.71 835.457C1915.02 831.299 1914.12 812.064 1916.08 809.828C1936.03 809.467 1955.99 809.463 1975.95 809.817C1973.64 820.355 1974.78 873.535 1974.9 887.514C1969.21 887.989 1963.28 887.891 1957.56 887.898C1955.42 884.047 1952.52 875.498 1950.88 871.06C1950.13 872.238 1949.36 873.392 1948.55 874.521C1933.27 895.522 1892.02 895.579 1872.56 881.115C1856.64 869.276 1846.11 851.576 1843.29 831.942C1839.64 807.335 1843.95 781.714 1859.13 761.48C1870.43 746.429 1886.06 743.391 1903.26 740.954Z" fill="#0C44B1"/>
<path d="M2116.68 741.55C2125.31 741.716 2133.95 741.612 2142.57 741.242C2142.67 749.738 2142.6 783.159 2143.92 789.542C2146.42 790.09 2146.35 785.826 2148.16 784.691C2173.32 768.908 2205.64 779.217 2212.92 808.462C2219.7 835.648 2216.68 853.573 2204.42 876.559C2197.11 893.502 2161.82 892.901 2148.27 886.322C2146.64 885.537 2146.25 881.213 2145.8 879.363L2144.57 879.306C2143.87 881.68 2143.52 882.599 2142.44 884.828C2137.67 888.839 2123.06 887.095 2115.84 887.031C2117.42 840.221 2113.8 787.943 2116.68 741.55ZM2168.06 867.046C2176.6 863.838 2179.98 862.046 2183.86 853.372C2191.78 835.614 2188.06 803.133 2163.01 803.256C2134.44 814.837 2136.86 865.546 2168.06 867.046Z" fill="#0C44B1"/>
<path d="M511.267 744.293C510.829 743.735 510.331 742.57 510 741.877C512.421 739.504 567.029 740.712 574.64 740.714C621.189 740.801 667.739 740.632 714.287 740.207L716.776 741.28C717.285 743.966 691.453 798.467 688.857 809.483C686.561 809.475 677.993 809.603 676.278 809.144C675.403 809.267 674.521 809.348 673.638 809.387C668.12 809.642 655.295 809.95 651.174 806.188L651.764 804.423L654.984 802.929C658.326 797.83 660.044 792.509 662.221 786.816C663.219 782.856 664.775 778.582 666.103 774.682L667.674 770.073L667.781 768.516C659.87 768.41 650.485 767.622 642.908 769.507C630.368 769.003 635.732 774.131 628.679 780.484C628.125 782.419 626.322 788.329 626.141 789.973C626.389 795.02 625.661 801.081 630.146 804.12C629.64 804.832 629.65 805.826 629.547 806.735C625.485 811.468 607.013 810.944 601.397 808.649C599.175 807.741 598.848 804.656 598.239 802.591C594.731 796.718 586.97 780.212 585.268 773.726C584.525 772.538 582.649 769.586 581.634 769.015C578.233 767.098 561.066 767.504 558.224 768.202C561.825 775.572 565.528 782.968 568.843 790.465C572.716 797.422 574.198 801.761 576.308 809.445C567.933 809.664 545.577 811.307 539.699 807.522C538.795 805.845 538.334 805.022 537.704 803.199C529.894 788.758 518.42 760.281 511.267 744.293Z" fill="#0C44B1"/>
<path d="M511.267 744.293C510.829 743.735 510.331 742.57 510 741.877C512.421 739.504 567.029 740.712 574.64 740.714C621.189 740.801 667.739 740.632 714.287 740.207C712.764 741.496 710.83 743.037 709.516 744.481C680.898 758.766 620.944 742.671 587.913 751.38C569.748 756.169 526.963 753.842 511.267 744.293Z" fill="#3562BF"/>
<path d="M714.289 740.207L716.778 741.28C717.287 743.966 691.454 798.467 688.859 809.483C686.563 809.475 677.995 809.603 676.28 809.144C675.405 809.267 674.523 809.348 673.64 809.387C668.122 809.642 655.297 809.95 651.176 806.188L651.766 804.423L654.985 802.929L658.6 802.773C666.07 801.297 673.9 798.411 682.119 796.802L687.462 788.424C690.215 776.558 700.128 753.283 709.518 744.481C710.832 743.037 712.766 741.496 714.289 740.207Z" fill="#0F0F12"/>
<path d="M687.462 788.434C685.406 796.757 684.239 799.993 678.188 806.359C674.412 806.433 669.22 806.381 665.571 806.69L666.982 807.56L663.673 807.021L665.271 807.039L665.683 807.709C667.749 808.011 674.929 808.801 676.28 809.153C675.405 809.277 674.523 809.358 673.64 809.396C668.122 809.651 655.297 809.959 651.176 806.197L651.766 804.433L654.985 802.939L658.6 802.782C666.07 801.307 673.9 798.421 682.12 796.812L687.462 788.434Z" fill="#112045"/>
<path d="M568.843 790.477C572.716 797.433 574.197 801.773 576.308 809.456C567.932 809.675 545.577 811.319 539.699 807.533C538.794 805.856 538.333 805.033 537.703 803.21C547.674 798.277 554.307 797.7 565.223 795.838C565.619 795.471 568.348 791.229 568.843 790.477Z" fill="#0C1F48"/>
<path d="M628.684 780.487C635.347 757.067 643.229 757.38 665.536 758.944C668.014 759.118 668.13 758.989 669.509 760.765C669.066 763.879 668.632 765.52 667.786 768.519C659.875 768.413 650.49 767.625 642.913 769.51C630.373 769.006 635.736 774.134 628.684 780.487Z" fill="#030923"/>
<path d="M598.242 802.603C609.449 797.837 622.561 802.691 626.143 789.984C626.392 795.032 625.664 801.093 630.149 804.132C629.643 804.844 629.653 805.838 629.55 806.747C625.488 811.479 607.016 810.955 601.4 808.661C599.178 807.753 598.851 804.668 598.242 802.603Z" fill="#030923"/>
<path d="M558.228 768.208C555.404 765.297 555.816 766.426 554.855 762.89C558.368 756.573 578.237 758.654 585.22 759.051C585.388 763.382 585.825 769.609 585.272 773.732C584.529 772.544 582.653 769.592 581.639 769.021C578.238 767.104 561.071 767.51 558.228 768.208Z" fill="#030923"/>
<path d="M667.675 770.086C686.064 778.115 666.541 795.694 658.599 802.786L654.984 802.942C658.327 797.843 660.044 792.522 662.221 786.829C663.22 782.87 664.775 778.595 666.104 774.695L667.675 770.086Z" fill="#5E80CE"/>
<path d="M2037.69 777.624C2065.38 776.151 2092.88 786.493 2096.45 817.666C2100.78 855.376 2096.51 884.001 2053.36 890.561C2015.67 891.958 1996.37 879.957 1993.59 840.127C1991.13 804.806 2000.63 784.588 2037.69 777.624ZM2047.04 867.059C2068.16 861.279 2071.38 841.02 2067.02 821.394C2064.55 810.327 2056.39 800.885 2044 801.502C2017.23 807.648 2016.57 851.764 2035.8 863.649C2039.18 865.76 2043.06 866.937 2047.04 867.059Z" fill="#0C44B1"/>
<path d="M1579.74 942.818C1580.01 939.82 1580.49 939.334 1582.4 936.94C1585.23 935.541 1584.03 935.632 1587.1 936.65C1589.18 939.323 1589.33 939.913 1589.44 943.418C1590.92 987.397 1587.99 1032.86 1589.94 1076.69C1586.5 1080.11 1582.38 1079.39 1578.92 1076.26L1577.9 1074.02C1579.36 1070.21 1580.25 1068.66 1580.11 1064.59L1579.16 1064.28C1562.65 1077.11 1557.46 1082.45 1534.75 1080.17C1491.38 1075.82 1488.13 1003.3 1518.12 981.879C1532.58 971.557 1562.86 972.66 1575.45 987.638L1579.74 992.595C1580.95 983.168 1581.85 951.541 1579.74 942.818ZM1548.26 1071.77C1592.08 1064.41 1586.24 983.729 1545.67 985.889C1518.15 988.99 1510.26 1012.47 1512.91 1037.58C1515.16 1059.07 1526.3 1071.34 1548.26 1071.77Z" fill="#535355"/>
<path d="M545.031 816.966C555.797 817.189 565.994 816.03 577.123 816.827C579.137 817.368 583.455 818.06 583.712 819.511C586.439 834.908 585.68 856.533 588.407 871.697C588.773 872.673 589.915 875.905 590.383 876.578C597.97 877.97 626.725 879.002 635.437 876.591C636.791 876.216 636.951 874.758 637.478 873.299C635.827 868.256 636.462 862.415 636.982 857.231C632.497 856.756 628.004 856.348 623.506 856.007C617.976 856.114 611.495 856.366 605.979 856.114C603.263 855.989 602.928 854.985 601.587 853.164L601.542 847.771C601.354 842.802 600.397 835.56 599.884 830.448C599.696 827.51 599.51 826.334 600.243 823.507C600.663 823.1 601.155 822.62 601.724 822.068C619.741 820.89 653.395 821.761 670.107 821.302C673.55 821.045 677.171 820.64 680.625 820.311L682.418 820.477C683.384 826.916 678.331 844.6 678.201 853.629L676.516 875.872C676.078 879.95 674.963 895.697 672.876 897.775C668.815 897.29 657.519 897.429 652.882 897.385L645.666 897.307L633.372 896.717C611.329 897.497 589.019 896.891 566.949 897.17C562.03 897.233 557.326 896.912 552.457 896.142C550.385 894.43 551.007 894.697 550.463 891.311C548.364 874.845 546.616 845.15 545.757 828.339L545.031 816.966Z" fill="#0C44B1"/>
<path d="M550.465 891.289C567.007 881.428 592.775 887.135 612.068 886.249C628.933 885.475 647.177 886.003 664.068 886.486C650.226 893.969 643.923 892.503 633.374 896.694C611.33 897.475 589.02 896.868 566.95 897.148C562.032 897.21 557.327 896.89 552.458 896.12C550.386 894.407 551.008 894.674 550.465 891.289Z" fill="#112045"/>
<path d="M599.888 830.435C599.7 827.497 599.514 826.321 600.247 823.494C600.666 823.087 601.159 822.607 601.728 822.055C619.745 820.877 653.398 821.748 670.11 821.289L674.681 821.694L675.454 822.987C672.41 832.958 637.057 828.972 627.4 830.76C620.888 831.965 611.678 832.728 604.514 834.161C602.014 833.287 601.581 832.533 599.888 830.435Z" fill="#5E80CE"/>
<path d="M670.197 855.736C670.62 851.943 670.392 849.918 674.238 848.832C677.329 850.804 676.363 850.006 678.199 853.628L676.515 875.871C676.076 879.949 674.962 895.696 672.875 897.774C668.814 897.289 657.518 897.428 652.88 897.385L645.664 897.306L633.371 896.716C643.92 892.524 650.223 893.99 664.065 886.508L665.624 886.211C668.844 882.037 670.083 861.741 670.197 855.736Z" fill="#0C1F48"/>
<path d="M577.123 816.812C579.137 817.354 583.455 818.046 583.712 819.497C586.439 834.894 585.68 856.519 588.407 871.683L577.306 870.819C575.834 857.364 575.307 837.091 576.291 823.844L577.123 816.812Z" fill="#0C1F48"/>
<path d="M637.482 873.277L642.875 883.454C632.439 884.5 621.59 885.244 611.108 885.23C603.431 885.219 592.208 885.894 590.387 876.556C597.973 877.948 626.729 878.98 635.441 876.569C636.795 876.194 636.955 874.736 637.482 873.277Z" fill="#5E80CE"/>
<path d="M601.543 847.77C608.969 847.027 645.804 841.037 636.983 857.23C632.498 856.755 628.004 856.347 623.507 856.006C617.977 856.113 611.496 856.365 605.98 856.113C603.264 855.988 602.929 854.984 601.587 853.163L601.543 847.77Z" fill="#112045"/>
<path d="M601.586 853.147C607.582 851.911 619.708 850.024 623.505 855.99C617.975 856.097 611.495 856.349 605.979 856.097C603.263 855.972 602.927 854.968 601.586 853.147Z" fill="#030923"/>
<path d="M545.031 816.966C555.797 817.189 565.994 816.03 577.123 816.827L576.291 823.858C567.76 828.478 555.601 825.771 545.757 828.339L545.031 816.966Z" fill="#5E80CE"/>
<path d="M680.628 820.305L682.421 820.47C683.387 826.91 678.334 844.593 678.203 853.623C676.367 850.001 677.334 850.799 674.242 848.827C670.396 849.913 670.624 851.938 670.202 855.731C669.785 841.702 671.023 830.828 680.628 820.305Z" fill="#112045"/>
<path d="M981.703 777.723C1002.97 776.452 1011.87 778.438 1028.73 790.534C1043.22 816.038 1026.78 854.258 1040.41 885.873C1031.3 886.877 1021.8 887.469 1012.63 887.112C1006.99 886.893 1011.05 882.593 1008.28 879.753C1002.96 880.59 998.917 885.042 993.865 887.325C979.754 893.703 965.598 891.231 951.773 886.41C948.346 882.091 946.812 880.008 944.1 875.233C942.096 867.656 940.582 858.915 941.582 851.074C943.497 836.072 953.573 831.699 964.097 823.641C974.464 824.182 1004.74 823.065 1007.2 810.207C1007.6 808.135 1007.16 805.991 1005.97 804.244C999.886 795.193 983.452 798.718 975.617 803.82C968.742 822.112 962.023 816.951 944.666 816.15C945.317 791.279 957.202 780.89 981.703 777.723ZM976.074 865.137C989.383 868.661 994.011 865.357 1004.06 856.295C1005.86 850.865 1008.2 844.612 1007.64 838.874C1005.94 837.936 1006.71 838.044 1004.73 838.534C992.639 840.665 954.581 844.881 976.074 865.137Z" fill="#0C44B1"/>
<path d="M1718.43 777.749C1720.4 777.591 1722.37 777.493 1724.33 777.458C1742.2 777.094 1755.38 778.997 1768.54 791.651C1774.35 806.799 1770.03 845.706 1771.63 864.027C1772.32 871.799 1777.46 883.622 1777.11 885.941C1770.98 888.186 1757.13 887.081 1750.39 886.06C1749.71 885.959 1744.29 881.706 1743.13 880.959C1732.35 887.058 1724.33 891.216 1711.41 891.013C1697.78 890.798 1687.46 888.357 1682.59 874.339C1680.89 868.412 1680.04 856.822 1680.78 850.582C1682.35 837.21 1691.67 831.302 1701.79 823.891C1712.9 823.203 1723.82 822.646 1734.69 820.021C1742.85 818.048 1747.47 807.99 1742.64 801.591C1738.61 799.557 1729.02 798.871 1724.41 799.357C1711.28 800.741 1713.57 808.658 1708.56 814.719C1702.37 817.71 1689.68 816.759 1682.54 816.649C1683.34 809.374 1684.21 799.728 1687.12 793.218C1702.01 783.246 1698.08 781.036 1718.43 777.749ZM1713.7 864.783C1726.76 868.212 1739.14 866.588 1743.83 851.458C1744.84 848.202 1745.46 842.501 1744.65 839.195L1743.52 838.594C1729 840.842 1696.2 841.947 1713.7 864.783Z" fill="#0C44B1"/>
<path d="M2275.25 866.395C2297.73 862.016 2294.52 854.45 2322.3 854.954L2323.11 856.04C2322.76 862.084 2322.49 865.36 2318.2 870.431C2297.62 893.696 2265.77 898.457 2240.39 879.016C2220.47 863.767 2221.63 810.085 2236.71 792.419C2252.34 774.1 2293.61 771.88 2311.24 791.519C2325.68 807.611 2324.45 819.91 2324.9 840.944C2301.52 841.269 2278.15 841.348 2254.76 841.179C2255.11 859.321 2258.39 861.769 2275.25 866.395ZM2254.84 821.591L2274.05 821.744C2281.53 821.697 2289.8 821.817 2297.22 821.543C2293.93 810.248 2290.37 801.32 2276.65 801.715C2262.61 804.532 2258.26 806.95 2254.84 821.591Z" fill="#0C44B1"/>
<path d="M2118.7 985.087C2131.77 977.143 2140.65 975.347 2155.47 975.573C2174.48 976.284 2183.08 980.346 2190.79 997.921C2208.32 1023.37 2198.28 1069.01 2167.72 1078.29C2131.09 1089.4 2104.84 1063.75 2105.85 1027.52C2106.4 1007.89 2110.17 1001.77 2118.7 985.087ZM2153.63 1071.76C2177.95 1068.56 2185.45 1046.52 2185.21 1024.77C2184.96 1001.86 2173.81 985.072 2149.42 985.945C2105.08 991.987 2108.13 1070.89 2153.63 1071.76Z" fill="#535355"/>
<path d="M2155.47 975.578C2174.48 976.289 2183.08 980.351 2190.8 997.926C2189.87 997.399 2187.87 996.492 2187.58 995.694C2182.59 982.354 2177.27 989.718 2170.35 985.621C2169.13 984.071 2169.09 983.688 2168.92 981.762L2168.89 981.255C2163.66 975.959 2161.27 978.465 2155.32 977.157L2155.47 975.578Z" fill="#0F0F12"/>
<path d="M1453.61 741.717C1462.61 741.633 1471.59 741.708 1480.58 741.941C1481.97 758.518 1479.56 774.525 1482.53 791.926C1495.88 773.397 1513.78 773.808 1533.67 783.508C1536.13 784.708 1541.07 789.838 1543.23 791.964C1548.66 806.886 1548.13 869.087 1546.55 886.93C1536.9 886.996 1528.27 886.992 1518.65 886.478L1518.82 840.065C1518.76 831.113 1519.73 814.269 1513.39 807.9C1508.13 802.604 1500.87 803.388 1493.99 803.429C1489.74 805.752 1485.96 809.015 1482.18 812.071C1480.35 827.658 1480.35 870.343 1481.61 886.041C1472.03 887.104 1462.38 887.004 1452.74 887.074C1452.4 860.485 1452.31 833.892 1452.48 807.302C1452.49 786.08 1452 762.727 1453.61 741.717Z" fill="#0C44B1"/>
<path d="M996.07 975.797C1009.1 975.208 1021.73 974.479 1032.42 983.363C1041.67 991.046 1049.37 1005.45 1050.06 1017.49C1051.09 1035.18 1051.19 1052.13 1039.15 1066.49C1032.67 1074.21 1024.97 1078.49 1015.05 1079.42C1000.07 1080.94 989.224 1081.34 975.904 1071.7C954.478 1056.18 954.011 1010.47 969.213 990.711C976.872 980.756 983.742 977.274 996.07 975.797ZM1008.78 1071.58C1032.39 1062.74 1039.18 1046.6 1037.76 1021.86C1036.55 1000.69 1025.58 984.855 1002.72 985.944C966.038 990.254 961.51 1044.92 986.255 1065.65C993.436 1071.67 999.865 1071.7 1008.78 1071.58Z" fill="#535355"/>
<path d="M538.391 916.204C544.399 905.013 553.7 905.547 565.126 905.156C585.274 904.466 606.805 906.375 626.865 905.043C646.533 903.737 658.834 903.826 678.221 907.192C693.876 909.155 684.909 926.776 698.049 932.483L700.155 933.565C700.206 934.307 700.373 936.006 700.309 936.674C699.033 945.138 698.448 953.763 697.745 962.298C696.097 977.569 694.632 992.857 693.35 1008.16C690.884 1010.02 686.597 1013.04 684.7 1015.2C684.566 1015.42 684.429 1015.65 684.29 1015.87C679.921 1022.82 675.037 1029.77 666.674 1031.71C666.731 1031.83 669.87 1010.2 670.092 1007.61C671.382 990.064 672.07 976.871 682.498 961.699L682.752 960.448C662.537 960.363 635.86 978.04 619.621 954.225L619.372 953.666C621.422 943.728 623.964 945.879 620.835 934.528C603.638 922.939 552.229 936.985 542.103 925.347C537.845 922.241 538.524 920.956 538.391 916.204Z" fill="#0C44B1"/>
<path d="M538.391 916.204C544.399 905.013 553.7 905.547 565.126 905.156C585.274 904.466 606.805 906.375 626.865 905.043C646.533 903.737 658.834 903.826 678.221 907.192C672.844 916.255 667.159 913.687 657.603 913.683C626.94 913.668 596.323 914.364 565.637 913.82C557.891 913.672 545.289 917.744 538.391 916.204Z" fill="#5E80CE"/>
<path d="M682.029 1001.26C682.981 997.233 689.808 959.468 689.069 960.94L689.609 965.262C692.861 964.321 690.692 962.877 697.747 962.289C696.099 977.559 694.634 992.848 693.352 1008.15C690.886 1010.01 686.6 1013.03 684.702 1015.19C684.568 1015.42 684.431 1015.64 684.292 1015.86C679.923 1022.81 675.039 1029.76 666.676 1031.7C666.733 1031.83 669.872 1010.19 670.094 1007.6L670.606 1014.47L671.877 1015.28L676.227 1013.52C678.853 1009.09 680.072 1006.05 682.029 1001.26Z" fill="#0C1F48"/>
<path d="M682.029 1001.26C682.981 997.233 689.808 959.468 689.069 960.94L689.609 965.262C689.259 973.922 689.109 979.415 687.451 987.995C685.84 996.331 681.002 1007.67 684.702 1015.19C684.568 1015.42 684.431 1015.64 684.292 1015.86C679.923 1022.81 675.039 1029.76 666.676 1031.7C666.733 1031.83 669.872 1010.19 670.094 1007.6L670.606 1014.47L671.877 1015.28L676.227 1013.52C678.853 1009.09 680.072 1006.05 682.029 1001.26Z" fill="#1B428E"/>
<path d="M542.105 925.333C548.308 922.543 608.015 921.763 617.262 925.426C619.337 926.249 620.304 927.268 621.643 929.022C622.196 932.363 622.223 931.133 620.837 934.514C603.64 922.925 552.231 936.971 542.105 925.333Z" fill="#0F0F12"/>
<path d="M682.5 961.711C689.103 967.738 682.639 991.798 682.029 1001.28C680.072 1006.07 678.853 1009.11 676.227 1013.54L671.877 1015.3L670.606 1014.49L670.094 1007.62C671.384 990.075 672.072 976.883 682.5 961.711Z" fill="#355FB7"/>
<path d="M619.625 954.222C628.19 954.474 637.755 958.752 645.143 959.088C654.93 959.535 672.19 950.029 681.524 955.919C683.093 958.489 682.766 957.382 682.756 960.446C662.541 960.36 635.864 978.037 619.625 954.222Z" fill="#0F0F12"/>
<path d="M698.048 932.469L700.155 933.551C700.206 934.292 700.373 935.992 700.308 936.66C699.032 945.123 698.447 953.749 697.744 962.284C690.69 962.872 692.859 964.316 689.607 965.257L689.066 960.935C690.271 947.059 690.381 944.048 698.048 932.469Z" fill="#0C1F48"/>
<path d="M1378.46 777.721C1393.45 776.53 1411.31 778.909 1422.93 789.383C1431.75 797.325 1432.87 804.141 1433.52 815.252C1425.64 815.523 1418 816.31 1410.19 814.641C1401.37 812.755 1403.19 801.571 1395.18 800.006C1388.94 798.784 1371.36 800.451 1369.96 807.984C1375.06 822.298 1416.44 819.999 1427.32 832.372C1438.21 844.739 1437.31 859.616 1430.74 874.17C1428.63 878.827 1424.05 882.85 1420.28 886.492C1412.53 887.921 1404.78 889.311 1397.02 890.662C1378.66 891.118 1354.24 890.755 1343.24 873.37C1340.84 869.579 1337.43 860.607 1338.43 856.304C1342.05 853.456 1359.02 854.747 1364.49 855.011C1374.54 863.24 1390.94 875.955 1404.35 862.629C1407.61 859.394 1404.73 854.705 1401.32 852.503C1383.92 840.968 1345.9 845.525 1342.58 818.192C1339.55 793.234 1356.6 780.885 1378.46 777.721Z" fill="#0C44B1"/>
<path d="M1253.39 777.974L1254.26 777.883C1257.86 782.647 1251.8 848.585 1258.81 858.673C1265.65 868.516 1290.01 864.657 1291.97 854.339C1296.49 830.501 1291.23 803.735 1294.76 779.461C1303.98 778.958 1314.09 779.23 1323.39 779.311C1324.74 798.053 1324.43 817.308 1324.42 836.138C1324.38 852.586 1324.12 869.62 1324.73 885.994C1315.78 887.236 1306.34 887.159 1297.34 886.639C1294.88 884.606 1292.01 881.787 1289.63 879.56C1287.77 882.006 1285.53 884.582 1283.55 886.964C1261.98 894.42 1231.93 892.416 1227.83 864.54C1227.19 860.196 1227.22 854.903 1227.47 850.497C1228.82 826.811 1225.96 802.204 1229.2 778.723C1235.48 779.073 1247.79 779.952 1253.39 777.974Z" fill="#0C44B1"/>
<path d="M1153.11 777.718C1172.52 775.192 1199.98 783.245 1205.75 804.146C1206.5 806.864 1206.55 812.333 1206.62 815.262C1195.75 815.341 1180.54 819.014 1175.99 806.219C1172.73 797.05 1146.7 797.185 1146.03 808.254C1146.1 809.372 1145.96 812.348 1147.18 812.989C1171.23 825.549 1216.33 819.973 1209.67 861.122C1207.9 872.056 1201.77 878.98 1194.01 886.613C1186.12 888.229 1178.7 889.348 1170.73 890.538C1153.26 891.312 1129.77 890.825 1119.23 874.614C1117.05 871.775 1109.66 857.746 1115.29 855.76C1120.33 854.389 1132.17 853.851 1137.09 855.294C1145.91 857.881 1151.23 865.982 1160.88 868.526C1170.31 871.012 1176.64 866.133 1179.01 857.206C1174.72 843.857 1129.98 845.541 1121.39 829.773C1114.96 817.962 1117.02 807.925 1119.61 795.603C1132.61 782.065 1134.84 780.408 1153.11 777.718Z" fill="#0C44B1"/>
<path d="M620.25 965.348C639.197 976.731 643.132 976.168 665.987 975.948C667.73 980.002 663.983 994.035 663.752 1001.32C663.384 1014.22 662.264 1025.34 660.483 1038.11C659.387 1049.37 658.134 1055.89 654.886 1066.88C647.672 1074.08 626.524 1084.77 616.265 1089.98C610.285 1086.66 595.458 1078.52 589.483 1076.89C579.24 1073.68 574.327 1071.1 569.241 1061.84C567.667 1059.39 564.246 1050.91 562.97 1047.93C561.745 1044.29 561.219 1044.61 562.195 1041.31C570.072 1042.45 607.839 1042.62 616.651 1039.92C620.023 1038.88 621.121 1036.22 622.352 1033.19C621.064 1026.44 617.18 1017.26 615.143 1009.91C623.911 1004.47 619.544 996.759 616.092 989.411L614.752 987.538C616.05 984.77 621.44 977.586 623.48 974.736C621.951 971.307 621.282 968.911 620.25 965.348Z" fill="#0C44B1"/>
<path d="M649.003 1049.72C650.566 1045.44 651.289 1039.2 654.301 1036.48C657.79 1035.86 656.862 1036.09 660.484 1038.13C659.389 1049.4 658.136 1055.91 654.887 1066.9C647.673 1074.1 626.526 1084.79 616.267 1090C610.287 1086.69 595.46 1078.54 589.485 1076.91C579.241 1073.71 574.328 1071.12 569.242 1061.87C607.972 1071.87 603.876 1091.87 644.424 1064.13C646.579 1058.79 647.538 1055.31 649.003 1049.72Z" fill="#0F0F12"/>
<path d="M665.985 975.949C667.728 980.003 663.981 994.036 663.75 1001.32C663.382 1014.22 662.262 1025.34 660.481 1038.11C656.859 1036.07 657.787 1035.84 654.298 1036.46C651.286 1039.18 650.563 1045.42 649 1049.7C651.868 1020.43 651.255 1013.6 659.352 985.434C660.392 979.105 660.2 978.747 665.985 975.949Z" fill="#112045"/>
<path d="M665.988 975.949C667.732 980.003 663.985 994.036 663.754 1001.32L661.033 1001.83L659.546 1000.7C658.32 996.972 659.334 990.095 659.356 985.434C660.396 979.105 660.203 978.747 665.988 975.949Z" fill="#030923"/>
<path d="M622.352 1033.2C628.941 1035.03 625.46 1046.01 620.376 1046.93C604.627 1049.78 578.358 1049.93 562.97 1047.94C561.745 1044.3 561.219 1044.62 562.195 1041.32C570.072 1042.46 607.839 1042.64 616.651 1039.93C620.023 1038.89 621.121 1036.23 622.352 1033.2Z" fill="#5E80CE"/>
<path d="M1723.24 975.77C1786.56 970.616 1767.16 1021.18 1769.51 1068.07C1773.64 1071.71 1781.27 1072.84 1781.76 1077.86C1777.12 1081.39 1763.2 1078.45 1758.05 1077.03C1757.49 1074.18 1757.09 1070.36 1755.36 1068.16C1732.2 1083.64 1707.35 1088.19 1687.6 1064.86C1686.51 1056.07 1687.3 1046.44 1689.29 1037.87C1711.5 1016.6 1720.46 1023.68 1751.87 1016.75C1764.34 984.855 1734.94 978.473 1712.24 991.5C1708.64 993.562 1703.47 1005.43 1699.47 1009.31L1696.93 1009.12C1694.26 1007.4 1693 1003.51 1691.65 1000.49C1694.41 995.009 1697.1 989.498 1699.71 983.95C1709.09 978.27 1712.59 977.271 1723.24 975.77ZM1714.16 1031.24C1702.22 1041.02 1699.65 1044.21 1700.46 1060.18C1703.48 1064.14 1704.73 1065.93 1708.58 1069.03C1723.65 1075.82 1746.1 1069.88 1752.77 1053.98C1756.38 1045.4 1756.4 1038.09 1754.84 1029.02L1753.75 1027.91L1751.49 1028.33C1740.71 1029.57 1723 1029.34 1714.16 1031.24Z" fill="#535355"/>
<path d="M676.517 875.862C676.92 877.74 677.713 882.935 678.713 884.028C679.368 880.927 679.932 869.77 680.739 868.578C683.141 873.663 683.687 879.808 682.487 885.285C676.478 894.231 676.631 884.584 676.693 900.846H691.428C691.29 904.13 690.386 909.71 693.173 911.757C698.689 915.81 693.058 921.059 695.383 926.622C699.325 929.596 707.719 926.786 710.757 929.839C710.366 935.944 708.014 935.022 709.847 941.4L709.147 942.511C706.37 942.244 705.024 941.593 702.416 940.566C701.235 941.686 701.603 941.301 701.136 943.093C700.342 940.88 700.402 939.008 700.308 936.666C700.373 935.998 700.206 934.299 700.155 933.557L698.048 932.475C684.908 926.768 693.876 909.147 678.22 907.184C658.834 903.818 646.532 903.729 626.865 905.035C606.805 906.367 585.274 904.458 565.126 905.147C553.7 905.539 544.398 905.005 538.39 916.196C538.524 920.948 537.845 922.232 542.103 925.339C552.228 936.977 603.638 922.931 620.835 934.52C623.963 945.871 621.422 943.72 619.372 953.658L619.059 953.945C617.782 955.103 617.483 955.322 615.88 956.156C614.625 958.855 614.566 958.014 614.922 960.684C616.973 963.11 617.605 963.549 620.248 965.355C621.28 968.919 621.949 971.315 623.478 974.744C621.438 977.594 616.047 984.778 614.749 987.546C612.619 988.273 611.513 987.424 609.019 986.635L608.666 988.167C610.428 989.682 613.632 989.367 616.09 989.418C619.542 996.767 623.909 1004.48 615.141 1009.92C611.428 1011.49 607.463 1010.64 603.789 1009.73C606.717 1008.11 610.283 1006.44 612.49 1004.01C614.028 1001.34 612.911 997.92 612.326 994.765L612.381 993.119C610.396 990.695 608.251 990.958 604.634 990.186C605.323 988.967 606.04 986.019 606.45 984.546C606.267 983.383 606.654 981.782 606.865 980.574C614.636 978.452 614.922 969.771 611.881 963.107C611.702 962.712 609.933 962.844 609.373 962.839C602.96 961.823 547.595 960.033 538.787 963.846C536.764 964.721 535.508 970.805 534.914 973.462C534.832 975.667 534.472 979.005 536.495 980.512C547.193 988.474 579.258 984.494 592.448 985.309C594.863 985.434 598.32 985.385 600.417 986.365C591.156 986.67 552.081 985.276 547.047 987.88L546.22 989.573C546.654 990.028 547.509 990.995 547.974 991.311C543.796 993.6 544.319 993.701 543.168 998.472L539.838 999.668L539.392 1001.02C541.755 1004.64 546.117 1007.75 550.373 1008.66C550.799 1008.75 551.227 1008.82 551.657 1008.89C549.797 1010.84 549.341 1011.23 548.815 1013.83C550.962 1017.15 552.873 1017.23 553.696 1019.37L553.617 1023.82L554.216 1028.32C557.748 1034.9 556.659 1035.64 564.253 1035.66L560.451 1037.63L560.01 1039.23L562.193 1041.32C561.217 1044.62 561.742 1044.3 562.967 1047.94C564.244 1050.92 567.665 1059.4 569.238 1061.85C574.324 1071.11 579.237 1073.69 589.481 1076.9C585.902 1077.9 580.365 1079.84 576.929 1079.28C574.226 1074.97 573.36 1076 568.666 1074C566.988 1071.54 568.482 1068.36 567.779 1064.21C565.842 1063.97 563.915 1063.66 562.002 1063.27C559.088 1062.71 561.586 1054.47 560.725 1052.77C557.737 1047.28 555.08 1051.18 555.503 1042.82C555.804 1036.9 554.157 1037.52 549.866 1036.9C546.185 1032.06 548.979 1020.06 547.87 1013.28C546.803 1006.76 540.946 1012.73 536.906 1009.82C536.221 1002.99 535.87 998.272 535.809 991.353C538.041 987.946 539.189 990.818 543.029 988.26L542.75 986.511C539.201 985.326 537.123 987.381 531.808 987.143C530.328 986.009 529.588 985.79 529.404 983.571C529.021 978.933 527.096 962.257 529.303 958.952C531.916 958.536 534.535 958.155 537.158 957.812L537.203 956.658C535.015 956.557 533.826 956.187 531.727 955.639C525.612 951.076 527.538 938.932 529.637 932.61C533.927 932.49 541.294 932.823 544.767 931.108C543.371 928.184 541.743 930.908 537.182 928.521C536.392 926.455 534.765 901.168 537.797 901.037C548.97 900.55 629.555 904.002 634.473 900.809L634.831 898.667C635.68 898.061 642.802 897.882 645.666 897.297L652.882 897.375C649.108 900.337 644.338 897.837 639.69 900.264L640.073 901.483C646.512 902.186 667.155 902.224 672.747 900.039L673.395 898.866L672.877 897.765C674.964 895.687 676.078 879.94 676.517 875.862ZM596.831 955.356C583.045 954.594 564.234 955.158 550.276 955.375L549.348 956.816C547.68 956.969 544.576 956.875 543.289 957.484L543.387 957.699C552.072 958.515 587.401 958.086 595.982 957.464L587.107 956.666L596.831 955.356Z" fill="#545B6E" fill-opacity="0.0117647"/>
<path d="M535.673 940.08C547.676 930.509 586.856 933.446 602.355 933.73C610.873 933.691 609.668 934.699 612.111 943.038C612.876 947.943 613.097 949.493 612.725 954.416C607.656 955.346 602.024 955.268 596.837 955.353C583.052 954.591 564.241 955.155 550.283 955.371C541.384 955.455 538.999 957.198 534.863 949.103C534.127 947.292 533.42 945.47 532.742 943.637C533.399 941.016 533.009 941.864 535.673 940.08Z" fill="#355FB7"/>
<path d="M612.103 943.043C612.869 947.948 613.09 949.498 612.718 954.421C607.649 955.351 602.017 955.273 596.83 955.358C583.045 954.596 564.233 955.16 550.276 955.376C541.376 955.46 538.992 957.203 534.855 949.108C545.513 947.383 586.681 947.7 598.121 948.342C602.275 948.471 604.83 949.873 608.884 949.282C611.56 947.199 611.03 946.738 612.103 943.043Z" fill="#0C1F48"/>
<path d="M612.108 943.043C612.874 947.948 613.095 949.498 612.723 954.421C608.487 954.05 598.905 956.074 595.895 953.135C595.798 950.378 595.981 951.062 598.125 948.342C602.279 948.471 604.835 949.873 608.889 949.282C611.565 947.199 611.035 946.738 612.108 943.043Z" fill="#0F0F12"/>
<path d="M535.668 940.08C547.671 930.509 586.852 933.446 602.35 933.73C602.605 937.587 603.055 936.662 601.505 939.657C596.425 940.799 541.124 941.306 535.668 940.08Z" fill="#5E80CE"/>
<path d="M1059.73 752.109C1067.54 752.691 1081.25 752.364 1089.62 752.52C1088.7 763.616 1088.42 770.381 1088.79 781.505C1094.13 781.716 1099.66 782.587 1104.98 783.314L1105.22 800.283C1099.95 800.153 1093.91 800.575 1088.58 800.827C1088.5 815.981 1087.51 854.617 1089.7 867.573C1095.81 868.838 1099 869.166 1105.18 869.322C1105.11 875.692 1104.85 880.512 1104.34 886.828C1104.53 888.179 1104.29 888.369 1103.62 889.639C1093.45 894.99 1071.35 889.578 1062.65 881.154C1057.93 865.962 1060.68 838.351 1060.21 821.571C1060.01 814.517 1060.89 808.395 1059.01 801.141C1056.04 799.287 1054.34 801.67 1051.3 800.836C1046.28 799.457 1047.21 785.937 1048.4 782.529C1052.53 780.494 1053.34 782.941 1058.68 781.447C1061.36 777.489 1059.9 758.166 1059.73 752.109Z" fill="#0C44B1"/>
<path d="M1626.28 752.542C1637.12 752.275 1646.4 752.093 1657.29 752.616C1655.65 763.12 1656.14 771.576 1657.15 782.056C1661.63 782.249 1665.82 782.123 1670.3 782.006C1670.84 787.689 1670.71 795.38 1670.78 801.226C1664.24 800.246 1662.49 800.339 1655.89 801.091C1656.16 820.909 1655.89 840.689 1656.28 860.488C1656.48 870.42 1663.01 868.969 1670.48 868.216C1670.8 875.225 1670.73 883.229 1670.8 890.321C1655.36 890.607 1642.87 893.826 1630.97 881.904C1625.49 861.622 1627.21 823.394 1627.66 801.22C1622.81 800.591 1618.36 800.433 1613.49 800.224L1613.25 782.91C1617.84 782.197 1623.1 781.692 1627.78 781.133C1627.55 771.913 1627.54 761.575 1626.28 752.542Z" fill="#0C44B1"/>
<path d="M2343.42 741.567C2350.7 742.083 2363.79 741.603 2371.5 741.562C2371.2 789.651 2371.22 837.74 2371.55 885.828C2368.94 887.763 2348.15 887.1 2343.29 887.085C2342.41 854.059 2343.32 820.712 2342.97 787.648C2342.82 772.359 2342.91 756.847 2343.42 741.567Z" fill="#0C44B1"/>
<path d="M1576.73 778.835C1584.69 778.61 1592.44 778.705 1600.4 778.79C1601.01 790.512 1602.5 883.029 1600.82 885.522C1600.46 886.055 1598.49 886.247 1597.8 886.396C1588.71 887.116 1580.11 886.93 1570.99 886.85C1571.19 863.149 1569.2 805.925 1572.83 780.129C1572.94 779.335 1575.53 779.082 1576.73 778.835Z" fill="#0C44B1"/>
<path d="M827.238 937.223C838.424 937.227 854.746 937.431 866.144 937.337C872.978 937.281 878.85 942.201 875.601 947.044C867.912 949.201 810.95 948.612 799.851 948.409C800.257 968.656 796.87 976.56 799.902 1000.74C817.878 1003.17 836.575 1001.42 854.676 1001.81C860.512 1001.93 866.466 1001.59 869.702 1007.33L869.159 1008.8C865.459 1010.82 844.208 1010.35 838.39 1010.38C825.615 1010.54 812.839 1010.56 800.063 1010.45C800.029 1018.06 798.634 1027.02 798.591 1035.29C798.519 1049.67 798.874 1063.88 799.171 1078.25C794.763 1078.7 790.697 1078.59 786.273 1078.55L786.507 995.159C786.596 976.805 787.175 955.963 785.309 937.961C798.77 936.941 813.64 937.232 827.238 937.223Z" fill="#535355"/>
<path d="M1145.62 978.333C1161.88 977.705 1154.14 985.917 1155.43 996.786C1157.58 1015.98 1144.49 1069.64 1176.27 1071.41C1224.28 1074.09 1208.13 1005.21 1211.73 979.855C1214.47 977.044 1220.39 977.139 1223.17 979.946C1224.39 982.81 1223.84 994.865 1223.81 998.713L1223.85 1078.69L1211.36 1078.29C1210.69 1074.81 1210.26 1070.47 1209.82 1066.89C1184.35 1090.78 1144.23 1084.61 1145.19 1047.98C1145.44 1038.74 1142.75 983.221 1145.62 978.333Z" fill="#5C5B5C"/>
<path d="M2328.86 975.832C2342.7 974.296 2349.17 976.305 2361.31 981.791C2366.14 988.23 2369.13 994.441 2370.02 1002.46C2370.84 1009.93 2372.73 1074.6 2369.99 1078.04C2366.19 1078.7 2365.27 1078.88 2361.36 1078.31C2360.08 1077.01 2359.26 1075.19 2359.29 1073.39C2359.47 1052.99 2361.29 1031.98 2359.8 1011.61C2358.36 991.933 2345.9 984.602 2327.68 986.47C2322.28 987.587 2316.85 990.667 2313.02 994.61C2309.5 998.288 2307 1002.83 2305.77 1007.77C2302.76 1019.53 2304.36 1063.4 2304.51 1078.32L2292.62 1079.19C2293.84 1045.8 2292.04 1010.7 2293.19 976.823C2301.31 978.569 2300.84 977.773 2306.47 984.168C2314.04 981.834 2320.82 977.088 2328.51 975.884L2328.86 975.832Z" fill="#5E5D5E"/>
<path d="M1334.24 979.242L1334.47 979.603C1335.66 981.49 1336.17 982.948 1336.95 985.022C1342.87 983.762 1346.93 980.579 1352.36 978.263C1366.17 972.372 1379.89 975.602 1392.64 981.83C1397.61 988.414 1400.74 994.192 1400.95 1002.67C1401.57 1026.99 1399.96 1051.35 1401.69 1075.64C1401.71 1075.92 1401.29 1077.04 1401.17 1077.36C1398.06 1079.42 1393.6 1078.75 1389.84 1078.42C1393.16 1065.15 1392.34 1029.82 1391.54 1015.47C1392.15 1011.7 1391.05 1008.63 1390.09 1004.94C1381.23 978.558 1351.83 980.321 1339.02 1002.26C1330.93 1016.11 1339.32 1069.99 1333.78 1078.39C1329.94 1078.68 1327.75 1079.01 1323.93 1078.22C1325.82 1065.46 1322.07 982.149 1325.71 978.157C1328.57 977.035 1331.27 978.3 1334.24 979.242Z" fill="#5C5C5C"/>
<path d="M1877.6 951.504C1878.73 948.676 1878.16 948.841 1880.31 947.445C1887.69 950.183 1887.09 970.402 1887.62 977.986C1895.7 978.147 1900.64 978.87 1908.63 980.072C1906.88 983.063 1904.93 986.178 1903.54 989.341C1899.2 988.828 1893.74 987.849 1889.64 988.904C1885.88 992.241 1886.73 1013.68 1887.13 1018.85C1887.86 1028.22 1884.82 1062.79 1889.6 1069.03C1895.36 1073.71 1906.63 1069.97 1908.38 1076.71C1905.38 1080.03 1901.46 1079.56 1897.33 1080.07C1881.19 1082.02 1877.42 1076.74 1876.32 1061.82C1877.65 1056.76 1877.39 992.692 1875.91 990.615L1873.06 990.75C1867.24 990.19 1860.27 985.799 1859.65 979.444C1864.96 978.565 1871.93 977.102 1877.14 977.55C1877 968.865 1877.16 960.178 1877.6 951.504Z" fill="#535355"/>
<path d="M1333.78 1078.38L1334.93 1078.92C1333.96 1081.73 1333.51 1083.35 1331.81 1085.87C1325.24 1090.42 1323.61 1087.85 1322.55 1082.06C1322.46 1080.26 1316.9 1080.63 1316.83 1079.25C1315.31 1049.67 1316.07 999.776 1316.1 971.77C1323.3 971.762 1329.86 971.725 1337.06 971.318C1337.32 973.76 1337.36 974.635 1338.24 976.925C1340.55 978.691 1342.87 978.292 1345.67 978.334C1349.01 978.383 1346.04 974.289 1348.43 971.222C1359.99 970.78 1373.54 971.429 1385.19 972.167C1387.9 972.34 1386.08 974.256 1389.07 978.081C1394.83 979.681 1395.62 977.74 1400.97 978.171C1403.04 981.617 1400.39 986.107 1402.46 988.581C1403.57 989.902 1404.19 990.379 1405.21 992.053C1404.7 1015.31 1407.11 1038.28 1403.94 1061.48C1402.83 1069.63 1406.73 1084.43 1397.73 1088.13C1389.09 1087.03 1394.14 1082.56 1388.54 1078.99L1389.84 1078.41C1393.6 1078.74 1398.06 1079.41 1401.16 1077.35C1401.29 1077.04 1401.71 1075.92 1401.69 1075.64C1399.96 1051.35 1401.57 1026.99 1400.95 1002.67C1400.74 994.187 1397.61 988.409 1392.64 981.825C1379.89 975.597 1366.17 972.367 1352.36 978.258C1346.93 980.574 1342.87 983.757 1336.95 985.017C1336.16 982.943 1335.66 981.485 1334.47 979.598L1334.24 979.237L1334.46 975.361C1330.88 971.751 1323.86 973.743 1318.87 973.618C1318.87 982.972 1318.23 1076.43 1318.78 1077.92C1320.38 1078.13 1322.44 1078.57 1323.93 1078.21C1327.75 1079.01 1329.94 1078.68 1333.78 1078.38ZM1328.51 1082.96L1329.6 1081.65L1328 1079.18L1326.27 1082L1326.83 1083.11L1328.51 1082.96Z" fill="#0F0F12" fill-opacity="0.0745098"/>
<path d="M534.918 973.453C535.512 970.797 536.768 964.712 538.791 963.837C547.599 960.025 602.964 961.815 609.378 962.83C609.937 962.836 611.706 962.703 611.885 963.098C614.927 969.762 614.64 978.444 606.87 980.566C591.385 977.469 549.391 982.692 540.35 975.95L540.741 973.444L534.918 973.453Z" fill="#5E80CE"/>
<path d="M609.376 962.833C609.935 962.839 611.704 962.706 611.883 963.102C614.925 969.765 614.638 978.447 606.868 980.569C591.383 977.472 549.389 982.696 540.348 975.953L540.739 973.447C560.999 972.471 584.683 973.213 605.538 972.879C607.294 969.002 608.207 966.928 609.376 962.833Z" fill="#0C1F48"/>
<path d="M2006.55 977.621L2008.54 977.679C2009.4 979.644 2009.55 1071.79 2008.79 1077.71C2007.01 1079.06 2002.87 1078.67 2000.42 1078.68L1998.48 1078.3C1997.19 1076.46 1997.45 987.493 1998.17 979.401C1999.74 977.959 2004.19 977.873 2006.55 977.621Z" fill="#646366"/>
<path d="M553.699 1019.37C557.889 1014.23 603.585 1014.67 610.616 1016.64C615.206 1020.57 614.764 1024.27 611.789 1029.12C609.357 1030.47 608.485 1029.86 606.395 1030.62L593.605 1030.25L590.979 1031.18C594.006 1032 603.292 1032.66 606.544 1032.42L608.07 1033.97C604.679 1037.32 570.733 1036.29 564.257 1035.66C556.663 1035.64 557.751 1034.9 554.219 1028.32L553.621 1023.82L553.699 1019.37Z" fill="#112045"/>
<path d="M553.699 1019.37C557.889 1014.23 603.585 1014.67 610.616 1016.64C607.364 1020.99 605.678 1022.33 599.874 1022.9C584.607 1024.4 569.023 1022.73 553.621 1023.82L553.699 1019.37Z" fill="#5E80CE"/>
<path d="M554.215 1028.33C556.671 1028.46 594.139 1030.47 593.6 1030.25L590.975 1031.19C594.002 1032 603.288 1032.66 606.54 1032.42L608.065 1033.98C604.675 1037.32 570.729 1036.29 564.252 1035.67C556.659 1035.65 557.747 1034.9 554.215 1028.33Z" fill="#2A2D41"/>
<path d="M1573.16 741.885C1582.05 741.93 1591.76 742.157 1600.57 741.707C1600.62 746.241 1602.2 765.638 1600.52 768.104C1590.82 768.407 1581.11 768.643 1571.4 768.813C1571.2 762.022 1569.57 746.31 1573.16 741.885Z" fill="#0C44B1"/>
<path d="M554.601 998.344C567.343 999.278 594.756 998.813 608.636 996.85C607.725 996.979 612.126 994.849 612.328 994.762C612.913 997.916 614.03 1001.34 612.492 1004C610.285 1006.43 606.719 1008.11 603.791 1009.73C584.914 1010.54 570.134 1009.53 551.659 1008.88C551.229 1008.82 550.801 1008.74 550.376 1008.65C546.119 1007.75 541.757 1004.63 539.395 1001.02L539.84 999.665L543.17 998.468C546.981 998.457 550.791 998.416 554.601 998.344Z" fill="#112045"/>
<path d="M592.451 985.321C579.261 984.507 547.196 988.487 536.498 980.524C534.475 979.017 534.835 975.679 534.917 973.474L540.74 973.465L540.348 975.971C549.39 982.713 591.383 977.49 606.868 980.587C606.657 981.794 606.27 983.396 606.453 984.558C602.467 984.734 596.23 984.825 592.451 985.321Z" fill="#2A2D41" fill-opacity="0.980392"/>
<path d="M547.974 991.319C562.501 989.928 578.933 991.202 593.703 990.927C597.6 991.023 599.347 990.314 601.768 992.498C601.741 1000.51 562.76 997.213 554.599 998.355C550.789 998.427 546.978 998.469 543.168 998.48C544.319 993.709 543.796 993.608 547.974 991.319Z" fill="#5E80CE"/>
<path d="M1873.06 990.763L1875.92 990.629C1877.39 992.706 1877.65 1056.77 1876.32 1061.84C1875.6 1065.86 1876.82 1068.54 1874.62 1072.72C1871.29 1067.96 1872.08 1004.72 1872.98 996.55C1873.15 994.895 1873.31 992.938 1873.06 990.763Z" fill="#59595B" fill-opacity="0.01"/>
<path d="M628.679 780.483C635.732 774.131 630.369 769.002 642.908 769.507C640.915 775.931 633.453 798.48 630.147 804.12C625.662 801.08 626.389 795.02 626.141 789.972C626.322 788.328 628.125 782.419 628.679 780.483Z" fill="#0F0F12"/>
<path d="M1579.74 942.824C1581.85 951.547 1580.95 983.175 1579.74 992.601L1575.45 987.645C1575.39 980.009 1573.99 951.712 1578.05 947.583L1578.69 948.469L1579.41 947.233L1579.13 950.319L1578.67 946.846L1579.62 946.407L1579.74 942.824Z" fill="#646366" fill-opacity="0.113725"/>
<path d="M2006.52 936.086C2007.42 936.093 2007.51 936.523 2008.4 937.397C2009.52 943.162 2010.99 948.228 2009.16 953.882C2006.98 955.527 2007.55 955.01 2004.11 954.702C2000.62 954.797 2000.98 955.334 1998.53 953.731C1996.79 949.995 1997.6 943.221 1997.57 938.497L2006.52 936.086Z" fill="#646366"/>
<path d="M1390.09 1004.94C1391.05 1008.63 1392.15 1011.7 1391.54 1015.47C1389.49 1025.67 1392.46 1062.83 1389.3 1067.75L1388.23 1066.82L1388.04 1063.06C1391.33 1057.95 1389.92 1027.58 1389.18 1020.65C1386.82 1024.24 1388.02 1056.42 1388.04 1063.06C1384.74 1051.23 1387.45 1018.25 1390.09 1004.94Z" fill="#535355" fill-opacity="0.486275"/>
<path d="M604.641 990.188C608.258 990.959 610.403 990.696 612.387 993.12L612.333 994.766C612.13 994.854 607.73 996.983 608.64 996.854C594.761 998.817 567.348 999.282 554.605 998.348C562.767 997.206 601.748 1000.5 601.775 992.491C599.353 990.307 597.606 991.016 593.709 990.92C595.975 990.432 602.03 990.3 604.641 990.188Z" fill="#355FB7" fill-opacity="0.984314"/>
<path d="M815.897 783.688L817.538 786.621L818.975 786.821L820.065 784.807C821.474 786.601 823.388 791.974 823.765 794.103C821.679 798.651 822.523 800.411 821.431 803.218C821.709 799.452 822.122 797.633 820.175 794.318C816.688 795.579 817.347 803.061 817.33 806.283L817.018 807.626L816.155 807.659C814.327 803.658 815.58 788.686 815.897 783.688Z" fill="#355FB7" fill-opacity="0.643137"/>
<path d="M817.328 806.302C817.345 803.08 816.686 795.597 820.174 794.336C822.12 797.651 821.708 799.47 821.429 803.236L821.544 804.567C821.216 812.098 820.872 826.078 819.611 833.008C818.438 822.969 821.272 815.89 817.328 806.302Z" fill="#355FB7" fill-opacity="0.94902"/>
<path d="M1388.04 1063.05C1388.02 1056.41 1386.82 1024.23 1389.19 1020.63C1389.92 1027.57 1391.33 1057.93 1388.04 1063.05Z" fill="#535355" fill-opacity="0.85098"/>
<path d="M1592.88 946.633C1594.63 954.991 1593.44 981.609 1592.99 990.409C1591.49 977.83 1591.02 959.128 1592.88 946.633Z" fill="#0F0F12" fill-opacity="0.133333"/>
<path d="M593.602 1030.25L606.393 1030.61L606.541 1032.42C603.29 1032.65 594.004 1032 590.977 1031.18L593.602 1030.25Z" fill="#545B6E" fill-opacity="0.262745"/>
<path d="M891.781 797.685C892.024 795.604 892.019 793.178 893.433 791.754C894.993 795.057 895.03 800.104 894.919 803.755C894.12 800.64 894.011 799.929 891.781 797.685Z" fill="#355FB7" fill-opacity="0.0470588"/>
<path d="M823.763 794.113C824.238 796.967 825.019 800.915 825.185 803.715L821.544 804.559L821.43 803.228C822.521 800.422 821.678 798.662 823.763 794.113Z" fill="#5E80CE" fill-opacity="0.0117647"/>
<path d="M815.895 783.701C816.506 781.166 816.409 779.615 818.096 778.082C819.572 780.648 819.616 781.864 820.063 784.82L818.972 786.834L817.535 786.634L815.895 783.701Z" fill="#355FB7" fill-opacity="0.427451"/>
</svg>
