<svg width="2396" height="1600" viewBox="0 0 2396 1600" fill="none" xmlns="http://www.w3.org/2000/svg">
<path d="M565.305 866.997C567.078 866.815 568.857 866.685 570.638 866.607C591.851 865.591 619.449 866.298 640.973 866.296L778.842 866.346L1242.87 866.354L1648.16 866.343L1777.58 866.35C1800.61 866.316 1824.01 866.108 1847.06 866.489C1853.21 866.591 1859.88 870.696 1864.41 874.81C1874.32 884.127 1882.31 898.247 1882.45 912.135C1882.39 913.394 1882.04 918.345 1882.33 919.215L1881.77 921.839C1881.59 925.128 1881.9 932.996 1879.41 934.869C1870.11 941.868 1852.5 938.754 1841.04 939.633C1828.49 940.596 1816.76 940.829 1804.33 941.217C1803.26 941.209 1800.48 938.824 1798.82 937.99C1800.42 933.909 1800.8 931.257 1801.06 926.96C1807.18 927.269 1831.62 926.832 1836.39 924.14L1836.26 923.085L1831.86 920.685C1816.5 915.847 1781.13 919.383 1769.22 911.575C1767.42 909.664 1767.86 910.562 1767.33 908.189C1771.52 899.925 1782.07 904.41 1787.2 909.92C1789.75 909.313 1796.33 908.115 1797.83 906.514C1798.03 904.568 1797.97 903.808 1796.52 902.255C1790.53 895.828 1785.22 894.833 1776.72 894.447C1761.67 893.762 1753.11 899.293 1752.56 914.936L1752.54 915.716L1752.43 917.244C1728.72 915.034 1700.31 918.523 1676.02 916.974C1673.37 916.805 1659.42 916.393 1658.04 917.052L1656.47 916.144L1659.01 915.051C1655.31 905.752 1652.46 897.788 1641.5 895.188C1625.76 891.451 1610.19 897.321 1605.87 913.983C1604.5 915.722 1604.15 916.452 1601.62 916.514C1571.37 917.252 1541.05 916.914 1510.78 917.333C1509.04 917.358 1507.3 916.421 1506.02 915.313C1505.27 907.104 1504.89 903.201 1505.04 894.768C1500.54 894.674 1495.34 894.934 1490.8 895.059C1490.91 901.252 1490.98 906.304 1490.59 912.532C1490.21 914.323 1490.04 914.804 1490.29 916.608C1460.13 918.051 1428.84 915.697 1398.58 916.709C1393.71 916.872 1385.16 919.756 1380.91 918.016C1379.24 915.464 1379.12 911.969 1378.73 908.881L1379.11 907.149C1381.1 905.246 1381.29 905.768 1384.57 905.227C1387.47 905.306 1390.66 905.522 1393.5 905.032L1393.67 895.078C1378.78 894.886 1363.88 894.851 1348.97 894.973C1349.02 899.234 1348.42 901.572 1350.44 904.837C1352.8 906.116 1356.46 905.574 1359.27 905.433C1362.74 905.653 1362.03 905.126 1364.58 906.915C1366.5 910.519 1364.37 914.615 1363 918.144C1336.49 913.739 1237.1 921.734 1223.78 910.4C1222.74 907.715 1222.95 908.706 1223.51 905.722C1225.46 903.764 1228.28 903.863 1230.96 903.856C1232.51 903.856 1234.06 903.878 1235.6 903.922C1237.87 906.103 1240.19 908.225 1242.15 910.674C1244.94 909.465 1249.42 908.181 1252.42 907.226L1253.04 905.846C1252.24 895.112 1216.28 884.409 1208.34 908.984L1207.6 917.289L1207.2 917.203C1200.08 915.722 1179.55 916.7 1171.29 916.89C1157.25 916.773 1127.64 915.885 1114.75 917.538L1109.69 917.393C1107.49 908.458 1108.11 904.245 1108.65 895.113C1103.9 894.616 1098.16 894.912 1093.31 895.034C1093.39 900.378 1094.04 906.619 1094.22 912.272L1092.04 916.136C1090.26 917.304 1070.09 917.129 1066.06 917.25C1039.66 917.802 1013.1 915.903 986.729 917.501C984.67 917.626 980.738 918.219 978.97 917.413L976.508 918.792C972.293 920.279 966.481 922.783 962.095 922.093L958.425 917.627C955.438 908.51 964.014 901.412 972.508 905.612C976.937 907.801 977.497 910.706 979.075 914.989C984.695 914.662 987.663 914.717 993.021 913.041C990.655 905.843 988.3 900.469 981.03 897.156C966.784 890.664 951.329 893.978 944.247 908.467L942.108 913.169C940.786 915.115 940.019 917.106 937.509 917.122C915.435 917.263 867.291 919.335 847.68 916.12C844.041 914.487 839.431 902.802 835.818 899.544C830.789 895.011 822.506 894.516 815.983 894.606C806.741 894.732 803.268 897.679 797.419 903.721C794.56 908.537 793.067 912.234 790.896 917.427C770.766 916.553 750.739 917.107 730.649 917.265C715.994 917.38 689.105 919.421 675.382 915.836C674.051 909.753 674.189 902.261 674.252 896.001C670.741 893.931 663.67 894.887 659.332 895.157C659.436 902.053 659.891 910.564 658.19 917.136C645.252 915.342 605.354 921.24 597.994 915.213C596.363 907.992 594.957 902.13 592.815 895.018L591.426 891.929C588.88 885.84 585.692 881.922 581.572 876.866C575.632 871.567 572.794 869.64 565.305 866.997Z" fill="#8381AE"/>
<path d="M565.305 866.997C567.078 866.815 568.857 866.685 570.638 866.607C591.851 865.591 619.449 866.298 640.973 866.296L778.842 866.346L1242.87 866.354L1648.15 866.343L1777.58 866.35C1800.61 866.316 1824.01 866.108 1847.06 866.489C1853.21 866.591 1859.88 870.696 1864.41 874.81L1863.98 874.77C1860.67 874.436 1853.18 872.346 1850.94 872.331C1801.77 871.998 1752.88 870.47 1703.7 871.56C1678.8 872.111 1651.92 869.895 1626.84 870.064C1581.93 871.032 1537.38 870.886 1492.47 870.704C1479.68 870.652 1464.86 872.959 1451.71 872.357C1431.72 872.315 1412.06 871.404 1392.08 871.003C1383.29 870.944 1371.4 871.137 1363.03 870.262C1365.28 869.993 1366.11 870.314 1367.5 869.023C1209.84 871.819 1052.16 872.957 894.485 872.439C872.694 872.476 850.892 869.784 828.996 870.418C823.43 870.58 817.127 869.173 811.463 869.486C776.479 869.939 741.466 871.722 706.511 872.29L634.306 873.499C626.531 873.64 585.485 873.154 581.572 876.866C575.632 871.567 572.794 869.64 565.305 866.997Z" fill="#362E73"/>
<path d="M692.897 895.052C703.414 894.145 717.424 894.997 728.299 894.758C751.056 894.26 776.044 894.904 798.55 893.41L798.855 893.874L797.691 895.049C798.531 895.751 799.111 895.948 799.278 896.779C797.861 899.68 797.261 900.554 797.419 903.722C794.56 908.537 793.068 912.235 790.897 917.428C770.766 916.553 750.74 917.107 730.649 917.265C715.994 917.381 689.105 919.422 675.382 915.837C674.051 909.753 674.189 902.261 674.252 896.002L674.601 895.918C680.689 897.279 686.864 896.278 692.897 895.052Z" fill="#DCDCE8"/>
<path d="M1769.22 911.577C1770.92 910.19 1797.79 908.623 1802.3 907.957L1801.05 909.716C1804.11 910.362 1808.97 911.804 1811.72 910.941L1813.35 910.443C1818.84 908.763 1834.63 910.675 1841.34 910.182C1849.17 909.605 1877.32 906.932 1882.45 912.137C1882.39 913.396 1882.04 918.347 1882.33 919.217L1881.77 921.841C1881.59 925.13 1881.9 932.998 1879.41 934.871C1870.11 941.87 1852.51 938.756 1841.04 939.635C1828.49 940.598 1816.76 940.831 1804.33 941.219C1803.26 941.211 1800.48 938.826 1798.82 937.992C1800.42 933.911 1800.8 931.259 1801.06 926.962C1807.18 927.271 1831.62 926.834 1836.39 924.142L1836.26 923.087L1831.86 920.687C1816.5 915.849 1781.13 919.385 1769.22 911.577Z" fill="#F7F7F8"/>
<path d="M1831.86 920.685L1831.98 919.88C1834.21 920.168 1838.64 922.594 1839.93 924.457L1838.03 924.926L1837.87 925.867C1838.93 926.546 1841.7 928.268 1842.78 928.135C1846.86 927.634 1863.06 928.054 1865.84 926.904L1865.58 926.186C1860.99 926.108 1855.44 926.163 1850.98 925.513C1857.02 921.286 1878.71 930.622 1880.83 921.189C1877.32 916.525 1850.44 917.888 1843.76 917.885C1854.5 918.037 1872.5 916.22 1882.33 919.215L1881.77 921.839C1881.59 925.128 1881.9 932.996 1879.41 934.869C1870.12 941.868 1852.51 938.754 1841.04 939.633C1828.49 940.596 1816.76 940.829 1804.33 941.217C1803.26 941.209 1800.48 938.824 1798.82 937.99C1800.42 933.908 1800.8 931.257 1801.06 926.96C1807.18 927.269 1831.63 926.832 1836.39 924.14L1836.26 923.085L1831.86 920.685Z" fill="#D6D5E5"/>
<path d="M1363 918.143C1336.48 913.739 1237.1 921.733 1223.77 910.399C1222.73 907.714 1222.94 908.705 1223.51 905.721C1225.45 903.763 1228.28 903.862 1230.96 903.855C1232.51 903.855 1234.06 903.877 1235.6 903.921C1237.86 906.102 1240.19 908.224 1242.15 910.674C1249.12 909.958 1247.6 909.127 1255.61 909.357C1254.86 908.53 1254.68 908.288 1254.07 907.357C1255.71 907.004 1257.21 909.077 1258.32 909.043C1287.76 908.149 1317.65 904.938 1347.16 907.846C1349.1 908.037 1357.35 906.345 1359.26 905.432C1362.74 905.653 1362.03 905.125 1364.57 906.914C1366.5 910.518 1364.37 914.614 1363 918.143Z" fill="#D6D5E5"/>
<path d="M958.427 917.629C955.44 908.512 964.016 901.414 972.51 905.613C976.939 907.803 977.499 910.708 979.077 914.99C984.697 914.664 987.665 914.718 993.023 913.043C994.333 911.442 995.467 910.42 997.708 910.49C1022.48 911.27 1069.52 904.008 1092.19 911.069C1092.89 913.74 1091.97 913.994 1092.04 916.138C1090.26 917.306 1070.09 917.131 1066.07 917.252C1039.66 917.804 1013.1 915.905 986.731 917.503C984.672 917.628 980.74 918.221 978.971 917.415L976.51 918.794C972.295 920.281 966.482 922.785 962.097 922.095L958.427 917.629Z" fill="#DCDCE8"/>
<path d="M958.426 917.624C962.364 913.189 977.471 914.042 978.97 917.411L976.508 918.789C972.293 920.277 966.481 922.78 962.096 922.091L958.426 917.624Z" fill="#F7F7F8"/>
<path d="M844.77 910.645C849.037 908.908 854.849 908.21 859.436 908.028C881.9 907.135 904.353 906.715 926.817 905.948C931.457 905.79 940.369 905.696 944.246 908.463L942.107 913.165C940.785 915.111 940.018 917.102 937.508 917.118C915.434 917.259 867.29 919.331 847.678 916.116C847.515 914.397 845.791 912.193 844.77 910.645Z" fill="#DCDCE8"/>
<path d="M844.77 910.645C849.037 908.908 854.849 908.21 859.436 908.028C881.9 907.135 904.353 906.715 926.817 905.948C931.457 905.79 940.369 905.696 944.246 908.463L942.107 913.165C932.859 908.214 883.425 914.234 870.431 912.402L870.616 911.971C872.339 911.346 874.03 910.665 875.859 910.442C872.3 910.412 865.181 910.296 861.887 910.586C853.192 911.35 853.666 913.763 844.77 910.645Z" fill="#D6D5E5"/>
<path d="M1378.73 908.883C1381.21 907.585 1383.24 907.932 1386.03 908.068L1384.62 906.539C1387.06 906.71 1386.76 906.318 1388.43 907.615C1387.35 909.361 1387.98 908.82 1385.91 909.562C1399.08 911.114 1411.01 909.42 1424.17 908.933C1441 908.308 1457.94 908.709 1474.77 908.758C1479.44 908.771 1486.23 908.428 1489.25 912.676C1489.81 913.465 1490.07 915.556 1490.29 916.609C1460.13 918.053 1428.84 915.698 1398.58 916.71C1393.71 916.873 1385.16 919.758 1380.91 918.017C1379.24 915.465 1379.12 911.97 1378.73 908.883Z" fill="#DCDCE8"/>
<path d="M1109.69 917.393C1109.74 914.948 1109.64 913.856 1110.53 911.558C1121.35 906.052 1187.22 909.469 1202.44 907.407C1203.61 907.249 1207.17 908.248 1208.34 908.984L1207.6 917.288L1207.21 917.203C1200.08 915.721 1179.55 916.699 1171.29 916.89C1157.26 916.773 1127.65 915.884 1114.75 917.538L1109.69 917.393Z" fill="#DCDCE8"/>
<path d="M1659.01 915.051C1660.32 911.09 1661.49 912.196 1664.84 911.625L1665.3 910.46C1665.73 910.157 1666.25 909.802 1666.84 909.391C1668.04 909.937 1669.42 910.447 1670.73 910.726L1672.21 909.738C1677.75 910.164 1683.62 910.504 1689.13 909.836C1688.32 909.248 1687.54 908.668 1686.69 908.143L1686.17 907.828C1691.84 908.122 1697.13 909.053 1702.81 909.022C1712.66 908.967 1743.09 906.399 1751.4 908.375C1752.71 910.078 1752.47 913.384 1752.54 915.716L1752.43 917.244C1728.73 915.034 1700.31 918.524 1676.02 916.975C1673.37 916.806 1659.42 916.394 1658.04 917.052L1656.47 916.145L1659.01 915.051Z" fill="#D6D5E5"/>
<path d="M1506.02 915.313C1509.14 911.348 1521.11 909.083 1525.88 909.198C1543.08 909.609 1559.88 910.013 1577.14 909.368C1584.73 909.084 1596.78 907.776 1604.01 909.171C1605.35 910.536 1605.44 912.062 1605.87 913.983C1604.5 915.722 1604.15 916.452 1601.62 916.514C1571.37 917.252 1541.05 916.914 1510.78 917.333C1509.03 917.358 1507.3 916.421 1506.02 915.313Z" fill="#DCDCE8"/>
<path d="M597.992 915.214C598.927 912.201 599.039 913.194 598.364 910.295C600.939 909.079 640.939 909.386 646.456 910.442C656.098 912.289 657.997 904.795 658.188 917.137C645.25 915.343 605.352 921.241 597.992 915.214Z" fill="#DCDCE8"/>
<path d="M591.426 891.93C604.51 890.111 634.142 891.647 648.506 891.764L648.733 892.549C640.471 894.072 597.719 891.689 592.815 895.019L591.426 891.93Z" fill="#9693BB"/>
<path d="M674.602 895.918C675.208 895.014 675.478 894.917 676.322 894.225C681.61 893.311 687.79 893.295 692.897 895.051C686.864 896.277 680.689 897.279 674.602 895.918Z" fill="#9693BB"/>
<path d="M1621.84 883.45L1622.61 883.669L1621.8 884.494C1624.03 886.202 1642.51 884.637 1646.26 884.601C1653.07 884.537 1659.84 885.598 1666.62 885.524C1691.72 885.25 1716.84 884.343 1741.94 884.926C1748.54 885.079 1756.05 884.497 1762.46 886.008L1762.76 886.703C1763.36 886.453 1684.96 887.068 1678.83 887.055C1670.29 886.698 1659.68 888.354 1650.77 888.484C1640.82 888.628 1632.06 889.036 1622.06 887.819C1618.75 887.416 1615.89 888.921 1611.87 887.478L1611.76 886.473C1610.12 884.351 1546.25 886.179 1537.16 884.809C1562.51 882.59 1595.81 883.796 1621.84 883.45Z" fill="#7B77AB"/>
<path d="M999.781 892.082C1004.84 890.053 1022.98 891.411 1029.63 891.479C1043.83 891.624 1070.99 887.759 1084.02 892.051C1082.48 893.109 1079.91 892.89 1077.88 892.936C1080.79 893.168 1081.62 893.187 1084.31 894.231L1084.44 895.23C1080.43 897.268 1012.14 896.269 1002.42 894.901C1001.52 894.773 1000.46 892.985 999.781 892.082Z" fill="#9693BB"/>
<path d="M999.781 892.082C1004.84 890.053 1022.98 891.411 1029.63 891.479C1043.83 891.624 1070.99 887.759 1084.02 892.051C1082.48 893.109 1079.91 892.89 1077.88 892.936C1064.51 891.379 1006 894.799 999.781 892.082Z" fill="#7B77AB"/>
<path d="M876.697 892.294C880.947 889.143 922.941 889.391 929.66 892.104C933.209 892.666 938.396 890.115 941.267 894.016L940.521 894.984C934.953 895.666 855.281 895.576 853.242 894.145C857.47 891.656 871.185 891.358 876.092 891.901L876.697 892.294Z" fill="#9693BB"/>
<path d="M876.695 892.294C880.946 889.143 922.939 889.391 929.659 892.104C918.032 892.566 887.949 893.117 876.695 892.294Z" fill="#7B77AB"/>
<path d="M1120.3 894.775C1121.71 893.375 1121.82 892.969 1123.99 892.685C1135.36 891.202 1204.35 890.043 1210.46 894.823C1205.37 896.243 1197.93 894.337 1195.72 894.554C1188.46 895.267 1145.94 893.214 1142.23 894.878C1138.6 895.355 1119.72 897.247 1117.4 895.968C1118.49 894.651 1118.07 895.067 1120.3 894.775Z" fill="#9693BB"/>
<path d="M1544.14 889.355C1544.22 889.356 1544.29 889.344 1544.36 889.359C1557.64 891.963 1572.06 888.887 1585.54 890.625C1581.63 892.988 1565.48 891.539 1559.69 892.487L1558.69 894.221C1548.09 890.409 1525.31 895.969 1519.28 892.681L1520.06 892.014C1527.3 890.514 1536.24 890.962 1543.56 891.74C1543.4 890.721 1543.69 890.225 1544.14 889.355Z" fill="#7B77AB"/>
<path d="M1737.92 889.648C1739.58 891.277 1753.05 889.953 1756.63 890.805C1751.69 893.203 1712.94 892.121 1705.18 892.1C1699.05 892.135 1690.91 893.185 1685.07 891.518C1686.66 890.859 1732.27 889.875 1737.92 889.648Z" fill="#7B77AB"/>
<path d="M849.422 886.376C849.764 886.196 849.864 886.113 850.3 886.054C852.894 885.703 856.401 886.606 859.157 886.578C869.452 886.472 921.424 883.959 926.228 887.055C912.087 887.029 897.905 886.806 883.771 887.202C872.956 887.505 860.901 889.282 850.231 887.796L849.422 886.376Z" fill="#7B77AB"/>
<path d="M1318.82 886.379C1321.46 887.569 1338.05 886.27 1342.83 886.935L1343.01 887.392L1341.81 887.307L1341.49 888.122L1338.01 888.643C1332.69 887.407 1315.13 889.128 1312.21 887.059L1311.36 887.429C1313.27 886.261 1316.58 886.494 1318.82 886.379Z" fill="#7B77AB"/>
<path d="M1475.52 890.691C1476.51 890.923 1477.27 891.624 1478.09 892.211C1475.16 895.459 1468.57 894.054 1464.5 895.374L1463.87 895.582L1462.48 894.886L1462.59 894.169L1464.67 893.839C1464.31 893.656 1463.95 893.477 1463.59 893.304C1467.71 892.699 1471.57 892.051 1475.52 890.691Z" fill="#9693BB"/>
<path d="M1235.88 880.864C1239.58 880.087 1257.57 879.791 1260.29 881.631C1251.66 881.219 1247.02 884.072 1235.88 880.864Z" fill="#69639D"/>
<path d="M1206.56 886.601C1207.06 886.384 1207.1 886.509 1207.6 886.662L1207.22 887.812C1204.02 889.171 1200.55 888.927 1197.15 888.927L1194.46 888.19C1197.24 886.497 1202.96 887.842 1206.56 886.601Z" fill="#7B77AB"/>
<path d="M1530.23 563.69C1532.33 563.589 1535.48 563.676 1537.16 565.053C1542.08 569.06 1548.11 639.045 1549.65 649.744C1567.51 646.734 1587.36 643.377 1605.04 639.952C1599.2 629.607 1587.67 614.851 1584.21 604.511C1581.18 595.444 1602.78 583.934 1610.79 583.39C1619.93 582.767 1620.88 585.64 1627.92 591.103C1638.57 584.147 1641.81 577.239 1649.02 567.223C1678.99 583.654 1651.49 601.654 1656.43 623.487C1657.8 629.545 1676.69 651.743 1685.03 655.683C1690.73 655.344 1697.15 638.056 1700 632.784C1710.8 612.772 1719.59 585.5 1736.84 570.241C1741.09 566.474 1758.08 563.08 1763.79 563.823C1770.02 564.637 1770.9 569.335 1768.9 574.549C1747.63 629.693 1722.71 683.433 1700.58 738.241C1697.08 746.921 1690.46 783.465 1676.91 777.99C1649.85 767.055 1660.49 741.152 1666.91 722.426C1663.24 715.415 1632.89 670.667 1628.92 666.614C1620.31 693.258 1608.78 737.08 1590.94 758.89C1587.58 762.988 1567.81 753.267 1565.05 746.764C1558.96 732.402 1569.1 708.164 1572.99 693.958C1562.14 695.767 1554.94 696.452 1548.06 705.59C1550.22 723.938 1554.73 745.542 1546.71 762.159C1541.33 765.847 1532.91 761.765 1527.86 758.929C1511.24 749.6 1511.75 728.261 1507.45 711.988C1487.58 703.769 1472.59 710.814 1453.42 716.602C1447.56 718.374 1424.31 723.861 1423.99 730.053C1424.64 731.707 1425.55 733.613 1427.09 734.637C1441.22 744.07 1466.07 750.281 1452.66 772.807C1450.43 776.552 1445.15 778.324 1440.82 778.896C1414.71 782.353 1389.96 771.233 1367.42 759.373C1355.93 752.993 1341.91 745.944 1331.59 737.843C1318.47 727.555 1308.85 717.394 1297.95 738.222C1292.87 747.945 1288.34 761.613 1275.9 763.722C1261.65 766.05 1253.06 760.233 1250.24 745.909C1248 734.527 1254.43 726.181 1259.58 716.126L1279.88 676.93L1306.41 625.43C1310.65 617.199 1321.56 594.596 1327.05 588.5C1339.66 577.081 1360.11 576.726 1375.49 576.02C1397.84 574.995 1423.2 577.549 1423.23 605.681C1423.26 636.908 1400.02 652.137 1376.06 666.463C1367.02 671.872 1353.95 682.844 1346.56 690.472C1355.59 698.551 1367.27 704.803 1378.86 708.302C1388.11 703.888 1392.5 694.524 1400.9 688.375C1408.19 682.152 1420.14 680.12 1427.09 673.797C1451.66 651.393 1467.84 620.35 1484.8 592.191C1490.66 582.468 1519.52 565.785 1530.23 563.69ZM1344.24 635.809C1352.38 634.985 1360.17 634.2 1368.27 633.017C1371.13 632.52 1376.36 631.913 1378.62 630.488C1379.85 628.735 1380.14 628.427 1380.03 626.226C1377.18 617.995 1363.41 611.332 1354.79 612.427C1345 618.331 1345.35 625.309 1344.24 635.809ZM1486.04 662.157C1493.08 661.599 1500.28 661.128 1507.28 660.169C1507.13 653.865 1506.93 636.328 1499.8 633.651C1491.01 640.533 1482.82 652.958 1477.25 662.794C1479.86 662.631 1483.53 662.516 1486.04 662.157Z" fill="#E66A27"/>
<path d="M1881.77 921.84C1882.57 931.259 1882.31 942.669 1876.66 950.817L1873.41 956.832C1872.62 957.77 1869.65 961.431 1868.9 961.955C1866.52 964.896 1864.72 967.119 1861.39 969.139C1849.17 977.309 1829.27 975.697 1814.41 975.123C1805.16 975.769 1791 975.343 1781.45 975.338L1721.29 975.287L1675.21 975.291C1667.91 975.317 1655.46 975.731 1648.5 975.069C1644.25 975.253 1639.53 975.274 1635.28 975.224C1605.91 974.878 1576.29 975.701 1546.95 975.007C1539.13 975.67 1525.93 975.298 1517.8 975.281L1467.76 975.229L1398.41 975.214C1384.47 975.233 1369.27 975.611 1355.49 975.002C1348.18 975.663 1331.21 975.15 1323.35 975.15L1260.41 975.017C1258 975.409 1246.76 975.293 1243.54 975.306L1205.47 975.288L1149 975.261C1138.21 975.285 1124.95 975.678 1114.46 975.081C1100.09 975.367 1085.32 975.22 1070.92 975.125C969.614 974.457 867.945 976.408 766.684 975.067C716.514 976.558 665.288 974.253 615.03 975.274C598.877 975.602 581.47 975.701 565.387 974.904L573.321 970.859C573.834 970.587 574.34 970.302 574.84 970.005C585.485 963.627 592.218 949.348 595.221 937.747C596.288 934.765 597.405 930.75 598.364 927.649C598.629 927.628 598.894 927.609 599.159 927.591C616.784 926.402 636.338 928.442 654.264 926.951C656.192 926.79 657.426 927.816 658.763 928.976C659.637 934.249 659.492 943.162 659.564 948.767C672.379 948.778 685.387 948.661 698.177 949.186L697.872 938.281C689.706 937.793 680.281 940.403 674.782 936.467C673.195 934.52 673.713 931.79 673.855 929.207C679.849 922.686 689.424 925.675 697.929 926.392C728.499 928.969 759.207 926.5 789.855 926.905C790.416 926.914 792.275 928.632 792.713 929.184C795.723 936.308 796.744 938.905 802.049 944.591C809.64 950.589 822.187 951.258 830.815 947.108C837.662 943.815 841.183 937.815 843.584 930.922C845.216 929.045 846.071 927.261 848.798 927.194C877.79 926.477 906.795 926.892 935.785 926.339C940.171 926.256 941.132 928.942 942.889 932.427C943.623 934.741 944.114 936.212 945.119 938.415L948.479 942.809C961.627 953.856 968.324 949.932 982.425 945.208C983.685 944.786 985.116 947.369 985.765 948.416C988.333 949.119 989.577 949.283 992.236 949.571L992.296 940.794C992.259 937.078 992.665 932.053 992.869 928.243C995.539 926.38 1011.74 927.531 1016.63 927.594C1030.19 927.656 1043.76 927.542 1057.33 927.253C1065.67 927.11 1076.68 927.234 1084.77 926.084C1087.52 926.077 1090.38 925.701 1092.42 927.447C1093.89 929.486 1093.8 932.37 1093.98 934.939C1093.69 939.865 1093.73 943.72 1093.86 948.661C1099.51 948.943 1102.95 949.139 1108.53 948.571C1108.03 941.213 1108.36 936.579 1108.87 929.331L1109.3 929.236C1111.25 927.624 1112.77 927.684 1115.37 927.773C1149.1 928.925 1182.65 927.785 1216.31 926.666C1219.72 926.553 1230.62 929.093 1234.8 929.69C1238.13 931.231 1237.56 930.409 1239.36 933.177C1238.19 943.215 1223.89 939.971 1217.99 931.59C1214.07 932.319 1208.06 933.088 1204.86 935.082C1207.3 939.349 1208.23 941.27 1211.77 944.677C1225.46 954.36 1247.27 951.338 1255.18 934.968L1256.7 929.89L1257.04 927.564C1290.84 926.818 1324.99 929.035 1358.93 926.358C1360.99 926.195 1362.99 927.058 1364.8 927.972L1364.59 932.684C1365.56 934.937 1365.04 939.44 1364.93 942.076L1364.6 946.347L1365.14 948.149C1368.67 949.704 1373.92 949.163 1377.68 948.628C1378.13 948.233 1378.96 947.564 1379.28 947.123C1378.77 942.204 1379.06 934.727 1379.79 929.824L1379.55 927.472C1384.19 924.894 1447.69 929.937 1459.33 927.83C1465.69 926.679 1480.78 926.244 1487.4 926.607C1489.93 926.914 1490.81 931.227 1491.35 933.25L1490.85 937.369C1491.16 938.589 1491.09 946.936 1491.09 948.75C1496.54 949.054 1499.53 949.305 1504.89 948.551C1504.82 942.865 1505.07 936.446 1505.41 930.762C1506.01 929.814 1507.31 927.042 1508.49 927.072C1538.37 927.827 1568.45 928.133 1598.35 927.237C1604.94 927.04 1604.65 926.187 1607.22 933.198C1608.37 937.269 1609.57 938.631 1612.04 941.972C1613.24 943.124 1614.52 944.184 1615.87 945.144C1626.19 952.307 1643.22 951.118 1651.95 942.085C1653.3 940.692 1655.12 937.939 1656.26 936.288L1658.27 929.992L1659.18 927.512C1664.27 927.896 1677.22 927.065 1683.47 926.99C1706.98 926.711 1738.96 929.462 1761.29 923.51C1768.63 926.549 1772.29 927.79 1780.06 929.397C1783.24 930.775 1782.59 930.017 1784.57 932.571C1784.81 942.012 1768.84 941.222 1765.39 934.289C1761.03 930.145 1755.61 933.037 1749.9 934.447L1753.35 941.274C1765.25 953.379 1789.43 953.478 1798.82 937.991C1800.48 938.825 1803.26 941.209 1804.33 941.218C1816.76 940.83 1828.49 940.596 1841.04 939.634C1852.51 938.754 1870.12 941.869 1879.41 934.869C1881.9 932.996 1881.59 925.129 1881.77 921.84Z" fill="#69639D"/>
<path d="M1084.77 926.081C1087.52 926.075 1090.38 925.699 1092.42 927.444C1093.89 929.484 1093.79 932.368 1093.97 934.937C1093.68 939.862 1093.72 943.718 1093.86 948.658C1099.51 948.941 1102.94 949.137 1108.53 948.569C1108.02 941.211 1108.35 936.576 1108.87 929.329L1109.3 929.234C1111.24 927.622 1112.77 927.681 1115.37 927.771C1149.1 928.922 1182.65 927.782 1216.31 926.664C1219.71 926.551 1230.62 929.09 1234.8 929.688C1238.13 931.228 1237.56 930.407 1239.35 933.174C1238.19 943.212 1223.88 939.968 1217.98 931.587C1214.07 932.316 1208.06 933.085 1204.86 935.079C1207.3 939.347 1208.23 941.267 1211.77 944.675C1210.44 947.092 1207.58 947.732 1204.94 948.698C1205.36 948.898 1205.16 948.839 1205.54 948.903L1204.27 950.549C1205.67 952.662 1209.27 952.162 1212.32 954.814C1211.89 954.904 1211.47 954.991 1211.04 955.074C1207.16 955.857 1190.07 957.092 1189.43 957.531C1193.74 958.529 1210.2 957.589 1211.16 958.27C1205.48 958.327 1192.56 959.767 1187.22 961.609L1187.5 962.304C1195.2 962.707 1215.94 962.435 1222.26 963.62C1208.03 964.243 1193.85 963.609 1179.49 964.405C1156.87 965.659 1134.01 965.043 1111.39 965.39C1098.09 965.593 1085.25 966.083 1071.9 965.508C1065.89 965.25 1059.23 966.269 1052.95 966.115C1047.78 966.189 995.877 965.314 993.936 964.594C998.809 962.69 1008.72 963.064 1018.08 959.982C1019.38 958.614 1023.83 959.281 1027.06 958.588L1026.31 957.816C1021.55 957.182 1011.15 957.482 1005.86 957.404C1009.42 955.035 1016.8 957.552 1018.72 954.854C1017.05 953.478 1011.1 953.13 1008.61 952.831L1010 952.575C1006.16 951.826 994.182 950.81 992.234 949.569L992.294 940.791C992.257 937.076 992.663 932.051 992.867 928.24C995.537 926.377 1011.74 927.529 1016.62 927.592C1030.19 927.654 1043.76 927.54 1057.32 927.251C1065.67 927.107 1076.68 927.232 1084.77 926.081Z" fill="#7B77AB"/>
<path d="M1084.77 926.081C1087.52 926.075 1090.38 925.699 1092.42 927.444C1093.89 929.484 1093.8 932.368 1093.97 934.937L1092.65 938.757C1073.82 940.074 1053.36 939.728 1034.37 940.522C1020.25 941.112 1006.87 938.384 992.295 940.791C992.258 937.076 992.664 932.051 992.868 928.24C995.538 926.377 1011.74 927.529 1016.63 927.592C1030.19 927.654 1043.76 927.54 1057.33 927.251C1065.67 927.107 1076.68 927.232 1084.77 926.081Z" fill="#D6D5E5"/>
<path d="M1109.3 929.237C1111.25 927.626 1112.77 927.685 1115.37 927.774C1149.1 928.926 1182.65 927.786 1216.31 926.668C1219.71 926.555 1230.62 929.094 1234.8 929.692C1238.13 931.232 1237.56 930.411 1239.35 933.178C1238.19 943.216 1223.88 939.972 1217.99 931.591C1214.07 932.32 1208.06 933.089 1204.86 935.083C1199.78 939.664 1139.71 938.226 1129.47 937.858C1121.6 937.577 1108.48 939.861 1109.3 929.237Z" fill="#D6D5E5"/>
<path d="M1027.06 958.587C1033.24 958.25 1034.43 958.987 1040.2 959.217L1041.03 960.356C1039.49 961.124 1020.91 960.442 1018.08 959.981C1019.38 958.613 1023.82 959.28 1027.06 958.587Z" fill="#635D98"/>
<path d="M843.584 930.924C845.217 929.048 846.072 927.264 848.798 927.197C877.791 926.48 906.795 926.894 935.786 926.342C940.172 926.258 941.132 928.944 942.889 932.43C943.624 934.744 944.115 936.214 945.12 938.417L948.479 942.811C961.628 953.858 968.324 949.935 982.426 945.211C983.686 944.788 985.116 947.372 985.765 948.419C988.334 949.122 989.578 949.285 992.237 949.574C994.185 950.815 1006.16 951.831 1010 952.58L1008.61 952.835C1011.1 953.134 1017.05 953.482 1018.73 954.859C1016.8 957.557 1009.42 955.039 1005.86 957.409C1011.15 957.487 1021.55 957.187 1026.31 957.821L1027.06 958.593C1023.83 959.286 1019.38 958.619 1018.08 959.987C1008.72 963.069 998.812 962.695 993.938 964.599C995.88 965.318 1047.78 966.194 1052.96 966.12L1052.96 967.092C1036.39 966.389 1010.57 966.867 994.051 967.228C928.876 968.261 863.689 968.302 798.513 967.349C780.915 967.013 762.571 969.313 744.461 967.244L744.665 966.806C749.001 965.715 753.661 966.111 758.146 966.255C761.762 965.001 764.579 964.86 768.29 964.181C765.076 964.241 752.048 964.237 749.719 962.931C755.378 962.281 777.388 962.518 779.884 961.599C784.884 960.719 790.781 961.602 796.835 960.575C791.098 958.822 766.115 962.365 761.028 958.322C774.889 958.012 788.751 957.794 802.615 957.669L803.279 956.974C796.745 956.164 781.904 957.965 777.107 954.547L777.406 955.808C768.611 956.45 758.272 955.145 748.653 955.267L748.241 954.706L747.609 955.016C753.996 950.785 751.13 955.166 757.912 951.965L758.329 950.789C756.769 950.6 756.617 950.834 755.535 950.034C759.322 947.956 795.477 950.431 802.049 944.594C809.641 950.592 822.188 951.261 830.816 947.111C837.663 943.818 841.184 937.817 843.584 930.924Z" fill="#7A76AB"/>
<path d="M948.479 942.809C961.628 953.856 968.324 949.932 982.426 945.208C983.686 944.786 985.116 947.369 985.765 948.416C988.334 949.119 989.578 949.283 992.237 949.571C994.185 950.812 1006.16 951.828 1010 952.577L1008.61 952.833C1011.1 953.132 1017.05 953.48 1018.73 954.856C1016.8 957.555 1009.42 955.037 1005.86 957.407C1011.15 957.484 1021.55 957.184 1026.31 957.818L1027.06 958.59C1023.83 959.284 1019.38 958.616 1018.08 959.984C1008.72 963.066 998.812 962.693 993.938 964.596C995.88 965.316 1047.78 966.192 1052.96 966.117L1052.96 967.09C1036.39 966.387 1010.57 966.864 994.051 967.225C928.876 968.258 863.689 968.299 798.513 967.346C780.915 967.01 762.571 969.31 744.461 967.242L744.665 966.803C749.001 965.712 753.661 966.109 758.146 966.252C766.725 966.694 785.602 964.704 795.775 964.723C811.471 964.753 845.402 967.28 859.996 964.864C855.618 964.643 844.008 964.64 840.539 964.019C857.496 963.129 872.975 963.029 889.978 963.026L889.09 962.269L895.875 961.25C888.951 960.464 861.193 961.333 857.995 959.949C865.28 958.399 893.051 958.457 902.494 958.078C903.959 956.805 906.341 956.437 908.28 955.957C914.164 955.934 943.843 955.617 947.648 954.125L946.717 953.153L922.338 952.763C923.999 951.356 932.977 948.941 935.42 948.212C939.686 947.999 945.869 948.367 948.944 945.663L948.479 942.809Z" fill="#7873A9"/>
<path d="M889.978 963.027C901.95 963.135 913.923 963.101 925.895 962.925C934.4 962.759 950.576 961.957 958.254 963.231C951.11 964.643 935.273 964.705 927.88 964.692C911.962 964.585 896.043 964.592 880.125 964.714C874.54 964.757 865.28 964.413 859.996 964.865C855.618 964.644 844.008 964.641 840.539 964.02C857.496 963.13 872.975 963.03 889.978 963.027Z" fill="#635D98"/>
<path d="M902.491 958.082C916.373 958.883 932.042 957.182 945.157 958.956C930.754 960.019 916.331 960.329 901.902 960.836C899.897 960.907 897.85 960.897 895.872 961.254C888.948 960.467 861.19 961.336 857.992 959.953C865.276 958.403 893.048 958.461 902.491 958.082Z" fill="#635D98"/>
<path d="M843.582 930.924C845.214 929.048 846.069 927.264 848.796 927.197C877.789 926.48 906.793 926.894 935.783 926.342C940.169 926.258 941.13 928.944 942.887 932.43C941.975 933.681 941.066 934.68 939.578 935.227C932.426 937.854 854.469 938.603 848.627 935.852C848.512 935.797 848.397 935.739 848.281 935.684C845.847 934.521 844.847 933.285 843.582 930.924Z" fill="#D6D5E5"/>
<path d="M945.116 938.414L948.475 942.808L948.94 945.662C945.865 948.366 939.682 947.998 935.417 948.212L879.748 948.357C871.088 948.347 846.565 950.099 841.453 943.441C844.347 940.862 937.457 946.347 945.116 938.414Z" fill="#9693BB"/>
<path d="M922.334 952.761L946.712 953.15L947.644 954.123C943.838 955.615 914.16 955.932 908.275 955.955C896.144 955.877 856.464 956.708 846.984 954.286C850.081 953.032 915.164 952.725 922.334 952.761Z" fill="#8381AE"/>
<path d="M779.883 961.598C785.288 961.87 835.048 962.668 836.362 963.614C821.056 964.098 805.708 963.666 790.41 963.771C784.721 963.81 773.472 963.428 768.29 964.179C765.075 964.239 752.048 964.236 749.719 962.929C755.378 962.28 777.388 962.516 779.883 961.598Z" fill="#635D98"/>
<path d="M1659.17 927.514C1664.27 927.898 1677.22 927.066 1683.47 926.992C1706.97 926.713 1738.96 929.463 1761.29 923.512C1768.63 926.55 1772.28 927.792 1780.06 929.399C1783.23 930.777 1782.59 930.019 1784.57 932.573C1784.81 942.014 1768.83 941.224 1765.38 934.291C1761.03 930.147 1755.6 933.039 1749.9 934.449L1753.35 941.276L1753.4 945.087L1753.12 945.372C1751.79 946.766 1751.35 947.461 1750.3 949.054C1751.2 950.114 1751.92 950.785 1752.36 952.109C1748.34 953.356 1738.86 955.508 1735.03 953.9C1734.45 954.282 1734.44 954.13 1734.23 954.611L1734.51 954.798C1735.81 955.628 1736.17 955.756 1737.62 956.235L1735.84 955.938C1722.97 966.461 1697.49 963.917 1681.67 964.84C1653.08 966.505 1623.72 964.661 1595.24 966.615C1589.46 966.407 1562.2 965.903 1558.56 964.715L1558.47 964.111L1563.48 963.613C1562.27 962.257 1561.33 962.614 1559.04 962.358C1564.51 957.423 1602.37 961.197 1609.86 958.49C1602.9 956.541 1567.32 959.93 1561.62 957.929L1562.19 957.275C1575.82 957.133 1595.43 956.225 1609.21 955.429C1607.4 955.39 1607.96 955.362 1606.33 955.108C1597.65 953.752 1584.43 954.746 1575.75 953.335C1578.24 951.461 1580.6 949.494 1583.67 948.847L1584.18 948.744C1594.14 946.673 1598.49 949.682 1610.43 946.248L1611.53 946.912C1613.2 946.887 1612.55 947.143 1613.86 945.855C1612 943.759 1612.5 944.78 1612.03 941.974C1613.24 943.126 1614.51 944.186 1615.87 945.146C1626.19 952.309 1643.22 951.12 1651.94 942.087C1653.29 940.693 1655.11 937.941 1656.26 936.29L1658.27 929.994L1659.17 927.514Z" fill="#7873A9"/>
<path d="M1659.18 927.514C1664.27 927.898 1677.22 927.066 1683.47 926.992C1706.98 926.713 1738.97 929.463 1761.3 923.512C1768.64 926.55 1772.29 927.792 1780.06 929.399C1783.24 930.777 1782.6 930.019 1784.57 932.573C1784.81 942.014 1768.84 941.224 1765.39 934.291C1761.03 930.147 1755.61 933.039 1749.9 934.449C1733.6 937.89 1673.96 937.647 1656.27 936.29L1658.27 929.994L1659.18 927.514Z" fill="#D6D5E5"/>
<path d="M1780.06 929.398C1783.24 930.776 1782.59 930.018 1784.57 932.572C1784.81 942.013 1768.84 941.224 1765.39 934.29C1771.2 933.92 1775.68 933.441 1780.06 929.398Z" fill="#DCDCE8"/>
<path d="M1735.84 955.936C1731.94 956.133 1728.75 957.259 1724.2 955.613C1726.26 954.172 1731.46 954.556 1734.22 954.609L1734.51 954.796C1735.81 955.626 1736.17 955.754 1737.62 956.233L1735.84 955.936Z" fill="#7B77AB"/>
<path d="M1256.7 929.892L1257.04 927.566C1290.83 926.82 1324.98 929.037 1358.93 926.36C1360.99 926.197 1362.99 927.06 1364.8 927.974L1364.59 932.686C1365.56 934.939 1365.04 939.442 1364.92 942.078L1364.6 946.349C1354.19 948.005 1340.8 946.84 1331.44 948.67L1334.52 950.683L1334.43 951.613C1332.72 952.046 1331.36 952.348 1329.62 952.674C1337.41 953.157 1343.83 951.561 1351.05 954.885C1352.19 955.409 1357.18 954.478 1360.01 956.197C1357.82 956.488 1354.88 955.533 1352.75 955.746C1344.8 956.543 1321.3 955.153 1314.85 956.313L1310.95 957.056C1312.96 957.751 1314.6 957.821 1316.71 958.028C1319.15 958.218 1332.71 959.218 1334.36 959.792L1304.75 960.211C1307.27 962.194 1310.28 961.801 1311.34 963.002C1307.75 963.79 1292.96 967.031 1290.5 967.949C1284.49 968.439 1275.22 967.788 1268.74 967.983C1247.64 968.619 1226.95 967.708 1206.01 967.234C1191.55 966.907 1175.64 968.574 1160.23 968.115C1126.26 967.103 1092.34 967.234 1058.37 967.341L1052.95 967.092L1052.95 966.119C1059.23 966.273 1065.89 965.254 1071.9 965.512C1085.25 966.087 1098.09 965.598 1111.39 965.394C1134.01 965.047 1156.87 965.664 1179.49 964.41C1193.85 963.614 1208.02 964.248 1222.26 963.624C1215.94 962.439 1195.2 962.712 1187.5 962.308L1187.22 961.613C1192.56 959.771 1205.48 958.331 1211.16 958.274C1210.2 957.593 1193.74 958.533 1189.43 957.535C1190.07 957.096 1207.16 955.861 1211.04 955.078C1211.47 954.995 1211.89 954.909 1212.32 954.818C1209.27 952.166 1205.67 952.666 1204.27 950.553L1205.54 948.907C1205.16 948.844 1205.36 948.903 1204.94 948.703C1207.58 947.736 1210.44 947.096 1211.77 944.679C1225.46 954.361 1247.27 951.34 1255.18 934.97L1256.7 929.892Z" fill="#7772A8"/>
<path d="M1256.7 929.892L1257.04 927.566C1290.84 926.82 1324.99 929.037 1358.93 926.36C1360.99 926.197 1362.99 927.06 1364.8 927.974L1364.59 932.686L1364.21 934.212C1360.9 933.561 1347.36 936.302 1342.49 936.645C1329.78 937.54 1265.9 939.457 1258.4 934.202C1256.89 933.144 1257.04 931.609 1256.7 929.892Z" fill="#D6D5E5"/>
<path d="M1364.92 942.074L1364.6 946.345C1354.19 948.001 1340.8 946.836 1331.44 948.666C1311.78 950.087 1288.04 948.367 1268.09 948.075C1262.85 947.998 1255.97 945.794 1250.97 944.157C1261.86 942.042 1288.49 943.75 1300.79 943.915C1322 944.202 1344.13 941.818 1364.92 942.074Z" fill="#9693BB"/>
<path d="M1329.62 952.672C1337.41 953.155 1343.83 951.56 1351.05 954.883C1352.19 955.407 1357.18 954.477 1360.01 956.195C1357.82 956.486 1354.88 955.531 1352.75 955.744C1344.8 956.541 1321.29 955.152 1314.85 956.311C1307.67 953.654 1284.76 958.644 1276.03 954.418C1276.57 954.681 1265.21 954.321 1264.09 954.179L1264.15 953.399C1270.98 951.374 1318.07 953.365 1329.62 952.672Z" fill="#7B77AB"/>
<path d="M1316.71 958.023C1319.15 958.213 1332.71 959.214 1334.36 959.788L1304.75 960.207C1297.41 958.783 1280.51 961.021 1269.85 958.791C1272.14 957.991 1311.23 958.127 1316.71 958.023Z" fill="#635D98"/>
<path d="M1881.77 921.84C1882.57 931.259 1882.3 942.669 1876.65 950.817L1873.41 956.832C1872.62 957.77 1869.65 961.431 1868.9 961.955C1864.45 963.563 1857.12 966.832 1852.87 967.045C1839.71 967.703 1825.79 967.366 1812.6 967.295C1790.47 967.135 1768.34 967.126 1746.2 967.268C1694.32 967.263 1640.92 969.326 1588.87 967.789C1589.87 966.93 1593.25 966.981 1595.24 966.613C1623.72 964.66 1653.08 966.503 1681.67 964.838C1697.49 963.915 1722.97 966.459 1735.84 955.937L1737.62 956.233C1736.17 955.755 1735.81 955.626 1734.51 954.796L1734.23 954.609C1734.44 954.129 1734.45 954.281 1735.03 953.898C1738.86 955.507 1748.34 953.355 1752.36 952.107C1751.92 950.783 1751.2 950.112 1750.3 949.053C1751.35 947.459 1751.79 946.764 1753.12 945.37L1753.4 945.086L1753.35 941.274C1765.24 953.379 1789.43 953.478 1798.82 937.991C1800.48 938.825 1803.25 941.209 1804.32 941.218C1816.76 940.83 1828.49 940.596 1841.04 939.634C1852.5 938.754 1870.11 941.869 1879.41 934.869C1881.89 932.996 1881.58 925.129 1881.77 921.84Z" fill="#7973A9"/>
<path d="M1854.68 955.031C1855.14 955.079 1855.44 955.123 1855.87 955.305C1863.34 958.433 1869.99 954.428 1876.66 950.816L1873.41 956.831C1869.41 956.741 1854.34 957.234 1851.61 959.561L1851.48 957.702L1854.68 955.031Z" fill="#7B77AB"/>
<path d="M1851.6 959.562C1846.86 959.077 1844.66 962.157 1839.12 959.741C1840.94 959.657 1842.16 959.69 1843.94 959.18C1841.67 959.214 1840.49 959.325 1838.29 958.714C1839.69 957.283 1845.95 958.436 1847.78 957.775C1850.02 956.967 1852.36 955.894 1854.67 955.031L1851.47 957.703L1851.6 959.562Z" fill="#635D98"/>
<path d="M1331.44 948.665C1340.8 946.835 1354.19 948 1364.6 946.344L1365.14 948.146C1368.67 949.701 1373.91 949.16 1377.67 948.624C1378.12 948.229 1378.95 947.56 1379.28 947.119C1384.11 948.437 1385.7 949.599 1391.45 950.426C1394.48 950.862 1400.96 950.969 1402.94 951.761C1402.86 952.113 1402.79 952.674 1402.6 952.875C1399.17 952.998 1397.55 955.037 1395.05 957.383L1394.79 958.252L1396.08 957.883C1398.84 955.282 1400.41 955.73 1403.84 956.61C1413.77 958.387 1437.1 955.195 1445.75 958.025C1449.1 958.728 1456.41 959.806 1458.62 961.825C1459.42 965.573 1455.4 966.554 1452.16 966.867C1432.67 968.753 1413.05 967.234 1393.6 967.287L1328.21 967.303C1315.34 967.425 1303.54 968.257 1290.5 967.943C1292.96 967.026 1307.75 963.784 1311.34 962.997C1310.28 961.796 1307.26 962.189 1304.75 960.205L1334.36 959.787C1332.71 959.213 1319.15 958.212 1316.71 958.022C1314.6 957.815 1312.96 957.746 1310.95 957.051L1314.85 956.307C1321.29 955.148 1344.79 956.538 1352.75 955.741C1354.88 955.528 1357.82 956.483 1360.01 956.191C1357.18 954.473 1352.19 955.404 1351.05 954.88C1343.83 951.556 1337.41 953.152 1329.62 952.668C1331.36 952.343 1332.72 952.04 1334.43 951.607L1334.52 950.677L1331.44 948.665Z" fill="#7973A9"/>
<path d="M1396.08 957.882C1398.84 955.282 1400.41 955.73 1403.84 956.61C1413.77 958.387 1437.1 955.194 1445.75 958.024C1429.03 958.775 1412.77 959.198 1396.08 957.882Z" fill="#635D98"/>
<path d="M989.753 971.737C1016.42 970.346 1049.12 971.414 1076.17 971.581L1194.07 971.549L1294.82 971.571C1308 971.55 1324.39 970.324 1336.87 971.084C1331.81 972.625 1323.82 972.013 1318.95 972.442C1306.64 973.525 1270.63 972.061 1260.41 975.017C1258 975.409 1246.76 975.293 1243.54 975.306L1205.47 975.288L1149 975.261C1138.21 975.285 1124.95 975.678 1114.46 975.081C1097.92 970.719 1065.01 973.697 1046.8 974.039C1025.84 974.315 1004.87 974.352 983.908 974.147C966.24 975.287 936.57 974.033 918.469 973.971L846.961 973.588C839.551 973.52 813.625 974.042 808.031 972.013C829.86 970.587 861.642 971.43 884.624 971.515C918.961 971.641 955.734 970.791 989.753 971.737Z" fill="#362E73"/>
<path d="M1379.55 927.474C1384.19 924.896 1447.69 929.939 1459.33 927.832C1465.69 926.681 1480.78 926.246 1487.4 926.609C1489.93 926.916 1490.81 931.229 1491.35 933.252L1490.85 937.371C1473.35 937.829 1390.92 941.949 1380.63 936.659C1379.12 934.781 1379.63 932.305 1379.79 929.826L1379.55 927.474Z" fill="#D6D5E5"/>
<path d="M1505.41 930.764C1506.01 929.816 1507.31 927.044 1508.49 927.074C1538.37 927.829 1568.45 928.135 1598.35 927.239C1604.94 927.042 1604.65 926.189 1607.22 933.2C1606.84 933.756 1606.52 934.424 1605.93 934.774C1598.22 939.392 1517.97 938.354 1507.75 935.666C1505.55 933.673 1506.19 934.15 1505.41 930.764Z" fill="#D6D5E5"/>
<path d="M673.852 929.208C679.845 922.687 689.421 925.676 697.926 926.393C728.495 928.97 759.203 926.501 789.852 926.906C790.412 926.915 792.271 928.633 792.709 929.185C792.868 930.912 792.953 932.141 792.963 933.898L791.895 934.925C782.367 934.5 771.485 935.463 761.8 935.327C732.962 934.924 704.439 935.679 675.611 934.2C673.886 932.571 674.341 932.122 673.852 929.208Z" fill="#D6D5E5"/>
<path d="M1648.5 975.067C1645.23 973.835 1639.79 974.706 1634.96 973.421C1647.08 972.759 1661.94 974.223 1673.36 973.028C1707.07 969.504 1741.94 973.385 1775.32 971.014L1773.1 970.778L1789.28 969.438L1788.95 969.236C1793.71 968.914 1798.47 968.99 1803.21 969.503C1815.47 970.829 1827.8 970.696 1840.11 970.994C1847.12 970.48 1854.45 969.47 1861.39 969.137C1849.17 977.307 1829.27 975.694 1814.41 975.121C1805.16 975.767 1791 975.34 1781.45 975.336L1721.29 975.284L1675.21 975.289C1667.91 975.315 1655.46 975.729 1648.5 975.067Z" fill="#362E73"/>
<path d="M1355.48 975.003C1368.57 971.114 1380.19 972.197 1393.8 972.315C1391.28 971.269 1373.59 972.698 1367.51 971.358C1376.4 969.515 1421.2 971.496 1432.4 971.533L1543.91 971.847C1552.96 971.837 1593.88 970.164 1600.15 972.492C1593.15 973.025 1549.31 972.997 1546.94 975.008C1539.13 975.671 1525.92 975.299 1517.79 975.282L1467.75 975.229L1398.41 975.215C1384.46 975.234 1369.27 975.612 1355.48 975.003Z" fill="#362E73"/>
<path d="M573.321 970.861C577.236 970.631 586.875 971.44 591.926 971.495L637.626 971.549L706.694 971.873C715.88 971.856 761.659 969.585 766.684 975.069C716.514 976.56 665.288 974.255 615.03 975.276C598.877 975.604 581.47 975.703 565.387 974.906L573.321 970.861Z" fill="#362E73"/>
<path d="M598.362 927.648C598.627 927.628 598.892 927.608 599.157 927.59C616.781 926.402 636.336 928.441 654.262 926.95C656.19 926.79 657.424 927.815 658.761 928.976C658.81 931.753 659.171 935.452 658.062 937.879C651.528 939.437 598.626 939.942 595.219 937.746C596.286 934.765 597.403 930.749 598.362 927.648Z" fill="#D6D5E5"/>
<path d="M994.05 967.223C1010.57 966.862 1036.39 966.385 1052.95 967.088L1058.37 967.337C1061.26 967.363 1062.15 967.904 1064.82 969.104L1065.08 969.944C1062 970.511 1027.88 970.605 1023.34 970.377C1008.15 969.614 981.292 971.583 967.461 969.959L967.472 970.006L969.371 970.212L968.379 969.697C976.308 968.53 985.509 969.37 993.726 967.307L994.05 967.223Z" fill="#362E73"/>
<path d="M761.026 958.321C743.834 958.117 725.263 960.703 707.172 958.459C705.239 959.522 703.365 960.294 701.344 961.165C701.414 959.918 703.082 960.003 704.577 958.374L702.112 957.697L702.086 956.625C704.169 954.828 706.9 955.913 708.67 955.653C709.241 955.569 711.506 953.222 714.086 952.949C711.965 954.353 711.087 954.884 709.335 956.719L709.708 957.265C715.89 958.365 773.711 957.791 777.404 955.807L777.104 954.546C781.901 957.964 796.742 956.163 803.276 956.974L802.613 957.668C788.749 957.794 774.886 958.011 761.026 958.321Z" fill="#635D98"/>
<path d="M1402.6 952.875C1409.09 954.422 1419.02 950.802 1425.67 951.814C1433.19 952.957 1434.74 954.586 1442.71 954.593C1435.89 956.714 1415.39 953.546 1403.84 956.611C1400.42 955.73 1398.84 955.282 1396.08 957.883L1394.79 958.252L1395.05 957.383C1397.56 955.037 1399.17 952.999 1402.6 952.875Z" fill="#8381AE"/>
<path d="M640.061 953.32C647.491 955.864 657.626 951.803 664.723 955.121C659.6 958.968 648.821 958.396 642.551 958.35C638.617 958.375 620.202 959.132 617.84 957.363C624.788 954 632.97 956.337 639.81 953.43C639.894 953.395 639.977 953.357 640.061 953.32Z" fill="#7B77AB"/>
<path d="M663.578 962.135C669.357 961.282 695.625 961.477 699.968 963.739L698.842 964.173C691.901 964.11 673.588 965.979 668.036 964.177C666.545 963.691 665.064 963.509 663.516 963.294L663.578 962.135Z" fill="#635D98"/>
<path d="M1455.77 955.731C1459.58 955.43 1469.27 955.783 1472.66 957.316C1466.31 957.787 1461.7 959.241 1455.77 955.731Z" fill="#635D98"/>
<path d="M642.648 510.362C642.901 510.322 643.155 510.281 643.408 510.24C680.044 508.938 719.231 515.22 748.398 538.984C765.944 553.279 783.154 582.283 785.53 604.862C756.065 606.512 724.776 609.983 695.044 612.336C684.614 552.831 621.052 558.317 611.551 613.102C607.224 638.058 605.339 681.639 619.215 703.112C625.61 712.881 635.593 719.742 647.006 722.211C662.257 725.462 682.772 721.697 692.448 708.422C696.894 702.322 697.785 697.315 699.3 690.079C685.661 689.622 661.895 689.741 648.538 690.314C648.09 671.599 648.465 651.276 648.437 632.427C657.627 631.879 670.929 632.252 680.354 632.264L738.515 632.347L785.457 632.375L785.386 784.354C770.1 784.18 754.813 784.178 739.528 784.349C736.711 774.808 731.979 765.054 728.076 755.741C707.399 777.107 687.661 784.502 658.074 787.319C621.136 790.977 584.02 781.025 555.082 757.609C496.698 710.365 497.384 610.451 543.522 555.049C570.419 522.75 602.509 514.033 642.648 510.362Z" fill="#1C1C1C"/>
<path d="M927.146 579.305C928.06 579.213 928.975 579.133 929.891 579.069C965.577 576.592 1005.45 584.43 1032.92 608.504C1052.53 625.386 1064.5 649.471 1066.09 675.298C1070.35 740.461 1018.44 783.227 956.847 786.878C921.699 790.264 887.486 784.459 858.374 762.714C814.761 730.254 804.848 667.006 838.518 623.75C861.846 593.782 891.063 583.715 927.146 579.305ZM947.966 738.903C953.574 737.553 960.761 734.71 963.198 728.907C972.829 705.967 973.526 674.851 968.171 650.872C964.314 633.603 954.617 628.003 937.763 628.803C930.812 630.85 924.098 633.93 920.892 641.003C911.745 661.187 912.48 685.858 914.756 707.546C916.836 727.366 925.79 741.58 947.966 738.903Z" fill="#1C1C1C"/>
<path d="M1392.36 510.386C1395.45 509.749 1402.02 510.075 1405.47 510.147C1406.96 511.089 1408.41 512.09 1409.82 513.148C1423.4 523.465 1416.97 532.144 1408.81 543.134C1396.83 559.276 1383.36 555.32 1365.85 557.004C1348.5 558.672 1330.88 559.498 1313.55 561.195C1304.17 578.195 1295 597.184 1286.09 614.614L1233.98 716.261C1228.39 727.076 1222.86 737.923 1217.4 748.802C1206.5 770.6 1205.54 782.736 1178.91 781.841C1140.2 780.542 1169.02 737.52 1178.35 721.149C1185.6 708.529 1192.77 695.862 1199.85 683.148C1220.26 649.698 1238.66 614.407 1259.39 581.062C1261.2 578.15 1265.47 571.606 1265.33 568.47C1257.34 561.381 1216.33 577.565 1205.99 580.619C1198.92 582.7 1191.7 584.276 1184.39 585.336C1163.76 588.202 1140.14 586.051 1120.89 578.083C1121.09 560.156 1129.87 532.73 1149.63 527.095C1160.45 524.006 1175.31 522.986 1186.66 521.978C1204.64 520.298 1222.66 518.994 1240.69 518.066L1353.56 511.915C1366.56 511.223 1379.02 511.257 1392.36 510.386Z" fill="#E66A27"/>
<path d="M1825.18 548.301C1842.49 548.249 1860.97 551.342 1850.25 572.53C1844.59 583.694 1838.88 591.097 1827.76 597.677C1825.86 598.81 1820.69 602.626 1819.37 604.284C1817.54 621.742 1847.7 645.236 1858.01 660.423C1878.74 690.313 1898.72 726.978 1873.48 760.652C1850.01 792.853 1820.61 800.431 1783.82 807.526C1740.02 815.969 1697.7 821.685 1653.38 825.561C1636.45 827.042 1614.34 831.848 1597.05 834.591C1588.93 835.914 1562.55 841.399 1559.4 830.376C1559.55 824.768 1565.56 819.79 1569.92 816.717C1597.45 797.324 1631.63 791.983 1663.32 784.495C1692.89 777.327 1730.61 770.153 1759.68 764.242C1816.39 752.713 1852.93 748.177 1806.26 686.258C1793.95 669.929 1777.16 636.919 1772.95 616.509C1770.21 603.239 1782.71 584.019 1790.35 574.013C1799.49 562.537 1809.68 550.16 1825.18 548.301Z" fill="#E66A27"/>
<path d="M511.629 906.846C526.098 853.173 582.458 858.688 591.345 907.951C591.583 914.284 590.635 917.321 590.412 923.422C590.29 926.753 591.244 929.824 591.238 933.275C589.725 940.365 588.509 945.108 584.886 951.41L582.919 954.48C580.114 959.558 573.973 965.251 568.957 968.133C549.634 979.235 529.302 970.547 518.607 952.172L517.565 950.662C514.636 945.056 513.403 941.485 512.133 935.353C510.706 927.148 510.394 915.027 511.629 906.846Z" fill="#F7F7F8"/>
<path d="M511.633 906.846C526.102 853.173 582.462 858.688 591.348 907.951C586.665 905.698 561.224 906.369 554.693 906.411C547.099 906.46 516.169 904.159 511.633 906.846Z" fill="#8381AE"/>
<path d="M591.237 933.273C589.725 940.364 588.509 945.106 584.886 951.408L582.919 954.479C580.114 959.556 573.973 965.25 568.957 968.132C549.634 979.233 529.302 970.546 518.607 952.171L517.565 950.661C514.636 945.055 513.402 941.484 512.133 935.352C533.41 938.645 562.753 934.939 584.73 935.789C587.781 935.908 589.225 935.48 591.237 933.273Z" fill="#9693BB"/>
<path d="M518.609 952.168C527.761 956.486 571.349 954.384 582.921 954.476C580.116 959.553 573.976 965.247 568.959 968.129C549.637 979.23 529.304 970.543 518.609 952.168Z" fill="#635D98"/>
<path d="M517.566 950.66C542.879 952.35 559.822 951.54 584.887 951.408L582.92 954.478C571.348 954.386 527.759 956.489 518.608 952.171L517.566 950.66Z" fill="#8381AE"/>
<path d="M1785.08 1017.08C1791.1 1016.62 1796.99 1016.44 1802.36 1019.73C1807.42 1022.84 1810.26 1028.04 1811.58 1033.7C1814.23 1045.12 1814.25 1071.95 1807.72 1082.01C1804.67 1086.72 1799.72 1088.41 1794.52 1089.55C1788.78 1089.85 1782.3 1089.64 1777.25 1086.62C1772.35 1083.7 1770.14 1078.49 1768.83 1073.16C1765.8 1060.78 1764.8 1036.17 1771.87 1024.96C1775.05 1019.94 1779.59 1018.31 1785.08 1017.08ZM1793.33 1079.38C1797.62 1076.1 1798.24 1072.89 1798.91 1067.75C1799.87 1060.43 1801.05 1034.8 1796.37 1029.28C1794.94 1027.6 1792.78 1027.18 1790.68 1027.09C1789.51 1027.05 1788.34 1027.04 1787.18 1027.08C1784.09 1028.89 1782.99 1030.36 1782.07 1033.84C1779.84 1042.33 1778.83 1068.98 1783.2 1076.13C1784.06 1077.51 1785.64 1078.45 1787.2 1078.82C1789.14 1079.27 1791.34 1079.28 1793.33 1079.38Z" fill="#1C1C1C"/>
<path d="M1145.62 1017.09C1151.13 1016.55 1157.25 1016.56 1162.34 1018.98C1167.15 1021.27 1169.65 1025.1 1171.3 1030.05C1175.42 1042.41 1175.72 1068.62 1169.66 1080.24C1166.83 1085.65 1162.3 1087.73 1156.77 1089.39C1150.54 1089.83 1143.77 1089.95 1138.22 1086.65C1133.42 1083.78 1131.13 1078.76 1129.82 1073.53C1126.75 1061.37 1125.99 1035.84 1132.75 1024.95C1135.84 1019.97 1140.24 1018.39 1145.62 1017.09ZM1153.26 1079.57C1156.5 1077.81 1157.87 1076.36 1158.89 1072.76C1161.2 1064.52 1161.96 1037.29 1157.79 1030.12C1157.06 1028.86 1155.85 1027.8 1154.41 1027.46C1152.6 1027.02 1150.45 1027.08 1148.58 1027.03C1145.88 1028.26 1144.6 1029.33 1143.51 1032.13C1140.28 1040.41 1139.97 1067.39 1143.69 1075.35C1144.38 1076.84 1145.45 1077.98 1147.04 1078.53C1148.94 1079.18 1151.26 1079.33 1153.26 1079.57Z" fill="#1C1C1C"/>
<path d="M1564.24 1017.07C1569.69 1016.48 1575.92 1016.6 1580.86 1019.19C1585.55 1021.65 1588.29 1025.84 1589.85 1030.8C1593.12 1041.24 1593.33 1070.35 1588.02 1079.95C1584.82 1085.75 1580.44 1087.81 1574.37 1089.47C1568.34 1089.88 1561.49 1089.81 1556.18 1086.53C1551.28 1083.51 1549 1077.91 1547.78 1072.51C1545.29 1061.44 1544.72 1034.32 1551.01 1024.79C1554.28 1019.85 1558.74 1018.23 1564.24 1017.07ZM1572.19 1079.44C1575.88 1076.88 1576.79 1074.84 1577.58 1070.5C1579.15 1062.02 1580.48 1036.23 1575.55 1029.51C1574.52 1028.12 1572.86 1027.44 1571.18 1027.2C1569.58 1026.97 1567.87 1027.04 1566.25 1027.08C1562.9 1029.15 1561.81 1030.95 1560.91 1034.8C1559.04 1042.85 1558 1069.41 1562.18 1076.11C1563.21 1077.76 1564.83 1078.51 1566.69 1078.9C1568.47 1079.27 1570.37 1079.34 1572.19 1079.44Z" fill="#1C1C1C"/>
<path d="M1823.48 1018.52C1828.82 1018.13 1834.3 1018.38 1839.66 1018.4C1846.88 1035.05 1853.47 1052.21 1860.04 1069.15L1859.05 1018.42L1871.25 1018.37C1870.89 1041.55 1871.9 1064.8 1870.99 1087.98C1866.03 1088.49 1860.86 1088.03 1855.87 1087.84C1848.62 1071.54 1842.26 1054.54 1835.89 1037.86C1833.56 1053.88 1835.8 1071.95 1835.61 1088.24C1831.58 1088.26 1827.51 1087.97 1823.49 1087.8L1823.48 1018.52Z" fill="#1C1C1C"/>
<path d="M1201.54 1017.07C1202.14 1017 1202.75 1016.95 1203.36 1016.93C1210.3 1016.67 1217.65 1016.89 1223.01 1021.99C1228.32 1027.05 1228.66 1033.69 1228.92 1040.51C1224.93 1040.68 1220.91 1040.42 1216.92 1040.28C1216.4 1037.09 1216.02 1032.81 1214.07 1030.18C1212.66 1028.27 1210.53 1027.33 1208.21 1027.07C1205.96 1026.81 1203.72 1027.46 1202 1028.96C1198.06 1032.38 1197.08 1038.37 1196.69 1043.33C1195.99 1052.26 1194.55 1069.49 1200.86 1076.61C1202.44 1078.39 1204.66 1079.07 1207 1079.17C1208.73 1079.25 1210.42 1078.63 1211.68 1077.44C1215.85 1073.58 1215.83 1066.62 1216.12 1061.39L1207.2 1061C1207.16 1058.3 1206.41 1052.02 1208.02 1049.93C1214.83 1049.75 1221.67 1049.92 1228.49 1049.99C1228.68 1062.76 1228.66 1075.52 1228.43 1088.28L1219.19 1087.88C1218.98 1086.22 1218.72 1084.61 1218.36 1082.96C1215.76 1082.78 1210.81 1088.47 1207.06 1089.28C1202.75 1090.21 1196.17 1088.85 1192.47 1086.38C1187.89 1083.33 1185.53 1077.31 1184.42 1072.1C1181.76 1059.62 1181.24 1035.65 1188.54 1024.75C1191.93 1019.7 1195.88 1018.23 1201.54 1017.07Z" fill="#1C1C1C"/>
<path d="M941.745 1018.58C947.614 1018.07 953.66 1018.39 959.551 1018.43C962.628 1032.58 974.627 1077.16 974.291 1088.29C969.921 1088.23 965.54 1087.99 961.172 1087.82L958.223 1072.01L957.389 1070.72C952.809 1069.74 947.504 1070.32 942.822 1070.41C941.331 1076.24 940.321 1082.27 939.095 1088.17L925.961 1087.9C931.803 1065.02 936.946 1041.7 941.745 1018.58ZM953.161 1060.26L955.169 1059.69C955.876 1055.77 952.169 1035.4 950.12 1032.12C948.425 1040.94 945.743 1050.55 945.411 1059.49C947.185 1060.65 951.019 1060.22 953.161 1060.26Z" fill="#1C1C1C"/>
<path d="M671.204 1018.38C680.971 1018.23 701.243 1015.47 708.584 1022.54C712.545 1026.35 714.034 1032.09 714.103 1037.43C714.178 1043.17 712.623 1049.55 708.462 1053.7C702.592 1059.56 691.937 1058.3 684.26 1058.37C684.106 1068.32 684.028 1078.26 684.027 1088.21C679.78 1088.21 675.508 1087.99 671.261 1087.87C670.388 1064.83 671.056 1041.43 671.204 1018.38ZM684.102 1048.04C689.109 1048.49 694.407 1049.33 698.813 1046.3C700.406 1042.88 702 1037.58 700.644 1033.84C699.791 1031.5 697.624 1029.99 695.407 1029.03C692.299 1027.69 687.526 1028.3 684.167 1028.37L684.102 1048.04Z" fill="#1C1C1C"/>
<path d="M620.289 1018.38C630.106 1018.26 650.345 1015.53 657.581 1022.66C661.442 1026.46 662.901 1032.12 662.974 1037.4C663.053 1043.13 661.512 1049.59 657.314 1053.74C651.427 1059.56 640.762 1058.28 633.086 1058.36C632.711 1068.28 632.921 1078.28 632.784 1088.21C628.637 1088.2 624.472 1087.98 620.327 1087.84C620.197 1064.69 620.184 1041.53 620.289 1018.38ZM632.928 1048.01C638.181 1048.49 642.957 1049.12 647.733 1046.37C649.222 1042.71 650.814 1037.36 649.27 1033.52C648.363 1031.26 646.279 1029.8 644.089 1028.91C641.042 1027.66 636.263 1028.34 632.987 1028.44L632.928 1048.01Z" fill="#1C1C1C"/>
<path d="M1676.48 1018.37L1689.51 1018.42L1689.58 1030.16C1689.35 1043.78 1693.21 1074.68 1683.61 1084.47C1679.46 1088.71 1673.58 1089.82 1667.87 1089.86C1661.79 1089.9 1655.48 1088.68 1651.05 1084.2C1648.1 1081.21 1646.6 1077.38 1645.78 1073.32C1643.41 1061.57 1645.19 1032.18 1645.29 1018.49C1649.56 1018.17 1653.94 1018.42 1658.23 1018.49C1658.31 1027.61 1655.75 1070.61 1660.49 1075.9C1662.25 1077.85 1664.93 1079.12 1667.57 1079.08C1669.55 1079.05 1671.31 1078.19 1672.67 1076.77C1674.66 1074.71 1675.6 1071.67 1676.08 1068.91C1677.95 1058.3 1676.49 1030.64 1676.48 1018.37Z" fill="#1C1C1C"/>
<path d="M563.147 1018.52C567.524 1018.17 572.046 1018.41 576.441 1018.45C576.148 1030.26 574.994 1060.81 576.838 1071.29C577.179 1073.23 577.8 1074.82 579.139 1076.29C580.913 1078.23 583.253 1078.78 585.801 1078.86C587.889 1078.92 589.64 1078.51 591.172 1077C597.075 1071.21 594.738 1028.49 594.793 1018.37L607.513 1018.44L607.459 1028.88C607.519 1042.38 610.748 1075.47 601.669 1084.54C597.592 1088.62 591.94 1089.81 586.362 1089.86C580.082 1089.91 573.701 1088.83 569.108 1084.15C566.345 1081.34 564.785 1077.64 563.989 1073.82C561.366 1061.24 563.142 1032.8 563.147 1018.52Z" fill="#1C1C1C"/>
<path d="M1442.23 1017.16C1448.38 1016.37 1454.18 1016.71 1459.45 1020.33C1463.69 1023.23 1467.39 1028.28 1468.19 1033.44C1468.59 1036.03 1468.02 1037.51 1466.53 1039.59C1462.98 1040.45 1458.84 1039.7 1455.23 1039.42C1454.79 1035.65 1454.81 1031.8 1451.65 1029.18C1450.02 1027.83 1447.75 1026.76 1445.58 1027.1C1443.92 1027.37 1442.65 1028.22 1441.7 1029.6C1440.53 1031.28 1440.23 1033.64 1440.65 1035.61C1442.03 1042.27 1452.16 1046.85 1457.34 1050.39C1462.57 1053.95 1467.49 1058.73 1468.62 1065.21C1469.58 1070.69 1467.89 1077.96 1464.55 1082.41C1460.94 1087.22 1455.71 1088.62 1450.09 1089.49C1443.8 1089.62 1437.23 1089.08 1432.45 1084.46C1426.79 1078.99 1426.66 1070.86 1426.55 1063.55L1439.43 1063.48C1439.43 1066.15 1439.27 1069.13 1439.73 1071.75C1440.2 1074.39 1443.18 1078.09 1445.41 1079.47C1446.29 1080.02 1447.85 1080.44 1448.86 1080.16C1451.51 1079.4 1453.34 1076.94 1454.55 1074.59C1460.97 1062.08 1431.96 1054.27 1427.83 1040.47C1426.3 1035.36 1427.47 1030.03 1429.98 1025.42C1432.78 1020.27 1436.91 1018.68 1442.23 1017.16Z" fill="#1C1C1C"/>
<path d="M1512.17 1017.11C1518.3 1016.5 1525.41 1016.71 1530.39 1020.82C1536.21 1025.61 1536.7 1032.87 1537.45 1039.8C1533.15 1040.09 1528.84 1039.79 1524.54 1039.6C1524.3 1035.77 1524.44 1031.99 1521.37 1029.21C1519.99 1027.94 1518.05 1027.07 1516.13 1027.21C1514.22 1027.35 1512.37 1028.49 1511.19 1029.97C1510.08 1031.37 1509.39 1033.21 1509.7 1035.01C1510.82 1041.64 1521.96 1047.14 1527.15 1050.66C1532.27 1054.14 1536.95 1058.67 1538.05 1065.02C1538.96 1070.3 1537.48 1077.83 1534.29 1082.2C1530.6 1087.27 1524.91 1088.7 1519.07 1089.55C1512.86 1089.5 1506.38 1088.86 1501.74 1084.22C1496.18 1078.66 1496.18 1070.82 1496.18 1063.52L1508.85 1063.47C1508.89 1066.06 1508.77 1068.95 1509.27 1071.49C1509.82 1074.28 1512.35 1077.78 1514.78 1079.27C1516.23 1080.16 1517.86 1080.54 1519.5 1079.94C1521.32 1079.26 1522.84 1077.02 1523.71 1075.38C1530.97 1061.7 1501.76 1054.81 1497.58 1040.63C1496.17 1035.85 1496.71 1029.66 1499.21 1025.31C1502.06 1020.36 1506.94 1018.43 1512.17 1017.11Z" fill="#1C1C1C"/>
<path d="M527.953 1017.05L528.361 1017.02C534.626 1016.59 541.39 1016.88 546.313 1021.31C551.697 1026.16 552.052 1033.07 552.439 1039.78C548.244 1039.96 544.332 1039.76 540.166 1039.24C539.768 1035.93 539.66 1031.88 536.952 1029.61C535.337 1028.26 532.914 1026.82 530.712 1027.08C529.009 1027.28 527.732 1028 526.707 1029.39C525.473 1031.05 525.288 1033.82 525.613 1035.79C526.68 1042.27 538.044 1047.46 542.912 1050.91C547.953 1054.49 552.691 1059.38 553.679 1065.71C554.535 1071.19 552.528 1077.97 549.264 1082.39C545.245 1087.84 539.543 1088.85 533.288 1089.73C527.454 1089.31 521.654 1088.56 517.227 1084.32C511.601 1078.92 511.332 1070.79 511.242 1063.52L524.202 1063.5C524.191 1066.05 523.999 1068.91 524.437 1071.41C524.921 1074.18 527.665 1077.78 530.004 1079.28C531.233 1080.07 532.748 1080.43 534.167 1080.05C536.452 1079.44 538.093 1077.02 539.187 1075.08C546.501 1062.09 516.456 1054.53 512.638 1039.87C511.356 1034.95 512.373 1028.95 515.063 1024.65C518.057 1019.86 522.756 1018.25 527.953 1017.05Z" fill="#1C1C1C"/>
<path d="M1280.54 1017.05C1281.78 1016.97 1283.03 1016.9 1284.27 1016.87C1289.66 1016.72 1295.5 1017.89 1299.48 1021.81C1304.53 1026.79 1304.77 1033.24 1304.77 1039.85C1300.7 1040 1296.84 1039.72 1292.79 1039.25C1292.37 1035.64 1292.3 1031.88 1289.39 1029.3C1287.84 1027.92 1285.59 1026.76 1283.46 1026.98C1281.7 1027.16 1280.41 1028.23 1279.42 1029.6C1278.21 1031.26 1277.97 1033.77 1278.35 1035.75C1279.68 1042.78 1290.56 1047.33 1295.89 1051.11C1300.79 1054.59 1305.11 1059.31 1306.05 1065.44C1306.87 1070.74 1305.21 1078.39 1301.88 1082.68C1297.9 1087.79 1291.86 1088.87 1285.87 1089.7C1280.15 1089.44 1274.15 1088.39 1269.84 1084.33C1264.17 1078.99 1264.26 1070.72 1264.09 1063.54L1276.78 1063.49C1276.8 1066.06 1276.67 1068.82 1277.04 1071.36C1277.44 1074.17 1280.32 1077.61 1282.59 1079.16C1283.72 1079.93 1285.35 1080.43 1286.69 1080.12C1288.85 1079.61 1290.26 1077.8 1291.33 1075.98C1299.82 1061.63 1269.04 1054.73 1265.26 1039.86C1264.01 1034.98 1264.99 1028.93 1267.66 1024.66C1270.64 1019.89 1275.36 1018.27 1280.54 1017.05Z" fill="#1C1C1C"/>
<path d="M841.741 1017.07C841.833 1017.06 841.926 1017.05 842.018 1017.04C848.64 1016.54 856.024 1016.33 861.33 1021.04C866.947 1026.03 867.398 1033.28 867.82 1040.24L854.954 1040.1C854.7 1036.88 854.803 1032.46 852.973 1029.7C852.045 1028.3 850.593 1027.48 848.957 1027.21C847.305 1026.92 845.608 1027.33 844.263 1028.33C841.209 1030.63 840.112 1035.16 839.646 1038.75C838.438 1048.04 836.928 1069.91 842.744 1077.23C843.627 1078.34 844.577 1078.95 846.034 1079.06C848.108 1079.21 850.283 1078.72 851.831 1077.27C854.885 1074.4 854.564 1068.14 854.759 1064.28L855.26 1063.54C859.215 1062.54 863.675 1063.09 867.724 1063.23C867.666 1069.01 867.317 1075.74 864.34 1080.85C861.76 1085.28 857.66 1087.78 852.783 1089.08C847.33 1090.53 841.465 1090.29 836.513 1087.4C831.441 1084.44 828.411 1079.32 826.94 1073.75C823.725 1061.6 823.48 1036.24 830.061 1025.07C832.963 1020.14 836.437 1018.46 841.741 1017.07Z" fill="#1C1C1C"/>
<path d="M1396.52 1017.13C1403.46 1016.29 1410.12 1016.44 1415.86 1021.02C1419.9 1024.24 1423.03 1029.47 1423.5 1034.66C1423.7 1036.86 1423.03 1038.08 1421.66 1039.71C1418.49 1040.89 1414.25 1040.19 1410.9 1040.02C1410.31 1036.96 1409.92 1032.81 1408.31 1030.14C1407.4 1028.62 1406.07 1027.61 1404.31 1027.22C1402.71 1026.87 1401.16 1027.08 1399.79 1027.99C1396.82 1029.98 1395.56 1034.26 1394.94 1037.57C1393.18 1046.95 1392.05 1069.28 1397.54 1077.38C1398.86 1078.3 1400.06 1078.66 1401.63 1078.9C1403.01 1079.12 1404.74 1079.01 1405.9 1078.16C1409.58 1075.48 1409.67 1070.02 1410.24 1065.88C1410.2 1064.79 1410.37 1064.53 1410.83 1063.59C1414.59 1062.38 1418.91 1063.01 1422.79 1063.19C1422.62 1068.8 1422.6 1074.68 1420.06 1079.83C1417.77 1084.45 1413.72 1087.25 1408.9 1088.79C1403.35 1090.55 1397.32 1090.55 1392.13 1087.72C1387.03 1084.94 1383.88 1079.94 1382.29 1074.47C1378.96 1063.11 1379.05 1036.21 1384.87 1025.67C1387.72 1020.51 1391.09 1018.71 1396.52 1017.13Z" fill="#1C1C1C"/>
<path d="M876.599 1018.38C880.808 1018.34 885.18 1018.44 889.404 1018.47L889.454 1045.49C895.554 1045.62 901.655 1045.71 907.756 1045.76C912.373 1038.23 903.255 1017.73 915.795 1020.68C916.853 1021.72 917.512 1023.62 917.522 1024.98C917.572 1032.52 919.103 1081.27 916.669 1085.28C913.452 1085.88 914.641 1086.03 911.704 1084.96C905.374 1078.43 911.701 1061.08 907.51 1055.69C906.205 1055.73 906.644 1055.46 905.899 1056.13C901.416 1056.53 894.191 1056.34 889.496 1056.35C889.13 1066.4 889.364 1077.95 889.326 1088.12C885.57 1088.25 880.419 1087.97 876.559 1087.86C876.001 1065.7 876.429 1040.59 876.599 1018.38Z" fill="#1C1C1C"/>
<path d="M1008.38 1020.24C1011.73 1020.27 1017.31 1020.12 1020.46 1020.34C1025.79 1029.6 1036.1 1064.06 1042.06 1066.64C1049.54 1063.04 1040.75 1028.08 1044.53 1021.13C1047.15 1019.95 1046.58 1020.34 1049.77 1020.62C1051.58 1022.18 1052.07 1023.91 1052.11 1026.49C1052.37 1042.05 1051.69 1057.81 1051.9 1073.4C1051.95 1076.9 1051.65 1085.39 1052.17 1088.4C1047.61 1088.14 1043.05 1087.91 1038.49 1087.71C1035.31 1078.63 1022.14 1045.14 1018.19 1038.41L1017.34 1037.61C1012.79 1043.82 1019.61 1076.08 1015.38 1084.47C1015.06 1085.11 1010.89 1084.96 1010.2 1084.88C1008.17 1082.93 1008.28 1081 1008.29 1077.75C1008.34 1058.59 1008.37 1039.4 1008.38 1020.24Z" fill="#1C1C1C"/>
<path d="M750.344 1018.57C754.983 1018.18 759.782 1018.42 764.442 1018.44C767.316 1024.98 769.76 1037.04 774.614 1041.92L775.936 1041.81C780.477 1036.77 783.012 1024.99 785.318 1018.46C789.912 1018.28 794.519 1018.49 799.113 1018.61L785.418 1049.92C779.6 1062.33 781.285 1074.9 780.912 1088.2C776.719 1088.24 772.487 1087.96 768.295 1087.8C768.087 1079.8 768.879 1071.61 768.015 1063.65C766.472 1049.46 756.454 1031.66 750.344 1018.57Z" fill="#1C1C1C"/>
<path d="M1695.93 1018.5C1710.14 1017.77 1724.67 1018.32 1738.91 1018.45L1738.81 1029.94L1724.27 1029.89C1723.68 1044.19 1724.13 1058.73 1724.13 1073.05L1724.1 1088.08C1719.72 1088.24 1715.28 1087.91 1710.9 1087.71L1710.89 1030.03C1705.9 1030.07 1700.94 1029.9 1695.96 1029.63L1695.93 1018.5Z" fill="#1C1C1C"/>
<path d="M1309.3 1018.47C1323.64 1018.27 1337.97 1018.26 1352.31 1018.42L1352.21 1029.94L1337.75 1029.91C1336.82 1044.17 1337.46 1058.76 1337.48 1073.05L1337.46 1088.07C1333.1 1088.21 1328.69 1087.92 1324.34 1087.78L1324.36 1030.06C1319.39 1030.02 1314.41 1029.92 1309.43 1029.77L1309.3 1018.47Z" fill="#1C1C1C"/>
<path d="M1602.64 1018.56C1606.97 1018.37 1611.38 1018.56 1615.72 1018.61L1615.7 1076.41C1623.65 1076.84 1631.75 1076.62 1639.72 1076.69L1639.67 1088.13C1627.34 1088.16 1615 1088.09 1602.67 1087.91C1602.05 1064.84 1602.57 1041.64 1602.64 1018.56Z" fill="#1C1C1C"/>
<path d="M1086.44 1018.54C1090.74 1018.35 1095.11 1018.53 1099.41 1018.56C1099.65 1037.84 1099.44 1057.16 1099.45 1076.45C1107.34 1076.76 1115.31 1076.6 1123.22 1076.64L1123.17 1087.96C1111.53 1089.43 1098.18 1088.11 1086.39 1087.89C1085.95 1064.81 1086.22 1041.62 1086.44 1018.54Z" fill="#1C1C1C"/>
<path d="M1743.61 1018.56C1747.91 1018.18 1752.38 1018.42 1756.7 1018.45C1755.9 1041.57 1756.69 1064.96 1756.54 1088.11C1752.29 1088.22 1747.97 1087.96 1743.71 1087.83L1743.61 1018.56Z" fill="#1C1C1C"/>
<path d="M1356.96 1018.59C1361.29 1018.19 1365.78 1018.42 1370.13 1018.45L1370.02 1088.14C1365.72 1088.23 1361.39 1087.96 1357.09 1087.78C1357.2 1064.71 1357.16 1041.65 1356.96 1018.59Z" fill="#1C1C1C"/>
<path d="M1240.66 1018.46C1244.97 1018.25 1249.37 1018.43 1253.69 1018.44L1253.62 1088.18C1249.31 1088.2 1244.98 1087.97 1240.67 1087.84L1240.66 1018.46Z" fill="#1C1C1C"/>
<path d="M981.086 1018.47C985.397 1018.25 989.75 1018.45 994.065 1018.53C994.179 1041.71 994.137 1064.9 993.937 1088.08C989.694 1088.24 985.385 1087.98 981.139 1087.86L981.086 1018.47Z" fill="#1C1C1C"/>
<path d="M724.152 1049.61C724.497 1043.96 723.007 1024.14 724.984 1021.18C726.75 1019.76 728.362 1020.09 730.663 1020.17C737.408 1024.81 729.712 1069.89 735.071 1077.21C739.474 1080.11 750.149 1076.4 755.88 1079.97C757.353 1082.5 757.035 1081.46 756.759 1084.53C755.435 1085.82 752.759 1086.32 750.755 1086.21C744.439 1085.88 730.07 1088.1 725.267 1083.62C721.999 1080.58 724.218 1070.36 724.253 1065.8C724.293 1060.6 724.256 1054.92 724.152 1049.61Z" fill="#1C1C1C"/>
<path d="M1041.97 1018.36L1054.35 1018.38C1054.36 1026.45 1055.11 1084.54 1053.57 1087.79L1052.17 1088.4C1051.66 1085.39 1051.95 1076.9 1051.9 1073.4C1051.69 1057.81 1052.37 1042.05 1052.12 1026.49C1052.07 1023.91 1051.59 1022.18 1049.77 1020.62C1046.59 1020.34 1047.15 1019.95 1044.54 1021.13C1040.76 1028.08 1049.55 1063.04 1042.06 1066.64C1036.11 1064.06 1025.79 1029.6 1020.47 1020.34C1017.31 1020.12 1011.73 1020.27 1008.39 1020.25C1008.37 1039.4 1008.35 1058.6 1008.3 1077.75C1008.29 1081 1008.18 1082.93 1010.2 1084.88C1010.89 1084.96 1015.06 1085.11 1015.38 1084.47C1019.61 1076.08 1012.8 1043.82 1017.34 1037.61L1018.19 1038.41C1017.96 1055.04 1019.09 1071.76 1018.79 1088.16C1014.85 1088.09 1010.41 1088.1 1006.52 1087.86C1006.37 1065.24 1006.07 1040.98 1006.49 1018.38C1011.73 1018.37 1017.57 1018.24 1022.76 1018.41C1026.3 1027.4 1039.06 1061.01 1042.93 1066.99C1042.85 1050.81 1041.85 1034.31 1041.97 1018.36Z" fill="#1C1C1C" fill-opacity="0.968627"/>
<path d="M814.97 904.491C816.212 904.414 817.459 904.35 818.703 904.371C821.223 904.413 824.391 905.178 826.084 907.202C829.411 911.181 825.055 918.912 825.709 923.544C826.082 926.193 828.621 928.559 828.332 931.308C828.026 934.222 826.049 936.398 823.932 938.203C821.907 938.779 819.746 939.245 817.629 939.094C815.347 938.931 813.118 937.664 811.708 935.882C807.721 930.842 808.286 922.729 809.034 916.695C809.732 911.077 810.284 908.142 814.97 904.491Z" fill="#F7F7F8"/>
<path d="M722.397 1018.47C726.513 1018.36 731.225 1018.53 735.389 1018.59C735.642 1029.6 736.229 1067.47 735.074 1077.21C729.715 1069.89 737.411 1024.81 730.666 1020.17C728.365 1020.09 726.752 1019.76 724.987 1021.18C723.01 1024.14 724.499 1043.96 724.154 1049.61C724.259 1054.92 724.295 1060.6 724.255 1065.8C724.22 1070.36 722.001 1080.58 725.27 1083.62C730.072 1088.1 744.441 1085.88 750.757 1086.21C752.762 1086.32 755.437 1085.82 756.761 1084.53C757.038 1081.46 757.356 1082.5 755.882 1079.97C750.151 1076.4 739.476 1080.11 735.074 1077.21C739.144 1076.15 754.324 1076.6 759.201 1076.64L759.23 1088.19C746.929 1088.21 734.63 1088.11 722.331 1087.91C721.909 1076.62 722.223 1063.38 722.205 1051.94C722.173 1040.78 722.237 1029.62 722.397 1018.47Z" fill="#1C1C1C" fill-opacity="0.960784"/>
<path d="M1622.55 916.265C1623.31 902.496 1637.03 898.83 1641.52 911.358L1641.01 915.331L1641.68 918.662C1640.03 921.083 1639.95 920.382 1640.27 922.685L1642.61 925.204C1641.21 931.017 1627.41 929.268 1622.88 926.391C1625.32 921.198 1625.02 921.277 1622.55 916.265Z" fill="#F7F7F8"/>
<path d="M1622.55 916.265C1623.31 902.496 1637.03 898.83 1641.52 911.358L1641.01 915.331C1636.48 913.684 1625.41 911.322 1622.55 916.265Z" fill="#DCDCE8"/>
<path d="M907.053 1018.38C911.171 1018.4 916.065 1018.3 920.11 1018.51C919.655 1041.67 920.212 1065 920.012 1088.17C915.782 1088.09 911.311 1088.07 907.108 1087.89C907.131 1081.76 907.584 1061.9 906.798 1056.88L905.898 1056.13C906.643 1055.46 906.205 1055.74 907.509 1055.69C911.7 1061.09 905.373 1078.43 911.703 1084.96C914.641 1086.03 913.451 1085.88 916.668 1085.28C919.102 1081.27 917.571 1032.52 917.521 1024.98C917.511 1023.62 916.852 1021.72 915.795 1020.68C903.254 1017.73 912.373 1038.23 907.756 1045.76C906.646 1041.25 907.043 1024.04 907.053 1018.38Z" fill="#1C1C1C" fill-opacity="0.968627"/>
<path d="M1642.61 925.204C1646.75 924.855 1655.53 925.545 1659.17 927.51L1658.27 929.99C1656.37 928.023 1647.47 928.405 1644.25 928.335C1641.41 934.521 1637.49 941.292 1629.19 939.268C1626.84 938.69 1624.82 937.164 1623.63 935.052C1622.07 932.236 1622.02 929.393 1622.88 926.391C1627.4 929.268 1641.21 931.017 1642.61 925.204Z" fill="#DCDCE8" fill-opacity="0.980392"/>
<path d="M962.094 922.094C964.632 923.31 966.241 926.402 967.833 928.833C971.717 929.464 977.79 929.572 977.902 934.422C976.407 936.988 974.903 937.457 972.202 938.805C959.516 941.652 952.09 928.034 962.094 922.094Z" fill="#DCDCE8"/>
<path d="M1641.52 911.359C1641.79 913.168 1641.61 915.292 1643.14 916.321C1645.82 918.133 1653.63 917.102 1656.47 916.144L1658.04 917.052C1653.11 919.241 1647.1 918.754 1641.68 918.663L1641.01 915.333L1641.52 911.359Z" fill="#DCDCE8" fill-opacity="0.454902"/>
</svg>
