<svg width="3744" height="1600" viewBox="0 0 3744 1600" fill="none" xmlns="http://www.w3.org/2000/svg">
<path d="M653.734 842.745C660.054 950.095 768.808 1034.93 902.842 1022.16C952.699 1018.6 997.729 1002.76 1034.86 979.458L1076.86 1055.52C942.563 1113.23 780.132 1102.56 688.669 992.492C653.471 948.823 640.347 894.928 647.721 842.745H653.734ZM2993.33 535.442C3048.14 535.442 3096.77 548.564 3139.21 574.765C3181.65 600.967 3213.12 639.151 3233.61 689.183L3130.61 732.806C3102.96 675.093 3057.45 646.259 2994.03 646.259C2949.7 646.259 2913.23 660.832 2884.62 689.886C2856 718.984 2841.69 754.226 2841.69 800.001C2841.69 845.776 2855.87 882.861 2884.26 911.213C2912.62 939.564 2949.22 953.738 2994.03 953.738C3056 953.738 3101.07 927.537 3129.2 875.091H2996.18V771.426H3231.46V1050.34H3131.35V1011.02C3093.74 1046.74 3046.52 1064.65 2989.77 1064.65C2915.91 1064.65 2854.25 1039.98 2804.91 990.649C2755.54 941.319 2730.87 877.769 2730.87 800.044C2730.87 722.319 2756.15 658.813 2806.67 609.439C2857.18 560.109 2919.42 535.442 2993.33 535.442ZM2237.75 1050.3H2116.17L2048.02 872.022C2083.92 857.407 2119.47 844.548 2154.23 833.796L2237.75 1050.3ZM1513.28 1050.29H1402.42V549.654H1513.28V1050.29ZM1651.22 1050.29H1540.36V549.654H1651.22V1050.29ZM2532.76 549.654C2589.95 549.654 2634.54 565.849 2666.49 598.282C2698.44 630.715 2714.41 669.556 2714.41 716.296C2714.41 763.037 2698.53 802.712 2666.84 835.364C2635.11 868.017 2590.69 884.344 2533.46 884.344H2374.67V1050.29H2263.81V549.654H2532.76ZM2044.64 549.62L2127.15 763.442C2092.87 769.498 2055.21 776.873 2015.01 785.694L1955.94 631.164L1880.72 828.001L1872.73 848.938C1925.96 834.455 1977.27 822.033 2024.98 811.676L2024.89 811.543C2065.31 802.721 2103.01 795.438 2137.15 789.513C2182.14 781.745 2220.94 776.348 2250.87 773.364V781.044C2216.33 787.276 2180.56 796.36 2144.13 807.596C2109.2 818.348 2073.69 831.163 2037.92 845.646C1970.6 872.988 1902.62 906.124 1836.87 942.419L1826.38 969.892L1795.71 1050.21H1674.13L1678.78 1038.18L1736.06 889.71L1744.44 868.028L1867.24 549.62H2044.64ZM1179.36 577.105C1255.14 632.142 1299.68 717.059 1284.58 810.926C1271.07 908.138 1203.17 988.454 1113.2 1037.83L1067.03 955.624C1151.99 882.463 1172.01 769.409 1079.19 702.787C1078.4 702.217 1077.48 701.733 1076.64 701.162L1179.36 577.105ZM1103.59 810.926C1086.16 904.626 974.425 939.824 901.878 912.263L935.63 871.491C975.743 877.766 1023.31 857.753 1027.92 810.926H1103.59ZM912.28 757.291C896.217 769.668 884.323 787.446 880.812 810.926C879.452 831.991 888.315 847.791 902.315 858.148L871.55 894.84C849.431 876.32 837.188 848.318 842.937 810.926C849.477 779.326 872.693 754.133 901.835 738.377L912.28 757.291ZM963.844 776.655C986.621 776.655 1003.13 791.928 1000.67 810.93C998.211 830.065 977.451 845.736 954.278 845.736C931.105 845.736 914.691 830.109 917.5 810.93C920.31 791.928 941.024 776.656 963.801 776.655H963.844ZM510 810.926C560.296 635.681 773.899 499.452 976.925 510.643C1042.89 512.881 1103.02 530.743 1152.39 559.533L1046.84 685.536C981.536 659.861 892.309 673.513 840.477 723.107C811.994 749.615 798.258 781.565 799.092 810.926H510ZM937.34 724.774C976.62 714.987 1019.32 720.823 1046.71 749.131C1055.35 757.952 1061.23 768.441 1064.35 779.544H1059.79C1042.4 740.967 989.785 727.8 946.16 740.396H946.117L937.34 724.774ZM2374.67 773.484H2534.87C2555.84 773.484 2572.52 768.261 2584.94 757.771C2597.36 747.326 2603.55 733.94 2603.55 717.745C2603.55 701.55 2597.32 687.944 2584.94 676.973C2572.52 666.001 2555.84 660.514 2534.87 660.514H2374.67V773.484ZM1179.36 577.105C1179.36 577.1 1179.35 577.094 1179.34 577.088H1179.38L1179.36 577.105Z" fill="black"/>
</svg>
