<svg width="2215" height="1600" viewBox="0 0 2215 1600" fill="none" xmlns="http://www.w3.org/2000/svg">
<path d="M1274.5 510C1277.94 523.979 1277.83 528.055 1276.95 541.943L1277.76 541.499C1299.89 529.311 1306.38 510.896 1333.92 510.82C1434.01 510.708 1533.21 509.517 1633.38 511.295C1695.31 512.394 1727.64 540.153 1685.52 599.191C1674.62 614.465 1662.84 630.433 1651.72 645.669L1539.9 797.182L1410.46 973.675C1390.32 1000.84 1348.28 1063.97 1319.78 1082.28C1306.03 1091.1 1248.73 1088.97 1227.99 1088.89L948.377 1089.15C948.657 1075.17 947.013 1058.26 946.797 1043.44C930.188 1055.94 916.89 1073.53 897.226 1087.68L896.006 1087.83C876.249 1090.05 841.799 1089.03 820.92 1089L689.903 1088.79C660.175 1088.71 630.445 1088.84 600.719 1089.15C571.308 1089.42 539.75 1094.66 516.021 1075.44C509.662 1060.84 506.411 1037.95 516.194 1024.07C621.748 874.382 729.582 726.276 835.966 577.161C847.457 561.056 861.61 541.703 875.075 527.65C896.076 505.729 953.372 510.487 980.516 510.519C1074.67 510.626 1181.36 512.904 1274.5 510ZM1349.35 681.014C1290.17 637.904 1174.68 607.317 1101.79 617.308C1054.96 621.667 979.713 635.771 941.551 661.4C909.905 682.656 873.681 741.076 850.048 773.081C828.436 802.065 807.326 831.423 786.726 861.136C777.583 874.07 737.797 923.29 749.258 936.268C763.334 940.568 834.783 938.915 851.433 937.261C872.562 917.426 886.408 893.922 903.751 870.988C931.863 833.814 957.126 794.722 985.913 758.178C999.389 741.07 1014.03 719.961 1032.61 708.088C1060.54 690.24 1108.74 681.577 1141.49 682.527C1175.56 683.518 1232.4 699.811 1257.15 724.76C1266.94 734.64 1270.7 744.107 1275.57 756.65C1284.68 820.107 1218.54 854.666 1165.52 862.024C1121.05 868.196 1064.05 857.926 1025.34 835.116C1016.06 845.85 1007.66 856.296 999.875 868.188C979.876 898.755 983.877 897.972 1014.76 908.208C1062.23 923.667 1111.41 927.178 1161.07 924.819C1228.47 921.618 1281.1 907.766 1337.6 872.765C1414.7 824.999 1424.87 736.037 1349.35 681.014ZM1143.92 810.556C1230.19 794.459 1207.9 726.536 1123 733.122C1101.12 735.974 1086.87 741.17 1070.05 756.605C1067.45 767.713 1065.52 774.595 1072.27 784.838C1086.06 805.738 1120.8 811.947 1143.92 810.556Z" fill="#303194"/>
</svg>
