<svg width="1601" height="1600" viewBox="0 0 1601 1600" fill="none" xmlns="http://www.w3.org/2000/svg">
<path d="M701.836 736.107C715.826 734.446 728.541 744.37 730.328 758.344C732.116 772.319 722.307 785.123 708.349 787.036C694.212 788.973 681.208 779.012 679.398 764.858C677.588 750.704 687.666 737.79 701.836 736.107ZM707.144 786.011C717.13 784.175 718.385 774.279 718.376 765.778C718.362 752.539 720.477 735.265 701.804 737.314C692.846 739.21 691.546 748.442 691.507 756.124C691.443 768.741 688.571 787.755 707.144 786.011Z" fill="#F2F1E7"/>
<path d="M687.195 809.069C700.654 809.397 721.133 805.922 722.29 825.572C723.039 838.306 712.674 842.243 701.944 842.339L697.541 842.37C697.413 848.765 697.418 855.159 697.555 861.55L687.297 861.573C686.907 855.413 687.13 847.293 687.128 841.011C687.091 830.363 687.113 819.716 687.195 809.069ZM697.473 840.745C702.727 840.779 704.571 840.972 708.942 837.925C710.294 836.153 711.483 834.269 711.601 831.935C712.233 819.412 712.972 810.83 697.5 811.03C697.437 820.938 697.428 830.841 697.473 840.745Z" fill="#F2F1E7"/>
<path d="M770.684 735.384C776.194 735.634 780.978 736.24 785.474 739.956C791.811 745.123 793.475 757.173 787.528 763.208C781.959 768.854 774.305 769.104 766.962 769.416C766.793 772.294 766.832 775.506 766.808 778.417L766.803 787.813C763.118 787.694 760.021 787.73 756.344 787.826L756.368 735.471C760.771 735.27 766.207 735.395 770.684 735.384ZM766.858 767.554C771.208 767.602 774.214 767.429 777.715 764.415C779.504 762.127 780.219 760.132 780.331 757.205C780.77 745.693 781.083 737.442 766.909 737.325C766.706 746.586 766.543 758.351 766.858 767.554Z" fill="#F2F1E7"/>
<path d="M816.848 809.093C825.572 809.089 845.846 806.743 849.004 817.398C851.759 826.693 847.34 831.527 838.924 834.293C853.696 839.004 850.341 843.677 852.051 856.785C852.186 857.81 855.056 859.478 855.156 860.78C852.205 862.509 846.189 861.554 843.8 859.273C836.343 852.151 844.378 842.394 835.056 835.653L832.059 834.254C833.342 833.692 834.609 833.045 835.865 832.421C837.344 830.298 837.957 828.931 838.165 826.331C838.527 821.778 839.166 815.884 835.434 812.506C832.884 810.195 830.53 810.611 827.391 810.742C826.913 826.901 827.294 845.21 827.306 861.535L816.84 861.577L816.848 809.093Z" fill="#F2F1E7"/>
<path d="M883.132 809.109L893.849 809.078C893.506 817.603 893.567 826.2 893.444 834.748C899.827 826.308 907.115 818.015 913.941 809.902C914.58 809.14 915.335 809.198 916.214 809.19L916.526 809.664C915.932 811.247 902.728 826.905 900.825 829.097C905.301 836.227 910.081 843.87 914.303 851.127C916.46 854.32 918.69 858.188 920.72 861.516L907.847 861.558L893.51 836.393L893.579 861.531L883.013 861.57C882.859 859.474 882.832 857.283 882.855 855.179C883.013 839.841 883.059 824.444 883.132 809.109Z" fill="#F2F1E7"/>
<path d="M817.352 735.525C820.56 735.343 824.347 735.404 827.606 735.375C827.833 749.488 826.396 767.229 829.37 781.02C833.896 789.714 847.956 787.017 850.83 778.08C854.243 767.467 849.659 744.774 852.544 735.852L853.049 735.783L853.434 736.66C853.688 744.167 853.7 751.954 853.588 759.451C853.403 771.792 856.188 786.947 839.073 787.629C815.553 788.568 817.259 776.465 817.317 758.78L817.352 735.525Z" fill="#F2F1E7"/>
<path d="M1043.48 643.906C1044.95 644.983 1047.17 647.803 1048.46 649.324L949.878 708.255C948.329 709.188 949.065 709.132 947.647 708.938C946.434 707.961 946.788 708.565 946.469 707.116C946.977 706.044 946.812 706.112 947.913 705.42C979.92 685.276 1011.34 663.8 1043.48 643.906Z" fill="#F2F1E7"/>
<path d="M1036.18 633.125L1036.87 633.293C1037.67 634.228 1039.55 636.288 1038.91 637.356C1036.01 642.176 1025.27 647.608 1020.78 650.686C995.596 667.969 969.918 684.427 944.668 701.55L943.543 701.957C942.253 701.616 942.785 701.946 941.91 700.908C941.937 700.412 941.856 699.671 942.241 699.383C971.621 677.538 1001.88 656.392 1031.71 635.058C1033.35 633.884 1034.73 633.482 1036.18 633.125Z" fill="#F2F1E7"/>
<path d="M765.769 808.934L767.328 809.165C768.842 810.012 777.892 831.834 779.353 835.328C782.709 843.352 787.155 852.419 790.121 860.493L778.702 860.539L764.339 827.335C763.784 825.829 762.875 823.91 762.215 822.4C758.47 831.206 749.367 856.691 744.527 862.531C744.891 857.604 762.616 816.353 765.769 808.934Z" fill="#F2F1E7"/>
<path d="M1027.98 621.504C1029.35 622.498 1030.5 624.456 1031.5 625.907C1029.56 627.576 1028.15 629.31 1026 630.934C1015.33 638.994 1004.43 646.927 993.663 654.852L939.48 694.781C939.23 695.035 938.902 695.165 938.563 695.35L937.612 694.884C936.815 693.678 936.988 694.317 937.015 692.914C938.07 690.976 987.384 652.456 993.363 647.72L1011.54 633.335C1015.46 630.234 1019.75 626.565 1024.05 624.112C1025.84 623.093 1026.34 622.739 1027.98 621.504Z" fill="#F2F1E7"/>
<path d="M1051.52 655.383C1052.58 655.834 1054.66 660.275 1055.34 661.578L954.152 715.537C953.354 716.045 953.173 716.098 952.287 716.445C951.093 715.817 951.236 715.388 950.492 713.848C962.688 706.298 977.006 698.422 989.56 691.169L1051.52 655.383Z" fill="#F2F1E7"/>
<path d="M1058.36 667.734C1059.58 668.994 1060.88 672.243 1061.58 673.915C1058.23 675.968 1051.69 678.844 1047.93 680.62L1022.94 692.417C1001.73 702.423 978.435 714.103 957.152 723.443L956.27 723.91L955.503 723.636C954.779 722.398 954.906 723.033 954.995 721.69C956.208 719.634 983.955 706.029 988.092 703.873C1011.45 691.702 1034.87 679.656 1058.36 667.734Z" fill="#F2F1E7"/>
<path d="M952.122 882.59C954.58 883.472 962.557 887.937 965.231 889.366L991.059 903.152L1032.92 925.471C1039.71 929.084 1049.37 933.876 1055.74 937.782C1055.01 939.199 1054.03 940.821 1053.23 942.235C1052.85 943.129 1053 942.851 1052.36 943.61C1050.81 943.629 995.766 911.368 990.831 908.514L965.866 894.077C961.313 891.446 955.712 888.418 951.44 885.548C951.147 884.119 951.421 884.246 952.122 882.59Z" fill="#F2F1E7"/>
<path d="M948.131 889.844C951.575 891.566 956.216 894.52 959.622 896.562L979.718 908.599C1002.6 922.309 1025.92 936.55 1048.94 949.889C1048.08 951.099 1047.06 952.289 1046.11 953.437C1045.33 954.442 1045.38 954.512 1044.3 955.128C1042.97 955.171 1027.4 944.716 1025.07 943.218L985.13 917.478L960.33 901.477C956.74 899.166 950.238 895.24 947.006 892.756C946.79 891.361 947.145 891.442 948.131 889.844Z" fill="#F2F1E7"/>
<path d="M1064.14 680.418C1065.61 681.279 1066.8 685.238 1067.46 686.996C1057.18 690.56 1041.79 697.561 1031.41 701.878L960.625 731.219L959.751 731.531L958.953 731.018C958.314 729.69 958.383 730.349 958.614 728.991C959.608 727.693 966.164 725.126 968.133 724.224L989.092 714.642L1064.14 680.418Z" fill="#F2F1E7"/>
<path d="M955.988 875.125C958.245 875.841 964.678 879.023 967.036 880.14L988.8 890.487L1062.21 925.186L1059.48 930.544L1059.02 931.203C1057.29 931.415 1052.95 928.56 1051.29 927.709C1031.01 917.324 1010.66 906.777 990.429 896.323L966.816 884.135C963.734 882.548 958.164 879.963 955.46 878.218C954.987 876.839 955.322 876.912 955.988 875.125Z" fill="#F2F1E7"/>
<path d="M1069.04 693.57C1069.67 693.506 1069.29 693.5 1070.15 693.722C1071.16 695.322 1072.01 697.987 1072.68 699.835C1068.56 701.643 1062.53 703.589 1058.11 705.175L1031.96 714.575C1009.88 722.53 986.22 731.484 964.071 738.912C962.742 739.379 963.347 739.429 962.187 738.956C961.429 737.818 961.586 738.431 961.744 737.044C963.139 735.228 992.85 723.962 997.965 721.922L1069.04 693.57Z" fill="#F2F1E7"/>
<path d="M1018.76 611.035L1019.46 611.106C1020.87 612.046 1021.86 613.573 1022.91 614.943C1019.96 617.26 1017.79 619.956 1014.97 622.321C988.427 644.591 960.847 665.831 934.36 688.147C933.247 688.898 933.844 688.772 932.507 688.516C931.49 687.425 931.768 688.05 931.625 686.586C932.322 684.892 938.135 680.234 939.938 678.667L956.213 664.431C973.547 649.257 990.966 634.078 1008.32 618.923C1011.33 616.294 1015.15 613.999 1018.36 611.364L1018.76 611.035Z" fill="#F2F1E7"/>
<path d="M943.644 896.98C945.119 897.597 950.504 901.318 952.149 902.412L969.168 913.745L1034.32 957.084C1036.39 958.467 1039.22 959.788 1039.68 962.061C1039.43 963.667 1038.5 964.611 1037.5 965.947L1036.97 966.275C1031.57 964.722 1014.95 951.895 1009.45 947.943L972.207 921.279L952.161 906.93C950.165 905.505 943.713 901.083 942.211 899.615C942.261 898.286 942.627 898.298 943.644 896.98Z" fill="#F2F1E7"/>
<path d="M959.597 867.488C977.027 874.222 995.482 882.299 1012.86 889.503C1030.83 896.956 1050.12 904.541 1067.8 912.403L1065.66 917.615C1065.44 918.077 1065.32 918.081 1064.89 918.462C1062.48 918.378 1001.86 890.188 996.025 887.53L972.366 876.764C968.714 875.1 962.139 872.342 958.984 870.451C958.549 869.276 958.988 869.048 959.597 867.488Z" fill="#F2F1E7"/>
<path d="M1074.16 706.703L1075.01 706.964C1076.1 709.002 1076.52 710.943 1077.14 713.166C1065.31 717.263 1050.88 721.279 1038.78 724.983L966.454 747.068L965.692 747.287L964.887 746.705C964.424 745.268 964.401 745.952 964.887 744.581C965.33 744.137 965.611 743.863 966.239 743.652C996.173 733.564 1026 723.12 1055.89 712.884C1061.95 710.809 1068.04 708.54 1074.16 706.703Z" fill="#F2F1E7"/>
<path d="M1009.74 600.285C1011 601.225 1012.69 603.173 1013.82 604.381C1011.05 606.651 1009.4 608.438 1006.96 611.041C1002.72 615.587 997.649 619.893 993.022 624.051L928.813 681.677C927.826 682.369 928.362 682.165 927.122 682.262C926.031 681.503 926.378 682.002 926.039 680.719C926.239 679.808 926.39 679.343 927.087 678.67C950.365 656.168 973.708 633.715 997.021 611.249C1000.87 607.537 1005.65 603.992 1009.74 600.285Z" fill="#F2F1E7"/>
<path d="M962.719 859.68C966.155 860.639 971.736 862.842 975.284 864.117L998.573 872.522L1072.99 899.236L1070.67 905.311C1070.56 905.434 1070.09 905.669 1069.92 905.766C1061.65 902.792 1052.42 898.867 1044.19 895.565L1000.51 878.139L975.673 868.243C972.433 866.96 964.853 864.183 962.056 862.673C961.748 861.409 962.149 861.17 962.719 859.68Z" fill="#F2F1E7"/>
<path d="M965.408 851.688C1002.44 862.993 1040.4 875.193 1077.47 885.917C1076.82 888.17 1076.22 889.992 1075.43 892.196L1075.29 892.434C1073.94 892.719 1056.93 886.522 1054.36 885.643L997.569 866.113C986.999 862.481 975.431 858.752 965.035 854.831C964.596 853.521 964.958 853.328 965.408 851.688Z" fill="#F2F1E7"/>
<path d="M1079.01 719.848C1079.78 720.818 1080.65 725.259 1080.98 726.662C1075.98 728.073 1070.84 729.358 1065.8 730.598C1033.4 738.567 1001.12 747.365 968.683 755.161L967.955 755.297L967.231 754.72C966.885 753.272 966.811 753.947 967.408 752.621C968.722 751.465 975.259 749.961 977.347 749.354L1001.24 742.395L1079.01 719.848Z" fill="#F2F1E7"/>
<path d="M938.753 903.82C941.815 905.384 956.646 916.852 960.282 919.514L1007.71 954.401C1014.63 959.502 1022.99 965.237 1029.4 970.977C1030.33 971.813 1030.97 972.568 1032.17 973.577C1031.02 974.848 1030.05 976.181 1029.02 977.548L1028.66 977.641C1020.89 973.446 1012.47 966.169 1005.43 960.592L972.636 934.602L949.138 916.012C946.214 913.689 939.658 908.739 937.301 906.34C937.524 904.937 937.713 905.111 938.753 903.82Z" fill="#F2F1E7"/>
<path d="M1081.36 733.726L1082.38 733.703C1083.41 734.881 1083.95 738.654 1084.31 740.412C1081.24 740.771 1075.43 742.157 1072.2 742.819L1048.25 747.717L971.729 763.221C970.943 763.42 970.773 763.42 969.964 763.509L969.183 762.868C968.751 761.563 968.728 762.182 969.163 760.946C970.28 759.87 975.615 758.981 977.48 758.533L999.286 753.293L1081.36 733.726Z" fill="#F2F1E7"/>
<path d="M1079.47 789.279C1082.85 789.377 1086.67 789.177 1090.07 789.074C1090.35 791.32 1090.33 793.733 1090.38 796.009C1085.23 796.375 1078.53 796.19 1073.24 796.214L1048.89 796.414L983.146 796.996C981.224 796.961 974.576 797.404 973.439 796.761C973.308 795.439 973.185 795.274 973.655 794.018C976.517 793.237 993.139 793.097 997.834 792.878L1079.47 789.279Z" fill="#F2F1E7"/>
<path d="M967.676 843.742C971.628 844.397 977.626 846.119 981.636 847.144L1006.57 853.499L1081.18 872.436L1079.65 878.923L1079.44 879.058C1077.99 879.32 1057.83 873.145 1054.71 872.236L1008.32 858.711L981.64 850.972C977.641 849.817 971 848.126 967.333 846.65C966.99 845.229 967.218 845.372 967.676 843.742Z" fill="#F2F1E7"/>
<path d="M933.291 910.297C935.637 911.487 950.622 924.087 953.495 926.425L1008.35 971.055C1011.02 973.224 1014.37 975.882 1016.82 978.239C1019.51 980.82 1020.35 982.033 1023.4 984.318C1022.7 985.389 1021.72 986.537 1020.89 987.546C1020.06 988.335 1020.56 988.158 1019.45 988.251C998.591 973.436 978.888 953.135 958.93 936.683C955.941 934.218 933.233 914.792 932.059 912.92C932.163 911.557 932.417 911.622 933.291 910.297Z" fill="#F2F1E7"/>
<path d="M1085.06 747.199L1085.57 747.371C1086.34 749.648 1086.41 751.711 1086.63 754.101C1049.27 760.968 1009.68 765.144 972.108 771.879L971.137 771.536C970.409 770.336 970.494 770.936 970.648 769.726C971.969 767.78 978.961 767.221 981.511 766.74L1003.9 762.501C1030.66 757.432 1058.42 752.614 1085.06 747.199Z" fill="#F2F1E7"/>
<path d="M999.781 590.555C1001.1 591.152 1002.94 593.303 1003.99 594.428C998.398 599.733 994.376 604.88 988.976 610.281L952.882 645.968C942.982 655.811 932.763 666.312 922.613 675.825L921.996 676.39L921.026 676.241C920.036 675.255 920.371 675.835 920.074 674.392C920.251 673.682 920.305 673.367 920.837 672.81C942.609 650.007 964.014 626.842 985.809 604.058C990.131 599.538 995.274 595.07 999.781 590.555Z" fill="#F2F1E7"/>
<path d="M969.575 835.543C979.848 837.326 990.622 839.826 1000.93 841.837C1028.75 847.261 1056.67 853.501 1084.49 858.744C1084.08 860.951 1083.49 863.412 1083 865.627C1079.76 865.335 1067.99 862.261 1064.19 861.34L1027.63 852.557L986.381 842.719C983.966 842.145 971.043 839.225 969.375 838.447C968.905 837.184 969.201 837.145 969.575 835.543Z" fill="#F2F1E7"/>
<path d="M1087.34 761.152L1087.73 761.197C1088.29 762.577 1088.43 766.459 1088.55 768.116C1050.21 771.584 1011.5 776.483 973.059 780.03C972.605 780.124 972.902 780.109 972.204 779.792C971.831 778.297 971.796 779.011 972.293 777.571C973.899 776.236 981.723 775.775 984.207 775.425C992.732 774.174 1001.26 772.975 1009.8 771.828C1035.48 768.235 1061.66 764.373 1087.34 761.152Z" fill="#F2F1E7"/>
<path d="M973.18 810.602C976.782 810.952 981.366 810.944 985.125 811.168L1018.77 813.098C1041.88 814.411 1067.01 816.237 1090.01 816.88C1089.95 819.642 1089.76 821.46 1089.42 824.219C1089.13 824.211 1088.84 824.199 1088.55 824.192C1070.96 822.547 1053.28 820.875 1035.69 819.346L992.514 815.467C989.667 815.201 973.997 814.276 972.945 813.048L973.18 810.602Z" fill="#F2F1E7"/>
<path d="M1085.68 775.394L1089.43 775.086L1090.05 782.134C1084.95 782.204 1078.77 782.798 1073.57 783.075L1039.26 784.939C1018.46 786.167 997.351 786.956 976.6 788.419C975.725 788.461 975.063 788.459 974.188 788.439C973.091 787.738 973.133 787.82 972.586 786.646L972.94 785.955C975.105 784.879 1076.43 775.758 1085.68 775.394Z" fill="#F2F1E7"/>
<path d="M971.157 827.133C975.159 828.25 991.361 830.326 996.623 831.131L1058.44 840.6C1065.85 841.744 1080.57 843.454 1086.83 845.056C1086.56 847.46 1086.32 849.371 1085.89 851.751C1085.28 851.886 979.308 832.676 971.23 830.241C970.668 828.866 970.945 828.847 971.157 827.133Z" fill="#F2F1E7"/>
<path d="M972.246 818.996C980.127 819.408 990.863 820.88 998.837 821.735L1040.8 826.088L1074.64 829.612C1079.29 830.109 1084.19 830.275 1088.75 831.126C1088.45 832.948 1088.25 835.953 1088.08 837.863C1085.51 838.148 1071.01 835.803 1067.58 835.302L1034.46 830.699L988.802 824.37C984.923 823.803 975.728 822.829 972.35 822.109C971.714 820.814 972.026 820.737 972.246 818.996Z" fill="#F2F1E7"/>
<path d="M989.371 580.895C990.684 581.535 992.637 583.545 993.75 584.616C968.778 614.208 942.306 641.046 916.844 669.828L916.02 670.595L914.88 670.471C913.828 669.625 914.179 670.153 913.84 668.803C914.237 667.121 917.919 663.254 919.171 661.797L931.378 647.523C945.654 630.841 959.918 614.126 974.205 597.457C976.628 594.632 979.332 592.314 981.798 589.635C984.336 586.877 986.929 583.762 989.371 580.895Z" fill="#F2F1E7"/>
<path d="M927.739 916.766C931.033 917.405 987.746 971.303 995.585 977.146C999.734 980.236 1009.65 990.921 1014.28 995.105L1011.44 998.009L1010.7 998.814C1008.02 998.46 933.822 927.239 926.414 919.308C926.46 918.037 926.819 918.014 927.739 916.766Z" fill="#F2F1E7"/>
<path d="M978.675 572.242C980.382 572.872 981.695 574.275 983.094 575.515C980.582 578.837 977.331 582.163 974.97 585.516C966.418 597.651 956.592 608.77 947.077 620.189L909.951 664.747L909.419 665.288C908.275 665.14 907.64 664.314 906.75 663.495L937.693 623.486C947.971 610.211 957.897 596.545 969.126 584.123C972.489 580.404 975.07 575.923 978.675 572.242Z" fill="#F2F1E7"/>
<path d="M921.768 922.871C924.741 923.376 983.358 984.034 991.463 991.045C993.061 992.427 1001.85 1002.54 1004.61 1005.22L1001.99 1007.69C1001.38 1008.43 1001.43 1008.38 1000.52 1008.71C999.244 1007.89 995.665 1003.96 994.213 1002.62C981.967 991.337 970.477 978.429 958.998 966.253L934.36 940.155C929.999 935.537 924.472 930.013 920.523 925.271C920.608 923.969 920.809 924.138 921.768 922.871Z" fill="#F2F1E7"/>
<path d="M967.501 563.707C969.57 564.841 970.278 565.447 972.054 566.905C969.254 571.537 964.851 575.931 962.012 580.503C955.128 591.59 946.908 601.733 939.046 612.17L903.7 659.094C902.898 660.076 903.395 659.78 902.186 660.043C900.903 659.474 901.396 659.907 900.672 658.677C900.664 656.633 907.228 648.121 908.934 645.692L924.894 622.89C935.421 607.849 945.564 592.471 957.143 578.273C960.768 573.829 963.776 568.312 967.501 563.707Z" fill="#F2F1E7"/>
<path d="M915.95 928.586C918.507 929.799 942.405 957.026 946.304 961.116C956.75 972.095 968.634 985.658 979.227 997.064C984.296 1002.53 988.861 1009.05 994.466 1014.73L991.561 1017.45L990.332 1018.18C987.698 1017.02 919.659 938.309 914.309 930.866C914.563 929.553 914.771 929.742 915.95 928.586Z" fill="#F2F1E7"/>
<path d="M973.105 802.229C981.58 802.125 990.625 802.491 999.226 802.53L1090.44 802.927C1090.4 805.585 1090.37 807.495 1090.06 810.126C1082.95 810.215 1072.45 809.383 1065.06 809.055L1018.59 807.118L987.693 805.912C984.041 805.754 977.065 805.677 973.81 805.138C972.882 804.225 973.206 804.001 973.105 802.229Z" fill="#F2F1E7"/>
<path d="M899.833 735.674C903.474 735.467 912.969 736.466 914.167 740.145C912.426 740.558 909.171 738.796 907.38 737.991C902.133 735.635 893.832 737.583 892.091 743.722C889.791 751.807 901.451 754.224 907.299 756.198C916.547 759.32 922.456 765.135 919.359 775.685C915.515 786.958 903.924 789.528 893.836 786.269C889.329 784.007 884.995 778.395 885.939 773.155C887.892 775.145 887.334 780.651 892.322 783.668C908.909 793.705 925.111 771.644 901.929 766.285C889.899 763.504 881.871 754.977 888.227 742.629C890.353 738.493 895.662 736.691 899.833 735.674Z" fill="#F2F1E7"/>
<path d="M909.78 933.984C911.113 935.059 915.184 940.113 916.471 941.665L929.017 956.858L983.758 1023.94C982.911 1024.71 981.59 1025.71 980.669 1026.45C980.38 1026.85 980.249 1026.83 979.779 1027.1C977.583 1026.32 973.654 1019.72 971.802 1017.64C952.299 995.725 935.454 971.291 917.049 948.422C913.975 944.601 910.473 940.248 907.73 936.261C908.2 934.878 908.412 935.082 909.78 933.984Z" fill="#F2F1E7"/>
<path d="M955.754 555.797C957.719 556.606 958.932 557.604 960.569 558.875C957.384 564.3 952.996 569.845 949.645 575.242C932.631 602.092 914.927 628.501 896.552 654.442L896.105 655.198C894.8 655.294 894.438 654.767 893.051 654.007C894.588 651.365 896.294 648.597 897.951 646.034C913.752 621.586 928.393 596.252 945.188 572.485C948.836 567.326 952.365 561.197 955.754 555.797Z" fill="#F2F1E7"/>
<path d="M902.907 939.145C905.8 940.404 965.776 1023.27 972.81 1032.57L969.69 1034.91C968.649 1035.57 969.193 1035.41 968.018 1035.46C964.482 1031.33 961.6 1025.96 958.157 1021.74C948.523 1009.96 940.114 997.218 931.373 984.741L912.067 957.249C908.542 952.238 904.174 946.352 900.992 941.194C901.412 940.111 901.882 940.007 902.907 939.145Z" fill="#F2F1E7"/>
<path d="M944.076 548.59L948.899 551.278C929.654 584.461 909.862 617.324 889.531 649.853C888.865 650.862 889.315 650.525 888.117 650.86C886.842 650.377 887.335 650.777 886.604 649.599C886.488 647.441 891.388 639.716 892.755 637.301L904.577 616.367C913.691 600.224 922.47 583.917 932.555 568.384C936.638 562.095 939.893 554.977 944.076 548.59Z" fill="#F2F1E7"/>
<path d="M896.324 943.875C897.557 945.227 901.082 950.585 902.241 952.296L914.098 969.818L961.316 1040.66L958.161 1042.92C957.607 1043.12 957.248 1043.21 956.674 1043.35C955.057 1042.51 899.079 954.923 894.121 946.132C894.522 944.742 894.791 944.961 896.324 943.875Z" fill="#F2F1E7"/>
<path d="M931.479 542.008C933.208 542.46 934.953 543.436 936.579 544.241C933.054 551.955 927.977 559.402 924.414 567.009C911.826 593.882 895.778 619.22 882.288 645.629L881.572 646.626L880.516 646.794C879.272 646.08 879.703 646.578 879.164 645.264C879.418 641.049 926.587 551.503 931.479 542.008Z" fill="#F2F1E7"/>
<path d="M889.169 948.504C890.787 949.875 899.026 964.101 900.891 967.148L949.507 1048.25L946.056 1050.19C945.178 1050.84 945.659 1050.72 944.65 1050.75C940.883 1046.14 936.799 1036.47 933.271 1031.04C918.945 1009.01 907 985.302 893.71 962.61C891.634 959.059 888.645 954.166 887.016 950.461C887.385 949.186 887.609 949.44 889.169 948.504Z" fill="#F2F1E7"/>
<path d="M918.893 535.781C920.28 536.216 922.864 537.428 924.294 538.045C919.968 546.384 915.873 555.325 911.759 563.798C910.176 567.051 909.055 570.977 907.406 574.371C896.463 596.898 885.619 619.528 874.56 641.996C873.963 642.95 874.34 642.566 873.293 643.032C872.021 642.619 872.541 642.98 871.725 641.861C871.625 640.898 871.621 640.366 872.018 639.446C875.477 631.444 879.163 623.423 882.707 615.462C889.452 601.747 894.729 586.365 901.663 572.844C908.046 560.399 913.215 548.622 918.893 535.781Z" fill="#F2F1E7"/>
<path d="M881.765 952.797C884.107 953.845 931.152 1043.81 937.338 1055.13C936.26 1055.77 934.815 1056.48 933.683 1057.09C933.401 1057.23 932.885 1057.4 932.569 1057.52C930.324 1055.31 923.009 1038.68 920.778 1034.89C907.585 1012.45 897 988.282 884.866 965.231C883.036 961.753 880.944 957.893 879.488 954.28C880.112 953.286 880.478 953.39 881.765 952.797Z" fill="#F2F1E7"/>
<path d="M905.968 530.34C907.59 530.826 909.608 531.649 911.23 532.254C908.738 540.738 903.299 549.9 900.329 558.306C890.741 585.428 877.617 611.354 867.178 638.098L866.388 639.344L865.391 639.557C863.946 639.106 864.489 639.528 863.684 638.279C863.553 636.495 886.492 578.208 889.162 571.775C890.618 568.266 892.521 564.961 893.946 561.438C898.114 551.144 902.008 540.717 905.968 530.34Z" fill="#F2F1E7"/>
<path d="M873.601 956.324L874.591 956.713C877.438 960.658 882.619 972.472 884.957 977.484C893.882 996.62 904.398 1015.53 912.06 1035.16C914.914 1042.46 922.738 1054.39 924.459 1061.27C923.72 1062.39 924.19 1061.89 922.614 1062.51C921.478 1063.11 921.328 1063.22 920.053 1063.6C918.82 1062.94 909.652 1040.71 907.95 1037.44C906.648 1034.93 903.354 1028.83 902.183 1026.23C892.888 1005.59 883.832 984.856 874.629 964.175C873.801 962.306 872.904 960.473 872.172 958.562C872.388 957.014 872.168 957.584 873.601 956.324Z" fill="#F2F1E7"/>
<path d="M893.095 525.566C894.882 526.084 896.573 526.74 898.318 527.383C894.374 537.294 890.922 547.545 887.128 557.528C884.925 563.327 883.569 569.281 881.385 575.185L867.124 613.581C864.624 620.308 861.281 628.63 859.181 635.365C858.534 636.687 858.55 636.595 857.24 636.707C856.281 636.128 855.518 635.456 855.969 634.127C864.455 609.106 872.017 583.691 881.674 559.104C885.888 548.37 888.515 536.129 893.095 525.566Z" fill="#F2F1E7"/>
<path d="M866.828 959.734C867.764 960.601 893.176 1021.47 895.919 1027.55C896.331 1028.46 898.997 1036.48 899.817 1038.46L907.891 1057.64C909.27 1060.87 911.058 1063.22 911.531 1066.74C911.054 1067.95 911.15 1067.58 909.586 1068.35C908.631 1068.7 908.065 1069.01 907.036 1068.98C906.37 1068.35 866.093 968.401 864.348 961.449C864.933 960.239 865.211 960.47 866.828 959.734Z" fill="#F2F1E7"/>
<path d="M858.759 962.766C861.687 965.331 884.279 1031.94 887.384 1040.93C888.466 1044.08 898.054 1068.38 898.628 1071.82C897.854 1073.09 897.384 1072.91 895.643 1073.63C894.676 1074.06 894.734 1074.12 893.709 1073.95C892.172 1070.36 891.14 1066.25 889.838 1062.53C886.537 1053.12 883.802 1043.42 879.957 1034.21C879.225 1032.41 878.293 1030.54 877.715 1028.69C871.005 1007.21 862.916 985.878 856.379 964.372C856.81 963.332 857.384 963.405 858.759 962.766Z" fill="#F2F1E7"/>
<path d="M865.975 517.746C867.766 518.009 869.792 518.601 871.568 519.06C871.014 521.393 870.336 523.843 869.696 526.157C865.551 541.177 861.688 555.883 858.564 571.137C856.06 583.36 851.561 596.054 848.749 608.33C847.104 615.508 844.858 623.598 842.747 630.678L842.416 631.575L841.492 631.9C840.105 631.505 840.648 631.882 839.789 630.756C839.176 627.69 863.059 530.487 865.975 517.746Z" fill="#F2F1E7"/>
<path d="M850.679 965.441C850.802 965.491 850.945 965.507 851.053 965.588C851.989 966.312 869.6 1023.01 871.441 1029.25C872.697 1033.49 873.425 1037.85 874.739 1042.09L881.819 1064.36C882.89 1067.72 884.793 1073.08 885.428 1076.32C884.881 1077.36 884.273 1077.24 882.793 1077.79C881.676 1078.23 881.746 1078.23 880.552 1078.25C879.303 1076.25 876.353 1064.2 875.563 1061.44C866.511 1029.95 856.503 998.719 848.402 966.928C848.988 965.803 849.119 966.073 850.679 965.441Z" fill="#F2F1E7"/>
<path d="M879.54 521.363C882.016 521.886 882.629 522.014 884.986 523.06L851.161 632.296C850.591 633.742 851.054 633.237 849.94 634.027C848.557 633.983 849.147 634.225 848.13 633.224C847.086 629.512 863.434 578.764 864.798 571.095C865.025 569.82 868.48 560.659 869.104 558.499L879.54 521.363Z" fill="#F2F1E7"/>
<path d="M852.334 514.902C854.26 515.252 856.043 515.698 857.938 516.162C854.522 530.979 851.521 546.063 848.32 560.938C847.553 565.02 847.299 569.18 846.44 573.247C844.491 582.454 842.565 591.669 840.577 600.868C838.593 610.04 836.741 619.246 834.603 628.384C834.329 629.845 834.225 629.791 832.985 630.142C831.783 629.762 832.288 630.099 831.502 628.995C831.298 626.973 833.47 616.024 833.929 613.462C836.325 600.141 838.636 586.771 841.082 573.461C841.864 569.227 843.328 564.995 844.117 560.707C846.925 545.445 849.402 530.143 852.334 514.902Z" fill="#F2F1E7"/>
<path d="M842.504 967.703C843.682 968.327 847.176 982.168 847.48 983.835C848.667 990.268 872.496 1078.42 871.845 1080.56L870.331 1081.16C869.083 1081.53 868.74 1081.66 867.399 1081.76C865.396 1080.15 859.098 1046.15 857.58 1041.43C856.949 1039.46 854.487 1031.66 854.002 1029.56C850.05 1012.38 846.209 995.207 842.276 978.034C841.618 975.153 840.709 972.037 840.258 969.14C840.847 968.034 840.955 968.312 842.504 967.703Z" fill="#F2F1E7"/>
<path d="M838.304 512.695L844.101 513.533C842.075 530.394 837.603 547.888 835.892 564.748C833.77 585.709 829.19 606.149 826.389 626.947L825.997 628.232L824.949 628.769C823.601 628.582 824.14 628.869 823.227 627.978C822.233 625.131 837.237 525.988 838.304 512.695Z" fill="#F2F1E7"/>
<path d="M833.091 969.516C834.004 969.631 834.065 969.674 834.936 970.005C836.103 973.106 838.268 984.75 839.139 988.73C841.253 1001.44 845.417 1014.69 847.339 1027.35C849.474 1041.43 852.262 1054.9 855.463 1068.8C856.519 1073.38 857.898 1078.99 858.433 1083.58L857.948 1084.03L853.079 1084.71C850.113 1069.59 847.844 1054.1 844.874 1038.96C844.123 1035.24 842.829 1031.6 842.17 1027.87C838.88 1009.28 835.317 990.706 832.359 972.058C832.139 970.664 832.278 970.49 833.091 969.516Z" fill="#F2F1E7"/>
<path d="M824.612 511.16C826.542 511.322 828.329 511.611 830.244 511.9C828.117 528.814 826.372 545.939 824.388 562.882C823.919 566.908 824.157 571.121 823.714 574.913C821.765 591.604 820.117 608.669 818.021 625.308C817.836 626.957 817.89 626.924 816.665 627.704C815.382 627.575 815.91 627.836 815.032 626.886C814.042 623.589 818.557 577.493 819.234 571.935C821.681 551.864 822.821 531.209 824.612 511.16Z" fill="#F2F1E7"/>
<path d="M825.869 970.824L826.674 971.556C828.053 976.452 829.151 985.743 830.083 991.182C831.42 1002.88 834.818 1015.34 835.915 1026.95C837.676 1045.52 841.262 1063.56 844.197 1081.98C844.401 1083.25 844.771 1085.08 844.259 1086.22L842.934 1086.57C841.986 1086.77 841.031 1086.95 840.068 1087.1L839.398 1086.6C838.735 1084.41 837.791 1075.67 837.41 1072.71L833.338 1041C832.972 1038.21 830.784 1027.72 830.677 1026.05C830.191 1018.53 822.973 974.387 824.124 971.556L825.869 970.824Z" fill="#F2F1E7"/>
<path d="M810.727 510.195L816.474 510.464C815.284 520.307 815.137 530.058 814.421 539.893C813.466 553.049 812.333 565.608 812.607 578.824C812.734 584.999 811.393 592.589 811.204 598.969C810.954 607.429 810.122 616.263 809.409 624.715C809.305 626.532 809.328 626.661 807.78 627.341L806.863 626.978C806.582 626.5 806.281 626.005 806.278 625.421C806.266 620.104 806.674 614.506 806.763 609.212C806.94 598.974 807.144 588.816 807.714 578.596C807.915 575.003 808.681 571.294 808.762 567.746C809.209 548.567 809.868 529.36 810.727 510.195Z" fill="#F2F1E7"/>
<path d="M815.332 972.449C816.592 972.365 816.896 972.291 818.163 972.492C818.953 973.559 819.862 984.233 820.143 986.663L823.059 1012.33C823.853 1018.92 825.051 1024.85 824.673 1031.52C824.577 1033.23 825.043 1036.15 825.236 1037.88L828.668 1068.56C829.261 1073.48 830.964 1083.45 830.605 1088.16L825.413 1088.68C823.86 1074.06 823.021 1058.44 821.815 1043.75C821.191 1036.13 819.928 1029.19 819.257 1021.96C817.844 1005.47 816.534 988.963 815.332 972.449Z" fill="#F2F1E7"/>
<path d="M807.116 972.848C808.788 972.818 808.942 972.525 810.074 973.264C810.571 974.967 810.899 984.355 811.068 986.974C811.908 998.646 812.655 1010.33 813.314 1022.01C813.506 1026.17 813.194 1030.25 813.426 1034.29L815.556 1067.29C816.06 1074.28 816.889 1082.3 816.869 1089.18C815.005 1089.63 813.268 1089.59 811.349 1089.65C810.483 1070.57 810.56 1051.13 809.466 1031.99C809.262 1028.46 808.676 1024.38 808.557 1021.04C808.214 1011.27 807.748 1001.38 807.459 991.623C807.305 986.358 806.673 977.848 807.116 972.848Z" fill="#F2F1E7"/>
<path d="M799.138 972.848C799.932 972.871 800.625 972.913 801.415 972.979C802.505 974.608 802.528 1031.33 802.135 1037.45C801.692 1044.41 804.034 1086.41 802.675 1089.75L801.519 1089.98C800.202 1090.01 799.435 1090.02 798.133 1089.88L797.598 1089.2C797.158 1086.6 797.575 1076.08 797.628 1072.97L798.249 1037.95C798.414 1029.1 797.035 978.298 799.138 972.848Z" fill="#F2F1E7"/>
<path d="M790.268 972.881C791.427 972.77 791.878 972.654 793.026 972.947C794.293 975.108 790.426 1043.71 790.129 1052.54C789.867 1059.5 789.671 1066.46 789.536 1073.43C789.482 1077.81 789.636 1085.22 789.097 1089.34C788.138 1090.06 788.065 1089.78 786.524 1089.71C785.282 1089.67 785.168 1089.73 783.962 1089.31C782.471 1086.96 787.545 1034.52 787.39 1028.55C787.36 1027.36 787.348 1015.95 787.491 1014.66C788.962 1001.1 788.565 986.279 790.268 972.881Z" fill="#F2F1E7"/>
<path d="M801.766 510.047L802.217 510.408C802.386 514.357 802.12 518.842 802.016 522.829C801.6 538.335 801.419 553.845 801.126 569.353C801.057 572.986 801.7 576.647 801.662 580.237C801.554 590.971 801.419 601.714 801.149 612.445C801.045 616.179 801.384 623.403 800.88 626.754C799.928 627.201 798.988 626.982 797.902 626.892C797.082 612.091 797.332 595.981 797.14 581.114C797.024 577.865 797.636 574.335 797.544 571.118C796.947 550.813 797.409 530.278 796.504 510C798.245 510.04 800.021 510.033 801.766 510.047Z" fill="#F2F1E7"/>
<path d="M781.782 972.406C782.979 972.36 785.061 971.932 784.976 973.804C784.215 990.619 782.131 1007.04 780.214 1023.68C778.208 1041.11 778.056 1059.38 775.967 1076.85C775.636 1079.62 776.187 1086.73 774.459 1088.7L773.212 1088.56C771.828 1088.5 771.462 1088.52 770.094 1088.11C769.069 1086.08 772.306 1062.91 772.755 1059.14L776.749 1023.87C777.438 1017.73 777.505 1011.55 778.109 1005.14C779.118 994.428 781.012 982.995 781.782 972.406Z" fill="#F2F1E7"/>
<path d="M784.239 510.427C785.621 510.471 786.79 510.295 788.158 510.141C788.636 521.622 789.04 533.107 789.371 544.594C789.579 554.465 789.722 564.379 790.038 574.252C790.146 576.637 791.182 579.184 791.228 581.549C791.451 593.363 791.933 605.164 792.326 616.974C792.426 620.049 792.653 623.335 792.491 626.395C791.744 627.295 791.498 627.077 790.065 627.415C789.194 626.464 788.94 619.275 788.805 617.479C787.958 606.808 787.283 596.123 786.783 585.43C786.698 583.309 786.706 576.623 786.76 574.669C786.983 566.92 781.524 513.933 783.04 510.774L784.239 510.427Z" fill="#F2F1E7"/>
<path d="M773.859 970.926C774.932 971.111 775.289 971.172 776.314 971.515C776.763 972.586 776.09 977.305 775.898 978.661C774.172 990.787 773.254 1003.09 770.686 1015.08C770.258 1017.08 769.948 1019.03 769.68 1021.05L763.146 1071.48C762.821 1073.97 761.644 1085.38 761.023 1086.9C759.764 1087.43 759.557 1087.1 757.908 1086.8C756.456 1086.53 756.401 1086.79 755.691 1085.91C756.409 1079.33 757.975 1071.16 759.05 1064.52L766.629 1018.21C766.931 1016.28 767.215 1014.3 767.358 1012.35C768.16 1001.45 770.501 990.687 772.086 979.878C772.512 976.977 773.129 973.757 773.859 970.926Z" fill="#F2F1E7"/>
<path d="M771.985 511.47C773.006 511.287 772.96 511.317 773.993 511.506C775.077 516.565 775.568 528.024 775.973 533.518L779.245 573.953C779.426 576.031 779.57 578.387 779.945 580.432C781.912 591.17 782.025 602.225 783.155 613.087C783.511 616.508 784.359 624.003 783.95 627.183C782.924 627.944 782.64 627.728 781.166 627.898C779.543 615.734 777.708 602.189 776.775 589.974C775.909 578.645 775.034 568.191 773.745 556.809L770.308 526.736C769.97 523.77 768.784 514.923 768.903 512.349C769.73 511.441 770.386 511.681 771.985 511.47Z" fill="#F2F1E7"/>
<path d="M765.382 969.566C766.324 969.69 767.002 969.921 767.903 970.187L768.21 970.764C768.162 972.764 767.828 974.713 767.461 976.677C765.81 985.518 764.37 994.404 762.613 1003.23C761.951 1006.55 760.773 1009.75 760.152 1013.08L750.921 1064.94C750.413 1067.8 747.948 1082.91 747.131 1084.73L746.204 1084.89C744.614 1084.43 743.404 1084.27 741.777 1084.01C747.053 1055.78 754.579 1027.82 758.987 999.404C760.449 989.982 763.293 978.931 765.382 969.566Z" fill="#F2F1E7"/>
<path d="M692.463 530.77C695.152 532.953 718.896 601.106 723.207 609.195C725.595 613.676 729.429 622.771 731.285 628.056C732.377 631.164 736.46 637.726 733.984 640.177C732.781 640.349 733.286 640.517 732.379 639.871L687.473 532.643L692.463 530.77Z" fill="#F2F1E7"/>
<path d="M758.699 513.027C759.105 512.964 759.446 513.046 759.877 513.093C761.081 515.254 761.597 523.163 761.968 526.042C763.233 535.272 764.433 544.51 765.566 553.757C767.18 566.475 768.43 578.816 771.128 591.387C771.9 594.982 775.963 627.47 775.541 628.389C774.338 629.067 774.157 628.937 772.783 628.896C766.683 592.549 762.346 556.044 755.679 519.758C755.386 518.165 754.776 515.621 755.1 514.133C756.367 513.112 756.934 513.309 758.699 513.027Z" fill="#F2F1E7"/>
<path d="M757.322 967.77C757.922 967.877 760.279 968.151 760.061 969.129C757.61 980.135 753.831 999.865 750.119 1009.96C747.077 1018.24 736.09 1078.54 733.298 1082.01L731.999 1081.88L728.199 1080.8C729.655 1073.83 731.986 1065.76 733.831 1058.8L743.727 1021.51C744.903 1017.09 748.369 1006.93 748.505 1003.07C748.702 997.492 755.086 973.902 757.322 967.77Z" fill="#F2F1E7"/>
<path d="M749.086 965.375C750.269 965.687 751.091 965.772 751.992 966.588C752.251 969.069 746.749 984.828 746.032 988.688C745.209 993.114 742.223 999.658 740.878 1004.31L725.771 1058.17C725.013 1060.88 720.864 1076.89 719.967 1078.2L718.8 1078.39L714.758 1077.07C715.5 1073.26 718.005 1066.05 719.281 1062.03L727.863 1035C731.41 1023.84 734.983 1012.66 738.484 1001.48C739.6 997.913 740.107 994.038 741.211 990.456C743.791 982.081 746.524 973.757 749.086 965.375Z" fill="#F2F1E7"/>
<path d="M745.194 515.309L746.338 515.324C747.945 521.38 749.473 531.816 750.627 538.323L758.828 584.356C759.109 585.863 759.926 589.359 760.208 590.534C761.292 595.056 768.086 627.684 767.229 629.881C766.077 630.422 765.721 630.327 764.467 630.301C757.177 592.128 749.333 554.063 740.938 516.118L745.194 515.309Z" fill="#F2F1E7"/>
<path d="M740.993 962.977C741.882 963.104 742.943 963.135 743.668 963.708C743.953 963.936 743.984 964.009 743.999 964.359C744.147 967.834 733.885 992.93 732.169 997.895C725.653 1016.75 719.55 1035.78 713.254 1054.71C712.14 1058.06 708.131 1072.39 706.435 1074.17L705.407 1074.13L701.266 1072.54C710.815 1046.96 720.284 1021.28 729.763 995.669C730.926 992.321 731.633 988.862 732.774 985.503C735.326 977.992 738.664 970.546 740.993 962.977Z" fill="#F2F1E7"/>
<path d="M732.152 517.988L732.67 518.187C734.139 522.888 735.822 531.406 736.975 536.453L745.465 573.661C747.303 581.705 759.676 627.582 759.16 631.504C758.046 632.267 758.108 632.191 756.742 632.265L756.308 631.688C753.661 623.007 751.503 613.562 749.094 604.761C748.163 601.358 747.858 597.072 746.853 593.415C740.121 568.905 734.149 543.657 727.172 519.282L732.152 517.988Z" fill="#F2F1E7"/>
<path d="M733.357 959.824C734.506 960.152 735.188 960.209 735.972 961.099C736.1 962.39 730.359 977.058 729.409 979.135C718.105 1003.85 709.399 1029.79 699.181 1054.98C697.545 1059.01 695.534 1065.9 693.396 1069.36L692.706 1069.26C691.282 1068.78 689.702 1068.13 688.277 1067.59C698.161 1042.59 709.849 1017.98 719.989 993.048C722.179 987.667 723.851 982.324 726.023 976.989C728.359 971.249 730.908 965.521 733.357 959.824Z" fill="#F2F1E7"/>
<path d="M717.979 521.801L718.867 521.93C719.941 523.35 720.478 525.643 720.942 527.36C727.248 550.708 733.942 573.964 740.414 597.268C741.571 601.433 743.67 605.446 744.704 609.711C746.574 617.418 749.729 625.49 751.098 633.254C750.386 634.391 750.192 634.143 748.601 634.755C745.666 628.382 742.633 615.657 740.144 608.632C739.369 606.444 738.609 601.527 737.706 598.668C729.77 573.529 721.771 548.392 713.805 523.264C715.149 522.724 716.601 522.268 717.979 521.801Z" fill="#F2F1E7"/>
<path d="M725.701 956.43C727.005 956.853 727.38 956.904 728.507 957.743C728.258 959.353 726.231 963.252 725.532 964.985C721.951 973.868 717.364 981.479 713.466 990.212L690.732 1041.44C688.827 1045.74 682.57 1060.76 680.641 1063.78L679.881 1063.91L675.531 1061.98C677.442 1057.03 680.998 1050.2 683.377 1045.31L697.536 1016.2C704.419 1002.04 711.613 988.132 717.445 973.525C719.613 968.094 723.09 961.776 725.701 956.43Z" fill="#F2F1E7"/>
<path d="M704.942 525.965C705.657 526.021 705.344 525.993 706.059 526.467C716.773 557.151 725.864 588.446 737.578 618.775C738.779 621.886 742.901 633.426 743.074 636.218C742.062 637.12 741.991 636.867 740.402 637.154C737.524 629.97 734.946 622.553 732.266 615.289C731.444 613.198 731.098 610.746 730.366 608.658C720.921 581.692 710.252 554.653 700.625 527.771L704.942 525.965Z" fill="#F2F1E7"/>
<path d="M718.203 952.703C719.391 953.088 719.977 953.162 720.858 954.051C720.682 957.141 709.503 975.788 707.536 979.606L675.924 1042.29C674.817 1044.47 668.955 1056.84 667.926 1057.93L666.94 1057.64L663.004 1055.62C664.648 1051.75 668.763 1044.69 670.901 1040.78L685.779 1013.6C692.395 1001.5 699.012 989.386 705.655 977.306C707.471 974.001 708.754 970.238 710.47 966.952C712.954 962.195 715.616 957.41 718.203 952.703Z" fill="#F2F1E7"/>
<path d="M710.985 948.457L712.705 949.351C714.631 952.321 703.15 967.667 701.106 971.203C685.818 997.671 671.248 1024.67 655.72 1050.94C655.538 1051.25 654.782 1050.91 654.492 1050.83L650.68 1048.56L698.212 970.853C699.749 968.299 700.908 965.914 702.247 963.276C704.806 958.237 708.018 953.272 710.985 948.457Z" fill="#F2F1E7"/>
<path d="M703.988 944.133C705.218 944.653 705.821 945.069 706.301 946.147C703.827 951.444 698.368 958.37 694.966 963.139C692.738 966.259 690.537 969.98 688.464 973.25L658.966 1020.04C654.851 1026.59 648.084 1038.15 643.723 1043.95L642.878 1043.8L638.758 1040.93C645.085 1032.66 652.85 1020.41 658.836 1011.61L691.927 963.027C693.565 960.577 694.994 958 696.411 955.419C698.593 951.44 701.322 947.792 703.988 944.133Z" fill="#F2F1E7"/>
<path d="M679.172 536.434L679.956 536.535C683.768 544.373 687.651 553.671 691.197 561.683L711.767 608.006C716.687 619 722.563 629.349 727.121 640.583C727.627 641.831 727.529 642.181 727.107 643.165C726.081 643.63 726.105 643.704 725.002 643.702C721.697 637.572 718.162 630.256 715.576 623.785C712.805 616.852 709.679 610.583 706.428 603.868L686.687 563.205C682.865 555.369 678.149 546.249 674.742 538.345L679.172 536.434Z" fill="#F2F1E7"/>
<path d="M697.137 939.242C698.458 939.847 699.026 939.989 699.408 941.334C697.776 945.082 689.895 953.984 687.241 957.724C676.743 972.52 665.713 988.506 655.362 1003.15C652.805 1006.77 633.388 1034.9 632.098 1035.94L631.064 1035.76C629.839 1034.97 628.651 1033.95 627.516 1033.03C631.986 1026.33 638.325 1018.35 643.227 1011.84L671.122 974.908C674.063 971.022 677.009 966.931 680.028 963.129C686.25 955.29 690.867 947.05 697.137 939.242Z" fill="#F2F1E7"/>
<path d="M666.605 542.523L667.394 542.778C668.859 544.976 670.345 548.419 671.561 550.884L678.358 564.358L704.658 616.758C706.605 620.653 720.778 644.304 719.789 646.604C718.588 647.203 718.423 647.581 717.462 647.312C710.612 635.743 705.052 623.216 698.431 611.079L675.535 569.254C671.156 561.265 666.325 552.812 662.238 544.715L666.605 542.523Z" fill="#F2F1E7"/>
<path d="M690.368 934.102C691.831 934.991 691.699 934.622 692.394 935.927C691.689 939.76 684.02 946.567 681.162 950.226L621.167 1027.62H620.38L616.391 1024.61C618.398 1021.49 623.772 1015.35 626.337 1012.27L645.266 989.571C656.552 975.996 667.898 962.468 679.153 948.874C683.063 944.155 686.297 938.971 690.368 934.102Z" fill="#F2F1E7"/>
<path d="M683.968 928.754C685.577 929.255 685.986 929.389 686.057 931C684.949 933.48 675.409 942.641 672.748 945.703L623.467 1003.38C621.269 1005.95 611.54 1018.09 609.661 1018.84L605.598 1015.31L669.655 945.533C674.943 939.775 678.968 934.024 683.968 928.754Z" fill="#F2F1E7"/>
<path d="M654.416 549.043C657.307 550.541 694.995 621.53 699.81 628.246C701.699 630.881 711.64 646.609 712.484 650.037C712.248 651.156 712.482 650.647 711.639 651.557C710.667 651.573 710.956 651.613 710.075 651.392C706.686 646.124 703.428 640.829 700.705 635.188C699.859 633.435 698.917 631.742 697.906 630.078L649.926 551.709C651.488 550.94 652.939 549.971 654.416 549.043Z" fill="#F2F1E7"/>
<path d="M641.907 556.719C642.445 556.706 643.206 556.627 643.544 557.142C647.405 563.031 652.072 570.596 655.707 576.388L692.162 634.105C694.691 638.055 705.422 651.416 705.214 654.943C704.324 656.12 704.856 655.596 703.223 656.267C701.031 653.148 698.232 649.334 696.376 646.056C690.326 635.364 683.216 625.432 676.279 615.284L651.226 578.485C647.277 572.665 641.826 565.147 638.328 559.306C639.467 558.436 640.736 557.562 641.907 556.719Z" fill="#F2F1E7"/>
<path d="M677.931 923C679.148 923.47 679.693 923.836 679.998 925.111C678.395 928.512 672.244 932.491 669.449 935.527C665.907 939.371 662.279 943.281 658.699 947.083L619.371 988.808L606.728 1002.14C604.644 1004.36 602.125 1007.35 599.889 1009.28L599.08 1009.2L595.664 1005.7C599.611 1001.03 607.219 994.009 611.883 989.417L637.914 963.628C647.835 953.955 657.685 944.213 667.463 934.398C671.32 930.481 673.866 926.844 677.931 923Z" fill="#F2F1E7"/>
<path d="M630.703 564.367C631.151 564.46 631.478 564.415 631.752 564.798C650.021 590.34 667.839 616.265 685.989 641.91C688.466 645.41 698.257 656.444 698.537 659.565C697.762 660.743 697.936 660.39 696.358 661.031C693.994 658.081 691.831 655.09 689.695 651.975C669.858 623.051 647.383 595.706 626.754 567.329L630.703 564.367Z" fill="#F2F1E7"/>
<path d="M672.474 916.922C673.698 917.943 673.977 918.12 674.194 919.391C672.564 921.34 667.803 924.745 665.645 926.775C659.896 932.191 654.221 937.684 648.538 943.166L609.411 980.827C603.664 986.351 595.666 994.598 589.937 999.41L589.137 999.194C587.59 997.668 587.197 997.225 585.988 995.427C592.836 988.863 600.81 981.983 607.918 975.596L650.547 937.376C655.256 933.151 660.001 928.921 664.637 924.618C667.543 921.918 669.244 919.091 672.474 916.922Z" fill="#F2F1E7"/>
<path d="M619.985 572.551C621.735 573.738 634.418 590.806 636.612 593.648L672.803 640.326C675.496 643.797 677.986 647.033 680.905 650.738C683.885 654.523 689.177 659.191 691.56 663.435C692.052 664.312 691.543 665.148 691.183 665.818C689.978 666.222 690.548 666.246 689.413 665.823C684.691 660.306 681.662 655.222 677.191 649.846L615.676 575.964L619.985 572.551Z" fill="#F2F1E7"/>
<path d="M666.696 910.695C667.561 911.042 668.173 911.666 668.69 912.402L668.476 913.346C666.834 915.218 665.323 915.256 663.696 916.604C661.2 918.677 658.62 920.988 656.168 923.13L610.628 962.917C606.471 966.554 583.595 987.54 580.182 989.177C578.939 987.967 577.806 986.434 576.719 985.059C583.592 978.761 592.855 971.627 600.224 965.637L640.564 932.856C647.972 926.843 656.664 920.16 663.59 913.6C664.988 912.275 664.978 912.097 666.696 910.695Z" fill="#F2F1E7"/>
<path d="M609.318 581.449C615.498 587.925 623.736 598.154 629.716 605.125L672.875 655.573C676.17 659.401 679.711 662.676 683.17 666.324C684.779 668.02 686.006 669.323 684.702 671.458C683.877 671.582 683.93 671.582 683.119 671.386C679.182 667.254 676.492 663.099 672.704 658.906L638.712 621.845L616.279 597.415C613.828 594.746 606.986 587.617 605.234 584.894L609.318 581.449Z" fill="#F2F1E7"/>
<path d="M661.355 904.105C662.223 904.437 662.757 905.049 663.349 905.719L663.271 906.567C662.792 907.129 662.448 907.395 661.778 907.707C656.384 910.219 643.997 921.12 638.801 925.23L586.854 966.374C584.774 968.03 572.889 977.753 571.296 978.392C570.118 976.948 569.063 975.499 567.957 974.001C587.385 958.831 609.813 942.973 629.764 928.358L648.289 914.779C653.526 910.935 656.618 908.485 661.355 904.105Z" fill="#F2F1E7"/>
<path d="M598.916 591.016C600.557 592.095 614.229 606.96 616.321 609.182L660.97 656.484C665.668 661.456 670.209 666.565 675.439 670.988C677.177 672.457 679.785 674.283 679.02 676.703C678.088 677.202 678.156 677.235 677.114 677.197C674.43 674.617 672.874 672.367 670.424 669.66C667.841 666.807 664.759 663.866 662.009 661.142L594.945 594.766C596.176 593.427 597.563 592.236 598.916 591.016Z" fill="#F2F1E7"/>
<path d="M588.873 601.012C594.012 602.688 645.776 657.059 655.074 664.201C657.353 665.952 671.027 678.558 674.012 681.319C673.187 682.361 672.874 682.935 671.683 683.543C668.959 681.529 667.24 678.803 664.679 676.404C659.918 671.942 655.055 667.573 650.199 663.219L585.25 604.888L588.873 601.012Z" fill="#F2F1E7"/>
<path d="M656.477 897.176C657.555 897.858 658.154 898.378 658.245 899.618C657.144 900.966 654.205 901.787 652.55 903.05C644.306 909.337 635.686 915.334 627.243 921.378L579.595 955.5C577.369 957.094 564.607 966.478 563.042 967.079C561.696 965.654 560.872 964.228 559.809 962.587L624.817 919.325L644.693 906.143C648.137 903.859 654.231 900.392 656.477 897.176Z" fill="#F2F1E7"/>
<path d="M579.529 611.324C581.951 612.369 600.642 629.372 603.847 632.17L641.908 665.37C650.098 672.531 658.06 680.417 667.125 686.367C667.928 686.894 668.001 687.466 668.057 688.301C667.206 689.366 667.241 689.278 665.982 689.847C664.079 688.374 662.42 685.996 660.386 684.283C632.708 660.97 603.754 638.867 576.148 615.496C577.016 614.246 578.523 612.538 579.529 611.324Z" fill="#F2F1E7"/>
<path d="M570.907 622.195C575.348 625.101 582.235 630.964 586.584 634.416L614.206 656.276L655.047 688.609C657.576 690.623 659.211 691.811 662.091 693.349C662.898 693.779 662.78 694.275 662.81 694.886C661.911 695.954 661.981 695.893 660.739 696.534C656.91 691.674 637.03 677.88 631.056 673.466L567.516 626.549C568.648 624.809 569.575 623.764 570.907 622.195Z" fill="#F2F1E7"/>
<path d="M562.443 633.406C564.724 634.541 571.786 639.813 574.228 641.565L598.588 659.065L643.48 691.205C646.406 693.312 649.383 695.503 652.335 697.555C654.227 698.871 655.711 699.364 657.647 700.887C657.875 702.007 657.918 701.46 657.401 702.573C656.556 703.048 657 702.901 656.072 703.032C655.615 702.305 655.07 701.653 654.343 701.182C622.512 680.538 591.298 658.465 559.348 638.048C560.216 636.573 561.462 634.847 562.443 633.406Z" fill="#F2F1E7"/>
<path d="M652.177 891.113C653.502 891.618 653.202 891.202 653.66 892.103C653.338 892.573 629.722 907.658 626.886 909.488L580.134 939.626L564.262 949.942C562.051 951.375 557.495 954.499 555.254 955.465C554.334 954.395 553.076 952.157 552.301 950.874C559.862 945.6 572.892 938.59 581.087 933.528C604.388 919.133 628.95 905.547 652.177 891.113Z" fill="#F2F1E7"/>
<path d="M554.587 645.227C556.595 645.796 571.287 655.524 574.053 657.307L626.925 691.428L642.313 701.365C644.687 702.917 648.6 705.706 650.985 706.968L653.219 708.15L652.718 709.39L652.121 709.625C648.055 707.281 643.916 704.874 639.911 702.436C610.744 684.68 580.957 667.685 551.922 649.739L554.587 645.227Z" fill="#F2F1E7"/>
<path d="M648.255 883.914L648.727 884.118L648.917 884.842C647.922 886.144 640.788 889.989 638.978 891.036L617.397 903.529L571.556 930.077C568.335 931.945 549.032 943.49 547.858 943.374L545.281 938.709C550.121 935.974 555.374 933.162 560.319 930.639C589.719 915.659 618.688 898.475 648.255 883.914Z" fill="#F2F1E7"/>
<path d="M644.331 876.504C644.885 876.666 644.591 876.512 645.102 877.14L644.822 877.79C642.985 879.139 639.293 880.787 637.05 881.955L620.749 890.406L562.869 920.286C560.571 921.48 542.605 931.08 541.234 931.068C540.329 929.589 539.73 928.002 539.051 926.403C542.716 924.119 549.355 921.226 553.422 919.304L578.218 907.621C599.519 897.582 622.882 885.872 644.331 876.504Z" fill="#F2F1E7"/>
<path d="M547.577 657.051C550.568 658.395 556.897 662.271 559.95 664.042L582.595 677.193C604.194 689.738 625.878 702.166 647.424 714.796C648.162 715.229 648.355 715.311 648.74 716.085L648.289 716.786L647.633 716.623C643.343 714.729 636.725 710.994 632.465 708.717L604.876 693.941L566.263 673.36C559.362 669.678 551.607 665.742 544.898 661.823C545.767 660.219 546.66 658.628 547.577 657.051Z" fill="#F2F1E7"/>
<path d="M640.883 868.871L641.533 869.206L641.645 869.83C640.741 870.743 628.67 876.132 626.72 877.026L594.215 891.856L553.287 910.539C550.521 911.806 537.372 918.1 535.272 918.493C534.512 917.014 533.691 915.026 532.996 913.474C568.67 899.218 605.233 882.6 640.883 868.871Z" fill="#F2F1E7"/>
<path d="M540.924 669.539C543.838 670.52 549.938 673.869 552.951 675.437L573.991 686.344L623.511 711.904C629.588 715.047 635.643 718.212 641.801 721.195C642.928 721.741 644.854 722.873 644.56 724.25L643.774 724.164C622.067 714.495 598.953 703.021 577.376 692.775L553.457 681.524C548.901 679.381 542.805 676.682 538.605 674.233C539.379 672.419 539.969 671.269 540.924 669.539Z" fill="#F2F1E7"/>
<path d="M637.707 861.199C637.856 861.261 638.297 861.642 638.447 861.762L638.189 862.37C636.34 863.518 634.388 863.965 632.392 864.789C614.251 872.278 595.966 879.435 577.734 886.707L546.029 899.281C542.416 900.737 533.372 904.82 529.891 905.525L527.867 900.617C532.903 898.402 540.524 895.929 545.914 893.988L581.035 881.384L616.549 868.603C623.006 866.276 631.249 863.079 637.707 861.199Z" fill="#F2F1E7"/>
<path d="M635.326 853.168L635.58 854.142C633.972 855.818 536.896 888.614 525.16 892.609C524.401 890.903 523.899 889.096 523.344 887.309C528.583 885.571 534.031 883.861 539.334 882.328C571.349 873.064 603.242 862.089 635.326 853.168Z" fill="#F2F1E7"/>
<path d="M534.853 682.156C538.791 682.971 640.339 730.173 640.607 730.401C641.223 730.923 641.046 730.628 641.104 731.467L640.13 731.777C627.262 725.994 612.492 720.276 599.324 714.81L532.766 687.189C533.485 685.521 534.18 683.843 534.853 682.156Z" fill="#F2F1E7"/>
<path d="M529.629 695.074C536.917 697.139 636.473 737.449 637.507 738.328C638.051 738.791 637.921 738.84 637.993 739.496L637.492 739.638C611.514 730.741 585.742 720.859 559.817 711.769C549.06 707.997 538.129 704.143 527.469 700.12L529.629 695.074Z" fill="#F2F1E7"/>
<path d="M631.97 845.46C632.81 845.275 632.416 845.217 633.156 845.606L632.886 846.249C630.126 847.829 606.336 854.404 601.972 855.675L521.103 879.238C520.237 877.459 519.969 875.691 519.547 873.749C545.629 867.582 571.892 860.159 597.978 853.869C609.01 851.207 621.005 847.64 631.97 845.46Z" fill="#F2F1E7"/>
<path d="M631.082 836.996L631.123 837.855C630.356 838.656 629.03 838.991 627.943 839.25C602.181 845.413 576.375 851.568 550.615 857.724L529.503 862.809C526.483 863.537 520.158 865.289 517.393 865.363L516.094 860.182C554.339 852.94 592.794 844.107 631.082 836.996Z" fill="#F2F1E7"/>
<path d="M520.637 721.566C527.133 722.827 536.316 725.999 542.908 727.911L587.008 740.772C597.565 743.79 608.102 746.878 618.619 750.035C621.468 750.879 631.811 753.076 632.996 755.001L632.579 755.807C629.445 754.634 624.264 753.502 620.899 752.663L601.939 747.912L551.063 734.977C540.864 732.401 529.313 729.748 519.312 726.788L520.637 721.566Z" fill="#F2F1E7"/>
<path d="M628.26 828.844L629.375 829.144L629.336 829.71C625.844 831.964 529.677 848.978 514.916 852.006C514.077 851.12 513.842 847.642 513.664 846.267C519.003 845.804 526.045 844.533 531.497 843.697L562.624 838.921C584.129 835.577 606.986 832.603 628.26 828.844Z" fill="#F2F1E7"/>
<path d="M517.145 734.961C528.942 738.252 629.032 761.133 630.702 762.362C630.878 762.491 630.96 762.715 631.089 762.891L630.65 763.854C619.846 761.338 608.827 759.516 597.984 757.163C570.775 751.26 543.098 746.536 515.945 740.441L517.145 734.961Z" fill="#F2F1E7"/>
<path d="M514.237 748.848C521.679 749.947 530.156 751.759 537.609 753.162L579.435 761.06L611.128 767.064C613.714 767.543 628.102 769.866 629.215 770.869L629.153 771.774C626.159 771.738 619.085 770.481 615.732 769.976L589.683 765.991C564.687 762.125 538.416 758.569 513.648 754.249C513.927 752.548 514.069 750.583 514.237 748.848Z" fill="#F2F1E7"/>
<path d="M624.175 820.849C625.532 820.672 627.718 820.074 628.251 821.689C625.742 823.272 530.215 835.124 517.061 837.524L512.285 838.121L511.902 832.339C516.991 832.185 521.719 831.477 526.77 830.945L550.727 828.468L624.175 820.849Z" fill="#F2F1E7"/>
<path d="M510.841 776.641C534.081 778.407 557.655 780.89 580.898 782.949L609.974 785.551C612.841 785.803 625.307 786.465 627.156 787.609L627.161 788.538C622.078 788.358 616.931 788.013 611.853 787.676C578.143 785.432 543.874 784.772 510.238 782.087L510.841 776.641Z" fill="#F2F1E7"/>
<path d="M510.27 790.609C520.521 791.241 531.307 791.441 541.639 791.876L610 794.844C614.752 795.064 621.686 795.168 626.552 795.506C626.959 795.537 627.088 796.173 627.321 796.697C622.075 797.371 604.865 796.862 598.429 796.862L537.978 796.408C528.573 796.346 519.561 796 510.105 796.369C510.008 794.42 510.16 792.56 510.27 790.609Z" fill="#F2F1E7"/>
<path d="M625.092 812.404C626.21 812.216 626.135 812.223 627.243 812.478L627.295 812.982C625.064 814.407 617.312 814.573 614.417 814.831L592.073 816.826L513.067 824.003C511.547 824.234 512.146 824.438 511.045 823.849C510.341 822.454 510.55 820.378 510.56 818.737C548.721 816.345 586.899 814.234 625.092 812.404Z" fill="#F2F1E7"/>
<path d="M512.16 762.66C523.588 764.239 625.898 777.86 627.887 779.03C628.371 779.314 628.258 779.659 628.337 780.167C625.146 780.106 619.121 779.352 615.884 779.023L590.172 776.33C564.299 773.742 537.379 771.226 511.609 768.152C511.96 766.136 512.039 764.679 512.16 762.66Z" fill="#F2F1E7"/>
<path d="M615.747 803.925C617.338 803.625 625.976 803.575 627.004 804.364L626.742 804.989C624.824 805.74 612.326 805.878 609.358 806.056C580.14 807.824 550.336 807.816 521.177 809.761C517.488 809.946 513.95 810.158 510.249 810.089L510 804.757C544.543 803.656 580.995 804.519 615.747 803.925Z" fill="#F2F1E7"/>
<path d="M524.779 708.078C550.191 717.241 577.182 726.177 602.808 734.923L625.854 742.854C627.733 743.51 634.773 745.359 635.223 747.005L634.541 747.504L523.164 713.481C523.674 711.672 524.213 709.87 524.779 708.078Z" fill="#F2F1E7"/>
<path d="M746.672 878.559L747.741 878.821C748.585 880.011 748.361 882.187 748.371 883.77C750.392 883.701 753.01 883.339 754.634 884.487L754.372 885.042C752.579 885.77 750.647 885.531 748.659 885.488C748.43 888.878 749.141 896.517 747.363 898.624C745.737 899.055 744.212 899.267 742.623 898.562L742.557 897.969C743.646 897.183 745.058 897.299 746.453 897.233C746.509 894.995 746.759 890.057 746.071 888.065L745.306 888.601C743.91 890.3 737.764 897.314 735.375 894.999C736.067 893.793 740.461 890.916 741.91 889.364C743.145 888.038 744.035 887.029 745.211 885.569C742.547 885.546 738.859 885.704 736.439 884.683C738.235 883.478 743.914 883.697 746.346 883.69C746.374 881.918 746.523 880.315 746.672 878.559Z" fill="#F2F1E7"/>
<path d="M783.159 880.462C786.305 880.443 795.488 879.041 796.605 881.776C796.212 884.746 794.267 886.968 792.53 889.453C795.022 891.337 799.34 894.838 800.423 897.696L800.11 898.051C797.51 897.4 793.462 893.02 791.366 890.998C789.741 892.754 784.014 898.798 781.892 898.405L781.285 897.484C782.203 896.063 785.322 893.763 786.771 892.488C790.484 889.218 792.125 886.583 794.394 882.304C791.802 882.215 785.035 882.889 783.361 881.726L783.159 880.462Z" fill="#F2F1E7"/>
<path d="M858.606 878.68C859.989 878.972 860.077 878.734 860.798 879.585C860.439 880.267 860.07 880.945 859.692 881.619L860.258 882.15C863.051 882.84 866.086 882.52 868.975 882.378C867.08 887.505 862.184 897.651 856.356 898.868C854.812 898.529 855.443 898.884 854.342 897.84C855.771 896.881 857.188 895.902 858.594 894.908C862.254 892.254 864.503 888.414 865.967 884.23L858.132 884.25C857.011 885.902 854.026 889.881 851.965 889.797L851.996 890.132L852.412 890.082L851.976 889.708C852.701 887.027 856.672 882.99 858.39 879.173L858.606 878.68Z" fill="#F2F1E7"/>
<path d="M809.763 881.656C810.383 881.853 811.138 882.172 811.759 882.411C812.325 885.535 808.365 894.468 806.254 897.557C805.268 897.696 805.041 897.319 804.598 896.683C807.518 890.643 808.419 888.282 809.763 881.656Z" fill="#F2F1E7"/>
<path d="M761.175 881.738C762.102 881.954 762.318 882.062 763.214 882.401C763.88 884.935 759.662 894.82 757.842 897.354C757.225 897.728 757.543 897.574 756.545 897.416C756.399 897.17 756.255 896.923 756.109 896.677C756.891 894.854 758.055 892.274 758.8 890.529C760.063 887.57 760.562 884.816 761.175 881.738Z" fill="#F2F1E7"/>
<path d="M817.697 881.746L818.937 881.9C821.156 883.599 825.948 894.92 824.904 897.701C824.384 897.651 824.249 897.57 823.752 897.416C822.828 895.463 817.585 883.125 817.697 881.746Z" fill="#F2F1E7"/>
<path d="M769.121 881.754L770.563 881.989C772.718 884.316 777.466 894.712 776.316 897.698C775.93 897.632 775.394 897.628 775.27 897.343C774.138 894.758 769.153 883.707 769.121 881.754Z" fill="#F2F1E7"/>
<path d="M828.238 887.851C831.035 887.477 845.646 887.316 847.899 888.051L848.392 889.226C846.143 889.38 829.706 889.777 828.666 889.253L828.238 887.851Z" fill="#F2F1E7"/>
<path d="M773.941 877.836C775.375 877.32 776.955 878.063 777.47 879.5C777.984 880.933 777.237 882.512 775.802 883.024C774.37 883.537 772.794 882.793 772.28 881.36C771.766 879.927 772.509 878.352 773.941 877.836Z" fill="#F2F1E7" fill-opacity="0.941176"/>
<path d="M822.42 877.875C823.345 877.521 824.389 877.686 825.151 878.31C825.918 878.938 826.288 879.928 826.118 880.903C825.949 881.877 825.267 882.686 824.335 883.018C822.921 883.526 821.365 882.798 820.841 881.392C820.317 879.986 821.022 878.418 822.42 877.875Z" fill="#F2F1E7" fill-opacity="0.960784"/>
</svg>
