<svg width="4814" height="1600" viewBox="0 0 4814 1600" fill="none" xmlns="http://www.w3.org/2000/svg">
<path d="M510 510.301L716.77 510.282C754.526 510.282 818.259 508.256 852.81 515.06C880.187 520.334 906.05 531.626 928.529 548.119C1045.52 634.091 1034.45 823.549 898.046 882.221C875.945 891.728 855.932 895.547 832.406 899.12C806.656 902.512 783.133 902.189 757.402 902.205L681.935 902.18V1076.55H510V510.301ZM681.935 769.336C708.55 769.374 735.169 769.467 761.784 769.317C785.406 769.183 804.917 769.204 823.166 751.947C838.036 734.675 840.65 722.815 839.377 699.827C838.543 684.745 831.967 670.645 820.379 660.696C812.971 654.376 804.106 650 794.585 647.96C783.635 645.567 762.179 646.324 750.344 646.346L681.935 646.455V769.336Z" fill="#0056A8"/>
<path d="M2984.13 660.963C3048.47 658.638 3100.26 673.236 3150.83 715.549C3239.44 789.697 3242 931.607 3168.28 1017.07C3125.13 1067.09 3071.49 1085.28 3005.7 1089.41C2941.15 1090.73 2887.69 1077.69 2838.76 1034.25C2755.78 960.581 2743.95 817.1 2820 734.374C2866.35 683.957 2916.85 664.554 2984.13 660.963ZM3003.67 986.368C3021.54 982.506 3036.42 974.706 3046.27 958.427C3073.19 913.919 3074.64 804.327 3026.14 773.875C3014.96 766.952 3001.79 763.934 2988.7 765.294C2923.72 775.104 2920.74 862.072 2927.97 912.514C2931.17 934.871 2940.11 961.365 2958.94 975.141C2971.83 984.54 2987.87 988.564 3003.67 986.368Z" fill="#0056A8"/>
<path d="M2099.63 661.891C2133.14 658.433 2196.52 665.396 2229.05 675.222C2329.16 705.46 2324.97 783.808 2325.82 870.306C2326.04 914.182 2327.04 958.05 2328.82 1001.89C2330.14 1029.62 2328.3 1052.2 2341.52 1076.64H2191.66C2183.12 1066.39 2178.63 1048.1 2174.64 1035.03C2137.01 1076.59 2085.15 1092.41 2029.3 1088.34C1989.48 1085.44 1955.75 1072.91 1929.46 1041.86C1911.71 1017.86 1902.89 990.963 1904.4 960.946C1910.14 845.945 2041.74 848.885 2124.99 828.259C2140.81 824.336 2172.14 818.405 2172.2 795.897C2172.3 752.92 2101.56 747.81 2077.16 771.849C2065.66 783.188 2062.91 797.19 2062.48 812.747C2047.73 812.336 1930.94 810.359 1926.83 808.481C1924.52 805.218 1924.16 801.157 1923.89 797.228C1921.86 767.602 1933.9 736.767 1953.24 714.565C1989.01 673.49 2048.31 665.389 2099.63 661.891ZM2062.32 986.4C2077.05 997.211 2094.19 999.095 2112.02 996.277C2131.89 993.137 2150.68 984.939 2163.03 968.079C2178.01 947.641 2178.92 920.905 2176.18 896.568C2176.11 895.972 2175.82 895.076 2175.61 894.513C2162.54 900.687 2149.07 905.957 2135.28 910.282C2110.65 918.152 2061.65 926.556 2050.48 952.171C2045.53 963.52 2053.39 978.904 2062.32 986.4Z" fill="#0056A8"/>
<path d="M1191.65 661.902C1220.59 657.743 1289.01 665.981 1318.3 674.405C1421.56 704.099 1417.29 782.77 1417.98 871.499C1418.28 914.762 1419.28 958.02 1420.98 1001.25C1422.19 1028.27 1420.55 1053.06 1433.8 1076.64H1283.82C1275.25 1065.98 1270.88 1048.34 1266.75 1035.03C1222.49 1086.15 1147.92 1098.8 1084.48 1081.75C1058.48 1074.77 1040.95 1063.58 1023.07 1043.64C1005.21 1020.42 995.289 992.76 996.559 963.157C1000.32 846.44 1132.84 848.807 1216.92 828.481C1235.02 824.105 1264.22 818.708 1264.12 794.049C1263.47 768.022 1235.08 757.072 1212.93 757.537C1175.83 758.316 1155.02 775.202 1154.88 812.76L1017.93 809.311C1011.7 774.691 1022.47 741.371 1045.27 714.767C1080.68 673.464 1140.47 665.471 1191.65 661.902ZM1155.47 987.152C1184.19 1007.33 1236.77 995.62 1256.1 967.008C1270.49 945.696 1270.98 919.029 1268.16 894.445C1242.03 906.17 1216.64 914.252 1189.14 921.989C1167.67 928.028 1130.72 942.355 1143.7 971.536C1146.4 977.557 1150.43 982.893 1155.47 987.152Z" fill="#0056A8"/>
<path d="M1732.01 657.922C1732.57 657.865 1733.12 657.835 1733.68 657.83C1772.75 657.42 1814.33 670.497 1842.39 698.556C1894.01 750.191 1884.86 827.55 1884.85 894.573V1076.5H1724.25L1724.3 918.871C1724.31 890.332 1727.38 841.894 1719.24 814.774C1711.76 789.884 1670.59 779.083 1648.08 790.528C1627.72 800.892 1620.6 808.768 1611.73 830.608C1607.4 846.99 1608.92 900.625 1608.92 920.126L1608.97 1076.5H1453.43V672.174H1599.12C1600.73 685.778 1601.59 701.283 1602.54 715.019C1637.58 682.739 1684.09 660.523 1732.01 657.922Z" fill="#0056A8"/>
<path d="M3520.4 657.923C3520.96 657.872 3521.41 657.833 3521.96 657.827C3594.97 657.064 3655.57 699.357 3668.8 773.173C3675.92 812.874 3673.2 853.753 3673.2 894.218V1076.5H3512.65L3512.67 918.531C3512.67 889.726 3515.94 841.556 3507.41 814.308C3499.7 789.73 3458.89 779.113 3436.52 790.536C3416.12 800.955 3408.88 808.747 3400.07 830.775C3395.77 847.856 3397.3 899.643 3397.3 919.651L3397.35 1076.5H3241.84V672.171H3387.57C3389.18 684.639 3389.99 702.045 3390.96 714.925C3426.89 682.581 3471.77 660.568 3520.4 657.923Z" fill="#0056A8"/>
<path d="M2524 660.899C2582.07 655.916 2667.72 663.92 2712.41 705.788C2735.11 727.065 2742.79 758.94 2743.5 789.044H2601C2600.97 779.087 2597.26 768.218 2590.1 761.226C2573.34 743.472 2526.73 742.831 2510.31 761.255C2477.51 798.044 2548.84 801.582 2567.48 805.078C2649.66 820.487 2758.62 841.123 2760.34 946.049C2761.01 978.878 2748.37 1010.58 2725.31 1033.96C2681.77 1078.75 2614.53 1089.14 2555.02 1090C2459.36 1088.77 2347.29 1055.2 2347.89 940.829H2495.96C2496.02 943.065 2496.11 945.3 2496.24 947.535C2499.2 997.568 2565.18 1014.3 2598.64 982.491C2610.76 970.964 2608.75 945.612 2592.48 938.009C2578.3 931.377 2562.21 929.034 2546.8 926.264C2496.41 915.236 2433.37 912.252 2391.63 879.493C2369.26 861.935 2354.52 828.204 2352.52 800.616C2350.36 770.992 2360.04 741.724 2379.44 719.231C2415.71 677.436 2471.2 664.629 2524 660.899Z" fill="#0056A8"/>
<path d="M4077.08 661.87C4111.64 657.526 4164.91 665.967 4196.48 680.275C4254.16 706.424 4298.17 760.078 4295.91 825.2H4157.75C4148.8 777.973 4100.08 750.795 4059.59 781.824C4038.99 797.599 4031.89 827.831 4029.29 852.539C4024.29 899.911 4036.18 973.476 4094.27 981.181C4107.82 982.946 4122.92 979.455 4133.64 970.506C4153.03 954.313 4155.04 932.953 4157.25 909.525H4285.1H4302.76L4302.8 909.888C4306.34 947.53 4293.21 986.862 4269.07 1015.44C4230.45 1061.16 4180.47 1083.93 4121.35 1088.66C4057.15 1093.8 4003.24 1080.55 3953.66 1039.23C3909.51 1003.12 3881.86 950.668 3877.02 893.835C3871.98 838.23 3888.61 777.825 3924.83 734.978C3965.19 687.222 4016.27 667.38 4077.08 661.87Z" fill="#0056A8"/>
<path d="M3704.2 672.223H3855.47V1076.56H3704.2V672.223Z" fill="#0056A8"/>
<path d="M3704.2 510.328H3855.47V617.286H3704.2V510.328Z" fill="#0056A8"/>
</svg>
