<svg width="3001" height="1600" viewBox="0 0 3001 1600" fill="none" xmlns="http://www.w3.org/2000/svg">
<path d="M1795.98 587.699C1837.59 583.54 1878.24 602.049 1902.39 636.163C1926.55 670.277 1930.49 714.731 1912.72 752.56C1894.95 790.388 1858.2 815.752 1816.5 818.973C1753.03 823.875 1697.43 776.833 1691.82 713.473C1686.2 650.113 1732.65 594.03 1795.98 587.699ZM1813.73 761.348C1825.46 756.9 1831.85 753.206 1837.15 740.745C1846.2 719.474 1846.44 692.487 1839.09 670.796C1834.42 657.017 1819.88 642.777 1804.35 645.557C1768.19 653.802 1768.34 701.769 1774.56 730.665C1779.75 754.719 1790.8 761.68 1813.73 761.348Z" fill="#211917"/>
<path d="M869.183 591.775C898.2 588.832 957.89 596.382 973.005 625.511C989.387 657.085 983.261 695.826 984.362 729.465C985.079 751.409 984.631 789.259 991.104 809.01C965.385 808.726 939.499 809.261 913.662 808.961C910.858 801.206 908.51 794.456 904.911 787.032C884.557 810.83 854.087 818.164 823.67 814.354C801.192 811.539 788.209 804.315 774.474 786.13C763.38 769.557 761.121 740.791 770.723 723.37C792.061 684.655 849.79 688.889 886.736 677.15C893.012 675.156 899.569 671.87 902.58 665.819C907.546 656.211 899.354 647.701 891.261 643.685C878.283 637.245 864.191 639.095 854.479 650.211C849.317 656.12 847.523 663.487 844.148 670.507C836.158 672.135 782.72 668.398 775.058 665.51C774.594 664.567 774.036 662.97 774.103 661.907C777.467 607.833 819.835 592.466 869.183 591.775ZM848.627 762.964C861.137 772.389 890.246 765.221 899.031 752.581C906.731 741.502 905.914 728.182 906.067 715.463L905.205 714.127L904.433 714.007C884.467 723.135 817.098 732.539 848.627 762.964Z" fill="#211917"/>
<path d="M1346.89 591.694C1371.06 588.409 1430.19 598.2 1443.59 620.756C1469.6 664.531 1453.25 725.723 1459.55 774.541C1461.28 787.97 1458.08 794.173 1465.35 807.671C1462.81 810.259 1394.41 808.985 1386.28 808.916C1384.1 801.638 1381.46 794.014 1379.07 786.758C1357.49 811.954 1326.99 818.147 1295.01 813.785C1273.54 810.857 1260.77 802.955 1247.89 785.292C1240.1 773.179 1238.14 757.374 1239.5 743.22C1245.44 681.646 1322.56 691.539 1365.06 675.42C1373.36 672.273 1376.49 667.696 1379.44 659.835C1379.09 659.229 1378.74 658.629 1378.38 658.034C1368.68 642.095 1352.79 634.446 1334.6 644.775C1324.47 650.529 1322.13 660.136 1319.66 670.837C1295.6 670.188 1271.48 668.015 1248.55 667.648C1247.55 605.155 1295.75 593.279 1346.89 591.694ZM1322.55 762.957C1339.75 773.236 1365.36 765.85 1375.07 748.568C1381.29 737.498 1381.05 727.421 1380.44 715.17L1379.41 714.149C1371.01 717.534 1359.71 722.222 1350.98 724.08C1334.32 727.629 1296.28 741.722 1322.55 762.957Z" fill="#211917"/>
<path d="M2072.31 589.69C2076.17 589.498 2080.03 589.375 2083.91 589.321C2091.56 589.286 2097.89 590.278 2105.22 591.99C2171.43 607.453 2162.34 679.064 2162.26 730.49L2162.34 808.914C2134.82 809.416 2106.28 809.036 2078.63 809.202C2079.43 767.674 2079.36 723.465 2077.92 681.886C2077.65 673.994 2074 666.523 2067.36 661.949C2048.77 649.13 2033.21 657.939 2021.33 674.288C2012.88 689.963 2016.27 785.345 2016.25 809.151C1990.97 808.361 1962.09 809.078 1936.45 808.933L1936.34 597.719C1961.01 597.053 1987.79 597.439 2012.56 597.414C2012.63 602.933 2013.93 612.985 2014.39 619.041C2033.64 602.707 2047.84 595.661 2072.31 589.69Z" fill="#211917"/>
<path d="M1139.09 589.779C1179.44 586.304 1216.81 604.319 1224.98 646.987C1228.77 666.834 1227.3 690.735 1227.31 711.089L1227.14 809.263C1205.26 807.862 1167.85 809.068 1145.04 809.175L1145.13 727.704C1145.14 712.5 1145.56 697.166 1144.45 682.009C1143.89 672.207 1139.28 664.904 1130.73 660.125C1111.7 649.499 1096.27 659.66 1086.66 676.851C1085.54 679.643 1083.82 684.081 1083.63 687.035C1081.15 727.323 1084.55 768.917 1082.37 809.171C1063.14 809.061 1021.92 807.964 1004.01 809.616L1004.05 597.019C1012.4 597.97 1028.26 597.632 1037.08 597.592C1050.32 597.533 1066.31 598.085 1079.35 597.197C1079.91 603.687 1079.95 612.032 1080.14 618.69C1103.75 602.099 1110.75 596.317 1139.09 589.779Z" fill="#211917"/>
<path d="M1568.07 589.594C1576.97 588.651 1584 590.383 1592.6 591.176C1636.7 595.245 1675.39 606.159 1676.34 658.259C1658.51 660.088 1622.53 658.989 1603.48 658.953C1601.58 651.636 1599.72 647.462 1595.34 641.35C1593.77 640.581 1592.15 639.898 1590.5 639.301C1577.93 634.78 1566.7 635.971 1554.98 641.547C1553.16 644.501 1550.92 649.199 1549.27 652.397C1551.12 655.224 1553.44 658.178 1555.48 660.905C1603.62 672.721 1686.88 674.16 1684.79 743.369C1683.01 802.047 1618.21 817.387 1570.56 816.241C1563.46 816.045 1555.68 814.317 1548.65 813.323C1506.14 807.306 1470.02 785.168 1470.32 737.575C1472.84 737.76 1475.33 737.76 1477.85 737.701C1500.5 737.169 1523.17 738.099 1545.81 737.338C1547.04 746.518 1550.29 755.93 1557.87 761.789C1565.02 767.315 1574.44 768.869 1583.26 767.792C1590.47 766.913 1597.59 763.8 1602.17 758.007C1604.51 755.041 1605.9 751.015 1605.33 747.423C1602.15 726.981 1546.64 727.037 1529.31 721.381C1516.42 717.175 1509.3 717.405 1496.79 708.16C1482.48 697.594 1476.09 686.663 1472.98 669.405C1470.47 655.468 1473.77 637.228 1482.36 626.003C1505.03 596.36 1535.46 594.818 1568.07 589.594Z" fill="#211917"/>
<path d="M2376 591.669C2377.33 591.521 2378.68 591.425 2380.02 591.381C2408.75 590.588 2440.87 598.627 2462.09 618.957C2477.81 634.041 2486.93 654.734 2487.44 676.513C2463.91 675.972 2439.09 676.396 2415.46 676.428C2410.92 658.51 2399.81 651.92 2383.5 645.7C2359.36 652.19 2353.17 660.801 2347.76 687.225C2341.29 718.808 2358.79 776.806 2401.42 754.047C2410.8 749.036 2413.82 732.127 2415.21 721.608C2435.01 722.625 2465.3 721.785 2485.83 721.791L2488.96 721.998C2490.31 723.713 2490.75 725.828 2490.69 728.056C2490.18 747.736 2483.48 765.094 2470.65 779.526C2449.11 803.243 2420.56 814.47 2388.69 816.076C2286.65 821.214 2230.3 704.191 2295.36 626.929C2315.41 603.116 2345.54 593.413 2376 591.669Z" fill="#211917"/>
<path d="M2182.51 595.645C2203.34 594.497 2235.82 595.429 2257.4 595.334C2257.47 646.608 2257.7 753.196 2257.36 809.368C2256.91 809.878 2256.51 810.321 2256.19 810.696L2252.56 810.521C2228.01 809.952 2201.11 810.346 2176.59 810.724C2178.08 763.52 2175.95 715.363 2176.83 668.102C2177.03 657.936 2175.64 598.916 2178.17 595.922L2182.51 595.645Z" fill="#211917"/>
<path d="M2182.37 936.875C2199.87 933.545 2213.43 938.233 2228.09 946.759C2231.96 942.626 2233.81 940.957 2238.29 937.475C2242.8 937.583 2254.02 936.693 2254.04 943.366C2253.96 977.894 2255.36 1013.31 2253.6 1047.75C2251.1 1078.79 2222.22 1088.9 2195.53 1089.57C2172.3 1090.15 2146.02 1093.59 2141.25 1065.08C2155.43 1067.63 2168.57 1070.67 2183.16 1070.87C2211.64 1071.26 2226.51 1066.25 2227.69 1036.21C2217.79 1040.8 2210.62 1044.23 2199.47 1045.85C2170.14 1049.92 2141.33 1036.31 2137.69 1004.57C2133.86 971.233 2145.15 941.502 2182.37 936.875ZM2173.82 1022.82C2185.2 1026.58 2189.15 1027.71 2201.26 1028.02C2211.44 1027.37 2218.13 1026.52 2227.38 1021.39C2229.12 1002.8 2228.13 979.817 2227.76 960.931C2213.46 955.191 2205.3 953.607 2189.63 955.238C2180.37 957.603 2173.14 960.131 2168.52 969.116C2159.09 987.446 2160.44 1007.7 2173.82 1022.82Z" fill="#F8A70F"/>
<path d="M941.704 936.823C976.563 932.95 1009.96 941.711 1016.96 981.111C1022.82 1014.13 1007.81 1042.95 973.423 1049.23C940.552 1053.22 903.961 1046.82 896.914 1007.72C890.452 971.859 903.829 943.884 941.704 936.823ZM966.981 1031.27C992.289 1024.82 994.444 998.808 989.712 976.671C985.408 956.539 965.515 953.643 947.745 955.226C928.427 960.129 923.833 967.944 922.527 987.525C920.243 1021.81 931.579 1034.84 966.981 1031.27Z" fill="#F8A70F"/>
<path d="M1533.82 921.225C1558.98 920.218 1585.51 922.208 1579.21 958.267C1576.78 972.136 1561.43 979.082 1549.91 985.701C1557.38 993.562 1565.3 1000.18 1573.74 1006.95C1577.99 999.205 1579.89 991.015 1582.72 982.886C1584.66 977.348 1598.95 978.765 1600.19 979.924C1607.22 986.498 1592.93 1011.89 1589.37 1018.26C1596.2 1025.39 1619.98 1040.21 1622.14 1043.57L1621.49 1046.12C1603.75 1055.71 1588.98 1045.98 1576.64 1033.18C1556.32 1052.8 1514.65 1059.46 1497.6 1033.23C1492.8 1025.78 1491.18 1016.72 1493.09 1008.07C1496.36 992.952 1507.51 986.398 1519.37 978.738C1500.49 956.916 1502.7 927.898 1533.82 921.225ZM1548.29 1030.61C1553.46 1028.2 1558.08 1024.99 1562.83 1021.86C1556.2 1016.03 1534.13 993.733 1528.62 992.458C1521.77 997.096 1516.78 1000.97 1515.15 1009.75C1514.23 1014.53 1515.3 1019.48 1518.12 1023.46C1525.52 1033.9 1537.38 1032.72 1548.29 1030.61ZM1543.61 971.299C1551.5 966.251 1557.44 961.826 1559.48 952.134C1562.23 939.038 1552.63 934.816 1541.67 935.74C1519.08 940.048 1528.66 971.018 1540.01 972.717L1543.61 971.299Z" fill="#F8A70F"/>
<path d="M1129.1 946.559C1175.58 928.774 1217.48 926.745 1216.49 990.193C1216.2 1008.7 1216.69 1027.3 1215.47 1045.96C1206.17 1049.26 1201.27 1048.84 1191.43 1049.06C1191.45 1023.7 1193.41 983.318 1186.62 960.066C1169.32 950.657 1152.05 954.281 1136.05 964.316C1136.64 983.596 1137.5 1000.97 1137.43 1020.38C1135.02 1045.8 1142.86 1048.56 1113.14 1049.38C1110.24 1019.87 1115.38 989.839 1109.46 960.149C1092.09 950.503 1076 954.455 1059.5 963.971C1058.88 977.666 1060.35 1038.63 1056.56 1045.63C1050.79 1049.82 1041.31 1049.02 1034.11 1049.1C1033.08 1017.37 1033.15 969.42 1034.36 937.981C1046.17 938.046 1052.06 935.737 1057.8 947.214C1067.12 942.278 1076.82 938.564 1087.23 936.815C1104.9 934.272 1114.82 937.234 1129.1 946.559Z" fill="#F8A70F"/>
<path d="M759.48 908.719C766.695 908.563 773.814 908.797 781.025 908.985C782.756 919.673 782.087 953.106 782.116 965.58C800.475 967.137 833.381 966.403 851.249 964.368C850.749 946.475 850.992 927.689 850.74 909.645C859.897 908.973 866.686 908.466 875.814 908.834C875.86 909.274 875.902 909.715 875.94 910.156C876.921 921.416 878.055 1041.35 874.613 1045.33C871.855 1048.52 866.965 1048.55 863.055 1048.88L850.873 1048.97C851.039 1026.49 851.504 1001.47 850.608 979.177C844.898 981.496 838.12 984.514 832.118 985.66C820.733 987.833 792.695 984.452 783.124 987.938C780.827 990.781 784.06 1034.64 778.997 1047.9C773.51 1048.84 762.661 1048.89 756.699 1049.05C754.942 1005.92 757.72 960.531 756.574 917.194C756.471 913.262 756.177 910.996 759.48 908.719Z" fill="#F8A70F"/>
<path d="M1276.48 936.87C1290.24 935.078 1309.57 935.563 1320.91 941.863C1352.53 959.531 1338.62 998.072 1304.35 999.079C1297.83 999.271 1267.79 1000.38 1263.37 998.032L1262.96 995.823C1267.31 978.034 1299.88 991.867 1309.8 979.533C1329.51 955.042 1281.14 944.098 1267.23 959.716C1257.32 970.838 1256.89 981.95 1256.68 995.894C1257.41 1012.99 1262.58 1027.88 1281.8 1031.38C1298.87 1034.49 1318.72 1032.02 1335.39 1027.54C1334.85 1031.56 1333.84 1035.51 1332.92 1039.46C1325.17 1046.7 1319.03 1049.37 1308.17 1049.67C1288.81 1050.2 1268.44 1051.89 1251.69 1040.08C1226.53 1022.34 1223.94 980.129 1241.12 956.171C1249.73 944.124 1262.33 939.127 1276.48 936.87Z" fill="#F8A70F"/>
<path d="M2065.19 936.864L2065.88 936.768C2108.62 931.105 2116.55 954.664 2117.04 991.673C2117.17 1002.31 2119.09 1039.76 2113.98 1046.2C2108.4 1050.15 2098.9 1048.91 2091.95 1048.69C2090.55 1026.86 2092.68 1003.95 2091.19 981.916C2089.4 955.692 2082.33 953.572 2058.14 955.343C2048.15 957.709 2045.39 958.785 2036.52 963.32C2035.8 976.106 2037.85 1039.49 2034.1 1045.63C2028.77 1049.4 2018.92 1048.91 2012.28 1049.12C2010.99 1035.57 2011.46 1012.4 2011.47 998.376C2011.5 980.208 2010.24 954.943 2012.44 937.737C2015.66 937.875 2029 938.152 2030.27 940.093C2038.01 952.012 2047.57 939.031 2065.19 936.864Z" fill="#F8A70F"/>
<path d="M1909.55 935.93C1916.91 935.949 1924.27 936.279 1931.61 936.916C1931.79 965.697 1907.6 1031.74 1884.56 1049.55C1873.95 1050.03 1864.57 1049.83 1854 1049.58C1833.92 1016.52 1832.26 1003.13 1820.56 969.851C1817.89 961.551 1810.52 945.339 1816.82 938.653C1820.79 936.892 1831.76 937.697 1835.75 939.219C1843.04 945.246 1858.43 1025.09 1871.09 1031.8C1881.71 1029.3 1897.45 977.043 1900.85 965.814C1903.26 957.886 1903.83 940.658 1909.55 935.93Z" fill="#F8A70F"/>
<path d="M1388.64 936.858C1389.51 936.701 1390.4 936.592 1391.29 936.531C1405.04 935.606 1427.74 934.296 1438.61 944.624C1441.18 947.075 1440.46 954.968 1437.79 957.744C1435.01 958.078 1429.29 956.877 1426.57 955.953C1415.09 952.061 1376.38 948.901 1376.31 967.564C1382.55 982.047 1420.97 984.255 1434.29 995.866C1448.99 1008.68 1448.47 1027.94 1434.15 1041.32C1428.38 1046.72 1417.48 1048.76 1409.46 1049.5C1397.95 1050.56 1369.44 1051.72 1360.69 1045.04C1352.92 1039.11 1353.01 1036.03 1351.4 1027.37C1365.64 1031.81 1387.58 1033.4 1402.47 1031.46C1405.98 1030.78 1415.65 1030.11 1417.29 1026.67C1426.07 1008.09 1406.27 1004.19 1393.33 1000.08C1378.38 995.326 1357.36 990.866 1354.24 972.7C1350.17 949.009 1368.36 940.059 1388.64 936.858Z" fill="#F8A70F"/>
<path d="M1670.19 908.856C1676.25 908.183 1686.78 906.981 1691.97 909.997C1695.26 914.516 1693.82 1014.65 1693.65 1027.95C1709.54 1032.02 1718.8 1028.25 1734.44 1027.48C1738.62 1027.27 1740.12 1028.21 1742.65 1030.81C1744.11 1035.22 1741.29 1041.32 1739.43 1045.37C1728.52 1051.24 1681.05 1052.58 1671.6 1046.08C1669.91 1043.71 1668.66 1036.39 1668.73 1033.96C1669.1 1019.35 1666.13 913.716 1670.19 908.856Z" fill="#F8A70F"/>
<path d="M1954.34 938.63C1960.1 938.32 1974.36 936.787 1978.48 940.403C1978.18 955.808 1979.79 1037.69 1976.75 1047.04C1969.95 1049.46 1961.27 1048.82 1954.04 1048.61C1953.32 1033.84 1953.98 1013.62 1953.74 998.47C1953.51 984.235 1952.06 951.241 1954.34 938.63Z" fill="#F8A70F"/>
<path d="M1764.39 938.332C1772.44 938.155 1780.5 938.172 1788.57 938.382C1789.32 952.679 1790.48 1039.48 1787.45 1046.44C1779.47 1049.78 1773.18 1049.02 1764.67 1048.65C1763.37 1014.34 1764.47 973.354 1764.39 938.332Z" fill="#F8A70F"/>
<path d="M1963.83 888.154C1970.4 888.001 1977.56 890.952 1980.51 897.131C1982.17 900.584 1982.31 904.57 1980.91 908.133C1978.72 913.806 1975.68 915.142 1970.49 917.39C1947.66 918.658 1944.24 894.916 1963.83 888.154Z" fill="#F8A70F"/>
<path d="M1777.73 888.605C1795.65 890.43 1798.15 914.291 1777.16 917.764C1764.33 916.358 1756.55 907.932 1764.29 894.443C1766.76 890.143 1773.01 889.391 1777.73 888.605Z" fill="#F8A70F"/>
<path d="M510 511.922C544.777 512.328 579.556 512.442 614.335 512.264C660.449 512.211 705.652 505.484 740.936 541.919C760.529 562.12 771.2 589.326 770.563 617.45C770.07 645.326 761.596 667.996 741.599 687.848C703.922 725.252 649.959 715.08 600.264 716.576C600.426 747.405 600.352 778.234 600.043 809.062C571.342 809.064 538.339 809.875 510 808.93V511.922ZM600.942 648.257C623.211 647.897 655.156 651.68 672.38 639.872C676.806 634.712 681.9 628.7 682.781 621.621C688.644 574.464 631.751 580.548 600.455 581.902C600.395 602.161 599.602 628.483 600.942 648.257Z" fill="#211917"/>
<path d="M2176.84 510H2257.32C2257.42 529.676 2257.43 549.351 2257.34 569.027C2232.14 568.135 2202.28 568.87 2176.73 568.902L2176.84 510Z" fill="#211917"/>
</svg>
