<svg width="2890" height="1600" viewBox="0 0 2890 1600" fill="none" xmlns="http://www.w3.org/2000/svg">
<path d="M511.064 510.059C543.644 511.073 576.618 509.979 609.212 510.226C629.137 510.378 653.06 509.11 672.384 512.967C684.239 515.264 695.495 519.977 705.45 526.815C745.485 554.593 757.577 616.971 728.532 656.95C711.437 680.48 687.739 689.806 660.01 694.413C639.291 695.898 612.895 695.178 591.747 695.153C591.321 722.102 591.715 749.986 591.752 777.01L510.507 777.016C509.103 706.5 511.163 635.308 510.215 564.727C509.979 547.079 509.638 527.465 511.064 510.059ZM667.061 603.788C659.823 574.207 648.136 572.73 619.221 573.603C610.47 573.867 600.704 573.766 591.861 573.759C591.66 593.536 591.597 613.315 591.675 633.093C610.747 633.339 645.101 637.195 658.557 625.659C663.553 616.519 664.423 613.899 667.061 603.788Z" fill="black"/>
<path d="M1724.3 577.455C1781.65 571.737 1832.87 613.374 1838.98 670.682C1845.1 727.99 1803.82 779.491 1746.56 785.998C1688.72 792.568 1636.6 750.792 1630.44 692.922C1624.27 635.053 1666.4 583.226 1724.3 577.455ZM1741.92 631.679C1739.14 630.785 1730.99 630.738 1728.02 630.957C1696.78 645.823 1697.5 687.124 1708.41 716C1713.69 729.948 1726.63 736.132 1741.47 734.841C1745.38 732.619 1751.75 728.945 1754.58 725.555C1773.5 702.981 1775.69 642.511 1741.92 631.679Z" fill="black"/>
<path d="M829.086 582.831C850.797 579.485 883.413 583.855 904.52 589.647C979.818 610.305 931.362 728.939 954.824 775.426L955.604 776.943L885.107 776.858L880.423 758.548C848.163 787.106 807.79 795.256 771.109 769.424C757.478 756.188 746.228 730.458 752.51 712.257C769.188 663.928 833.36 674.437 870.49 656.183C875.413 653.763 876.329 650.724 877.454 646.134C875.483 639.995 872.161 636.942 867.18 633.209C844.23 615.992 833.878 633.862 822.893 651.086C815.483 656.025 770.476 653.075 760.288 651.527L758.776 649.47C753.783 606.356 793.014 587.605 829.086 582.831ZM875.922 693.632C857.152 699.336 797.784 709.71 829.121 738.539C850.327 744.579 871.242 741.028 877.695 716.077C879.168 710.377 880.373 698.846 877.534 693.842L875.922 693.632Z" fill="black"/>
<path d="M1278.96 582.828C1298.81 579.812 1342.56 584.046 1360.22 591.907C1423.78 620.206 1379.93 717.379 1403.65 777.089C1389.41 776.731 1346.34 778.725 1336.04 775.715C1331.42 771.62 1330.71 764.882 1329.3 758.713C1297.87 786.963 1255.39 795.796 1220.07 768.757C1199.01 748.807 1194.45 723.803 1209.62 697.365C1229.55 662.607 1309.28 674.339 1324.62 651.62C1330.43 630.962 1283.98 610.352 1272.63 653.877C1260.62 653.613 1214.22 656.155 1208.52 648.926C1205.18 604.895 1241.26 587.71 1278.96 582.828ZM1325.79 693.629C1307.56 698.928 1245.67 710.396 1279.1 738.856C1315.54 747.81 1328.87 730.34 1328.74 695.943C1326.93 693.966 1327.58 693.874 1325.79 693.629Z" fill="black"/>
<path d="M1983.08 579.288C2019.59 576.053 2055.68 595.843 2061.17 632.598C2067.82 677.161 2064.66 731.871 2064.43 777.001L1988.1 777.003C1988.29 742.578 1990.01 700.994 1987.4 666.637C1985.33 639.258 1963.39 629.238 1940.3 650.442C1926.75 672.115 1932.76 747.809 1932.94 776.895L1860.11 776.928L1860.21 587.209C1870.01 587.148 1920.74 586.267 1927.01 587.977C1930.57 593.298 1929.36 593.248 1929.41 600.854L1931.11 602.209C1949.42 596.456 1952.95 585.131 1983.08 579.288Z" fill="black"/>
<path d="M1099.02 579.162C1100.77 579.08 1102.52 579.023 1104.27 578.99C1178.26 577.64 1181.92 641.274 1179.52 696.865C1178.41 722.511 1179.42 750.977 1179.38 776.878L1103.06 776.942C1103.22 749.486 1109.64 664.775 1093.59 645.454C1090.36 641.566 1085.8 638.133 1080.55 638.036C1070.24 637.845 1060.65 645.595 1053.96 652.605C1044.35 669.959 1048.16 750.686 1048.28 777.015L975.432 777.047L975.67 587.152C995.075 587.31 1022.32 585.442 1040.69 587.769C1045.76 592.72 1041.68 594.367 1045.39 602.756C1051.26 602.468 1074.03 583.272 1099.02 579.162Z" fill="black"/>
<path d="M1437.63 888.664C1479.95 888.49 1540.72 884.672 1580.78 894.799C1624.11 905.754 1629.2 970.431 1582.75 990.923C1625 1007.01 1614.16 1045.62 1621.28 1084.21L1578.16 1084.08L1558.41 1084.03C1556.08 1026.62 1563.93 1015.62 1501.51 1016.48C1500.89 1038.43 1501.42 1061.91 1501.55 1083.97C1480.32 1084.19 1458.51 1083.91 1437.23 1083.86C1438.36 1019.39 1437.14 953.457 1437.63 888.664ZM1550.94 969.591C1578.47 933.718 1520.48 934.634 1501.48 934.968C1501.34 947.796 1500.99 961.179 1501.51 973.944C1518.29 974.115 1535.35 975.671 1550.94 969.591Z" fill="#006255"/>
<path d="M1180.95 888.605L1241.64 888.626L1241.57 1084.14L1180.97 1084.12C1161.41 1051.44 1134.8 1010.5 1113.25 979.138C1113.59 1014.14 1113.67 1049.14 1113.5 1084.14L1053.59 1083.98C1053.31 1018.87 1053.38 953.758 1053.79 888.647L1113.58 888.658L1181.27 993.105L1180.95 888.605Z" fill="#006255"/>
<path d="M1501.49 579.506C1525.19 577.756 1566.9 581.919 1585.25 597.198C1602.17 611.297 1603.91 621.943 1606.17 641.649L1539.77 641.896C1538.76 639.155 1537.68 636.262 1536.4 633.633C1529.03 618.496 1498.44 617.81 1493.35 635.211C1494.34 639.38 1496.04 643.312 1500.38 644.495C1533.43 653.499 1566.56 650.84 1594.56 674.775C1619.75 696.305 1619.67 731.541 1596.65 755.5C1575.43 777.575 1549.13 781.391 1520.2 782.107C1470.17 782.311 1425.02 768.516 1417.22 712.896C1439.02 712.238 1463.57 712.723 1485.58 712.683C1498.97 755.641 1540.7 741.988 1538.79 718.513C1537.25 715.933 1535.77 712.632 1532.56 711.762C1496.32 701.941 1427.07 697.12 1422.06 647.487C1420.76 633.044 1425.3 618.679 1434.66 607.605C1451.96 586.907 1476.13 581.493 1501.49 579.506Z" fill="black"/>
<path d="M1707.26 884.931C1765.11 879.034 1810.2 898.787 1819.23 960.556C1799.35 960.099 1779.48 959.975 1759.6 960.191C1735.77 913.125 1693.59 932.097 1689.26 985.556C1682.99 1063.09 1762.3 1047.88 1762.65 1021.2C1757.69 1019.15 1742.32 1020.1 1736.08 1020.19C1735.68 1006.31 1736.01 991.431 1736.1 977.454L1779.69 977.298L1822.81 977.489L1822.44 1084.04C1814.52 1084.11 1788.57 1085.24 1783.06 1082.75C1782.16 1077.61 1781.89 1073.83 1781.55 1068.7C1777.15 1068.88 1770.1 1074.01 1766.4 1076.67C1738.6 1096.66 1697.15 1092.6 1668.73 1074.87C1607.33 1036.57 1611.88 924.743 1678.39 893.516C1688.41 888.81 1696.58 887.015 1707.26 884.931Z" fill="#006255"/>
<path d="M875.588 890.25L1037.61 890.484L1037.91 936.416C1005.22 935.667 972.521 935.203 939.823 935.019L939.573 963.201C965.004 964.105 993.69 963.495 1019.36 963.485L1019.36 1009.82L942.789 1009.65L940.572 1010.97C938.595 1017.32 939.538 1032.19 939.684 1039.48L1037.61 1039.55C1037.55 1054.88 1037.82 1070.49 1037.94 1085.85L875.708 1086.01L875.588 890.25Z" fill="#006255"/>
<path d="M2268.99 581.117C2321.99 576.404 2370.22 600.169 2375.36 657.51L2311.39 657.821C2304.18 643.657 2293.38 624.547 2273.96 632.005C2244.19 643.438 2244.39 682.627 2254.22 707.653C2259.95 722.239 2276.89 737.948 2293.34 728.669C2304.81 722.211 2307.24 710.055 2310.51 698.388L2369.51 698.502C2373.47 698.342 2373.28 698.262 2376.87 699.826C2385.44 713.761 2373.19 735.234 2364.8 746.702C2334.22 790.326 2255.75 795.21 2216.47 760.693C2148.03 700.55 2173.9 591.897 2268.99 581.117Z" fill="black"/>
<path d="M1259.68 890.18L1421.3 890.199L1421.06 936.474C1388.5 935.638 1355.94 935.164 1323.37 935.047L1323.37 963.419C1349.72 963.795 1376.85 963.449 1403.27 963.433L1403.39 1009.72L1326.67 1009.58L1324.43 1010.7C1322.34 1017.3 1323.26 1031.9 1323.39 1039.42L1421.14 1039.51L1421.07 1085.93L1259.53 1085.97C1259.21 1020.7 1259.26 955.44 1259.68 890.18Z" fill="#006255"/>
<path d="M1945.76 888.363L2016.02 888.799C2001.01 916.093 1981.95 946.48 1965.86 973.57C1936.19 1021.9 1942.96 1027.22 1943.55 1084.17L1879.55 1084.08C1879.46 1066.84 1881.06 1029.19 1877.8 1014.65C1872.15 989.589 1812.66 908.577 1808.37 888.782C1831.25 888.511 1854.62 888.751 1877.54 888.74C1888.36 908.268 1902.27 934.859 1910.8 955.099C1921.92 936.831 1935.02 908.379 1945.76 888.363Z" fill="#006255"/>
<path d="M2087.75 586.859L2158.61 586.972L2158.7 776.794L2087.54 776.859L2087.75 586.859Z" fill="black"/>
<path d="M2087.96 510C2111.5 510.163 2135.06 510.198 2158.62 510.101L2158.56 560.026L2087.65 560.233C2087.49 543.488 2087.59 526.741 2087.96 510Z" fill="black"/>
</svg>
