<svg width="2204" height="1600" viewBox="0 0 2204 1600" fill="none" xmlns="http://www.w3.org/2000/svg">
<path d="M510.691 510.402C526.496 509.776 545.297 510.218 561.317 510.217L654.483 510.208L710.732 510.178C725.362 510.174 742.826 509.561 756.982 512.176C780.746 516.788 803.249 526.424 822.982 540.439C852.637 561.945 877.968 600.229 883.789 636.528C886.415 653.274 886.718 662.144 886.208 678.957C885.215 686.969 883.866 698.699 881.816 706.201C876.036 727.35 862.292 753.74 847.52 770.066C823.976 796.086 789.441 816.615 754.342 820.743C738.93 822.555 720.036 822.03 704.379 822.018L648.492 821.971C635.04 821.963 621.003 821.767 607.612 822.586C608.619 828.878 608.466 858.636 608.28 866.533C607.788 887.379 609.098 912.166 607.966 932.617C575.816 932.462 543.393 932.844 511.291 932.383C509.945 922.132 510.636 897.512 510.656 885.815L510.664 800.071L510.691 510.402ZM608.158 725.407C637.992 724.422 668.08 725.572 697.932 725.103C724.094 724.691 749.966 729.621 770.322 708.853C810.134 670.476 782.997 606.626 725.596 607.674C687.456 608.37 646.404 607.816 608.142 607.6L608.266 688.866C608.27 695.8 608.906 719.585 608.158 725.407Z" fill="#003796"/>
<path d="M912.605 510.007C943.563 510.907 978.069 510.26 1009.29 510.121L1009.21 579.663C1009.22 587.657 1009.75 609.073 1008.83 615.632C1037.9 616.566 1070.23 615.88 1099.51 615.895C1134.98 615.913 1172.12 616.44 1207.48 615.727C1207.44 580.254 1206.17 546.159 1207.52 510.289C1214.72 509.708 1231.24 510.183 1239.33 510.182L1303.59 510.209L1303.68 821.44C1302.24 822.633 1302.3 822.234 1299.96 822.279C1295.71 822.031 1290.89 822.012 1286.63 822.058C1260.31 822.346 1233.44 821.252 1207.17 822.494C1206.55 815.819 1206.88 796.387 1206.87 788.961L1207.42 712.732C1188.9 711.203 1164.93 712.423 1145.75 712.115C1100.66 711.39 1054.33 712.919 1009.35 712.245C1008.58 748.06 1009.14 786.335 1009.39 822.259C984.589 821.328 959.278 822.313 934.429 822.027C927.094 821.942 919.147 822.091 911.849 822.525L912.015 591.77C912.013 580.62 910.844 515.026 912.605 510.007Z" fill="#003796"/>
<path d="M1477.1 510.394C1482.83 509.849 1494.67 510.192 1500.8 510.196L1546.27 510.217L1692.34 510.152C1692.9 519.229 1692.49 532.726 1692.5 542.074C1692.44 563.88 1692.52 585.686 1692.73 607.491C1642.68 608.049 1591.88 607.626 1541.78 607.6L1502.5 607.589C1489.54 607.6 1478.96 606.817 1466.52 610.845C1425.43 624.146 1413.34 677.764 1443.84 707.902C1462.99 726.819 1480.16 725.609 1505.12 725.611L1540.51 725.602L1668.82 725.615C1675.9 725.629 1685.89 725.998 1692.63 725.241L1692.49 783.7C1692.49 795.555 1692.17 810.246 1693.1 821.838C1678.79 822.309 1662.94 821.996 1648.53 821.995L1568.92 821.985L1511.05 822.025C1489.56 822.051 1465.6 823.102 1444.91 817.565C1421.65 811.121 1401.59 800.014 1383.34 784.483C1311.49 723.316 1311.77 607.417 1384.5 547.142C1410.89 525.269 1442.69 512.234 1477.1 510.394Z" fill="#003796"/>
<path d="M1604.45 1033.21C1610.21 1032.37 1620.7 1035.96 1625.43 1039.62C1630.9 1043.62 1633.31 1049.07 1634.32 1055.67C1636.83 1072.11 1628.61 1086.4 1611.32 1088.72C1610.99 1088.84 1610.35 1089.09 1610.03 1089.12C1585.64 1091.35 1573.63 1064.4 1585.11 1045.12C1589.19 1038.27 1597.06 1035.01 1604.45 1033.21ZM1610.8 1079.74C1616.18 1077.34 1619.65 1074.44 1621.82 1068.73C1623.83 1063.37 1623.55 1057.42 1621.07 1052.26C1618.07 1045.95 1612.47 1042.25 1605.45 1042.42C1604.23 1042.92 1600.93 1044.23 1600.04 1044.98C1586.96 1056.05 1590.48 1081.46 1610.8 1079.74Z" fill="#003796"/>
<path d="M1297.19 1015.39C1307.78 1015.22 1324.32 1013.6 1332.17 1021.73C1345.67 1035.73 1336.42 1059.05 1316.62 1059.44C1311.9 1059.54 1307.12 1059.62 1302.33 1059.57C1302.92 1067.35 1302.78 1079.84 1302.55 1087.76C1299.44 1088.14 1296.15 1088.68 1293.05 1088.49C1291.55 1085.59 1291.23 1018.93 1292.33 1016.69C1294.32 1015.22 1294.32 1015.66 1297.19 1015.39ZM1303.03 1048.64C1307.6 1048.43 1315.75 1048.38 1319.72 1046.87C1323.83 1044.17 1324.1 1042.74 1325.73 1038.16C1322.05 1025.2 1317.2 1026.63 1304.97 1026.37L1303.4 1026.8C1301.87 1029.61 1303.35 1044.14 1303.03 1048.64Z" fill="#003796"/>
<path d="M510 1015.87L521.932 1015.09C521.784 1025.09 521.912 1035.09 522.314 1045.08C530.659 1044.2 546.249 1044.66 554.883 1044.79C554.291 1042.04 554.663 1021.37 554.249 1015.88C559.449 1015.32 561.965 1015.41 567.227 1015.68C565.54 1037.61 568.048 1062.19 566.937 1084.33C566.616 1090.74 555.662 1088.79 555.008 1086.18C553.566 1080.43 556.138 1059.93 554.043 1055.4L552.673 1055.57C544.902 1055.46 529.074 1055.64 521.947 1054.62L521.867 1080.31C521.829 1083.52 522.222 1085.42 520.465 1087.85C518.679 1088.69 514.629 1087.7 510.704 1088.19C510.338 1069.26 510.795 1050.26 510.599 1031.32C510.546 1026.16 510.602 1021.01 510 1015.87Z" fill="#003796"/>
<path d="M655.175 1033.27C659.738 1032.86 664.484 1033.89 668.631 1035.76C672.056 1037.3 676.632 1040.25 677.984 1043.96C679.964 1049.4 681.495 1082.59 679.084 1087.48C678.819 1088.01 677.678 1088.49 677.084 1088.62C673.677 1089.36 669.783 1086.25 667.103 1084.49C656.338 1090.36 647.875 1092.03 637.919 1083.36C636.951 1082.21 635.631 1079.7 635.331 1078.29C631.353 1059.63 644.495 1054.74 660.384 1054.49C663.354 1054.44 666.301 1054.32 667.827 1051.58C667.703 1050.15 667.307 1048.38 666.428 1047.22C659.459 1038.01 648.968 1043.27 641.445 1047.67C638.802 1036.11 645.528 1035.6 655.175 1033.27ZM649.555 1078.64C661.262 1082.16 670.011 1075.96 667.694 1063.53C667.387 1063.4 666.714 1063.05 666.451 1063.08C659.295 1063.34 644.793 1062.9 645.952 1073.37C646.252 1076.09 647.52 1077.06 649.555 1078.64Z" fill="#003796"/>
<path d="M1406.68 1033.29C1422.26 1032.04 1432.42 1044.81 1432.81 1059.31C1432.87 1061.44 1432.27 1062.29 1430.84 1063.69C1427.17 1064.61 1399.13 1064.46 1394.5 1063.92C1398.54 1079.68 1408.4 1083 1423.06 1077.51C1424.88 1076.95 1427.19 1075.99 1428.95 1076.41C1430.35 1080.13 1427.1 1087.59 1422.36 1088.08C1413.42 1089.01 1402.33 1090.19 1394.41 1084.94C1382.15 1076.82 1380.88 1055.22 1388.17 1043.39C1391.61 1037.8 1400.48 1034.61 1406.68 1033.29ZM1408.37 1055.93C1412.53 1055.83 1417.34 1055.85 1421.39 1055.25C1419.24 1048.81 1415.93 1041.82 1407.71 1042.51C1402.63 1043.45 1396.22 1048.04 1394.89 1053.09C1395.38 1055.08 1394.92 1054.41 1396.56 1055.6C1400.53 1055.94 1404.4 1055.83 1408.37 1055.93Z" fill="#003796"/>
<path d="M599.607 1033.85C609.475 1032.69 619.871 1036.57 623.383 1046.64C625.22 1051.91 625.658 1058.52 626.34 1064.12C617.626 1063.93 595.458 1064.8 588.81 1063.83C589.313 1065.47 589.852 1067.1 590.424 1068.72C595.335 1082.27 606.686 1081.22 617.919 1077.17C619.492 1076.55 619.789 1076.37 621.453 1076.55C626.571 1080.58 619.884 1087.46 614.897 1088.24C606.177 1089.74 597.373 1089.78 589.356 1085.28C576.442 1078.03 574.353 1057.17 581.215 1045.16C584.829 1038.83 592.479 1035.4 599.607 1033.85ZM589.091 1055.11C594.66 1055.32 602.698 1055.85 608.06 1055.37C610.841 1055.07 613.048 1054.94 615.831 1054.83C613.216 1049.68 612.001 1047.55 608.067 1043.16C604.734 1042.96 601.385 1042.63 598.073 1043.01C593.312 1047.46 592.203 1049.35 589.091 1055.11Z" fill="#003796"/>
<path d="M1201.18 1009.6C1204.31 1009.01 1208.36 1009.22 1211.6 1009.25C1212.33 1017.59 1212.07 1030.87 1211.86 1039.45C1221.14 1034.5 1230.34 1028.87 1240.39 1037.17C1243.37 1039.66 1245.54 1042.96 1246.65 1046.67C1248.58 1053.23 1247.96 1077.84 1248.88 1087.36C1243.99 1088.18 1241.58 1088.11 1236.58 1088.02C1236.32 1079.52 1237.04 1070.38 1236.8 1061.27C1236.31 1055.76 1235.92 1052.15 1234.84 1046.76C1229.4 1040.63 1225.91 1042.98 1218.43 1043.7C1209.83 1053.3 1212.13 1074.93 1211.69 1088.19C1208.42 1087.96 1204.88 1088.64 1202.14 1086.95C1200.14 1083.56 1200.73 1018.1 1201.18 1009.6Z" fill="#003796"/>
<path d="M762.045 1009.37C764.654 1009.32 769.693 1008.78 771.52 1010.77C773.105 1015.4 772.897 1035.35 771.941 1040.38C784.622 1031.29 794.166 1031.03 805.78 1041.8C808.432 1048.99 809.908 1081.92 807.497 1087.35C805.738 1088.1 799.452 1088.74 797.901 1087.62C796.151 1083.57 797.369 1064.3 796.652 1057.36C796.745 1054.88 794.782 1044.97 792.76 1044.13C768.046 1033.83 772.656 1073.29 772.253 1087.88C769.386 1088.15 765.147 1088.8 762.491 1088.1C760.674 1085.28 760.972 1012.95 762.045 1009.37Z" fill="#003796"/>
<path d="M1657.14 1040.07C1666.28 1032.43 1679.82 1029.83 1687.99 1040.61C1695.2 1050.12 1692.55 1075.27 1692.45 1087.7C1689.3 1087.91 1685.16 1088.57 1682.36 1087.73C1679.08 1083.48 1684.17 1054.02 1677.48 1044.41C1668.16 1039.03 1659.76 1044.33 1657.54 1054.3C1655.43 1068.53 1657.13 1076.37 1655.88 1087.97C1651.58 1087.74 1650.27 1087.65 1645.94 1088.44C1645.42 1077.89 1645.23 1067.32 1645.34 1056.75C1645.36 1050.89 1645.66 1041.89 1645.07 1036.28C1648.82 1033.02 1653.09 1034.42 1655.83 1038.17C1656.29 1038.79 1656.72 1039.42 1657.14 1040.07Z" fill="#003796"/>
<path d="M1528.14 1033.28C1534.3 1032.34 1548.96 1033.73 1543.33 1043.52C1539.74 1045.26 1528.52 1039.81 1523.78 1045.46C1522.92 1047.54 1523.15 1048.13 1523.54 1050.34C1525.37 1053.3 1539.07 1058.91 1543.67 1061.83C1544.23 1063.07 1544.78 1064.34 1545.25 1065.61C1549.56 1077.32 1542.23 1090.24 1528.86 1089.02C1521.37 1089.19 1509.74 1089.51 1512.87 1078.46C1513.16 1078.17 1513.52 1077.83 1513.92 1077.44C1518.94 1078.2 1524.07 1080.11 1529.17 1079.39C1531.43 1079.13 1533.55 1078.82 1535.05 1076.96C1536.56 1074.96 1533.66 1070.26 1532.15 1069.13C1528.73 1066.56 1524.56 1064.81 1520.98 1062.44C1518.71 1060.94 1516.53 1059.41 1514.33 1057.82C1510.97 1050.69 1511.93 1048.53 1513.88 1040.99C1518.31 1037.15 1522.51 1034.72 1528.14 1033.28Z" fill="#003796"/>
<path d="M733.611 1019.87C734.007 1019.82 735.146 1019.91 735.608 1019.93C737.55 1021.8 737.164 1032.54 737.24 1035.76C741.527 1035.39 749.615 1034.02 751.682 1039.17C750.323 1044.68 741.186 1043.21 737.053 1042.92C736.732 1055.31 736.627 1065.21 737.192 1077.59C744.066 1079.7 744.589 1080.05 751.51 1078.45C751.131 1082.21 751.334 1086.1 748.587 1088.54C746.408 1089.58 745.913 1089.35 743.529 1088.81C719.941 1093.54 725.977 1057.09 725.534 1042.75C721.379 1043.5 714.506 1044.93 712.748 1039.68C712.468 1033.28 721.702 1034.83 726.09 1034.84C725.983 1026.25 724.16 1021.76 733.611 1019.87Z" fill="#003796"/>
<path d="M843.521 1033.31C848.601 1032.8 850.818 1033.65 855.671 1035.01C857.153 1037.87 858.626 1039.48 856.932 1042.47C854.017 1044.28 846.667 1042.13 842.077 1043.05C831.062 1045.27 829.131 1057.83 830.659 1067.25C831.515 1072.52 835.383 1076.79 840.038 1079.72C841.598 1079.76 845.461 1079.89 846.874 1079.7C850.142 1079.27 853.439 1077.51 857.022 1078.54C858.535 1080.4 858.064 1080.66 858.292 1083.55C858.042 1085.87 857.61 1087.82 854.837 1088.28C846.136 1089.71 837.454 1089.88 829.745 1084.8C823.87 1080.91 819.812 1074.82 818.488 1067.9C814.823 1048.82 824.781 1036.54 843.521 1033.31Z" fill="#003796"/>
<path d="M1464.56 1033.89C1469.41 1033.15 1480.19 1034.43 1479.55 1040.99C1476.95 1045.18 1469.95 1042.36 1465.9 1042.54C1463.59 1042.64 1461.95 1043.13 1459.74 1043.74C1456.61 1046.57 1454.26 1050.15 1452.9 1054.14C1450.99 1059.73 1451.1 1067 1453.9 1072.23C1461.03 1085.53 1473.88 1077.04 1478.59 1078.53C1479.59 1080.15 1479.24 1080.65 1479.3 1082.86C1479.18 1084.53 1478.89 1087.83 1476.71 1088.12C1467.7 1089.23 1459.62 1090.07 1451.48 1084.78C1438.28 1076.2 1435.58 1057.81 1443.8 1044.94C1448.2 1038.05 1456.77 1035.27 1464.56 1033.89Z" fill="#003796"/>
<path d="M697.972 1009.45L705.298 1009.48C706.498 1020.17 705.319 1041.38 705.663 1052.93C705.846 1059.1 705.995 1082.6 705.297 1087.04C703.838 1088.16 703.858 1087.77 701.577 1087.78C698.839 1088.38 697.303 1089.07 695.053 1087.17C692.97 1070.85 695.094 1029.92 694.903 1011.91C694.891 1010.73 696.85 1010.03 697.972 1009.45Z" fill="#01318F"/>
<path d="M1370.74 1033.25C1372.47 1033.12 1374.89 1032.85 1376.1 1033.64C1377.4 1034.51 1378.98 1037.51 1378.82 1038.66C1377.39 1048.72 1366.67 1036.97 1360.57 1052.65C1356.92 1062.04 1359.89 1084.38 1357.1 1087.73C1355.23 1088.78 1352.55 1088.25 1350.32 1088.05L1348.36 1087.47C1346.61 1085.04 1346.79 1040.66 1347.47 1035.02C1349.32 1035.2 1351.93 1034.82 1353.9 1034.79C1356.93 1034.74 1356.35 1036.17 1358.8 1038.5C1361.31 1038.23 1365.13 1034.62 1370.74 1033.25Z" fill="#003796"/>
<path d="M947.366 1033.33C949.98 1033.1 951.19 1032.6 953.06 1034.53C956.173 1045.56 949.637 1042.02 941.874 1044.67C928.759 1059.07 939.649 1082.57 932.242 1088.42C930.218 1089.24 929.277 1088.9 927.124 1088.51C926.105 1088.23 925.961 1087.96 925.245 1087.2C924.038 1083.25 923.592 1040.63 924.553 1035.69C926.222 1034.54 929.693 1034.68 931.876 1034.58C932.98 1036.31 934.225 1037.79 935.507 1039.39C939.912 1035.95 941.688 1034.26 947.366 1033.33Z" fill="#003796"/>
<path d="M1498.28 1034.52C1499.51 1034.33 1499.62 1034.4 1500.85 1034.72C1501.78 1037.05 1501.75 1086.06 1500.05 1087.95C1498.18 1088.88 1496.2 1087.98 1493.63 1087.82L1491.29 1088.55L1490.18 1087.87C1488.73 1083.6 1489.37 1042.74 1489.41 1035.05C1492.57 1035 1495.16 1034.8 1498.28 1034.52Z" fill="#003796"/>
<path d="M1558.91 1034.12C1561.63 1034.29 1566.31 1034.23 1568.1 1036.07C1568.91 1041.2 1568.77 1083.89 1567.62 1088.35C1564.32 1087.55 1561.74 1088.03 1558.5 1088.6C1557.73 1078.61 1556.93 1043.15 1558.91 1034.12Z" fill="#003796"/>
<path d="M1133.82 1012.86C1137.81 1012.69 1142.19 1012.83 1146.21 1012.88C1146.47 1016.28 1147.06 1021.19 1145.64 1024.21C1134.94 1026.35 1131.7 1025.16 1133.82 1012.86Z" fill="#003796"/>
<path d="M1489.99 1012.91C1493.85 1012.77 1498.08 1012.84 1501.97 1012.82C1501.88 1016.01 1502.84 1022.43 1500.66 1024.41C1497.07 1024.49 1493.21 1024.77 1489.6 1024.96C1489.24 1021.59 1488.22 1015.61 1489.99 1012.91Z" fill="#003796"/>
<path d="M1558.17 1012.65C1560.89 1012.49 1566.44 1012.81 1569.38 1012.9C1569.41 1013.98 1569.44 1015.07 1569.47 1016.15C1569.53 1018.92 1569.95 1022.32 1567.97 1024.39C1566.18 1024.76 1563.26 1025.45 1561.54 1025.26C1556.12 1024.65 1557.21 1016.3 1558.17 1012.65Z" fill="#003796"/>
<path d="M1064.87 1076.65C1066.35 1069.65 1073.09 1041.39 1078.76 1035.46C1079.3 1034.9 1086.99 1034.69 1089.2 1034.23C1092.85 1045.01 1098.74 1066.03 1103.01 1075.34C1104.56 1068.2 1110.96 1040.8 1114.92 1036C1117.65 1034.32 1121.61 1034.9 1124.88 1035.05C1123.44 1042.5 1110.87 1082.18 1107.13 1087.67C1093.56 1094.33 1090.57 1071.05 1087.92 1061.99C1086.07 1056.91 1084.56 1051.28 1083.05 1046.05C1082 1049.96 1080.59 1055.92 1079.01 1059.45L1076.96 1066.12L1074.34 1075.62C1073.23 1079.8 1072.18 1083.48 1070.84 1087.6C1065.9 1088.21 1063.65 1088.28 1058.66 1088.15C1056.79 1084.48 1053.19 1071.74 1051.5 1066.82C1049.52 1061.05 1047.61 1055.37 1045.39 1049.69L1045.09 1048.05C1043.8 1045.42 1042.02 1038.41 1041.36 1035.46L1041.46 1034.89C1043.09 1034.4 1048.3 1034.86 1051.76 1034.29C1058.42 1048.27 1060.33 1061.94 1064.87 1076.65Z" fill="#003796"/>
<path d="M871.467 1040.17C882.101 1031.46 899.709 1031.46 909.094 1042.22C910.31 1049.54 912.441 1081.36 910.108 1087.71C906.033 1091.43 902.132 1085.28 899.526 1084.74C899.706 1084.78 887.394 1089.44 886.756 1089.99H885.353C882.905 1088.64 880.933 1088.66 878.269 1087.96C874.339 1086.92 871.92 1085.47 868.525 1083.29C863.178 1071.51 863.977 1063.31 875.478 1057.67C884.267 1053.37 893.382 1056.27 899.932 1054.09C901.337 1050.37 898.119 1044.41 894.189 1043.24C887.244 1041.16 880.533 1043.57 874.144 1046.22C873.762 1045.97 873.429 1045.76 873.144 1045.57C872.328 1043.54 872.003 1042.31 871.467 1040.17ZM885.777 1079.79C892.259 1079.86 894.001 1078.26 898.763 1073.99C899.91 1069.71 900.383 1066.98 900.427 1062.46L893.684 1062.92C888.322 1063.69 881.916 1064.24 878.569 1068.99C874.143 1075.28 881.486 1078.21 885.777 1079.79Z" fill="#003796"/>
<path d="M962.511 1048.13C964.43 1041.96 967.501 1039.72 973.075 1036.45C984.43 1029.79 999.193 1033.75 1005.18 1045.6C1008.15 1051.48 1008.68 1057.97 1009.13 1064.51C997.343 1062.93 982.674 1065.01 970.7 1064.07C972.02 1068.09 975.209 1077.25 979.789 1078.26C986.294 1080.91 996.909 1079.91 1002.67 1075.75C1007.92 1079.45 1003.21 1087.67 995.745 1088.65C983.04 1090.32 964.185 1087.31 961.882 1072.18C958.972 1063.83 959.316 1056.27 962.511 1048.13ZM970.636 1055.1C975.499 1055.51 980.374 1055.76 985.253 1055.86C989.349 1055.64 993.441 1055.32 997.523 1054.91C995.193 1049.63 991.96 1041.58 984.647 1042.6C982.547 1042.93 980.057 1043.26 978.05 1043.83C974.272 1047.9 972.978 1049.97 970.636 1055.1Z" fill="#003796"/>
<path d="M962.511 1048.13C962.718 1051.31 962.352 1069.62 961.882 1072.17C958.972 1063.82 959.316 1056.27 962.511 1048.13Z" fill="#003796"/>
<path d="M1172.01 1020.11C1174.38 1019.91 1174.51 1019.47 1176.02 1020.54C1177.12 1024.3 1176.06 1030.09 1176.23 1035.02C1180.48 1035.02 1190.54 1034.1 1191.06 1040.16C1188.81 1044.35 1180.26 1043.65 1176.21 1043.18C1176.13 1054.5 1175.81 1065.48 1177.04 1076.76C1183.22 1081.18 1184.69 1080.08 1191.67 1078.08C1191.45 1079.88 1190.99 1085.24 1190.18 1086.63C1189.05 1088.56 1185.27 1088.31 1183.53 1090H1180.13C1177.73 1088.29 1171.49 1088.19 1169.5 1085.72C1163.88 1078.82 1165.9 1052.56 1165.47 1042.77C1161.57 1043.76 1158.43 1043.55 1154.5 1043.35C1149.77 1033.8 1160.23 1034.62 1165.97 1034.67C1166.37 1027.46 1163.7 1022.28 1172.01 1020.11Z" fill="#003796"/>
<path d="M1141.1 1034.24C1143.87 1035.19 1143.73 1034.68 1145.32 1036.64C1145.97 1039.2 1145.48 1041.32 1145.47 1043.91C1145.22 1058.43 1145.16 1072.96 1145.28 1087.48L1139.57 1088.4C1137.24 1087.85 1136.63 1087.98 1134.25 1088.27C1133.94 1077.2 1133.82 1066.12 1133.86 1055.04C1133.9 1049.83 1134.26 1039.87 1133.79 1035.04L1139.93 1034.31L1141.1 1034.24Z" fill="#003796"/>
<path d="M1079.01 1059.45C1080.59 1055.92 1082 1049.96 1083.05 1046.05C1084.56 1051.28 1086.07 1056.91 1087.92 1061.99C1083.4 1061.77 1082.13 1062.19 1079.01 1059.45Z" fill="#D3CAEB" fill-opacity="0.01"/>
</svg>
