<svg width="1600" height="1600" viewBox="0 0 1600 1600" fill="none" xmlns="http://www.w3.org/2000/svg">
<path d="M510 510H1090V1090H510V510Z" fill="#FEFEFE"/>
<path d="M1056.04 841.905V980.687C1056.04 1005.69 1055.71 1031.59 1056.16 1056.55L536.588 1056.52L536.673 538.396L1056.14 538.34L1056.04 841.905ZM706.992 552.523C691.621 553.539 666.394 552.772 650.346 552.762L551.497 552.688L550.851 763.906C550.822 792.246 551.191 821.588 550.67 849.813C569.747 850.197 588.83 850.342 607.911 850.25C616.215 850.247 630.091 850.604 638.016 849.978C637.906 878.313 638.376 908.263 637.642 936.445C633.002 936.578 627.834 936.839 623.243 936.638C621.822 916.168 622.898 884.844 622.79 863.379C599.166 863.368 574.001 862.963 550.494 863.407C549.558 922.273 550.71 981.824 550.199 1040.78C601.117 1042.83 655.407 1040.22 706.618 1041.2L706.998 743.341C680.426 743.788 649.393 744.093 622.847 743.59C623.394 716.332 621.756 684.735 623.176 657.909C627.912 657.923 632.647 658.008 637.381 658.164C637.375 666.361 636.236 723.499 638.044 726.501L637.879 727.917C639.09 728.68 648.804 728.411 650.799 728.416L678.326 728.483C685.859 728.528 693.152 729.148 700.648 729.412C704.05 729.532 707.39 729.417 708.103 725.799L707.338 725.244C706.776 719.711 707.049 710.721 707.065 704.848L707.128 670.03L706.992 552.523ZM719.935 552.456C719.157 552.753 718.049 552.941 717.997 553.889C715.625 598.554 717.663 643.836 717.052 688.637C716.98 693.938 718.058 698.67 717.896 703.703L717.521 699.489C716.467 712.551 717.733 722.395 717.624 735.224L716.983 816.09L717.635 903.005L717.771 984.663C717.78 999.162 717.599 1013.66 717.714 1028.16C717.736 1030.96 717.458 1039.22 719.736 1040.69C724.36 1042.02 753.776 1041.26 760.659 1041.26L870.627 1041.21C870.082 1015.19 870.741 986.836 870.763 960.659L871.199 805.187C851.605 806.306 824.167 805.667 803.904 805.759L803.411 911.705L841.321 912.05L841.332 926.04C824.976 926.734 805.77 926.316 789.189 926.329L789.133 758.367C789.128 726.229 788.312 689.648 789.404 657.818L803.389 658.028C804.126 701.542 803.502 747.325 803.429 790.976C825.709 791.024 847.991 790.948 870.271 790.754C871.51 712.473 870.625 630.938 870.412 552.523C860.593 553.133 845.911 552.776 835.946 552.773L774.066 552.728L738.869 552.796C734.045 552.807 724.232 553.088 719.935 552.456ZM1040.65 552.592C997.796 553.541 952.231 552.788 909.171 552.768L886.078 552.926C885.151 621.645 885.957 692.37 885.971 761.228L885.988 817.551C885.987 827.593 886.22 839.896 885.772 849.876C905.14 850.159 924.51 850.256 943.88 850.176C952.293 850.16 964.162 850.497 972.229 849.955L972.099 936.457C967.272 936.632 962.262 936.737 957.457 936.995C956.73 913.081 957.326 887.498 957.406 863.447C933.724 863.417 909.718 863.176 886.062 863.419L886.05 972.825C886.035 995.263 886.342 1018.64 885.58 1041C927.948 1041.37 970.318 1041.47 1012.69 1041.29L1040.53 1041.17L1040.51 743.352C1021.4 743.574 1002.28 743.639 983.155 743.539C975.878 743.542 963.823 743.197 956.783 743.726C956.695 715.813 956.038 685.634 956.925 657.943C961.809 658.107 966.696 658.215 971.583 658.271L971.589 728.393C991.745 729.537 1019.82 728.692 1040.61 728.71L1040.65 552.592Z" fill="#05076E"/>
</svg>
