<svg width="5005" height="1600" viewBox="0 0 5005 1600" fill="none" xmlns="http://www.w3.org/2000/svg">
<path d="M4020.25 520.436C4113.98 520.234 4237.32 510.461 4326.91 535.404C4451.57 570.116 4464.69 731.057 4360.79 799.533C4341.68 812.138 4328.36 819.287 4306.78 829.14C4360.56 906.517 4436.53 1002.5 4494.71 1078.69C4461.6 1078.34 4428.49 1078.47 4395.41 1079.07C4374.2 1067.61 4277.1 900.063 4220.03 863.684C4184.95 861.171 4145.77 862.176 4110.32 862.36C4110.04 934.493 4110.17 1006.63 4110.71 1078.76C4080.61 1078.46 4050.51 1078.55 4020.38 1079.02C4023.65 898.117 4021.68 701.859 4020.25 520.436ZM4319.07 605.351C4275.85 559.86 4168.76 571.455 4110.35 571.833C4110.29 645.609 4109.31 721.647 4110.45 795.238C4178.49 795.713 4250.96 800.352 4307.97 755.411C4350.63 714.507 4360.74 649.206 4319.07 605.351Z" fill="#00597D"/>
<path d="M1745.84 520.557L1796.02 520.451C1919.37 658.379 2046.26 795.862 2168.14 934.812L2167.78 520.493C2190.94 520.27 2214.57 520.586 2237.77 520.651C2235.94 702.426 2242.72 898.771 2236.97 1078.55L2188.17 1078.72L1815.32 666.415C1818.5 799.839 1815.92 944.377 1815.96 1078.64C1792.84 1078.5 1769.72 1078.7 1746.6 1079.24C1745.03 895.271 1750.52 703.513 1745.84 520.557Z" fill="#00597D"/>
<path d="M3668.11 517.722C3741.1 703.517 3819.33 892.279 3894.96 1077.23L3801.38 1077.3L3710.71 856.859L3672.76 856.794L3515.19 856.73L3425.84 1077.29L3358.97 1077.28L3582.29 517.625L3668.11 517.722ZM3530.44 820.484L3618.31 820.533L3697.08 820.414C3688.76 800.045 3616.81 619.321 3609.8 614.532L3530.44 820.484Z" fill="#00597D"/>
<path d="M1481.13 520.457L1552.82 520.566L1552.53 577.473L1552.68 743.555C1552.84 935.25 1549.46 1086.44 1308.58 1089.43C1047.14 1092.67 1049.96 937.911 1050.02 736.36L1050.14 520.467L1144.12 520.561C1142.63 612.946 1144.65 707.774 1143.77 799.127C1142.52 928.652 1157.45 1036.98 1315.94 1034.2C1498.73 1030.99 1481.7 863.157 1481.63 734.114L1481.13 520.457Z" fill="#00597D"/>
<path d="M726.864 510.469C796.676 506.938 845.505 526.493 902.345 565.24L876.188 611.134C835.387 575.918 782.971 557.091 729.086 558.302C677.562 559.692 614.727 585.322 618.118 645.571C622.801 728.716 737.428 746.79 798.315 773.074C830.531 786.979 858.305 798.862 884.363 822.576C944.343 870.953 933.682 970.186 885.826 1023.8C839.253 1075.98 757.968 1087.1 690.16 1089.98C624.121 1089.9 564.857 1071.02 510 1034.36C516.365 1016.75 521.31 997.859 526.413 979.793C587.793 1016.82 641.558 1041.56 716.12 1036.7C766.877 1039.81 847.996 986.075 836.712 925.24C818.583 827.5 640.44 827.985 574.606 764.92C514.149 707.006 516.741 637.879 563.791 577.873C600.689 530.815 671.896 515.079 726.864 510.469Z" fill="#00597D"/>
<path d="M2617.81 510.491C2686.24 506.441 2738.25 527.691 2793.84 565.669C2784.77 579.017 2775.12 596.692 2766.85 610.94C2725.44 577.746 2681.94 559.207 2628.55 558.409C2575.4 557.613 2506.5 580.336 2509.41 644.325C2513.38 731.794 2631.48 746.602 2694.56 775.219C2725.18 789.111 2751.99 800.364 2776.65 823.751C2834.39 873.695 2824.41 973.49 2774.42 1025.8C2724.82 1077.69 2644.81 1088.13 2575.68 1089.99C2511.22 1090.65 2454.47 1067.52 2400.33 1034.85C2405.91 1020.76 2412.75 995 2417.27 979.695C2477.21 1015.99 2530.8 1041.2 2602.8 1036.9C2664.17 1033.23 2731.61 997.699 2726.4 927.358C2720.7 850.442 2608.51 835.149 2552.35 811.547C2521.21 798.456 2491.21 787.47 2464.94 765.244C2407.18 719.66 2407.58 630.155 2455.61 576.992C2498.78 529.201 2555.95 515.627 2617.81 510.491Z" fill="#00597D"/>
<path d="M2885.83 520.551C3044.54 518.176 3210.77 520.211 3369.76 520.595C3368.33 536.593 3368.8 554.67 3368.8 570.881L3175.5 571.404L3175.45 882.179L3175.35 1079.26C3146.07 1077.91 3110.16 1078.52 3080.37 1078.32C3083.15 912.11 3080.42 738.056 3080.79 571.29L2885.55 570.894L2885.83 520.551Z" fill="#00597D"/>
</svg>
